<svg width="16" height="17" viewBox="0 0 16 17" fill="none" xmlns="http://www.w3.org/2000/svg">
<path d="M7.99395 5.5665V10.0465M7.99395 11.4865V11.8065M8.00039 3.1665L8.62739 3.20172L9.24651 3.30691L9.84995 3.48076L10.4301 3.72108L10.9798 4.02485L11.4919 4.38825L11.9602 4.80671L12.3786 5.27496L12.742 5.78712L13.0458 6.33676L13.2861 6.91694L13.46 7.52039L13.5652 8.1395L13.6004 8.7665L13.5652 9.39351L13.46 10.0126L13.2861 10.6161L13.0458 11.1963L12.742 11.7459L12.3786 12.258L11.9602 12.7263L11.4919 13.1448L10.9798 13.5082L10.4301 13.8119L9.84995 14.0523L9.24651 14.2261L8.62739 14.3313L8.00039 14.3665L7.37339 14.3313L6.75427 14.2261L6.15083 14.0523L5.57064 13.8119L5.02101 13.5082L4.50885 13.1448L4.04059 12.7263L3.62213 12.258L3.25874 11.7459L2.95496 11.1963L2.71464 10.6161L2.54079 10.0126L2.4356 9.39351L2.40039 8.7665L2.4356 8.1395L2.54079 7.52039L2.71464 6.91694L2.95496 6.33676L3.25874 5.78712L3.62213 5.27496L4.04059 4.80671L4.50885 4.38825L5.02101 4.02485L5.57064 3.72108L6.15083 3.48076L6.75427 3.30691L7.37339 3.20172L8.00039 3.1665Z" stroke="#333333" stroke-linecap="round" stroke-linejoin="round"/>
</svg>
