<svg width="26" height="26" viewBox="0 0 46 46" fill="none" xmlns="http://www.w3.org/2000/svg">
<path fill-rule="evenodd" clip-rule="evenodd" d="M3.83398 22.9999C3.83398 12.4145 12.4152 3.83325 23.0007 3.83325C33.5861 3.83325 42.1673 12.4145 42.1673 22.9999C42.1673 33.5854 33.5861 42.1666 23.0007 42.1666C12.4152 42.1666 3.83398 33.5854 3.83398 22.9999ZM23.0007 7.66659C14.5323 7.66659 7.66732 14.5316 7.66732 22.9999C7.66732 31.4683 14.5323 38.3333 23.0007 38.3333C31.469 38.3333 38.334 31.4683 38.334 22.9999C38.334 14.5316 31.469 7.66659 23.0007 7.66659Z" fill="#4A00E0"/>
<path fill-rule="evenodd" clip-rule="evenodd" d="M22.9993 13.4167C24.0579 13.4167 24.916 14.2749 24.916 15.3334V21.0834H30.666C31.7246 21.0834 32.5827 21.9415 32.5827 23.0001C32.5827 24.0586 31.7246 24.9167 30.666 24.9167H24.916V30.6667C24.916 31.7253 24.0579 32.5834 22.9993 32.5834C21.9408 32.5834 21.0827 31.7253 21.0827 30.6667V24.9167H15.3327C14.2741 24.9167 13.416 24.0586 13.416 23.0001C13.416 21.9415 14.2741 21.0834 15.3327 21.0834H21.0827V15.3334C21.0827 14.2749 21.9408 13.4167 22.9993 13.4167Z" fill="#4A00E0"/>
</svg>
