<svg width="10" height="14" viewBox="0 0 10 14" fill="none" xmlns="http://www.w3.org/2000/svg">
<path d="M1 5.34521C1 3.13608 2.79086 1.34521 5 1.34521C7.20914 1.34521 9 3.13608 9 5.34521V5.58614C9 6.47005 8.72382 7.33187 8.21006 8.05114L5.0079 12.5342C5.00403 12.5396 4.99597 12.5396 4.9921 12.5342L1.78994 8.05113C1.27618 7.33187 1 6.47005 1 5.58614V5.34521Z" stroke="#5A5A5A" stroke-linecap="round" stroke-linejoin="round"/>
<path d="M5.78183 3.74557C5.28776 3.50764 4.71224 3.50764 4.21817 3.74557C3.7241 3.9835 3.36527 4.43347 3.24324 4.96809C3.12122 5.50272 3.24928 6.06381 3.59119 6.49255C3.93309 6.92129 4.45163 7.171 5 7.171C5.54837 7.171 6.06691 6.92129 6.40881 6.49255C6.75072 6.06381 6.87878 5.50272 6.75676 4.96809C6.63474 4.43347 6.2759 3.9835 5.78183 3.74557Z" stroke="#5A5A5A" stroke-linecap="round" stroke-linejoin="round"/>
</svg>
