<svg width="101" height="44" viewBox="0 0 101 44" fill="none" xmlns="http://www.w3.org/2000/svg">
<mask id="mask0_875_6379" style="mask-type:alpha" maskUnits="userSpaceOnUse" x="0" y="0" width="101" height="44">
<rect width="101" height="44" fill="#D9D9D9"/>
</mask>
<g mask="url(#mask0_875_6379)">
<path d="M23.5089 22.9184C23.212 22.9184 22.9902 22.9184 22.7684 22.9184C21.9742 22.9263 21.6157 23.2756 21.6079 24.0904C21.5967 25.1981 21.6 26.3058 21.6079 27.4135C21.6079 28.3646 21.9372 28.6768 22.8939 28.6711H23.5112V29.3045C23.5112 31.2202 23.5112 33.1359 23.5112 35.0516C23.5112 36.0432 23.8327 36.4038 24.7972 36.3768C25.3248 36.3621 25.5265 36.4962 25.6766 37.063C26.4047 39.8092 28.2307 41.5334 30.9753 42.0326C33.6639 42.5239 35.9347 41.548 37.531 39.2774C38.0105 38.5945 38.3152 37.7651 38.5796 36.9627C38.7207 36.5289 38.8305 36.3745 39.3044 36.3756C47.2379 36.3929 55.1719 36.397 63.1062 36.388C63.2373 36.388 63.3672 36.388 63.4983 36.388C64.2757 36.352 64.5502 36.0162 64.6365 35.2341C64.7395 34.2909 64.8191 33.3184 65.1092 32.4282C65.7959 30.3108 67.4292 29.0757 69.4031 28.3105C72.2373 27.2118 74.8699 27.6693 77.2448 29.5862C77.7837 30.0223 78.3651 30.0234 78.7325 29.5862C79.1 29.1489 79.0361 28.6148 78.5085 28.1607C76.6578 26.556 74.5002 25.7942 72.0581 25.8303C71.834 25.8303 71.6167 25.8303 71.3602 25.8303V23.883H73.6746C74.8665 23.883 75.1522 23.5979 75.1522 22.3955C75.1522 21.7014 75.1522 21.0061 75.1522 20.3119C75.1432 19.4397 74.7893 19.0904 73.9278 19.087C73.0002 19.087 73.0002 19.087 72.6955 18.1776C71.601 14.8544 70.3139 11.6169 68.3803 8.68025C67.3027 7.04289 66.0693 5.55315 64.3475 4.55135C63.4061 3.98101 62.3298 3.6755 61.2309 3.66675C51.561 3.66675 41.8895 3.66675 32.2166 3.66675C29.8551 3.66675 27.9428 4.65164 26.2703 6.20899C24.9626 7.39671 24.0629 8.97086 23.7005 10.7053C23.5895 11.1978 23.5273 11.7002 23.5145 12.2051C23.4932 14.2335 23.5044 16.2619 23.5067 18.2903C23.5067 18.9281 23.6613 19.0904 24.2908 19.0915C29.5186 19.0915 34.7465 19.0915 39.9743 19.0915C40.577 19.0915 40.7383 18.9135 40.7383 18.2587C40.7383 15.6106 40.7383 12.9628 40.7383 10.3154C40.7383 9.5626 40.8268 9.4623 41.565 9.4623C44.5426 9.4623 47.5202 9.47808 50.4979 9.46906C51.021 9.46906 51.2339 9.66289 51.2339 10.1925C51.2256 16.7465 51.223 23.3004 51.226 29.8544C51.226 30.5012 51.114 30.5936 50.4654 30.5947C48.7872 30.6007 47.1099 30.6045 45.4332 30.606C44.6031 30.606 44.5662 30.5666 44.5662 29.7575C44.5662 28.856 44.6132 27.9544 44.5438 27.0529C44.508 26.6336 44.3427 26.236 44.071 25.9159C43.1345 24.9017 42.1431 23.9258 41.1505 22.959C41.0066 22.8297 40.8939 22.6692 40.8209 22.4895C40.7479 22.3099 40.7166 22.1159 40.7293 21.9222C40.7506 21.1007 40.6397 21.0061 39.8533 21.0061H24.3401C23.5884 21.0061 23.5078 21.0884 23.5055 21.8445C23.5078 22.1758 23.5089 22.5116 23.5089 22.9184ZM58.7395 19.087C57.1547 19.087 55.5696 19.087 53.9841 19.087C53.2828 19.087 53.1629 18.9743 53.1629 18.2768C53.1629 15.5824 53.1808 12.888 53.1629 10.1936C53.1629 9.65613 53.3567 9.46343 53.8832 9.46568C56.3747 9.47695 58.8657 9.47432 61.3564 9.45779C61.8045 9.45779 62.0375 9.64035 62.1518 10.0686C62.871 12.7641 63.607 15.4686 64.3273 18.1731C64.52 18.8898 64.3598 19.0904 63.6047 19.0915C61.9849 19.0915 60.3631 19.09 58.7395 19.087ZM63.9083 9.22228C63.9475 9.1017 63.961 8.9214 64.0517 8.80082C64.7698 7.85762 65.4733 7.85649 66.1578 8.78392C66.2026 8.84364 66.2384 8.909 66.2821 8.96986C67.874 11.1571 68.9707 13.6013 69.9565 16.1041C70.1021 16.4749 69.9968 16.7487 69.6204 16.9301C68.8049 17.3291 67.9994 17.746 67.1861 18.1494C66.6025 18.439 66.365 18.3252 66.1858 17.6739C65.7026 15.916 65.222 14.1573 64.744 12.3978C64.4684 11.3566 64.1973 10.3131 63.9083 9.22228ZM27.5003 36.423H36.7132C36.553 38.3894 34.4022 40.2048 32.1471 40.2149C29.7408 40.2262 27.842 38.4829 27.5026 36.4286L27.5003 36.423Z" fill="#4A00E0"/>
<path d="M72.7006 29.6741C71.8857 29.677 71.0793 29.8416 70.3277 30.1585C69.576 30.4754 68.8939 30.9382 68.3203 31.5206C67.7468 32.103 67.2931 32.7935 66.9851 33.5526C66.6772 34.3116 66.5211 35.1242 66.5259 35.944C66.5404 39.3461 69.387 42.1746 72.7903 42.1667C76.1644 42.1599 78.9975 39.2886 78.9606 35.8561C78.9214 32.2479 75.9225 29.5614 72.7006 29.6741ZM72.7343 31.5898C75.0868 31.5808 77.0774 33.5055 77.0394 35.8854C77.0024 38.244 75.3343 40.1822 72.7544 40.2025C70.3067 40.2217 68.5087 38.3612 68.4516 35.9057C68.3967 33.5449 70.3705 31.6044 72.7287 31.5954L72.7343 31.5898Z" fill="#4A00E0"/>
</g>
</svg>
