<svg width="24" height="24" viewBox="0 0 24 24" fill="none" xmlns="http://www.w3.org/2000/svg">
<path fill-rule="evenodd" clip-rule="evenodd" d="M12.9355 6.98755C13.1413 6.47503 13.7236 6.22636 14.2361 6.43213C15.015 6.74485 15.7196 7.21751 16.3045 7.81956C16.8893 8.42161 17.3413 9.13967 17.6312 9.92732C17.822 10.4456 17.5565 11.0204 17.0383 11.2112C16.52 11.402 15.9452 11.1365 15.7544 10.6183C15.5611 10.0932 15.2597 9.61445 14.8698 9.21308C14.48 8.81171 14.0102 8.49661 13.491 8.28813C12.9784 8.08236 12.7298 7.50007 12.9355 6.98755Z" fill="#333333"/>
<path fill-rule="evenodd" clip-rule="evenodd" d="M13.3644 3.04807C13.5073 2.5146 14.0557 2.19802 14.5891 2.34096C16.2847 2.79529 17.8308 3.68792 19.072 4.92915C20.3133 6.17039 21.2059 7.71648 21.6602 9.41203C21.8032 9.9455 21.4866 10.4938 20.9531 10.6368C20.4196 10.7797 19.8713 10.4631 19.7284 9.92967C19.3649 8.57323 18.6508 7.33635 17.6578 6.34337C16.6648 5.35038 15.428 4.63627 14.0715 4.27281C13.538 4.12987 13.2215 3.58154 13.3644 3.04807Z" fill="#333333"/>
<path fill-rule="evenodd" clip-rule="evenodd" d="M4.9684 5.21564C7.38659 4.40906 9.83024 5.92381 10.509 8.37626C10.9715 10.0474 10.5335 11.7997 9.46537 12.9996C9.68413 13.2829 9.92317 13.5553 10.1827 13.815C10.4409 14.0735 10.7117 14.3116 10.9932 14.5296C12.1927 13.4531 13.9503 13.0101 15.6263 13.4747C18.0782 14.1543 19.5902 16.5999 18.7848 19.0179C18.2565 20.6045 17.2712 21.5685 15.9571 21.8858C14.7361 22.1806 13.4197 21.8672 12.2585 21.3845C9.91998 20.4124 7.6108 18.4975 6.5562 17.4421C5.4767 16.3618 3.57009 14.0493 2.60677 11.7151C2.1284 10.556 1.82039 9.24444 2.1159 8.02904C2.43384 6.72145 3.3929 5.74111 4.9684 5.21564ZM8.58147 8.90974C8.16878 7.41865 6.79755 6.71385 5.60122 7.11288C4.54962 7.46362 4.18488 7.985 4.05928 8.50156C3.91127 9.11032 4.03998 9.9453 4.45551 10.9521C5.27998 12.9498 6.98986 15.0466 7.97094 16.0284C8.92827 16.9865 11.0228 18.7049 13.0263 19.5377C14.0361 19.9575 14.8752 20.0895 15.4877 19.9417C16.0071 19.8162 16.5332 19.4494 16.8873 18.386C17.2867 17.1868 16.5807 15.8146 15.0921 15.402C13.9842 15.0949 12.8451 15.4507 12.1672 16.1767C11.7295 16.6455 10.8951 16.9128 10.1851 16.4172C9.68559 16.0685 9.2112 15.6723 8.76793 15.2287C8.32396 14.7844 7.92757 14.3089 7.57884 13.8083C7.08641 13.1013 7.34917 12.2701 7.81458 11.8314C8.53521 11.152 8.88748 10.0154 8.58147 8.90974Z" fill="#333333"/>
</svg>
