<svg width="18" height="20" viewBox="0 0 12 13" fill="none" xmlns="http://www.w3.org/2000/svg">
<path d="M4.76164 9.56311C4.91367 9.65078 5.07082 9.72569 5.23162 9.78786H2.10039C1.85186 9.78786 1.65039 9.58662 1.65039 9.33838V3.94471C1.65039 3.69648 1.85186 3.49524 2.10039 3.49524H4.47052L4.79867 2.63896C4.84311 2.52301 4.95454 2.44643 5.07885 2.44643H7.8401C7.96441 2.44643 8.07584 2.52301 8.12027 2.63896L8.44842 3.49524H9.60039C9.84892 3.49524 10.0504 3.69648 10.0504 3.94471V9.33838C10.0504 9.58662 9.84892 9.78786 9.60039 9.78786H7.66916C7.82996 9.72569 7.98712 9.65078 8.13914 9.56311M4.76164 9.56311C3.71664 8.96049 3.07289 7.84679 3.07289 6.64154C3.07289 5.43629 3.71664 4.32259 4.76164 3.71997C5.80664 3.11734 7.09414 3.11735 8.13914 3.71997C9.18414 4.32259 9.82789 5.43629 9.82789 6.64154C9.82789 7.84679 9.18414 8.96049 8.13914 9.56311M4.76164 9.56311C5.80664 10.1657 7.09414 10.1657 8.13914 9.56311M5.46197 6.96198C5.42876 6.85989 5.41116 6.75187 5.41116 6.64136C5.41116 6.27058 5.6092 5.92797 5.93068 5.74258C6.09138 5.6499 6.27073 5.60356 6.45007 5.60353M3.58766 3.49523H2.41831L2.49795 3.13156C2.52808 2.99399 2.65004 2.89594 2.79103 2.89594H3.21495C3.35593 2.89594 3.47789 2.99399 3.50802 3.13156L3.58766 3.49523ZM7.62492 2.44647H5.28624L5.47007 2.02672C5.51784 1.91765 5.62573 1.84717 5.74492 1.84717H7.16624C7.28543 1.84717 7.39332 1.91765 7.44109 2.02672L7.62492 2.44647ZM4.37193 6.64155C4.37193 5.89985 4.76808 5.2145 5.41116 4.84366C6.05424 4.47281 6.84654 4.47281 7.48962 4.84366C8.1327 5.2145 8.52885 5.89985 8.52885 6.64155C8.52885 7.38324 8.1327 8.06859 7.48962 8.43944C6.84654 8.81028 6.05424 8.81028 5.41116 8.43944C4.76808 8.06859 4.37193 7.38324 4.37193 6.64155Z" stroke="#333333" stroke-width="0.5" stroke-linecap="round" stroke-linejoin="round"/>
</svg>
