<svg width="31" height="22" viewBox="0 0 31 22" fill="none" xmlns="http://www.w3.org/2000/svg">
<path d="M29.2916 22H2.2808C1.34999 22 0.595703 21.2457 0.595703 20.3149V1.6851C0.595703 0.754286 1.34999 0 2.2808 0H29.2916C30.2224 0 30.9767 0.754286 30.9767 1.6851V20.3149C30.9767 21.2457 30.2224 22 29.2916 22Z" fill="#F0C41B"/>
<path d="M30.9767 2.61914H0.595703V6.80962H30.9767V2.61914Z" fill="#806F5E"/>
<path d="M8.45294 10.4761H3.73865C3.44951 10.4761 3.21484 10.2414 3.21484 9.95228C3.21484 9.66313 3.44951 9.42847 3.73865 9.42847H8.45294C8.74208 9.42847 8.97675 9.66313 8.97675 9.95228C8.97675 10.2414 8.74208 10.4761 8.45294 10.4761Z" fill="#F9EAB0"/>
<path d="M15.2615 10.4761H10.5472C10.2581 10.4761 10.0234 10.2414 10.0234 9.95228C10.0234 9.66313 10.2581 9.42847 10.5472 9.42847H15.2615C15.5507 9.42847 15.7853 9.66313 15.7853 9.95228C15.7853 10.2414 15.5507 10.4761 15.2615 10.4761Z" fill="#F9EAB0"/>
<path d="M4.26246 13.0952H3.73865C3.44951 13.0952 3.21484 12.8606 3.21484 12.5714C3.21484 12.2823 3.44951 12.0476 3.73865 12.0476H4.26246C4.55161 12.0476 4.78627 12.2823 4.78627 12.5714C4.78627 12.8606 4.55161 13.0952 4.26246 13.0952Z" fill="#F9EAB0"/>
<path d="M7.40541 13.0952H6.35779C6.06865 13.0952 5.83398 12.8606 5.83398 12.5714C5.83398 12.2823 6.06865 12.0476 6.35779 12.0476H7.40541C7.69456 12.0476 7.92922 12.2823 7.92922 12.5714C7.92922 12.8606 7.69456 13.0952 7.40541 13.0952Z" fill="#F9EAB0"/>
<path d="M10.0242 13.0952H9.50037C9.21123 13.0952 8.97656 12.8606 8.97656 12.5714C8.97656 12.2823 9.21123 12.0476 9.50037 12.0476H10.0242C10.3133 12.0476 10.548 12.2823 10.548 12.5714C10.548 12.8606 10.3133 13.0952 10.0242 13.0952Z" fill="#F9EAB0"/>
<path d="M13.1671 13.0952H12.1195C11.8304 13.0952 11.5957 12.8606 11.5957 12.5714C11.5957 12.2823 11.8304 12.0476 12.1195 12.0476H13.1671C13.4563 12.0476 13.6909 12.2823 13.6909 12.5714C13.6909 12.8606 13.4563 13.0952 13.1671 13.0952Z" fill="#F9EAB0"/>
<path d="M15.2621 13.0953C15.1259 13.0953 14.9897 13.0377 14.8902 12.9434C14.7959 12.8438 14.7383 12.7129 14.7383 12.5715C14.7383 12.4353 14.7959 12.2991 14.8902 12.1996C15.084 12.0057 15.4349 12.0057 15.634 12.1996C15.7283 12.2991 15.7859 12.4353 15.7859 12.5715C15.7859 12.7077 15.7283 12.8438 15.634 12.9434C15.5345 13.0377 15.3983 13.0953 15.2621 13.0953Z" fill="#F9EAB0"/>
<path d="M24.69 16.2381C24.69 17.974 23.2831 19.3809 21.5472 19.3809C19.8112 19.3809 18.4043 17.974 18.4043 16.2381C18.4043 14.5022 19.8112 13.0952 21.5472 13.0952C23.2831 13.0952 24.69 14.5022 24.69 16.2381Z" fill="#DB2215"/>
<path d="M28.358 16.2381C28.358 17.974 26.951 19.3809 25.2151 19.3809C23.4792 19.3809 22.0723 17.974 22.0723 16.2381C22.0723 14.5022 23.4792 13.0952 25.2151 13.0952C26.951 13.0952 28.358 14.5022 28.358 16.2381Z" fill="#245EA9"/>
</svg>
