<svg width="15" height="17" viewBox="0 0 15 17" fill="none" xmlns="http://www.w3.org/2000/svg">
<path d="M0.280152 9.15275C0.169766 5.19517 3.32743 1.8026 7.22774 1.68873C11.2544 1.57115 14.6211 4.72546 14.7291 8.71646C14.8389 12.7922 11.7057 16.1737 7.72203 16.2776C6.76921 16.3052 5.82037 16.1426 4.93003 15.799C4.03969 15.4555 3.22541 14.9378 2.5339 14.2758C1.84239 13.6137 1.2873 12.8203 0.900536 11.9412C0.513769 11.062 0.302944 10.1144 0.280152 9.15275ZM7.51658 14.827C8.27966 14.8263 9.03504 14.673 9.73916 14.3762C10.4433 14.0794 11.0822 13.6448 11.6191 13.0976C12.1559 12.5503 12.5801 11.9012 12.8672 11.1878C13.1542 10.4743 13.2985 9.7105 13.2916 8.94048C13.28 5.71871 10.673 3.11829 7.46567 3.13191C4.28226 3.1449 1.70106 5.78803 1.71762 9.02093C1.72767 10.5656 2.34331 12.0435 3.42995 13.1314C4.51659 14.2194 5.98584 14.829 7.51658 14.827Z" fill="black"/>
<path d="M4.84578 1.24343C3.12253 1.87961 1.76048 2.95209 0.744927 4.4652C0.154974 4.03757 -0.151635 2.89824 0.0746564 2.02256C0.204502 1.49889 0.488437 1.02718 0.889078 0.669492C1.28972 0.311809 1.78827 0.0849319 2.31915 0.0187113C3.33593 -0.105679 4.39933 0.399929 4.84578 1.24343Z" fill="black"/>
<path d="M14.2737 4.47248C13.2869 2.97682 11.8463 1.84408 10.168 1.24392C10.5764 0.433835 11.6024 -0.0761126 12.6179 0.0111461C13.1348 0.0601439 13.6257 0.261986 14.0294 0.591369C14.433 0.920751 14.7314 1.36303 14.887 1.86277C15.1814 2.7991 14.9183 3.93717 14.2737 4.47248Z" fill="black"/>
<path d="M13.2251 16.0737C13.2268 16.2552 13.1752 16.433 13.0767 16.5849C12.9783 16.7367 12.8375 16.8556 12.672 16.9267C12.5066 16.9978 12.324 17.0178 12.1474 16.9843C11.9707 16.9507 11.8078 16.865 11.6794 16.7381C11.5509 16.6111 11.4626 16.4486 11.4257 16.271C11.3887 16.0935 11.4047 15.9088 11.4717 15.7405C11.5387 15.5721 11.6536 15.4275 11.802 15.325C11.9503 15.2226 12.1254 15.1667 12.3052 15.1647C12.4249 15.1629 12.5438 15.185 12.655 15.2298C12.7661 15.2746 12.8674 15.3412 12.9529 15.4257C13.0384 15.5103 13.1066 15.611 13.1533 15.7223C13.2 15.8335 13.2244 15.9529 13.2251 16.0737Z" fill="black"/>
<path d="M3.60221 16.1153C3.59544 16.2964 3.53565 16.4714 3.43039 16.6183C3.32512 16.7651 3.17912 16.8772 3.01078 16.9404C2.84244 17.0035 2.65933 17.0149 2.48457 16.9732C2.30981 16.9314 2.1512 16.8383 2.02882 16.7057C1.90644 16.573 1.82575 16.4068 1.79693 16.2279C1.76812 16.049 1.79247 15.8655 1.86691 15.7005C1.94136 15.5356 2.06257 15.3966 2.21522 15.3012C2.36788 15.2057 2.54514 15.158 2.72463 15.1641C2.8444 15.1676 2.96229 15.1951 3.07145 15.2449C3.1806 15.2948 3.27885 15.366 3.3605 15.4545C3.44214 15.543 3.50556 15.647 3.54705 15.7604C3.58854 15.8739 3.60729 15.9945 3.60221 16.1153Z" fill="black"/>
<path d="M6.78703 6.43453C6.78703 5.94997 6.78703 5.46541 6.78703 4.98084C6.78703 4.42387 7.06117 4.0996 7.5156 4.10455C7.95469 4.10888 8.22513 4.43378 8.22635 4.96661C8.22635 5.91532 8.23065 6.86402 8.22635 7.81335C8.22635 8.26078 8.44836 8.60548 8.76909 8.85303C9.54793 9.45332 10.3586 10.0115 11.1534 10.592C11.622 10.9349 11.633 11.5382 11.1835 11.8297C10.9204 12.0024 10.6315 11.9869 10.328 11.7678C9.59576 11.2418 8.8715 10.7046 8.13191 10.1885C7.99206 10.0991 7.8281 10.0558 7.66277 10.0647C7.18995 10.0932 6.81585 9.94592 6.57361 9.52757C6.33138 9.10923 6.38474 8.70449 6.64476 8.30595C6.7254 8.1804 6.77212 8.03576 6.78029 7.88637C6.79685 7.40428 6.78641 6.91972 6.78703 6.43453Z" fill="black"/>
</svg>
