<svg width="26" height="26" viewBox="0 0 26 26" fill="none" xmlns="http://www.w3.org/2000/svg">
<path d="M13.0033 25.4997C11.3629 25.5043 9.73763 25.185 8.22074 24.5602C6.70386 23.9353 5.32514 23.0171 4.16362 21.8583C3.0021 20.6994 2.0806 19.3227 1.45194 17.8069C0.823275 16.2912 0.499798 14.6663 0.500053 13.0252C0.480226 6.11365 6.06105 0.497867 12.9486 0.499756C19.8748 0.499756 25.5057 6.05887 25.5 12.8722C25.4896 19.9311 19.9843 25.4922 13.0033 25.4997ZM2.15608 12.8439C2.12304 18.8601 6.90511 23.8044 12.7966 23.8469C18.8617 23.8903 23.8175 19.0953 23.843 13.1546C23.8723 7.15633 19.0855 2.18657 13.246 2.15351C7.12793 2.11762 2.18818 6.87772 2.15514 12.8429L2.15608 12.8439Z" fill="#333333"/>
<path d="M8.89367 11.0906C9.97846 11.5103 11.0576 11.9433 12.1509 12.3393C12.3764 12.4217 12.6521 12.3743 12.9088 12.3743C13.0168 12.3743 13.1381 12.3014 13.2319 12.3307C13.8079 12.5098 14.274 12.2038 14.7534 11.9954C16.2011 11.3714 17.6474 10.7448 19.0926 10.1158C19.2339 10.0461 19.3911 10.015 19.5483 10.0258L15.6487 12.8632C15.3731 13.0461 15.1068 13.2427 14.851 13.4524C14.667 13.6125 14.5178 13.8085 14.4123 14.0284C14.3257 14.2282 14.1888 14.402 14.0148 14.5329C13.8408 14.6639 13.6358 14.7473 13.4199 14.7752C13.204 14.8031 12.9845 14.7744 12.783 14.692C12.5814 14.6096 12.4048 14.4763 12.2702 14.3051C11.9369 13.8941 11.5703 13.5114 11.1741 13.1606C10.4095 12.4804 9.6156 11.8343 8.83398 11.1711L8.89367 11.0906ZM13.2736 12.8054C13.1741 12.8008 13.0747 12.8167 12.9817 12.8522C12.8887 12.8877 12.804 12.942 12.7329 13.0117C12.6618 13.0814 12.6058 13.165 12.5684 13.2573C12.531 13.3496 12.5131 13.4486 12.5156 13.5481C12.5115 13.6472 12.5276 13.746 12.5631 13.8386C12.5985 13.9311 12.6524 14.0155 12.7216 14.0865C12.7908 14.1574 12.8738 14.2135 12.9654 14.2513C13.0571 14.289 13.1555 14.3077 13.2546 14.306C13.3535 14.3088 13.452 14.2917 13.5442 14.2556C13.6364 14.2195 13.7203 14.1652 13.791 14.096C13.8618 14.0268 13.9178 13.944 13.9559 13.8527C13.9939 13.7613 14.0132 13.6632 14.0125 13.5642C14.0157 13.4654 13.9989 13.3669 13.9632 13.2747C13.9274 13.1825 13.8734 13.0985 13.8044 13.0276C13.7355 12.9568 13.6529 12.9006 13.5617 12.8624C13.4704 12.8242 13.3725 12.8048 13.2736 12.8054Z" fill="#333333"/>
<path d="M19.929 8.83305L19.5469 8.3905L21.5254 7.64258L21.9278 8.06817L19.929 8.83305Z" fill="#333333"/>
<path d="M8.07697 21.9286L7.64258 21.5442L8.39496 19.5476L8.83305 19.9297L8.07697 21.9286Z" fill="#333333"/>
<path d="M7.64258 4.44453L8.08187 4.0708L8.83305 6.04963L8.40117 6.45175L7.64258 4.44453Z" fill="#333333"/>
<path d="M4.07227 8.07889L4.45476 7.64258L6.45322 8.39159L6.07073 8.83305L4.07227 8.07889Z" fill="#333333"/>
<path d="M19.9318 17.1665L21.9278 17.9195L21.5577 18.357L19.5469 17.6062L19.9318 17.1665Z" fill="#333333"/>
<path d="M17.599 19.5476L18.3565 21.5506L17.9176 21.9286C17.6606 21.2496 17.4215 20.6238 17.166 19.9527L17.599 19.5476Z" fill="#333333"/>
<path d="M18.3565 4.44399L17.603 6.45175L17.166 6.07062L17.9173 4.0708L18.3565 4.44399Z" fill="#333333"/>
<path d="M4.44642 18.357L4.07227 17.9172L6.05866 17.1665L6.45322 17.5974L4.44642 18.357Z" fill="#333333"/>
<path d="M20.7383 13.5948V12.4043H23.1192V13.5948H20.7383Z" fill="#333333"/>
<path d="M13.5863 23.1185H12.4062V20.7742L13.5967 20.7375L13.5863 23.1185Z" fill="#333333"/>
<path d="M12.4062 5.26157V2.88062H13.5967V5.26157H12.4062Z" fill="#333333"/>
<path d="M2.88086 12.4043H4.07134V13.5948H2.89863L2.88086 12.4043Z" fill="#333333"/>
</svg>
