<svg width="24" height="24" viewBox="0 0 24 24" fill="none" xmlns="http://www.w3.org/2000/svg">
<path fill-rule="evenodd" clip-rule="evenodd" d="M12.9355 6.9873C13.1413 6.47478 13.7236 6.22611 14.2361 6.43189C15.015 6.7446 15.7196 7.21726 16.3045 7.81932C16.8893 8.42137 17.3413 9.13942 17.6312 9.92707C17.822 10.4454 17.5565 11.0202 17.0383 11.211C16.52 11.4018 15.9452 11.1363 15.7544 10.618C15.5611 10.0929 15.2597 9.61421 14.8698 9.21284C14.48 8.81147 14.0102 8.49636 13.491 8.28788C12.9784 8.08211 12.7298 7.49982 12.9355 6.9873Z" fill="#4A00E0"/>
<path fill-rule="evenodd" clip-rule="evenodd" d="M13.3644 3.04783C13.5073 2.51436 14.0557 2.19778 14.5891 2.34072C16.2847 2.79504 17.8308 3.68768 19.072 4.92891C20.3133 6.17014 21.2059 7.71623 21.6602 9.41179C21.8032 9.94525 21.4866 10.4936 20.9531 10.6365C20.4196 10.7795 19.8713 10.4629 19.7284 9.92943C19.3649 8.57298 18.6508 7.33611 17.6578 6.34312C16.6648 5.35014 15.428 4.63603 14.0715 4.27257C13.538 4.12963 13.2215 3.58129 13.3644 3.04783Z" fill="#4A00E0"/>
<path fill-rule="evenodd" clip-rule="evenodd" d="M4.9684 5.21539C7.38659 4.40881 9.83024 5.92357 10.509 8.37601C10.9715 10.0472 10.5335 11.7995 9.46537 12.9994C9.68413 13.2827 9.92317 13.5551 10.1827 13.8148C10.4409 14.0732 10.7117 14.3114 10.9932 14.5294C12.1927 13.4528 13.9503 13.0099 15.6263 13.4744C18.0782 14.1541 19.5902 16.5996 18.7848 19.0177C18.2565 20.6043 17.2712 21.5682 15.9571 21.8855C14.7361 22.1804 13.4197 21.867 12.2585 21.3843C9.91998 20.4121 7.6108 18.4973 6.5562 17.4419C5.4767 16.3616 3.57009 14.049 2.60677 11.7149C2.1284 10.5558 1.82039 9.24419 2.1159 8.0288C2.43384 6.72121 3.3929 5.74087 4.9684 5.21539ZM8.58147 8.90949C8.16878 7.41841 6.79755 6.7136 5.60122 7.11264C4.54962 7.46337 4.18488 7.98476 4.05928 8.50132C3.91127 9.11007 4.03998 9.94505 4.45551 10.9519C5.27998 12.9496 6.98986 15.0464 7.97094 16.0282C8.92827 16.9862 11.0228 18.7047 13.0263 19.5375C14.0361 19.9573 14.8752 20.0893 15.4877 19.9414C16.0071 19.816 16.5332 19.4491 16.8873 18.3857C17.2867 17.1866 16.5807 15.8144 15.0921 15.4018C13.9842 15.0947 12.8451 15.4505 12.1672 16.1765C11.7295 16.6453 10.8951 16.9125 10.1851 16.417C9.68559 16.0683 9.2112 15.6721 8.76793 15.2285C8.32396 14.7842 7.92757 14.3086 7.57884 13.808C7.08641 13.1011 7.34917 12.2699 7.81458 11.8311C8.53521 11.1517 8.88748 10.0152 8.58147 8.90949Z" fill="#000"/>
</svg>
