<svg width="20" height="20" viewBox="0 0 20 20" fill="none" xmlns="http://www.w3.org/2000/svg">
<path d="M19.9999 10.0075C20.0009 15.4953 15.5644 19.9492 10.0956 19.9996C4.50397 20.0509 -0.0374181 15.508 0.000232428 9.93185C0.037722 4.4133 4.55272 -0.0575219 10.1108 0.000559575C15.5788 0.0578366 20.0086 4.51836 19.9999 10.0075ZM16.6253 16.5201C18.5534 14.6242 19.8646 11.4264 19.0754 7.93471C18.2985 4.49664 15.5882 1.72772 12.0804 0.929219C8.67835 0.154371 5.46148 1.34866 3.46939 3.37942C3.48709 3.39841 3.5043 3.4182 3.52281 3.4367C4.36077 4.27462 5.19825 5.11312 6.03525 5.95222C6.1017 6.01899 6.16751 6.04232 6.25939 6.04232C9.71025 6.04028 13.1611 6.03969 16.612 6.04055C16.845 6.04055 16.9499 6.14609 16.9499 6.38003V13.6191C16.9499 13.8536 16.8451 13.9591 16.612 13.9591H14.0648L16.6253 16.5201ZM16.1227 16.994C16.0949 16.977 16.0686 16.9579 16.0438 16.9369C15.0745 15.9685 14.1059 14.9994 13.1382 14.0296C13.116 14.0055 13.0889 13.9865 13.0586 13.9741C13.0284 13.9617 12.9958 13.9561 12.9631 13.9576C9.77204 13.9593 6.58086 13.9597 3.38958 13.9591C3.15644 13.9591 3.05169 13.8537 3.05169 13.6198C3.05169 11.2037 3.05169 8.78775 3.05169 6.37182C3.05169 6.14915 3.15982 6.04071 3.38202 6.04055C3.93433 6.04055 4.48676 6.04055 5.03928 6.04055H5.11265L2.97398 3.90312C-0.17579 7.46057 -0.194456 13.2525 3.70607 16.8435C7.46533 20.3043 12.8989 19.903 16.1227 16.994ZM8.23861 8.12521C9.246 7.18271 10.7704 7.22519 11.7235 8.09576C12.1951 8.52663 12.4765 9.06111 12.5488 9.6963C12.6392 10.4911 12.3977 11.1816 11.8616 11.7758C12.1512 12.0654 12.4374 12.3521 12.7256 12.6363C12.7449 12.6554 12.7827 12.6638 12.812 12.6638C13.4019 12.6654 13.9917 12.6638 14.5819 12.6663C14.6377 12.6663 14.6585 12.6491 14.6749 12.5954C14.8136 12.1449 15.1085 11.846 15.5599 11.7074C15.6216 11.6884 15.6358 11.6619 15.6356 11.6021C15.6338 10.5322 15.6338 9.46258 15.6356 8.39309C15.6356 8.33646 15.6216 8.31087 15.5637 8.29302C15.1156 8.15578 14.8196 7.86119 14.6788 7.41423C14.6588 7.35084 14.6329 7.33379 14.5684 7.33379C12.2227 7.33561 9.87684 7.33609 7.53081 7.33524H7.44345C7.71215 7.60199 7.97329 7.86183 8.23861 8.12521ZM11.3063 12.2168C11.3025 12.2173 11.2988 12.2183 11.2954 12.2199C11.2764 12.2298 11.2581 12.2408 11.2389 12.2506C10.4054 12.6805 9.56555 12.6924 8.74496 12.2364C7.49912 11.5446 7.06935 9.99765 7.75768 8.74914C7.7852 8.69926 7.78021 8.67304 7.74159 8.63394C7.32116 8.21643 6.90314 7.79635 6.48239 7.379C6.45382 7.35291 6.41695 7.33775 6.37829 7.3362C6.05923 7.33298 5.74016 7.3362 5.4211 7.33298C5.36639 7.33298 5.34387 7.34762 5.32697 7.40265C5.18763 7.85636 4.89029 8.15513 4.43575 8.29575C4.41355 8.30267 4.39199 8.31184 4.37026 8.31908C4.36914 8.33742 4.36753 8.35126 4.36753 8.36397C4.36753 9.44987 4.36705 10.5357 4.36608 11.6215C4.36608 11.6782 4.39231 11.691 4.438 11.705C4.88965 11.8437 5.1857 12.141 5.32536 12.5914C5.34306 12.6486 5.36543 12.666 5.42367 12.6659C7.50979 12.6645 9.59612 12.664 11.6827 12.6644C11.7049 12.6644 11.7269 12.6614 11.747 12.6599L11.3063 12.2168ZM11.3757 11.2775C11.8302 10.7488 11.9961 10.1486 11.7971 9.48087C11.5782 8.74624 11.0711 8.29543 10.3168 8.15594C9.71342 8.04428 9.18132 8.22029 8.72388 8.62654L11.3757 11.2775ZM6.70218 6.61091C6.78537 6.70197 6.84699 6.7718 6.98005 6.77083C9.60518 6.76579 12.2302 6.76456 14.8551 6.76713C15.0778 6.76713 15.1821 6.86495 15.193 7.08376C15.2133 7.46556 15.5114 7.7595 15.8961 7.77768C16.0968 7.78718 16.2001 7.89272 16.2002 8.09351C16.2002 9.36444 16.2002 10.6355 16.2002 11.9066C16.2002 12.1074 16.0968 12.2131 15.8961 12.2223C15.51 12.2401 15.2138 12.5326 15.193 12.9157C15.1811 13.1355 15.0775 13.233 14.8551 13.233H13.3329C13.4106 13.3456 13.4905 13.3981 13.6249 13.3969C14.5122 13.3899 15.3999 13.3934 16.2874 13.3934H16.3771V6.61091H6.70218ZM3.62256 13.3873H12.4881C12.4066 13.2969 12.3446 13.2285 12.212 13.2287C9.8527 13.234 7.49338 13.2353 5.13405 13.2325C4.92859 13.2325 4.81885 13.1294 4.80823 12.9278C4.78732 12.5283 4.49319 12.2401 4.09319 12.2199C4.02976 12.2158 3.96831 12.1962 3.91427 12.1628C3.8195 12.1027 3.79939 12.003 3.79955 11.8952C3.80073 10.6325 3.801 9.3698 3.80036 8.10703C3.80036 8.08836 3.80036 8.06954 3.80036 8.05072C3.80985 7.89594 3.91991 7.78685 4.07389 7.77865C4.50494 7.75612 4.7804 7.48535 4.80711 7.05786C4.81853 6.87638 4.93213 6.76826 5.11491 6.76826C5.33486 6.76826 5.55465 6.76826 5.77459 6.76826C5.7997 6.76826 5.82463 6.76536 5.8581 6.76343C5.77942 6.6603 5.70283 6.60254 5.56736 6.60415C4.95095 6.61316 4.33422 6.60801 3.71701 6.60801H3.62144L3.62256 13.3873ZM8.30313 9.22296C8.01625 9.76388 8.01898 10.7168 8.72952 11.376C9.41382 12.0107 10.3293 11.9494 10.7749 11.695L8.30313 9.22296Z" fill="black"/>
</svg>
