<svg width="46" height="55" viewBox="0 0 46 55" fill="none" xmlns="http://www.w3.org/2000/svg">
<path d="M44.6724 8.3343C45.0585 8.53449 45.3819 8.83785 45.6069 9.21088C45.8646 9.51687 45.917 9.86509 45.8706 10.259C45.3201 14.8902 44.7291 19.517 44.1854 24.149C44.1648 24.3214 44.1348 24.4895 44.1107 24.6601C43.9389 25.9031 43.0336 26.6038 41.7857 26.4616C41.558 26.4357 41.3304 26.4125 41.1037 26.3866C40.8082 26.353 40.7026 26.4771 40.6742 26.765C40.4844 28.419 40.2731 30.0705 40.073 31.7237C39.72 34.7025 39.3472 37.6788 38.9925 40.6576C38.496 44.8337 37.9721 49.0054 37.4877 53.1832C37.3468 54.3951 36.4261 55.132 35.2141 54.9803C30.1758 54.3502 25.1331 53.7547 20.0931 53.1358C16.331 52.6761 12.5687 52.2187 8.80616 51.7636C6.54809 51.4947 4.29258 51.199 2.0328 50.9499C1.63942 50.8448 1.19021 50.9094 0.87241 50.5707C0.14835 50.0682 -0.0818261 49.3821 0.0246786 48.5141C0.769066 42.4806 1.504 36.4442 2.22949 30.4049C2.84504 25.3075 3.45715 20.2097 4.06582 15.1117C4.60751 10.6112 5.15148 6.11138 5.69775 1.6121C5.83002 0.520031 6.70268 -0.11866 7.79178 0.0183873C10.9826 0.418324 14.176 0.801883 17.3686 1.19234L27.7588 2.45938C31.3777 2.89896 34.9963 3.33739 38.6145 3.77468C39.5937 3.89277 40.5729 4.00913 41.552 4.13238C42.2048 4.21858 42.6248 4.62455 42.9512 5.15894C43.2329 5.52526 43.1797 5.94675 43.1324 6.35876C43.086 6.75783 43.056 7.15862 42.9958 7.55597C42.9555 7.81455 43.0543 7.95419 43.3317 7.98694C43.645 8.01743 43.9564 8.0652 44.2645 8.13002C44.4139 8.16623 44.5728 8.19122 44.6724 8.3343Z" fill="#4A00E0"/>
<path d="M37.1207 36.2041C36.9377 39.8035 36.9274 43.4073 36.814 47.0084C36.8011 47.4109 36.7745 47.8126 36.7797 48.2151C36.7797 48.4522 36.7135 48.5392 36.4653 48.5254C36.023 48.5013 35.5789 48.5108 35.1357 48.5056C34.9639 48.6513 34.7638 48.6487 34.5654 48.6159C34.1543 48.5591 33.7389 48.5401 33.3243 48.559C31.494 48.5987 29.667 48.4797 27.8384 48.4504C25.7109 48.4168 23.5834 48.3505 21.4559 48.2875C19.0432 48.2169 16.628 48.1953 14.2162 48.1082C12.2793 48.0376 10.3322 48.097 8.40392 47.8264C7.53728 47.7988 6.67064 47.7583 5.804 47.7497C5.53173 47.7497 5.4407 47.6635 5.49481 47.4049C5.36769 47.2325 5.36168 47.0291 5.36941 46.8291C5.43641 45.0286 5.41149 43.2245 5.5283 41.4257C5.5283 41.4085 5.5283 41.3947 5.5283 41.3826C5.48363 39.2217 5.66316 37.0635 5.63052 34.9026C5.77396 32.9158 5.63052 30.9153 5.92684 28.9363C6.02304 25.2191 6.11865 21.5019 6.2137 17.7846C6.32822 13.2779 6.43731 8.77084 6.54095 4.26352C6.54868 3.89461 6.62685 3.77997 7.01679 3.80066C8.25791 3.86703 9.5016 3.9084 10.7453 3.86875C10.9059 3.78256 11.0794 3.82134 11.2486 3.81445C12.8857 3.75153 14.5168 3.96787 16.1538 3.90668C17.7497 4.03683 19.3524 3.92305 20.9491 4.05579C21.4748 4.09889 22.0047 4.07992 22.5244 4.19628C25.0358 4.26179 27.5476 4.32701 30.0596 4.39194C32.5289 4.45487 34.9974 4.52037 37.4677 4.5695C37.7786 4.57554 37.8894 4.64449 37.8713 4.97806C37.8258 5.8081 37.8207 6.639 37.8 7.4699C38.0388 7.93362 37.9289 8.42751 37.8997 8.90588C37.8765 9.27823 37.837 9.64886 37.8456 10.0264C37.8851 11.8485 37.7717 13.6689 37.7382 15.4902C37.6961 17.7984 37.6309 20.1067 37.5733 22.4141C37.5166 24.6939 37.4728 26.9737 37.3972 29.2526C37.3302 31.3006 37.3466 33.3528 37.1877 35.3982C37.1731 35.6637 37.1662 35.9361 37.1207 36.2041Z" fill="#FEFEFE"/>
<path d="M38.0667 30.516C38.095 30.9357 37.8949 31.3159 37.8494 31.7279C37.8339 31.8821 37.8752 32.0623 37.7901 32.2131C37.566 32.1735 37.6038 31.9864 37.5977 31.8408C37.5067 29.617 37.6244 27.3941 37.6888 25.1737C37.7403 23.3818 37.7 21.5864 37.8408 19.7979C37.9267 18.7015 37.9155 17.6017 37.9576 16.5044C37.9868 15.7347 37.9937 14.959 37.9903 14.1884C37.9808 12.193 38.1242 10.202 38.1071 8.20747C38.1071 7.99802 37.9422 7.76099 38.1517 7.56274C39.2803 7.73513 40.4081 7.91786 41.5393 8.0799C41.7901 8.1161 41.7497 8.25229 41.7231 8.41261C41.6401 8.90678 41.5559 9.40124 41.4705 9.89599C41.4912 11.4828 41.0626 13.0093 40.8221 14.559C40.1453 18.923 39.3997 23.2758 38.6972 27.6363C38.5589 28.4982 38.4309 29.3601 38.205 30.2091C38.1878 30.3222 38.14 30.4284 38.0667 30.516Z" fill="#F3FAFE"/>
<path d="M35.055 48.8555C34.9099 49.7932 34.7518 50.7284 34.6256 51.6688C34.5844 51.9817 34.5113 52.1136 34.1592 52.042C33.351 51.8774 32.535 51.7559 31.7225 51.6162C31.5326 51.7197 31.3351 51.6878 31.1358 51.6576C29.1449 51.3551 27.1574 51.0249 25.1707 50.6974C22.9032 50.3242 20.6271 50.0027 18.3742 49.545C16.6967 49.1382 14.9858 48.9348 13.2852 48.6607C13.0438 48.6219 12.7698 48.6607 12.5508 48.5021C12.61 48.2581 12.8085 48.3366 12.9639 48.3237C14.1063 48.2375 15.246 48.3349 16.3875 48.3633C17.6759 48.3943 18.9557 48.4262 20.2397 48.4874C21.4319 48.5443 22.6352 48.5555 23.8343 48.5486C26.6197 48.5314 29.4017 48.721 32.188 48.7365C32.9589 48.7264 33.7297 48.7606 34.4967 48.8391C34.6883 48.8624 34.8815 48.6253 35.055 48.8555Z" fill="#F3FAFE"/>
<path d="M3.9753 45.1387C3.94524 44.9421 3.76829 44.9663 3.64289 44.9223C2.96264 44.7017 2.28581 44.4715 1.59611 44.2845C1.26714 44.1983 1.2285 44.069 1.32642 43.757C2.4911 40.0219 3.64746 36.2837 4.79554 32.5424C4.97934 31.9468 5.16917 31.3521 5.35641 30.7573C5.58574 30.8237 5.53851 31.0237 5.54281 31.1805C5.5763 32.27 5.4569 33.3535 5.40193 34.4395C5.37359 35.0222 5.29201 35.6022 5.28599 36.1918C5.27998 36.7814 5.13482 37.3718 5.07127 37.9665C5.03605 38.2975 5.00941 38.6199 5.07812 38.9465C4.98536 40.0765 4.72511 41.1807 4.56278 42.3003C4.44339 43.1372 4.26217 43.9638 4.16511 44.8042C4.15309 44.9404 4.17371 45.1093 3.9753 45.1387Z" fill="#D9E4EB"/>
<path d="M41.9311 10.3211C42.6139 10.528 43.2951 10.7392 43.9796 10.9391C44.2527 11.0184 44.1436 11.1839 44.0947 11.3425C43.4711 13.3698 42.8481 15.3971 42.2257 17.4243C41.5506 19.6148 40.8741 21.8052 40.1961 23.9957C39.9968 24.6378 39.7916 25.2791 39.5889 25.9204C39.3054 25.8342 39.3535 25.6006 39.3673 25.3946C39.4042 24.8361 39.5064 24.2853 39.5889 23.7328C39.9685 21.1961 40.3808 18.6646 40.7793 16.1314C41.037 14.5041 41.2371 12.8673 41.56 11.2503C41.6056 11.0245 41.603 10.7935 41.6391 10.5676C41.6666 10.4142 41.6932 10.2306 41.9311 10.3211Z" fill="#D9E4EB"/>
<path d="M18.375 49.545C19.124 49.4847 19.8351 49.7174 20.5652 49.8225C21.9395 50.0242 23.3051 50.2595 24.6742 50.4862C25.6251 50.6431 26.5724 50.8155 27.5232 50.9663C28.9224 51.1896 30.3233 51.3973 31.7233 51.6162C31.4751 52.1497 31.3522 52.7255 31.177 53.2832C31.1143 53.484 31.0628 53.5918 30.7982 53.5073C26.6824 52.1954 22.5642 50.891 18.4437 49.5941C18.4185 49.5813 18.3953 49.5647 18.375 49.545Z" fill="#D9E4EB"/>
<path d="M38.1526 7.56291C38.1939 7.69565 38.3613 7.79908 38.2385 7.97319C38.2102 8.01112 38.2291 8.08525 38.2308 8.14558C38.2772 10.1522 38.1397 12.1561 38.1166 14.1619C38.1063 15.0238 38.0667 15.8961 38.1011 16.7546C38.1174 17.151 37.7799 17.5743 38.1329 17.9561C37.8872 18.9525 38.0702 19.9808 37.9147 20.9849C37.8875 21.2515 37.8783 21.5196 37.8872 21.7874C37.8554 23.8189 37.8632 25.8522 37.7799 27.8821C37.7309 29.0836 37.6785 30.2783 37.7799 31.4781C37.7996 31.7203 37.621 31.972 37.7962 32.2167C37.6158 33.5545 37.3959 34.8887 37.128 36.2075C37.0421 34.1139 37.2302 32.0237 37.2267 29.93C37.2267 29.3508 37.2843 28.7595 37.2817 28.1743C37.2757 26.5254 37.3521 24.8783 37.4002 23.232C37.4363 22.0141 37.3736 20.7927 37.4732 19.5808C37.566 18.4603 37.4604 17.3398 37.5591 16.2305C37.6579 15.1212 37.5488 14.0214 37.645 12.9241C37.7464 11.7174 37.651 10.5107 37.736 9.31522C37.7799 8.70066 37.7773 8.08611 37.8125 7.47241L38.1526 7.56291Z" fill="#DCE1E6"/>
<path d="M35.0543 48.8554C34.8061 49.0907 34.5236 48.9416 34.2496 48.9416C32.7087 48.9416 31.1669 48.8787 29.6295 48.8235C28.3798 48.7778 27.1266 48.8089 25.8743 48.6985C24.8299 48.6072 23.77 48.6813 22.717 48.6787C20.3644 48.671 18.0179 48.4701 15.6628 48.4848C14.8417 48.49 14.0197 48.3684 13.1969 48.5003C12.9838 48.5339 12.7674 48.2934 12.5509 48.5055C11.376 48.3227 10.1993 48.1452 9.02943 47.9504C8.82329 47.9159 8.59997 47.9444 8.41016 47.8289C10.2491 47.8358 12.0871 47.8737 13.9235 47.9823C13.9802 47.9823 14.0377 47.9823 14.0953 47.9866C16.2082 48.0168 18.322 48.015 20.4332 48.0857C22.6715 48.1598 24.9106 48.2038 27.149 48.2719C28.0749 48.3003 29.0033 48.2771 29.9275 48.3391C31.3396 48.4339 32.7525 48.4072 34.1654 48.4253C34.4909 48.4296 34.8164 48.4788 35.142 48.5115C35.111 48.6218 35.0827 48.7382 35.0543 48.8554Z" fill="#DCE1E6"/>
<path d="M41.9315 10.3211C41.7597 10.3461 41.7597 10.4684 41.7425 10.6055C41.5381 12.026 41.3277 13.4461 41.1112 14.866C40.8971 16.2721 40.6786 17.6765 40.4559 19.0791C40.3047 20.0342 40.1415 20.9875 39.9938 21.9433C39.81 23.1374 39.6331 24.3323 39.463 25.5281C39.4534 25.5988 39.4598 25.6708 39.4816 25.7386C39.5035 25.8065 39.5403 25.8686 39.5892 25.9203C39.1357 27.3971 38.6831 28.8733 38.2313 30.3489C38.2038 30.4351 38.1686 30.5066 38.0664 30.5161C38.2906 29.1965 38.5173 27.8777 38.7389 26.5573C39.0447 24.7282 39.3479 22.8992 39.6485 21.0702C39.9534 19.1981 40.2437 17.3243 40.5478 15.4521C40.8106 13.8334 41.0752 12.2156 41.3655 10.602C41.4076 10.3667 41.3053 10.109 41.4702 9.89526C41.405 10.278 41.7863 10.1719 41.9315 10.3211Z" fill="#BFC9D0"/>
<path d="M3.9744 45.1387C4.11182 44.5353 4.1728 43.913 4.28531 43.3019C4.55157 41.8504 4.75943 40.3886 4.99133 38.9302C4.98188 38.5906 4.83673 38.2234 5.18631 37.9553C5.37269 38.0346 5.35809 38.2044 5.35809 38.3587C5.35809 40.2455 5.30742 42.1314 5.23441 44.0173C5.17715 45.114 5.18346 46.2131 5.2533 47.309C4.88741 47.2599 4.52323 47.178 4.15562 47.1685C3.71414 47.1573 3.61108 46.9832 3.71501 46.5652C3.82838 46.1023 3.88937 45.6188 3.9744 45.1387Z" fill="#F1F7FC"/>
<path d="M13.8281 3.34781C13.9656 2.86857 14.1236 2.39451 14.2344 1.90924C14.3022 1.61188 14.4216 1.60239 14.6784 1.68514C16.3842 2.23505 18.0943 2.76772 19.8027 3.30729C20.0191 3.37625 20.2321 3.45382 20.4477 3.52708C20.391 3.8391 20.1497 3.89341 19.9023 3.87186C17.9569 3.73481 16.0046 3.69172 14.0712 3.41503C13.9859 3.41317 13.9024 3.39007 13.8281 3.34781Z" fill="#D8E3EA"/>
<path d="M5.24861 47.3125C5.0545 47.1616 4.93427 46.991 5.06912 46.7333C5.08496 46.6772 5.08789 46.6183 5.07769 46.5609C5.01929 44.7698 5.19709 42.983 5.17218 41.191C5.15844 40.2128 5.21941 39.2336 5.24689 38.2544C5.24689 38.1536 5.25806 38.051 5.161 37.9829C4.98922 37.6183 5.1155 37.2555 5.19709 36.9038C5.32593 36.3496 5.31991 35.7764 5.46936 35.2273C5.51402 35.0644 5.52862 34.8826 5.76654 34.8826C5.73734 37.0564 5.75709 39.2319 5.65918 41.4031C5.60936 42.5038 5.67378 43.6062 5.58188 44.7017C5.5063 45.6015 5.53894 46.5005 5.49599 47.3987L5.24861 47.3125Z" fill="#D9E4EB"/>
<path d="M13.8285 3.34799C14.0338 3.20577 14.2382 3.31524 14.4461 3.34799C15.5884 3.50572 16.7462 3.49452 17.8877 3.6307C18.5551 3.71086 19.2293 3.60054 19.8864 3.77292C20.1243 3.83584 20.2883 3.67639 20.4481 3.53158C21.155 3.71264 21.8505 3.9357 22.5309 4.19958C20.406 4.17976 18.2819 4.13407 16.1596 4.03754C15.396 3.95134 14.6342 3.85739 13.8766 3.73241C13.7323 3.70827 13.5468 3.75568 13.4961 3.54106C13.6601 3.56864 13.7589 3.48418 13.8285 3.34799Z" fill="#BFC9CF"/>
<path d="M5.76515 34.8878C5.46024 35.1576 5.5427 35.5429 5.48945 35.8799C5.37865 36.5815 5.18367 37.2702 5.15962 37.9856C5.04689 38.2889 4.98872 38.61 4.98784 38.9337C4.83409 38.7768 4.8822 38.5708 4.91312 38.4045C5.0411 37.7149 4.87962 36.9763 5.21374 36.3143C5.22576 36.2902 5.2438 36.2445 5.23349 36.235C4.85815 35.8678 5.34171 35.5041 5.26612 35.2334C5.14759 34.8068 5.30736 34.4577 5.31852 34.0793C5.34859 33.0234 5.474 31.971 5.41473 30.9134C5.40227 30.8593 5.38078 30.8078 5.35117 30.7609C5.54471 30.1523 5.73739 29.5438 5.92922 28.9353C5.90173 30.579 5.88541 32.2227 5.83731 33.8655C5.8313 34.2043 5.75656 34.5439 5.76515 34.8878Z" fill="#C1CAD1"/>
<path d="M13.4981 3.53694C14.3081 3.67571 15.1189 3.81707 15.9297 3.95325C16.0156 3.9679 16.1015 3.96015 16.1616 4.03341C14.4678 4.00583 12.7743 3.9771 11.0812 3.94722C10.9695 3.93319 10.8597 3.90659 10.7539 3.86792C10.8183 3.07494 10.8175 3.07839 11.5673 3.21113C12.2098 3.3249 12.8539 3.42834 13.4981 3.53694Z" fill="#DCE0E6"/>
<path d="M27.7943 13.0017C25.3824 12.9242 22.9681 12.8845 20.5571 12.7957C19.2455 12.7475 17.9297 12.8259 16.6207 12.6733C16.2634 12.6311 16.0049 12.5354 15.9834 12.1355C15.9654 11.7787 16.1947 11.5201 16.6199 11.552C18.0731 11.6623 19.5324 11.552 20.9849 11.6864C21.0561 11.6933 21.1274 11.6959 21.1987 11.6976C23.0273 11.7321 24.8559 11.7623 26.6846 11.8019C27.3974 11.8174 28.1112 11.8485 28.8232 11.8821C29.1934 11.9002 29.5018 12.1941 29.4606 12.501C29.4116 12.8578 29.1702 13.0035 28.8241 13.0026C28.4779 13.0017 28.1378 13.0017 27.7943 13.0017Z" fill="#9DC8DD"/>
<path d="M19.4291 21.9527C18.3984 22.0191 17.3763 21.857 16.3474 21.8725C15.9987 21.8777 15.7152 21.5959 15.7332 21.2933C15.7547 20.9244 15.9909 20.7572 16.3345 20.7581C18.2043 20.7581 20.0724 20.8253 21.9406 20.9089C22.0119 20.9089 22.0831 20.9175 22.1544 20.9184C24.04 20.954 25.9251 20.9899 27.8095 21.0261C28.0792 21.0313 28.348 21.0839 28.6177 21.0873C28.9871 21.0925 29.1846 21.2838 29.2078 21.6295C29.231 21.9751 28.9656 22.1466 28.6744 22.1983C28.4187 22.2422 28.1577 22.2442 27.9014 22.2044C27.161 22.0984 26.4181 22.1553 25.6768 22.1328C23.5954 22.0702 21.5128 22.0102 19.4291 21.9527Z" fill="#9DC8DD"/>
<path d="M27.291 33.488C24.7933 33.4346 22.2948 33.413 19.7996 33.3156C18.7148 33.2717 17.6309 33.2837 16.5469 33.2424C16.3189 33.2356 16.0918 33.2087 15.8684 33.1622C15.7544 33.1433 15.6508 33.0844 15.5759 32.996C15.5011 32.9076 15.4598 32.7955 15.4596 32.6795C15.4398 32.4046 15.5334 32.2141 15.8117 32.1175C16.058 32.0379 16.3202 32.0213 16.5744 32.0693C17.0039 32.1365 17.4282 32.121 17.8559 32.1296C19.5256 32.1632 21.1962 32.1856 22.8668 32.2279C24.649 32.2727 26.4304 32.3365 28.2126 32.3925C28.6215 32.4046 28.9444 32.6649 28.9358 32.9726C28.9272 33.2803 28.6129 33.5147 28.1912 33.5165H27.2902L27.291 33.488Z" fill="#9DC8DD"/>
<path d="M33.2401 17.2225C31.8289 17.1018 30.4117 17.2027 29.0031 17.1156C27.9724 17.0518 26.9417 17.1311 25.9239 17.0372C24.7669 16.9312 23.6048 17.0484 22.4591 16.9458C21.4576 16.8596 20.4569 16.9579 19.4649 16.8648C18.5081 16.7786 17.5538 16.8165 16.5996 16.789C16.3496 16.7821 16.0842 16.7467 16.0782 16.414C16.0722 16.052 16.3557 16.0158 16.6193 16.0192C18.1044 16.0373 19.5877 16.0899 21.0719 16.1287C21.8255 16.1477 22.5802 16.1669 23.336 16.1865C24.8202 16.2261 26.3061 16.2434 27.7877 16.3002C28.8579 16.3407 29.935 16.2761 30.9949 16.3752C32.0256 16.4709 33.0494 16.4157 34.0758 16.4494C34.1889 16.4527 34.3005 16.4761 34.4056 16.5183C34.5851 16.5942 34.7414 16.7131 34.6908 16.9398C34.6401 17.1665 34.4795 17.226 34.2699 17.2234C33.9272 17.2191 33.5836 17.2225 33.2401 17.2225Z" fill="#E2EEF5"/>
<path d="M32.78 37.7311C31.3413 37.6079 29.8958 37.7156 28.4597 37.6234C27.374 37.5535 26.2892 37.6397 25.2104 37.5475C24.0552 37.4484 22.8914 37.5535 21.7473 37.4536C20.7759 37.3674 19.8079 37.4312 18.8399 37.3855C17.8865 37.3407 16.9331 37.2726 15.9772 37.2993C15.7195 37.3062 15.5632 37.1838 15.5606 36.9183C15.558 36.6528 15.7126 36.5089 15.9668 36.5304C17.5584 36.6649 19.1594 36.5304 20.7501 36.6882C20.8071 36.6949 20.8645 36.6978 20.9219 36.6968C22.4782 36.6382 24.0311 36.7985 25.5866 36.783C27.0708 36.7683 28.5541 36.8502 30.0358 36.8968C31.1197 36.9312 32.2028 36.9226 33.2859 36.9511C33.4844 36.9654 33.6812 36.9971 33.8742 37.0459C34.0623 37.0829 34.1946 37.195 34.1826 37.3967C34.1705 37.6165 34.0237 37.7259 33.8098 37.7294C33.4662 37.7354 33.1227 37.7311 32.78 37.7311Z" fill="#E2EDF5"/>
<path d="M16.3925 34.3706C17.4825 34.543 18.6609 34.3706 19.8239 34.474C20.8254 34.5645 21.8268 34.4594 22.8189 34.5602C23.9355 34.668 25.052 34.5482 26.1566 34.6464C27.244 34.7455 28.3305 34.6326 29.4093 34.7326C30.5095 34.8317 31.6081 34.7645 32.7058 34.8128C33.0588 34.8283 33.4092 34.9153 33.7682 34.8912C34.0061 34.8757 34.2235 34.9128 34.1848 35.2248C34.1505 35.4989 33.9735 35.7083 33.6969 35.6445C33.2537 35.5428 32.814 35.5963 32.3734 35.5833C30.8179 35.5368 29.2598 35.5273 27.7061 35.4687C26.635 35.4282 25.5588 35.4946 24.4972 35.3946C23.311 35.2825 22.1223 35.411 20.9439 35.3084C19.8574 35.2119 18.7726 35.3032 17.6912 35.2222C17.1759 35.1851 16.6682 35.1429 16.1555 35.1532C15.86 35.1593 15.5912 35.0533 15.586 34.768C15.5809 34.4827 15.8488 34.3542 16.1443 34.3741C16.201 34.3741 16.2585 34.3706 16.3925 34.3706Z" fill="#E1EDF5"/>
<path d="M26.7346 14.9091C24.9609 14.8936 23.4621 14.8316 21.9659 14.7833C20.8957 14.7488 19.8186 14.7962 18.7579 14.71C18.0304 14.6514 17.3064 14.6445 16.5797 14.6376C16.322 14.6376 16.1726 14.5239 16.1571 14.2575C16.1417 13.9912 16.3349 13.9041 16.5368 13.8765C16.7347 13.8482 16.936 13.854 17.132 13.8938C17.2993 13.9286 17.4696 13.9465 17.6405 13.9472C19.6391 13.9765 21.6404 13.9576 23.6356 14.0541C24.65 14.1032 25.6661 14.0343 26.6719 14.1343C27.8005 14.2455 28.9299 14.1187 30.0508 14.2205C31.1717 14.3222 32.3055 14.2592 33.4315 14.2937C33.7441 14.3032 34.0465 14.3972 34.3651 14.3885C34.4161 14.387 34.4668 14.3963 34.5139 14.4159C34.561 14.4355 34.6034 14.465 34.6383 14.5023C34.6731 14.5397 34.6997 14.5841 34.7161 14.6325C34.7325 14.681 34.7385 14.7324 34.7336 14.7833C34.7276 15.0048 34.5498 15.066 34.3342 15.072C32.3475 15.1263 30.3652 14.9764 28.3802 14.9548C27.7438 14.9488 27.0988 14.9359 26.7346 14.9091Z" fill="#E2EDF5"/>
<path d="M17.3283 23.0819C18.724 23.206 20.1275 23.1034 21.5215 23.1896C22.4929 23.2491 23.4652 23.1758 24.4289 23.2672C25.5283 23.3706 26.6303 23.2568 27.7219 23.3534C28.8136 23.4499 29.9207 23.3603 31.0158 23.4318C31.7236 23.4775 32.4288 23.5111 33.1365 23.5077C33.3821 23.5077 33.5823 23.5878 33.578 23.8585C33.578 24.0981 33.3985 24.2489 33.1657 24.2774C32.9532 24.3114 32.7366 24.3114 32.5241 24.2774C31.8713 24.1395 31.2134 24.2067 30.5598 24.2041C29.0318 24.1972 27.5055 24.1265 25.9792 24.0851C24.9528 24.0567 23.9178 24.1093 22.9009 24.0136C21.7585 23.9059 20.6136 24.0231 19.479 23.9274C18.5067 23.8412 17.5387 23.8904 16.5699 23.8567C16.4569 23.8488 16.3447 23.8327 16.234 23.8085C16.0107 23.7671 15.8578 23.6585 15.9051 23.4008C15.9489 23.162 16.1121 23.0775 16.3405 23.0801C16.6695 23.0844 16.9993 23.0819 17.3283 23.0819Z" fill="#E2EDF5"/>
<path d="M17.5294 25.2359C19.0557 25.316 20.5863 25.2746 22.1108 25.3462C23.1682 25.3953 24.2281 25.3238 25.2768 25.4229C26.4793 25.5358 27.6817 25.4074 28.873 25.5091C29.9166 25.5953 30.9567 25.5324 31.9969 25.5875C32.3654 25.6065 32.7304 25.6797 33.1031 25.6694C33.3608 25.6616 33.5017 25.803 33.5017 26.0668C33.5017 26.3796 33.2389 26.4193 33.049 26.4003C32.0493 26.2995 31.0461 26.4296 30.0514 26.3443C28.8945 26.2452 27.7324 26.3443 26.5849 26.2503C25.5542 26.1642 24.5235 26.265 23.504 26.1693C22.4037 26.0668 21.3009 26.1805 20.2092 26.0831C19.2223 25.9918 18.2397 26.0538 17.2563 26.0116C16.8878 25.9952 16.5185 25.9616 16.1509 25.9254C15.9379 25.903 15.8073 25.772 15.8236 25.5505C15.84 25.3289 15.9662 25.2298 16.1981 25.2359C16.6413 25.2445 17.0854 25.2359 17.5294 25.2359Z" fill="#E2EDF5"/>
<path d="M28.4255 28.4241C27.041 28.4499 25.6573 28.3577 24.2753 28.3112C23.1768 28.2741 22.0739 28.3387 20.9823 28.2388C19.8537 28.1345 18.7259 28.2275 17.6024 28.1526C17.1051 28.1198 16.6087 28.0819 16.1105 28.0802C15.9198 28.0802 15.7987 27.9793 15.7859 27.8061C15.773 27.6328 15.8005 27.4553 16.0126 27.3949C16.1079 27.3673 16.2093 27.3087 16.2995 27.3217C17.3096 27.4751 18.3291 27.3018 19.3349 27.4035C20.4781 27.519 21.6221 27.3923 22.7576 27.4897C23.8003 27.582 24.8447 27.4777 25.8789 27.5759C26.9955 27.6811 28.1052 27.6087 29.2166 27.6509C29.4141 27.6587 29.6091 27.7181 29.8067 27.7294C30.0549 27.7431 30.2456 27.8328 30.2267 28.1026C30.2078 28.3724 29.9939 28.4275 29.756 28.4249C29.3128 28.4172 28.8739 28.4249 28.4255 28.4241Z" fill="#E2EDF5"/>
<path d="M31.7146 42.5279C31.7094 43.5916 30.9037 44.3777 29.825 44.369C28.7762 44.3604 27.9955 43.514 27.9981 42.409C27.9981 41.5152 28.8948 40.5929 29.8877 40.6386C30.9725 40.6894 31.7188 41.4178 31.7146 42.5279Z" fill="#8CBCD3"/>
<path d="M8.68431 33.9518C8.68431 33.507 8.6783 33.0623 8.68431 32.6184C8.69634 32.0047 9.00985 31.7228 9.61796 31.6944C10.5327 31.6521 11.438 31.8194 12.3518 31.7909C12.7452 31.7789 13.0295 32.0409 13.0501 32.4494C13.095 33.4787 13.0663 34.51 12.9643 35.5351C12.9394 35.7161 12.846 35.8805 12.7035 35.9941C12.5609 36.1078 12.3803 36.162 12.199 36.1454C11.3298 36.0411 10.4597 36.1204 9.59047 36.0963C8.90334 36.0782 8.68173 35.8566 8.68173 35.1568C8.68345 34.7551 8.68431 34.3534 8.68431 33.9518Z" fill="#E2EEF5"/>
<path d="M11.5527 24.8058C10.9738 24.8851 10.2978 24.6989 9.61154 24.7118C9.18209 24.7196 8.94332 24.4395 8.94933 23.9361C8.95964 22.9489 8.98827 21.962 9.03522 20.9754C9.05412 20.6013 9.34529 20.4272 9.68542 20.4211C10.644 20.403 11.6025 20.4048 12.561 20.4211C13.0506 20.4289 13.4723 20.8857 13.3959 21.3736C13.2705 22.1743 13.3572 22.9759 13.3186 23.7758C13.3059 23.9319 13.2803 24.0867 13.2422 24.2386C13.1563 24.6274 12.9278 24.8273 12.5181 24.8127C12.2338 24.7972 11.9478 24.8058 11.5527 24.8058Z" fill="#E2EEF5"/>
<path d="M11.3532 15.5858C10.9237 15.5858 10.4943 15.5858 10.0648 15.5858C9.50393 15.5789 9.20589 15.2703 9.20589 14.7057C9.19559 13.7576 9.2119 12.8164 9.29178 11.8734C9.32614 11.4614 9.53228 11.2304 9.97891 11.1977C10.9933 11.1244 12.0034 11.2623 13.0152 11.2942C13.3656 11.3054 13.5786 11.5752 13.5829 11.9389C13.5932 12.8724 13.6001 13.8059 13.5829 14.7385C13.5709 15.3324 13.284 15.5832 12.6879 15.5875C12.2361 15.5884 11.7921 15.5858 11.3532 15.5858Z" fill="#E2EEF5"/>
<path d="M29.9695 40.1343C30.4785 40.152 30.9673 40.3387 31.3592 40.6652C31.4451 40.7368 31.6383 40.8169 31.537 40.9531C31.4159 41.116 31.3214 40.9152 31.2346 40.8497C30.1232 40.0127 28.7129 40.2722 28.0163 41.4461C27.8762 41.6969 27.7853 41.9722 27.7483 42.2572C27.7311 42.3615 27.7724 42.5442 27.6195 42.5218C27.4477 42.4968 27.5173 42.3184 27.5336 42.1969C27.6968 41.0014 28.6639 40.1446 29.9695 40.1343Z" fill="#31477E"/>
<path d="M29.8801 44.8801C29.3552 44.871 28.8471 44.6934 28.4302 44.3733C28.3512 44.3121 28.188 44.2492 28.304 44.1147C28.3899 44.0173 28.4809 44.1371 28.5565 44.1932C29.1345 44.619 29.7693 44.7629 30.4615 44.5552C31.3084 44.3018 31.8006 43.7182 31.9749 42.8554C31.9887 42.7856 31.9964 42.7141 32.0093 42.6434C32.0222 42.5727 32.0299 42.4546 32.1527 42.4848C32.2386 42.5055 32.2257 42.5977 32.2223 42.665C32.2007 43.1566 32.017 43.6271 31.7001 44.0027C31.4801 44.2746 31.2027 44.4944 30.8881 44.6461C30.5734 44.7978 30.2292 44.8777 29.8801 44.8801Z" fill="#2E447D"/>
<path d="M13.6639 44.1226L18.5348 44.2269V44.3579C18.1448 44.3579 17.754 44.3648 17.3641 44.3579C16.1513 44.3303 14.9388 44.2984 13.7266 44.2622C13.5548 44.2579 13.389 44.2269 13.2207 44.2079C13.3487 44.0872 13.5247 44.2053 13.6639 44.1226Z" fill="#283154"/>
<path d="M13.6631 44.1226C13.53 44.2346 13.3608 44.1536 13.2165 44.2088C12.1618 44.1967 11.107 44.2329 10.0557 44.1226C10.0276 44.1019 10.0191 44.0821 10.03 44.0631C10.0394 44.045 10.0497 44.0364 10.06 44.0364L13.6631 44.1226Z" fill="#131B42"/>
<path d="M10.0592 44.0346C10.0592 44.063 10.0592 44.0915 10.0549 44.1208H9.13672C9.44163 43.9794 9.75084 44.0182 10.0592 44.0346Z" fill="#111841"/>
<path d="M29.8889 41.5186C30.473 41.5255 30.862 41.9358 30.8517 42.5357C30.8504 42.6673 30.8226 42.7973 30.7699 42.9178C30.7173 43.0384 30.6409 43.147 30.5453 43.2372C30.4498 43.3274 30.337 43.3972 30.2139 43.4426C30.0908 43.4879 29.9598 43.5078 29.8288 43.501C29.571 43.4872 29.3282 43.375 29.1501 43.1873C28.9721 42.9997 28.8723 42.7508 28.8711 42.4917C28.8714 42.3599 28.8983 42.2295 28.9502 42.1084C29.0021 41.9873 29.0779 41.878 29.173 41.7871C29.2681 41.6962 29.3805 41.6255 29.5036 41.5794C29.6266 41.5332 29.7577 41.5126 29.8889 41.5186Z" fill="#FDFDFD"/>
<path d="M11.0976 35.6627C10.6201 35.7221 10.042 35.6023 9.45969 35.5765C9.1857 35.5661 9.13073 35.3963 9.11613 35.1791C9.06975 34.2775 9.16337 33.3803 9.20202 32.4813C9.21318 32.2408 9.37381 32.1046 9.60228 32.1322C10.4689 32.2382 11.3381 32.1942 12.2056 32.2184C12.477 32.2261 12.6445 32.3709 12.6351 32.689C12.6093 33.5742 12.4959 34.4568 12.5432 35.3446C12.5544 35.5592 12.4384 35.6575 12.228 35.6558C11.8921 35.6575 11.5494 35.6627 11.0976 35.6627Z" fill="#FDFEFD"/>
<path d="M12.8483 22.3518C12.8483 22.869 12.862 23.3793 12.8431 23.893C12.832 24.2197 12.6834 24.3895 12.3012 24.3851C11.4586 24.3757 10.6229 24.236 9.77855 24.2834C9.46505 24.3007 9.32763 24.0878 9.38002 23.8051C9.53033 23.0069 9.44015 22.2036 9.45132 21.4029C9.45647 21.0021 9.5896 20.8374 10.0027 20.834C10.8616 20.828 11.7128 20.8788 12.5674 20.9254C12.8053 20.9383 12.8981 21.046 12.8947 21.2753C12.8887 21.6339 12.8947 21.9933 12.8947 22.3518H12.8483Z" fill="#FDFEFD"/>
<path d="M11.4541 15.154C11.0246 15.1118 10.5093 15.2152 10.0034 15.0799C9.72941 15.0075 9.63492 14.8652 9.62891 14.5972C9.63001 14.1121 9.65869 13.6275 9.7148 13.1457C9.73528 12.7881 9.73729 12.4296 9.72082 12.0717C9.72082 11.7709 9.85911 11.5916 10.1597 11.627C11.0547 11.7304 11.9523 11.7002 12.849 11.7089C13.0353 11.7089 13.1444 11.7899 13.1547 11.9864C13.2054 12.9595 13.0989 13.9283 13.0688 14.8989C13.0611 15.1333 12.885 15.1574 12.7004 15.1574C12.3078 15.1523 11.9222 15.154 11.4541 15.154Z" fill="#FDFEFD"/>
<path d="M12.2197 33.3545C12.1708 33.4225 12.1183 33.4878 12.0625 33.5501C11.6168 33.9949 11.1719 34.4405 10.7209 34.8801C10.562 35.0353 9.86202 34.6707 9.60435 34.294C9.41281 34.0156 9.69022 33.9027 9.82851 33.7768C10.0561 33.5726 10.154 33.8354 10.2459 33.9673C10.4272 34.2259 10.5508 34.2354 10.7252 33.9544C10.9279 33.6269 11.1718 33.3243 11.3986 33.0114C11.4845 32.8968 11.5704 32.7417 11.737 32.8589C11.9217 32.9908 12.1287 33.108 12.2197 33.3545Z" fill="#E6A128"/>
<path d="M10.8008 22.9249C11.073 22.5508 11.3419 22.1992 11.5901 21.8328C11.7722 21.5639 11.9045 21.4019 12.2532 21.6829C12.6302 21.9897 12.4447 22.1535 12.2068 22.3793C11.8125 22.7542 11.4243 23.1361 11.0481 23.5291C10.8978 23.686 10.7862 23.7067 10.6187 23.5567C10.4392 23.3929 10.2382 23.2533 10.0518 23.0982C9.94787 23.012 9.76664 22.9465 9.83879 22.7715C9.90483 22.6098 10.0303 22.4799 10.1892 22.4086C10.3653 22.3336 10.4289 22.5138 10.5199 22.6146C10.6109 22.7155 10.6943 22.806 10.8008 22.9249Z" fill="#E6A128"/>
<path d="M10.5107 13.193C10.6645 13.2387 10.7469 13.3835 10.8337 13.5076C10.9926 13.7334 11.0914 13.6946 11.2322 13.486C11.4615 13.1413 11.7201 12.8146 11.9554 12.4733C12.1804 12.1475 12.3316 12.4 12.5042 12.5284C12.6923 12.6681 12.8478 12.806 12.6082 13.0387C12.1452 13.486 11.6883 13.9411 11.2262 14.3893C11.1765 14.4385 11.1158 14.4752 11.0493 14.4962C10.9926 14.5117 10.0847 13.7351 10.0736 13.6782C10.0495 13.5524 10.3681 13.1887 10.5107 13.193Z" fill="#E6A128"/>
</svg>
