<svg width="97" height="96" viewBox="0 0 97 96" fill="none" xmlns="http://www.w3.org/2000/svg">
<path fill-rule="evenodd" clip-rule="evenodd" d="M48.5 96C75.0097 96 96.5 74.5097 96.5 48C96.5 21.4903 75.0097 0 48.5 0C21.9903 0 0.5 21.4903 0.5 48C0.5 74.5097 21.9903 96 48.5 96ZM78.5921 37.6271L42.9421 73.0967C41.7313 74.3011 39.7687 74.3011 38.5579 73.0965L18.4079 53.0485C17.1974 51.844 17.1974 49.8911 18.4079 48.6867L22.7919 44.3249C24.0026 43.1204 25.9655 43.1204 27.1761 44.3249L40.75 57.8301L69.8239 28.9035C71.0347 27.6988 72.9976 27.6988 74.2081 28.9035L78.5921 33.2653C79.8026 34.4697 79.8026 36.4226 78.5921 37.6271Z" fill="#4A00E0"/>
</svg>
