<svg width="25" height="25" viewBox="0 0 25 25"  xmlns="http://www.w3.org/2000/svg">
<path fill-rule="evenodd" clip-rule="evenodd" d="M5.05393 4.9802C6.86248 3.17165 9.36385 2.05127 12.125 2.05127C14.8861 2.05127 17.3875 3.17165 19.1961 4.9802C21.0046 6.78875 22.125 9.29012 22.125 12.0513C22.125 14.8124 21.0046 17.3138 19.1961 19.1223C17.3875 20.9309 14.8861 22.0513 12.125 22.0513C9.36385 22.0513 6.86248 20.9309 5.05393 19.1223C3.24538 17.3138 2.125 14.8124 2.125 12.0513C2.125 9.29012 3.24538 6.78875 5.05393 4.9802ZM12.125 4.05127C9.91558 4.05127 7.91695 4.9456 6.46815 6.39441C5.01934 7.84322 4.125 9.84185 4.125 12.0513C4.125 14.2607 5.01934 16.2593 6.46815 17.7081C7.91696 19.1569 9.91558 20.0513 12.125 20.0513C14.3344 20.0513 16.333 19.1569 17.7819 17.7081C19.2307 16.2593 20.125 14.2607 20.125 12.0513C20.125 9.84185 19.2307 7.84323 17.7819 6.39441C16.333 4.9456 14.3344 4.05127 12.125 4.05127Z" />
<path fill-rule="evenodd" clip-rule="evenodd" d="M12.125 7.05127C12.6773 7.05127 13.125 7.49898 13.125 8.05127V12.0513C13.125 12.6036 12.6773 13.0513 12.125 13.0513C11.5727 13.0513 11.125 12.6036 11.125 12.0513L11.125 8.05127C11.125 7.49898 11.5727 7.05127 12.125 7.05127Z" />
<path fill-rule="evenodd" clip-rule="evenodd" d="M11.4179 11.3442C11.8084 10.9536 12.4416 10.9536 12.8321 11.3442L14.8321 13.3442C15.2226 13.7347 15.2226 14.3679 14.8321 14.7584C14.4416 15.1489 13.8084 15.1489 13.4179 14.7584L11.4179 12.7584C11.0274 12.3679 11.0274 11.7347 11.4179 11.3442Z"/>
</svg>
