<svg width="21" height="20" viewBox="0 0 21 20" fill="none" xmlns="http://www.w3.org/2000/svg">
<path fill-rule="evenodd" clip-rule="evenodd" d="M6.70768 3.33317C5.32697 3.33317 4.20768 4.45246 4.20768 5.83317V14.1665C4.20768 15.5472 5.32697 16.6665 6.70768 16.6665H15.041C16.4217 16.6665 17.541 15.5472 17.541 14.1665V9.1665C17.541 8.70627 17.9141 8.33317 18.3743 8.33317C18.8346 8.33317 19.2077 8.70627 19.2077 9.1665V14.1665C19.2077 16.4677 17.3422 18.3332 15.041 18.3332H6.70768C4.4065 18.3332 2.54102 16.4677 2.54102 14.1665V5.83317C2.54102 3.53198 4.4065 1.6665 6.70768 1.6665H11.7077C12.1679 1.6665 12.541 2.0396 12.541 2.49984C12.541 2.96007 12.1679 3.33317 11.7077 3.33317H6.70768Z" fill="#333333"/>
<path fill-rule="evenodd" clip-rule="evenodd" d="M16.8722 3.33317C16.6948 3.33317 16.5246 3.40364 16.3992 3.52908L9.83499 10.0933L9.51967 11.3545L10.7809 11.0392L17.3451 4.47502C17.4706 4.34958 17.541 4.17945 17.541 4.00205C17.541 3.82465 17.4706 3.65452 17.3451 3.52908C17.2197 3.40364 17.0496 3.33317 16.8722 3.33317ZM15.2207 2.35057C15.6587 1.91257 16.2527 1.6665 16.8722 1.6665C17.4916 1.6665 18.0856 1.91257 18.5236 2.35057C18.9616 2.78857 19.2077 3.38262 19.2077 4.00205C19.2077 4.62147 18.9616 5.21553 18.5236 5.65353L11.7962 12.3809C11.6894 12.4877 11.5556 12.5635 11.4091 12.6001L8.57648 13.3083C8.2925 13.3793 7.99209 13.2961 7.78511 13.0891C7.57813 12.8821 7.49492 12.5817 7.56591 12.2977L8.27406 9.46513C8.3107 9.3186 8.38646 9.18478 8.49326 9.07799L15.2207 2.35057Z" fill="#333333"/>
<path fill-rule="evenodd" clip-rule="evenodd" d="M13.6191 4.41058C13.9445 4.08514 14.4722 4.08514 14.7976 4.41058L16.4643 6.07725C16.7897 6.40269 16.7897 6.93032 16.4643 7.25576C16.1388 7.5812 15.6112 7.5812 15.2857 7.25576L13.6191 5.58909C13.2936 5.26366 13.2936 4.73602 13.6191 4.41058Z" fill="#333333"/>
</svg>
