<svg width="12" height="14" viewBox="0 0 12 14" fill="none" xmlns="http://www.w3.org/2000/svg">
<path d="M2.00078 13.0478H10.0008C10.4426 13.0478 10.8008 12.6897 10.8008 12.2478C10.8008 10.9246 9.97982 9.74015 8.74072 9.27574L8.4947 9.18353C6.8867 8.58086 5.11486 8.58086 3.50686 9.18353L3.26084 9.27574C2.02174 9.74015 1.20078 10.9246 1.20078 12.2478C1.20078 12.6897 1.55896 13.0478 2.00078 13.0478Z" stroke="#333333" stroke-linecap="round" stroke-linejoin="round"/>
<path d="M7.22049 6.82131C6.4549 7.21457 5.54666 7.21457 4.78107 6.82131C4.06856 6.4553 3.55807 5.78869 3.39046 5.0054L3.34573 4.79635C3.17434 3.99536 3.35741 3.15937 3.8479 2.50332L3.91972 2.40725C4.41027 1.75111 5.18154 1.36475 6.00078 1.36475C6.82003 1.36475 7.59129 1.75111 8.08184 2.40725L8.15367 2.50332C8.64415 3.15937 8.82723 3.99536 8.65583 4.79635L8.6111 5.0054C8.44349 5.78869 7.933 6.4553 7.22049 6.82131Z" stroke="#333333" stroke-linecap="round" stroke-linejoin="round"/>
</svg>
