<svg width="16" height="20" viewBox="0 0 16 20" fill="none" xmlns="http://www.w3.org/2000/svg">
<path fill-rule="evenodd" clip-rule="evenodd" d="M8 2C6.42551 2 4.90461 2.65749 3.77503 3.84574C2.64381 5.03572 2 6.66001 2 8.36364C2 10.844 3.53632 13.2652 5.24308 15.1603C6.07889 16.0884 6.91773 16.8486 7.54839 17.3769C7.7154 17.5168 7.86728 17.64 8 17.7453C8.13272 17.64 8.2846 17.5168 8.45161 17.3769C9.08227 16.8486 9.92111 16.0884 10.7569 15.1603C12.4637 13.2652 14 10.844 14 8.36364C14 6.66001 13.3562 5.03572 12.225 3.84574C11.0954 2.65749 9.57449 2 8 2ZM8 19C7.42582 19.8187 7.42558 19.8186 7.42531 19.8184L7.42279 19.8166L7.4172 19.8127L7.39857 19.7994C7.38288 19.7882 7.36072 19.7722 7.33253 19.7517C7.27615 19.7106 7.19558 19.6511 7.09427 19.5741C6.89174 19.4203 6.60576 19.1962 6.26411 18.9101C5.58227 18.3389 4.67111 17.5139 3.75692 16.4988C1.96368 14.5076 0 11.6105 0 8.36364C5.96046e-08 6.16134 0.831181 4.0397 2.32548 2.46777C3.82141 0.894133 5.86146 0 8 0C10.1385 0 12.1786 0.894133 13.6745 2.46777C15.1688 4.0397 16 6.16134 16 8.36364C16 11.6105 14.0363 14.5076 12.2431 16.4988C11.3289 17.5139 10.4177 18.3389 9.73589 18.9101C9.39424 19.1962 9.10826 19.4203 8.90573 19.5741C8.80442 19.6511 8.72385 19.7106 8.66747 19.7517C8.63928 19.7722 8.61712 19.7882 8.60143 19.7994L8.5828 19.8127L8.57722 19.8166L8.57537 19.8179C8.5751 19.8181 8.57418 19.8187 8 19ZM8 19L8.57418 19.8187C8.22954 20.0604 7.76994 20.0601 7.42531 19.8184L8 19Z" fill="#C41212"/>
<path fill-rule="evenodd" clip-rule="evenodd" d="M8 6C6.89543 6 6 6.89543 6 8C6 9.10457 6.89543 10 8 10C9.10457 10 10 9.10457 10 8C10 6.89543 9.10457 6 8 6ZM4 8C4 5.79086 5.79086 4 8 4C10.2091 4 12 5.79086 12 8C12 10.2091 10.2091 12 8 12C5.79086 12 4 10.2091 4 8Z" fill="#C41212"/>
</svg>
