<svg width="24" height="24" viewBox="0 0 24 24" fill="none" xmlns="http://www.w3.org/2000/svg">
<mask id="mask0_965_6572" style="mask-type:alpha" maskUnits="userSpaceOnUse" x="0" y="0" width="24" height="24">
<rect width="24" height="24" fill="#D9D9D9"/>
</mask>
<g mask="url(#mask0_965_6572)">
<path d="M2.69226 2C2.75052 2.02058 2.8605 2.04676 2.95898 2.09596C5.76588 3.49721 8.57204 4.89991 11.3775 6.30404C14.779 8.00489 18.1807 9.70545 21.5824 11.4057C21.9186 11.5738 22.0651 11.8625 21.973 12.1777C21.9167 12.3697 21.7875 12.4951 21.6103 12.5833C20.761 13.0055 19.9125 13.4299 19.0648 13.8563C17.0777 14.8503 15.0905 15.8442 13.1033 16.8379L3.11096 21.8345C3.04394 21.8679 2.97702 21.9016 2.90916 21.9332C2.64075 22.0577 2.3543 22.0056 2.1659 21.7988C1.97254 21.5865 1.94362 21.2899 2.10595 21.0366C2.31937 20.7036 2.54175 20.3764 2.76118 20.0473C4.52796 17.3972 6.29547 14.7476 8.06373 12.0983C8.11481 12.0219 8.10742 11.9741 8.05961 11.9025C6.56831 9.66921 5.07842 7.43495 3.58993 5.19974C3.10041 4.46537 2.61099 3.73082 2.12167 2.9961C1.97665 2.77874 1.95787 2.5521 2.08368 2.32398C2.2021 2.10968 2.39483 2.00855 2.69226 2ZM4.48054 19.7242L4.49911 19.7422L19.9763 12.0023L4.46312 4.24439C4.50533 4.31375 4.52718 4.35154 4.55125 4.38753C6.14901 6.78489 7.74688 9.1821 9.34485 11.5792C9.55478 11.8941 9.55595 12.1085 9.34844 12.4197L4.66598 19.4453C4.60406 19.5381 4.54224 19.6311 4.48054 19.7242Z" fill="#4A00E0"/>
</g>
</svg>
