<svg width="14" height="13" viewBox="0 0 14 13" fill="none" xmlns="http://www.w3.org/2000/svg">
<path d="M7.00039 7.93396V7.85789C7.00039 7.39117 7.24633 6.95899 7.64758 6.7206L7.9954 6.51396C8.49448 6.21745 8.80039 5.67989 8.80039 5.09937C8.80039 4.19063 8.06372 3.45396 7.15498 3.45396H7.00039C6.00628 3.45396 5.20039 4.25984 5.20039 5.25396V5.35559M7.00039 9.37393V9.69393M7.00039 1.05396L7.62739 1.08917L8.24651 1.19436L8.84995 1.36821L9.43014 1.60853L9.97977 1.9123L10.4919 2.2757L10.9602 2.69416L11.3786 3.16241L11.742 3.67458L12.0458 4.22421L12.2861 4.80439L12.46 5.40784L12.5652 6.02695L12.6004 6.65396L12.5652 7.28096L12.46 7.90007L12.2861 8.50352L12.0458 9.0837L11.742 9.63333L11.3786 10.1455L10.9602 10.6138L10.4919 11.0322L9.97977 11.3956L9.43014 11.6994L8.84995 11.9397L8.24651 12.1136L7.62739 12.2187L7.00039 12.254L6.37339 12.2187L5.75427 12.1136L5.15083 11.9397L4.57064 11.6994L4.02101 11.3956L3.50885 11.0322L3.04059 10.6138L2.62213 10.1455L2.25874 9.63333L1.95496 9.0837L1.71464 8.50352L1.54079 7.90007L1.4356 7.28096L1.40039 6.65396L1.4356 6.02695L1.54079 5.40784L1.71464 4.80439L1.95496 4.22421L2.25874 3.67458L2.62213 3.16241L3.04059 2.69416L3.50885 2.2757L4.02101 1.9123L4.57064 1.60853L5.15083 1.36821L5.75427 1.19436L6.37339 1.08917L7.00039 1.05396Z" stroke="#333333" stroke-linecap="round" stroke-linejoin="round"/>
</svg>
