<svg width="24" height="24" viewBox="0 0 24 24" fill="none" xmlns="http://www.w3.org/2000/svg">
<path fill-rule="evenodd" clip-rule="evenodd" d="M13.9036 4.85674C12.7971 3.94831 11.2029 3.94831 10.0964 4.85673L4.73093 9.26171C4.2682 9.64161 4 10.2088 4 10.8075V18.0001C4 19.1046 4.89543 20.0001 6 20.0001H18C19.1046 20.0001 20 19.1046 20 18.0001V10.8075C20 10.2088 19.7318 9.64161 19.2691 9.26172L13.9036 4.85674ZM8.82732 3.31095C10.6715 1.7969 13.3285 1.7969 15.1727 3.31095L20.5381 7.71593C21.4636 8.47571 22 9.61012 22 10.8075V18.0001C22 20.2092 20.2091 22.0001 18 22.0001H6C3.79086 22.0001 2 20.2092 2 18.0001V10.8075C2 9.61012 2.53641 8.47571 3.46186 7.71593L8.82732 3.31095Z" stroke="white"/>
<path fill-rule="evenodd" clip-rule="evenodd" d="M8 16C8 14.3431 9.34315 13 11 13H13C14.6569 13 16 14.3431 16 16V21H14V16C14 15.4477 13.5523 15 13 15H11C10.4477 15 10 15.4477 10 16V21H8V16Z"  stroke="white"/>
</svg>
