<svg width="18" height="24" viewBox="0 0 18 24" fill="none" xmlns="http://www.w3.org/2000/svg">
<path d="M7.04397 2.80165C7.04392 2.68568 7.04379 2.57162 7.04367 2.45892C7.04335 2.1755 7.04304 1.90072 7.04399 1.62605L7.04399 1.62597C7.04505 1.38277 7.07993 1.18983 7.20464 1.06306C7.32996 0.935674 7.52092 0.900303 7.76119 0.900218L7.04397 2.80165ZM7.04397 2.80165L6.83067 2.80143H6.83056C6.29594 2.80143 5.76121 2.80098 5.22642 2.80052C4.15665 2.79962 3.08665 2.79871 2.01687 2.80143C2.01686 2.80143 2.01685 2.80143 2.01684 2.80143L2.01709 2.90143L7.04397 2.80165ZM11.0694 0.937411L11.0694 0.937417C11.1965 0.964286 11.3033 1.02111 11.3771 1.1144C11.4508 1.20743 11.4831 1.32576 11.4826 1.45943M11.0694 0.937411L11.4826 1.45943M11.0694 0.937411L11.0682 0.937189M11.0694 0.937411L11.0682 0.937189M11.4826 1.45943C11.4815 1.76788 11.4819 2.07616 11.4822 2.39343C11.4824 2.52517 11.4825 2.65846 11.4826 2.79395L11.4826 1.45943ZM11.0682 0.937189C10.9496 0.913526 10.8289 0.901958 10.708 0.90266M11.0682 0.937189L10.708 0.90266M12.751 5.04624L12.751 5.04628C12.7531 5.18261 12.6988 5.30246 12.6 5.38734C12.5028 5.47091 12.369 5.51533 12.2174 5.51837L12.751 5.04624ZM12.751 5.04624C12.7489 4.90965 12.6944 4.78955 12.5968 4.70383M12.751 5.04624L12.5968 4.70383M6.53797 4.57462C6.39401 4.58055 6.26676 4.62842 6.17476 4.71268C6.0818 4.79782 6.02998 4.91578 6.03284 5.04814L6.03285 5.04823C6.03582 5.18001 6.0876 5.2992 6.18016 5.38509C6.27251 5.47078 6.39958 5.51802 6.54474 5.51807C8.09941 5.52165 9.65402 5.52394 11.2086 5.52491L6.92821 4.67177C6.95278 4.67201 6.97739 4.67225 7.00208 4.67245V4.57244M6.53797 4.57462L6.54209 4.67453L6.53795 4.57462C6.53796 4.57462 6.53797 4.57462 6.53797 4.57462ZM6.53797 4.57462C6.6686 4.56921 6.80114 4.5705 6.9322 4.57179C6.95554 4.57202 6.97884 4.57225 7.00208 4.57244M7.00208 4.57244V3.7535C6.98078 3.7518 6.96208 3.75067 6.94208 3.75067C6.5932 3.75067 6.24429 3.75082 5.89535 3.75097C4.58258 3.75154 3.26947 3.75211 1.95653 3.74464L1.95651 3.74464C1.85986 3.74407 1.8462 3.76709 1.84361 3.77144C1.84355 3.77155 1.8435 3.77164 1.84345 3.77172C1.83919 3.77871 1.83399 3.79226 1.83076 3.81925C1.82751 3.8464 1.82702 3.87904 1.82702 3.92168L7.10208 4.57291M7.00208 4.57244C7.03556 4.57271 7.06892 4.57291 7.10208 4.57291M7.10208 4.57291V3.66126C7.08046 3.65977 7.06067 3.65808 7.04208 3.6565C7.00565 3.65338 6.97387 3.65067 6.94208 3.65067C6.59311 3.65067 6.24415 3.65082 5.89518 3.65097C4.58244 3.65154 3.26972 3.65211 1.95709 3.64464C1.7331 3.64333 1.72702 3.75367 1.72702 3.92171C1.72905 9.9241 1.72985 15.9264 1.72942 21.9287C1.72942 22.2488 1.73102 22.2491 2.06397 22.2491H16.7244C17.0488 22.2491 17.0488 22.2491 17.0487 21.9231L7.10208 4.57291ZM10.708 0.90266C9.72571 0.900379 8.74344 0.899566 7.76122 0.900218L10.708 0.90266ZM11.6539 4.56794C11.8447 4.56694 12.0324 4.56596 12.2191 4.57016L11.6539 4.56794ZM11.6539 4.56794C11.6022 4.56821 11.5503 4.56848 11.4981 4.56865L11.6539 4.56794ZM12.5968 4.70383C12.5004 4.61905 12.3685 4.57351 12.2191 4.57016L12.5968 4.70383ZM16.9487 4.07502V4.0653V4.07502ZM16.9487 4.07502V4.08474M16.9487 4.07502V4.08474M16.9487 4.08474V4.09446M16.9487 4.08474V4.09446M16.9487 4.09446V4.10418M16.9487 4.09446V4.10418M16.9487 4.10418V4.1139M16.9487 4.10418V4.1139M16.9487 4.1139V4.12362M16.9487 4.1139V4.12362M16.9487 4.12362V4.13334M16.9487 4.12362V4.13334M16.9487 4.13334V4.14306M16.9487 4.13334V4.14306M16.9487 4.14306V4.15278M16.9487 4.14306V4.15278M16.9487 4.15278V4.1625M16.9487 4.15278V4.1625M16.9487 4.1625V4.17222M16.9487 4.1625V4.17222M16.9487 4.17222V4.18195M16.9487 4.17222V4.18195M16.9487 4.18195V4.19167M16.9487 4.18195V4.19167M16.9487 4.19167V4.20139M16.9487 4.19167V4.20139M16.9487 4.20139V4.21111M16.9487 4.20139V4.21111M16.9487 4.21111V4.22083M16.9487 4.21111V4.22083M16.9487 4.22083V4.23055M16.9487 4.22083V4.23055M16.9487 4.23055V4.24027M16.9487 4.23055V4.24027M16.9487 4.24027V4.24999M16.9487 4.24027V4.24999M16.9487 4.24999V4.25971M16.9487 4.24999V4.25971M16.9487 4.25971V4.26943M16.9487 4.25971V4.26943M16.9487 4.26943V4.27915M16.9487 4.26943V4.27915M16.9487 4.27915V4.28887M16.9487 4.27915V4.28887M16.9487 4.28887V4.29859M16.9487 4.28887V4.29859M16.9487 4.29859V4.30831M16.9487 4.29859V4.30831M16.9487 4.30831V4.31803M16.9487 4.30831V4.31803M16.9487 4.31803V4.32775M16.9487 4.31803V4.32775M16.9487 4.32775V4.33747M16.9487 4.32775V4.33747M16.9487 4.33747V4.34719M16.9487 4.33747V4.34719M16.9487 4.34719V4.35691M16.9487 4.34719V4.35691M16.9487 4.35691V4.36663M16.9487 4.35691V4.36663M16.9487 4.36663V4.37635M16.9487 4.36663V4.37635M16.9487 4.37635V4.38608M16.9487 4.37635V4.38608M16.9487 4.38608V4.3958M16.9487 4.38608V4.3958M16.9487 4.3958V4.40552M16.9487 4.3958V4.40552M16.9487 4.40552V4.41524M16.9487 4.40552V4.41524M16.9487 4.41524V4.42496M16.9487 4.41524V4.42496M16.9487 4.42496V4.43468M16.9487 4.42496V4.43468M16.9487 4.43468V4.4444M16.9487 4.43468V4.4444M16.9487 4.4444V4.45412M16.9487 4.4444V4.45412M16.9487 4.45412V4.46384M16.9487 4.45412V4.46384M16.9487 4.46384V4.47356M16.9487 4.46384V4.47356M16.9487 4.47356V4.48328M16.9487 4.47356V4.48328M16.9487 4.48328V4.493M16.9487 4.48328V4.493M16.9487 4.493V4.50272M16.9487 4.493V4.50272M16.9487 4.50272V4.51244M16.9487 4.50272V4.51244M16.9487 4.51244V4.52216M16.9487 4.51244V4.52216M16.9487 4.52216V4.53188M16.9487 4.52216V4.53188M16.9487 4.53188V4.5416M16.9487 4.53188V4.5416M16.9487 4.5416V4.55132M16.9487 4.5416V4.55132M16.9487 4.55132V4.56104M16.9487 4.55132V4.56104M16.9487 4.56104V4.57076M16.9487 4.56104V4.57076M16.9487 4.57076V4.58049M16.9487 4.57076V4.58049M16.9487 4.58049V4.59021M16.9487 4.58049V4.59021M16.9487 4.59021V4.59993M16.9487 4.59021V4.59993M16.9487 4.59993V4.60965M16.9487 4.59993V4.60965M16.9487 4.60965V4.61937M16.9487 4.60965V4.61937M16.9487 4.61937V4.62909M16.9487 4.61937V4.62909M16.9487 4.62909V4.63881M16.9487 4.62909V4.63881M16.9487 4.63881V4.64853M16.9487 4.63881V4.64853M16.9487 4.64853V4.65825M16.9487 4.64853V4.65825M16.9487 4.65825V4.66797M16.9487 4.65825V4.66797M16.9487 4.66797V4.67769M16.9487 4.66797V4.67769M16.9487 4.67769V4.68741M16.9487 4.67769V4.68741M16.9487 4.68741V4.69713M16.9487 4.68741V4.69713M16.9487 4.69713V4.70685M16.9487 4.69713V4.70685M16.9487 4.70685V4.71657M16.9487 4.70685V4.71657M16.9487 4.71657V4.72629M16.9487 4.71657V4.72629M16.9487 4.72629V4.73601M16.9487 4.72629V4.73601M16.9487 4.73601V4.74573M16.9487 4.73601V4.74573M16.9487 4.74573V4.75545M16.9487 4.74573V4.75545M16.9487 4.75545V4.76517M16.9487 4.75545V4.76517M16.9487 4.76517V4.77489M16.9487 4.76517V4.77489M16.9487 4.77489V4.78462M16.9487 4.77489V4.78462M16.9487 4.78462V4.79434M16.9487 4.78462V4.79434M16.9487 4.79434V4.80406M16.9487 4.79434V4.80406M16.9487 4.80406V4.81378M16.9487 4.80406V4.81378M16.9487 4.81378V4.8235M16.9487 4.81378V4.8235M16.9487 4.8235V4.83322M16.9487 4.8235V4.83322M16.9487 4.83322V4.84294M16.9487 4.83322V4.84294M16.9487 4.84294V4.85266M16.9487 4.84294V4.85266M16.9487 4.85266V4.86238M16.9487 4.85266V4.86238M16.9487 4.86238V4.8721M16.9487 4.86238V4.8721M16.9487 4.8721V4.88182M16.9487 4.8721V4.88182M16.9487 4.88182V4.89154M16.9487 4.88182V4.89154M16.9487 4.89154V4.90126M16.9487 4.89154V4.90126M16.9487 4.90126V4.91098M16.9487 4.90126V4.91098M16.9487 4.91098V4.9207M16.9487 4.91098V4.9207M16.9487 4.9207V4.93042M16.9487 4.9207V4.93042M16.9487 4.93042V4.94014M16.9487 4.93042V4.94014M16.9487 4.94014V4.94986M16.9487 4.94014V4.94986M16.9487 4.94986V4.95958M16.9487 4.94986V4.95958M16.9487 4.95958V4.9693M16.9487 4.95958V4.9693M16.9487 4.9693V4.97902M16.9487 4.9693V4.97902M16.9487 4.97902V4.98875M16.9487 4.97902V4.98875M16.9487 4.98875V4.99847M16.9487 4.98875V4.99847M16.9487 4.99847V5.00819M16.9487 4.99847V5.00819M16.9487 5.00819V5.01791M16.9487 5.00819V5.01791M16.9487 5.01791V5.02763M16.9487 5.01791V5.02763M16.9487 5.02763V5.03735M16.9487 5.02763V5.03735M16.9487 5.03735V5.04707M16.9487 5.03735V5.04707M16.9487 5.04707V5.05679M16.9487 5.04707V5.05679M16.9487 5.05679V5.06651M16.9487 5.05679V5.06651M16.9487 5.06651V5.07623M16.9487 5.06651V5.07623M16.9487 5.07623V5.08595M16.9487 5.07623V5.08595M16.9487 5.08595V5.09567M16.9487 5.08595V5.09567M16.9487 5.09567V5.10539M16.9487 5.09567V5.10539M16.9487 5.10539V5.11511M16.9487 5.10539V5.11511M16.9487 5.11511V5.12483M16.9487 5.11511V5.12483M16.9487 5.12483V5.13455M16.9487 5.12483V5.13455M16.9487 5.13455V5.14427M16.9487 5.13455V5.14427M16.9487 5.14427V5.15399M16.9487 5.14427V5.15399M16.9487 5.15399V5.16371M16.9487 5.15399V5.16371M16.9487 5.16371V5.17343M16.9487 5.16371V5.17343M16.9487 5.17343V5.18316M16.9487 5.17343V5.18316M16.9487 5.18316V5.19288M16.9487 5.18316V5.19288M16.9487 5.19288V5.2026M16.9487 5.19288V5.2026M16.9487 5.2026V5.21232M16.9487 5.2026V5.21232M16.9487 5.21232V5.22204M16.9487 5.21232V5.22204M16.9487 5.22204V5.23176M16.9487 5.22204V5.23176M16.9487 5.23176V5.24148M16.9487 5.23176V5.24148M16.9487 5.24148V5.2512M16.9487 5.24148V5.2512M16.9487 5.2512V5.26092M16.9487 5.2512V5.26092M16.9487 5.26092V5.27064M16.9487 5.26092V5.27064M16.9487 5.27064V5.28036M16.9487 5.27064V5.28036M16.9487 5.28036V5.29008M16.9487 5.28036V5.29008M16.9487 5.29008V5.2998M16.9487 5.29008V5.2998M16.9487 5.2998V5.30952M16.9487 5.2998V5.30952M16.9487 5.30952V5.31924M16.9487 5.30952V5.31924M16.9487 5.31924V5.32896M16.9487 5.31924V5.32896M16.9487 5.32896V5.33868M16.9487 5.32896V5.33868M16.9487 5.33868V5.3484M16.9487 5.33868V5.3484M16.9487 5.3484V5.35812M16.9487 5.3484V5.35812M16.9487 5.35812V5.36784M16.9487 5.35812V5.36784M16.9487 5.36784V5.37756M16.9487 5.36784V5.37756M16.9487 5.37756V5.38729M16.9487 5.37756V5.38729M16.9487 5.38729V5.39701M16.9487 5.38729V5.39701M16.9487 5.39701V5.40673M16.9487 5.39701V5.40673M16.9487 5.40673V5.41645M16.9487 5.40673V5.41645M16.9487 5.41645V5.42617M16.9487 5.41645V5.42617M16.9487 5.42617V5.43589M16.9487 5.42617V5.43589M16.9487 5.43589V5.44561M16.9487 5.43589V5.44561M16.9487 5.44561V5.45533M16.9487 5.44561V5.45533M16.9487 5.45533V5.46505M16.9487 5.45533V5.46505M16.9487 5.46505V5.47477M16.9487 5.46505V5.47477M16.9487 5.47477V5.48449M16.9487 5.47477V5.48449M16.9487 5.48449V5.49421M16.9487 5.48449V5.49421M16.9487 5.49421V5.50393M16.9487 5.49421V5.50393M16.9487 5.50393V5.51365M16.9487 5.50393V5.51365M16.9487 5.51365V5.52337M16.9487 5.51365V5.52337M16.9487 5.52337V5.53309M16.9487 5.52337V5.53309M16.9487 5.53309V5.54281M16.9487 5.53309V5.54281M16.9487 5.54281V5.55253M16.9487 5.54281V5.55253M16.9487 5.55253V5.56225M16.9487 5.55253V5.56225M16.9487 5.56225V5.57197M16.9487 5.56225V5.57197M16.9487 5.57197V5.5817M16.9487 5.57197V5.5817M16.9487 5.5817V5.59142M16.9487 5.5817V5.59142M16.9487 5.59142V5.60114M16.9487 5.59142V5.60114M16.9487 5.60114V5.61086M16.9487 5.60114V5.61086M16.9487 5.61086V5.62058M16.9487 5.61086V5.62058M16.9487 5.62058V5.6303M16.9487 5.62058V5.6303M16.9487 5.6303V5.64002M16.9487 5.6303V5.64002M16.9487 5.64002V5.64974M16.9487 5.64002V5.64974M16.9487 5.64974V5.65946M16.9487 5.64974V5.65946M16.9487 5.65946V5.66918M16.9487 5.65946V5.66918M16.9487 5.66918V5.6789M16.9487 5.66918V5.6789M16.9487 5.6789V5.68862M16.9487 5.6789V5.68862M16.9487 5.68862V5.69834M16.9487 5.68862V5.69834M16.9487 5.69834V5.70806M16.9487 5.69834V5.70806M16.9487 5.70806V5.71778M16.9487 5.70806V5.71778M16.9487 5.71778V5.7275M16.9487 5.71778V5.7275M16.9487 5.7275V5.73722M16.9487 5.7275V5.73722M16.9487 5.73722V5.74694M16.9487 5.73722V5.74694M16.9487 5.74694V5.75666M16.9487 5.74694V5.75666M16.9487 5.75666V5.76638M16.9487 5.75666V5.76638M16.9487 5.76638V5.7761M16.9487 5.76638V5.7761M16.9487 5.7761V5.78583M16.9487 5.7761V5.78583M16.9487 5.78583V5.79555M16.9487 5.78583V5.79555M16.9487 5.79555V5.80527M16.9487 5.79555V5.80527M16.9487 5.80527V5.81499M16.9487 5.80527V5.81499M16.9487 5.81499V5.82471M16.9487 5.81499V5.82471M16.9487 5.82471V5.83443M16.9487 5.82471V5.83443M16.9487 5.83443V5.84415V5.83443ZM1.82942 21.9287C1.82985 15.9264 1.82905 9.9241 1.82702 3.92171L16.9487 9.04219V9.06734V9.0925V9.11766V9.14281V9.16797V9.19312V9.21828V9.24344V9.26859V9.29375V9.31891V9.34406V9.36922V9.39437V9.41953V9.44469V9.46984V9.495V9.52016V9.54531V9.57047V9.59562V9.62078V9.64594V9.67109V9.69625V9.72141V9.74656V9.77172V9.79688V9.82203V9.84719V9.87234V9.8975V9.92266V9.94781V9.97297V9.99813V10.0233V10.0484V10.0736V10.0988V10.1239V10.1491V10.1742V10.1994V10.2245V10.2497V10.2748V10.3V10.3252V10.3503V10.3755V10.4006V10.4258V10.4509V10.4761V10.5012V10.5264V10.5516V10.5767V10.6019V10.627V10.6522V10.6773V10.7025V10.7277V10.7528V10.778V10.8031V10.8283V10.8534V10.8786V10.9037V10.9289V10.9541V10.9792V11.0044V11.0295V11.0547V11.0798V11.105V11.1302V11.1553V11.1805V11.2056V11.2308V11.2559V11.2811V11.3062V11.3314V11.3566V11.3817V11.4069V11.432V11.4572V11.4823V11.5075V11.5327V11.5578V11.583V11.6081V11.6333V11.6584V11.6836V11.7087V11.7339V11.7591V11.7842V11.8094V11.8345V11.8597V11.8848V11.91V11.9352V11.9603V11.9855V12.0106V12.0358V12.0609V12.0861V12.1112V12.1364V12.1616V12.1867V12.2119V12.237V12.2622V12.2873V12.3125V12.3377V12.3628V12.388V12.4131V12.4383V12.4634V12.4886V12.5137V12.5389V12.5641V12.5892V12.6144V12.6395V12.6647V12.6898V12.715V12.7402V12.7653V12.7905V12.8156V12.8408V12.8659V12.8911V12.9162V12.9414V12.9666V12.9917V13.0169V13.042V13.0672V13.0923V13.1175V13.1427V13.1678V13.193V13.2181V13.2433V13.2684V13.2936V13.3187V13.3439V13.3691V13.3942V13.4194V13.4445V13.4697V13.4948V13.52V13.5452V13.5703V13.5955V13.6206V13.6458V13.6709V13.6961V13.7212V13.7464V13.7716V13.7967V13.8219V13.847V13.8722V13.8973V13.9225V13.9477V13.9728V13.998V14.0231V14.0483V14.0734V14.0986V14.1237V14.1489V14.1741V14.1992V14.2244V14.2495V14.2747V14.2998V14.325V14.3502V14.3753V14.4005V14.4256V14.4508V14.4759V14.5011V14.5262V14.5514V14.5766V14.6017V14.6269V14.652V14.6772V14.7023V14.7275V14.7527V14.7778V14.803V14.8281V14.8533V14.8784V14.9036V14.9287V14.9539V14.9791V15.0042V15.0294V15.0545V15.0797V15.1048V15.13V15.1552V15.1803V15.2055V15.2306V15.2558V15.2809V15.3061V15.3312V15.3564V15.3816V15.4067V15.4319V15.457V15.4822V15.5073V15.5325V15.5577V15.5828V15.608V15.6331V15.6583V15.6834V15.7086V15.7337V15.7589V15.7841V15.8092V15.8344V15.8595V15.8847V15.9098V15.935V15.9602V15.9853V16.0105V16.0356V16.0608V16.0859V16.1111V16.1362V16.1614V16.1866V16.2117V16.2369V16.262V16.2872V16.3123V16.3375V16.3627V16.3878V16.413V16.4381V16.4633V16.4884V16.5136V16.5387V16.5639V16.5891V16.6142V16.6394V16.6645V16.6897V16.7148V16.74V16.7652V16.7903V16.8155V16.8406V16.8658V16.8909V16.9161V16.9412V16.9664V16.9916V17.0167V17.0419V17.067V17.0922V17.1173V17.1425V17.1677V17.1928V17.218V17.2431V17.2683V17.2934V17.3186V17.3437V17.3689V17.3941V17.4192V17.4444V17.4695V17.4947V17.5198V17.545V17.5702V17.5953V17.6205V17.6456V17.6708V17.6959V17.7211V17.7462V17.7714V17.7966V17.8217V17.8469V17.872V17.8972V17.9223V17.9475V17.9727V17.9978V18.023V18.0481V18.0733V18.0984V18.1236V18.1487V18.1739V18.1991V18.2242V18.2494V18.2745V18.2997V18.3248V18.35V18.3752V18.4003V18.4255V18.4506V18.4758V18.5009V18.5261V18.5512V18.5764V18.6016V18.6267V18.6519V18.677V18.7022V18.7273V18.7525V18.7777V18.8028V18.828V18.8531V18.8783V18.9034V18.9286V18.9537V18.9789V19.0041V19.0292V19.0544V19.0795V19.1047V19.1298V19.155V19.1802V19.2053V19.2305V19.2556V19.2808V19.3059V19.3311V19.3562V19.3814V19.4066V19.4317V19.4569V19.482V19.5072V19.5323V19.5575V19.5827V19.6078V19.633V19.6581V19.6833V19.7084V19.7336V19.7587V19.7839V19.8091V19.8342V19.8594V19.8845V19.9097V19.9348V19.96V19.9852V20.0103V20.0355V20.0606V20.0858V20.1109V20.1361V20.1612V20.1864V20.2116V20.2367V20.2619V20.287V20.3122V20.3373V20.3625V20.3877V20.4128V20.438V20.4631V20.4883V20.5134V20.5386V20.5637V20.5889V20.6141V20.6392V20.6644V20.6895V20.7147V20.7398V20.765V20.7902V20.8153V20.8405V20.8656V20.8908V20.9159V20.9411V20.9662V20.9914V21.0166V21.0417V21.0669V21.092V21.1172V21.1423V21.1675V21.1927V21.2178V21.243V21.2681V21.2933V21.3184V21.3436V21.3687V21.3939V21.4191V21.4442V21.4694V21.4945V21.5197V21.5448V21.57V21.5952V21.6203V21.6455V21.6706V21.6958V21.7209V21.7461V21.7712V21.7964V21.8216V21.8467V21.8719V21.897V21.9222V21.9222C16.9487 22.0064 16.9486 22.0611 16.9443 22.1003C16.9419 22.1229 16.9386 22.1333 16.937 22.1374C16.933 22.139 16.9228 22.1422 16.901 22.1446C16.8622 22.149 16.808 22.1491 16.7244 22.1491H2.06397C1.97842 22.1491 1.92227 22.149 1.88189 22.1446C1.85641 22.1419 1.84534 22.1382 1.84147 22.1365C1.83989 22.1328 1.83668 22.1231 1.83417 22.102C1.82969 22.0642 1.82942 22.0112 1.82942 21.9287ZM7.97581 1.97297L7.87581 1.97372L7.97581 1.97299L7.97581 1.97297ZM7.99054 4.521L7.99053 4.52036L7.89053 4.521H7.99054Z" fill="#4A00E0" stroke="#4A00E0" stroke-width="0.2"/>
<path d="M7.79006 14.9562C8.08867 14.8349 8.27249 14.8919 8.4816 15.1387M7.79006 14.9562L7.75246 14.8635C7.91271 14.7985 8.05715 14.7751 8.19578 14.813C8.33322 14.8506 8.44754 14.9438 8.55789 15.0741L8.55802 15.0742C8.76478 15.3193 8.96843 15.5671 9.18011 15.8247C9.24981 15.9095 9.32037 15.9954 9.39221 16.0826C9.46111 16 9.52894 15.9187 9.59599 15.8383C9.80628 15.5862 10.0089 15.3432 10.2127 15.1012M7.79006 14.9562C7.65234 15.0121 7.51453 15.0678 7.37671 15.1235C6.60295 15.4363 5.82902 15.7493 5.06948 16.0901L7.75244 14.8635M7.79006 14.9562L7.75244 14.8635M8.4816 15.1387L10.2127 15.1012M8.4816 15.1387L8.4816 15.1387L8.4816 15.1387ZM8.4816 15.1387C8.68792 15.3832 8.89091 15.6303 9.10237 15.8876C9.17605 15.9773 9.25076 16.0682 9.32699 16.1607L8.4816 15.1387ZM10.2127 15.1012C10.3387 14.9516 10.4592 14.8473 10.6082 14.8104M10.2127 15.1012L10.6082 14.8104M7.75244 14.8635C7.61495 14.9193 7.47729 14.975 7.33957 15.0306C6.56588 15.3435 5.78998 15.6572 5.02859 15.9989C4.38213 16.2881 3.91504 16.7965 3.84738 17.4867L3.84738 17.4868C3.78769 18.097 3.79238 18.7148 3.79702 19.3253C3.79826 19.4886 3.7995 19.6513 3.7995 19.8132C3.7995 19.9307 3.84863 20.0301 3.93182 20.0991C4.01302 20.1665 4.121 20.2008 4.23634 20.2049L4.23637 20.2049M7.75244 14.8635L4.23637 20.2049M13.6373 15.9358L13.6374 15.9358C14.0524 16.1152 14.378 16.3628 14.6046 16.6765C14.8315 16.9905 14.9555 17.3656 14.9754 17.7932C14.9995 18.3136 14.9955 18.8356 14.9915 19.3543C14.9906 19.4755 14.9897 19.5964 14.9891 19.7171L13.6373 15.9358ZM13.6373 15.9358C12.961 15.6439 12.2778 15.3657 11.5952 15.0877C11.4293 15.0201 11.2634 14.9525 11.0976 14.8848M13.6373 15.9358L11.0976 14.8848M14.5131 20.2052L14.513 20.2052C14.3793 20.206 14.258 20.1623 14.1695 20.0733C14.0811 19.9845 14.0348 19.8598 14.0327 19.7157L14.0327 19.7157L14.5131 20.2052ZM14.5131 20.2052C14.6486 20.2044 14.7704 20.163 14.8584 20.0741M14.5131 20.2052L14.8584 20.0741M4.23637 20.2049C4.34586 20.2087 4.44999 20.1878 4.53684 20.1333C4.62515 20.0779 4.68747 19.9926 4.71971 19.8835L4.23637 20.2049ZM11.0976 14.8848C10.9135 14.8094 10.7572 14.7736 10.6082 14.8104M11.0976 14.8848L10.6082 14.8104M14.8584 20.0741C14.9463 19.9852 14.9886 19.8608 14.9891 19.7173L14.8584 20.0741ZM10.8745 15.796C10.8569 15.8008 10.832 15.8157 10.7899 15.8679C10.4731 16.2609 10.1473 16.6472 9.82199 17.0325L10.8745 15.796ZM10.8745 15.796C10.8912 15.7915 10.9216 15.7908 10.9878 15.819L10.8745 15.796ZM5.60345 16.7308L5.60352 16.7308L4.96225 17.2075C5.10174 17.0102 5.31373 16.8507 5.60345 16.7308ZM13.8232 17.2135C13.9593 17.4092 14.0299 17.6485 14.0284 17.9367L10.9878 15.819C11.3552 15.9756 11.7247 16.1277 12.0936 16.2795L12.1299 16.2944C12.4869 16.4412 12.8432 16.5878 13.1976 16.7382C13.4798 16.8579 13.6868 17.0173 13.8232 17.2135ZM8.01546 15.8752C8.32863 16.2697 8.64751 16.6615 8.97746 17.0453L7.75462 15.7335L7.79362 15.8256C7.79364 15.8256 7.79365 15.8256 7.79366 15.8256C7.86332 15.7961 7.8992 15.7942 7.9216 15.7994C7.94294 15.8044 7.97157 15.8205 8.01546 15.8752ZM8.9775 17.0453C9.10119 17.1895 9.24414 17.2767 9.40228 17.2731C9.55924 17.2694 9.70017 17.1768 9.82197 17.0325L8.9775 17.0453ZM4.75142 19.5983C4.75408 19.0454 4.75608 18.4921 4.75275 17.9387L4.65142 19.598L4.75142 19.5985C4.75142 19.5984 4.75142 19.5983 4.75142 19.5983Z" fill="#4A00E0" stroke="#4A00E0" stroke-width="0.2"/>
<path d="M9.5933 7.84734L9.5933 7.84726L9.58921 7.84727C7.94422 7.84928 6.7889 8.52318 6.32818 9.67461C5.78134 11.0411 6.3002 12.8207 7.50809 13.7467L7.56893 13.6673L7.50809 13.7467C8.53352 14.5327 9.83206 14.6345 10.9139 14.0076L10.9139 14.0076C11.6738 13.5672 12.2273 12.8064 12.496 11.9727C12.7647 11.1393 12.752 10.2223 12.3648 9.46844L12.3648 9.46843C11.7686 8.30817 10.6789 7.8904 9.5933 7.84734ZM7.7338 12.5728C7.36814 12.076 7.16942 11.5347 7.1527 11.0046L7.1519 10.9263C7.14238 9.98942 7.54531 9.41586 8.10481 9.105C8.67136 8.79022 9.41044 8.73876 10.0721 8.87908C10.6046 8.99201 11.0037 9.22853 11.2673 9.55648C11.5308 9.88431 11.6655 10.3119 11.6542 10.8195C11.6397 11.4675 11.4541 12.051 11.058 12.5836L11.058 12.5836C10.197 13.7419 8.59055 13.7384 7.73384 12.5728L7.7338 12.5728Z" fill="#4A00E0" stroke="#4A00E0" stroke-width="0.2"/>
</svg>
