<svg width="24" height="24" viewBox="0 0 24 24" fill="none" xmlns="http://www.w3.org/2000/svg">
<path fill-rule="evenodd" clip-rule="evenodd" d="M12.2656 4C7.84735 4 4.26562 7.58172 4.26562 12C4.26562 16.4183 7.84735 20 12.2656 20C16.6839 20 20.2656 16.4183 20.2656 12C20.2656 7.58172 16.6839 4 12.2656 4ZM2.26562 12C2.26562 6.47715 6.74278 2 12.2656 2C17.7885 2 22.2656 6.47715 22.2656 12C22.2656 17.5228 17.7885 22 12.2656 22C6.74278 22 2.26562 17.5228 2.26562 12Z" fill="#333333"/>
<path fill-rule="evenodd" clip-rule="evenodd" d="M12.2656 11C12.8179 11 13.2656 11.4477 13.2656 12V16C13.2656 16.5523 12.8179 17 12.2656 17C11.7133 17 11.2656 16.5523 11.2656 16V12C11.2656 11.4477 11.7133 11 12.2656 11Z" fill="#333333"/>
<path fill-rule="evenodd" clip-rule="evenodd" d="M11.2656 8C11.2656 7.44772 11.7133 7 12.2656 7H12.2756C12.8279 7 13.2756 7.44772 13.2756 8C13.2756 8.55228 12.8279 9 12.2756 9H12.2656C11.7133 9 11.2656 8.55228 11.2656 8Z" fill="#333333"/>
</svg>
