<svg width="51" height="24" viewBox="0 0 51 18" fill="none" xmlns="http://www.w3.org/2000/svg">
<path d="M46.2953 14.6168C47.6229 14.4304 48.9403 14.2931 50.1902 13.8341C50.3622 13.7719 50.5087 13.6446 50.6699 13.547L50.6412 13.4272C50.4854 13.3842 50.3274 13.3492 50.1679 13.3222C49.9685 13.2979 49.766 13.3004 49.5653 13.2868C48.7766 13.2327 48.2689 12.8308 48.0192 12.058L48.3491 12.0213C49.097 11.9393 49.8443 11.8548 50.5928 11.7759C50.8591 11.748 50.9572 11.6063 50.9343 11.3553C50.8559 10.513 50.6725 9.69667 50.2558 8.94871C49.8672 8.24983 49.2729 7.77707 48.518 7.4677C46.8505 6.79311 45.111 6.3022 43.3318 6.00408C41.578 5.70154 39.8063 5.49778 38.0443 5.25861C37.8697 5.235 37.6888 5.2555 37.5162 5.2555C37.4359 5.63942 37.3505 5.69844 36.9963 5.51145C35.8853 4.92687 34.7749 4.34043 33.6837 3.71858C32.6217 3.11226 31.5814 2.46929 30.5437 1.82445C30.2723 1.65548 30.0576 1.40139 29.7939 1.21875C29.6238 1.09577 29.4281 1.01092 29.2205 0.970261C28.342 0.830485 27.4629 0.670829 26.5774 0.604978C23.259 0.356487 19.9375 0.383821 16.6185 0.604978C13.5772 0.805635 10.7806 1.7965 8.1177 3.19116C7.85587 3.32845 7.59084 3.46015 7.33539 3.60862C6.27916 4.22053 5.12103 4.46468 3.91127 4.56905C3.1945 4.64111 2.48199 4.74893 1.77653 4.89208C1.54719 4.93495 1.3306 5.07845 1.1261 5.19959C1.08972 5.22664 1.06067 5.26194 1.04147 5.30243C1.02226 5.34292 1.01348 5.38738 1.0159 5.43193C1.02991 5.49405 1.15158 5.53257 1.23185 5.57047C1.28138 5.58959 1.33402 5.5999 1.38728 5.60091C1.67969 5.62513 2.02434 5.56425 2.21164 5.8351C2.51077 6.27003 2.78325 6.72184 3.02768 7.18814C3.05953 7.25027 2.90601 7.48758 2.80471 7.51243C2.3829 7.60839 1.95582 7.68078 1.52554 7.72923C1.29556 7.75781 1.05922 7.73731 0.824783 7.74849C0.590347 7.75967 0.51199 7.87957 0.471855 8.10322C0.398594 8.50577 0.259087 8.89652 0.174995 9.29784C0.11129 9.59479 0.0412064 9.90478 0.0685997 10.2011C0.132305 10.8782 0.259716 11.5498 0.341896 12.2251C0.385216 12.5723 0.600544 12.7792 0.906963 12.8693C1.42225 13.0274 1.9474 13.1532 2.47919 13.2457C3.3787 13.3905 4.28521 13.4942 5.19045 13.6048C5.77654 13.6756 5.82751 13.593 5.88293 13.0308C6.02245 11.579 6.75505 10.4341 7.97309 9.63206C10.9729 7.65655 14.7984 9.07296 15.7145 12.6314C15.8183 13.0358 15.8037 13.4694 15.8527 13.9825L36.2879 14.4217C36.302 14.2608 36.33 14.0397 36.3402 13.8179C36.3899 12.7345 36.5982 11.6921 37.276 10.8025C38.4762 9.22702 40.1013 8.53124 42.087 8.82571C44.1835 9.13632 45.5519 10.3297 46.1418 12.335C46.3424 13.0184 46.4775 13.7055 46.294 14.4155C46.2876 14.4825 46.2881 14.5499 46.2953 14.6168ZM35.1788 5.64998L35.1279 5.74378C34.9367 5.74378 34.7456 5.75248 34.559 5.74378C31.443 5.57812 28.3272 5.41433 25.2116 5.2524C25.0122 5.24246 24.923 5.16418 24.8994 4.9834C24.8899 4.91196 24.8695 4.84176 24.8555 4.77032C24.6586 3.79624 24.4599 2.82215 24.2668 1.85055C24.1949 1.48961 24.2356 1.44115 24.6141 1.39083C24.7289 1.37036 24.8458 1.36244 24.9625 1.36723C25.7741 1.4455 26.601 1.45855 27.3922 1.62814C29.6429 2.10897 31.6502 3.13773 33.5327 4.40442C34.1041 4.78461 34.631 5.23313 35.1788 5.64998ZM23.3782 5.09087H15.6005C15.6992 4.04596 15.7884 3.02777 15.8961 2.01206C15.9292 1.70704 16.1413 1.53868 16.456 1.51135C17.0262 1.46227 17.5957 1.39518 18.1671 1.3753C19.6291 1.32498 21.0918 1.29765 22.5545 1.25851C22.8424 1.25044 22.9883 1.39643 23.0259 1.65672C23.0864 2.06549 23.1476 2.47488 23.1877 2.88613C23.259 3.61359 23.3145 4.34291 23.3782 5.09025V5.09087ZM14.5869 5.11138C13.7505 5.11138 12.9159 5.11137 12.0814 5.10702C12.0458 5.10572 12.0108 5.09727 11.9787 5.0822C11.9466 5.06713 11.918 5.04576 11.8948 5.01944C11.6266 4.65167 11.3686 4.27396 11.0927 3.88258C12.1196 2.82649 13.4217 2.33945 14.8322 1.93503C14.7481 3.0228 14.6697 4.03975 14.5869 5.10889V5.11138ZM50.3297 9.806C50.2818 9.8272 50.2319 9.84384 50.1806 9.8557C49.2251 9.8557 48.274 9.86253 47.321 9.8557C47.2711 9.85033 47.2228 9.83525 47.1791 9.81134C47.1353 9.78744 47.0969 9.7552 47.0661 9.71655C46.8674 9.46184 46.6839 9.1972 46.5049 8.92758C46.3386 8.67412 46.3698 8.57038 46.6769 8.52689C47.3668 8.42874 48.0606 8.33493 48.7556 8.30387C48.8857 8.30348 49.0146 8.3282 49.1349 8.3766C49.2551 8.42501 49.3644 8.49614 49.4563 8.58591C49.7851 8.94746 50.0341 9.38108 50.3297 9.80538V9.806Z" fill="#4A00E0"/>
<path d="M41.4273 9.70588C38.9645 9.70961 37.3368 11.3136 37.3024 13.6861C37.268 16.0051 39.3939 17.5924 41.4433 17.5713C43.65 17.5489 45.4089 15.8032 45.4102 13.6165C45.414 11.2068 43.3041 9.58163 41.4273 9.70588ZM38.5472 13.5966C38.5472 12.051 39.7506 10.8521 41.3025 10.8452C42.8543 10.8384 44.1985 12.1274 44.1819 13.6178C44.1628 15.3224 42.9231 16.2977 41.3209 16.4034C39.8812 16.5009 38.5447 15.077 38.5472 13.5985V13.5966Z" fill="#4A00E0"/>
<path d="M6.74906 13.5625C6.71147 15.6703 8.56655 17.5247 10.744 17.5558C13.0227 17.5881 14.7797 15.9163 14.8886 13.7476C14.9886 11.7597 13.1845 9.67423 10.895 9.69597C8.57866 9.71771 6.78919 11.331 6.74906 13.5625ZM13.6062 13.5171C13.6062 15.1249 12.3958 16.3847 10.858 16.3804C9.27049 16.3767 8.01744 15.2001 8.01043 13.706C8.00342 12.097 9.22592 10.862 10.8185 10.8589C12.171 10.8564 13.6827 11.8665 13.6062 13.5171Z" fill="#4A00E0"/>
</svg>
