<svg width="16" height="17" viewBox="0 0 16 17" fill="none" xmlns="http://www.w3.org/2000/svg">
<path d="M3.33268 8.59766L5.99935 5.93099M3.33268 8.59766L5.99935 11.2643M3.33268 8.59766H9.99935M6.66602 14.5977C7.45395 14.5977 8.23416 14.4425 8.96212 14.1409C9.69007 13.8394 10.3515 13.3974 10.9087 12.8403C11.4658 12.2831 11.9078 11.6217 12.2093 10.8938C12.5108 10.1658 12.666 9.38559 12.666 8.59766C12.666 7.80973 12.5108 7.02951 12.2093 6.30156C11.9078 5.5736 11.4658 4.91217 10.9087 4.35502C10.3515 3.79786 9.69007 3.35591 8.96212 3.05438C8.23416 2.75285 7.45395 2.59766 6.66602 2.59766" stroke="#333333" stroke-linecap="round" stroke-linejoin="round"/>
</svg>
