<svg width="71" height="35" viewBox="0 0 71 35" fill="none" xmlns="http://www.w3.org/2000/svg">
<path opacity="0.7" d="M38.6906 0H45.4941L31.2834 17.4996L45.4941 35H38.6906L24.4806 17.4996L38.6906 0Z" fill="#4A00E0"/>
<path opacity="0.8" d="M27.2101 0H34.0137L19.8029 17.4996L34.0137 35H27.2101L13.0001 17.4996L27.2101 0Z" fill="#4A00E0"/>
<path opacity="0.9" d="M15.2101 0H22.0137L7.80289 17.4996L22.0137 35H15.2101L1.00013 17.4996L15.2101 0Z" fill="#4A00E0"/>
<path opacity="0.4" d="M50.9902 0H57.793L43.5822 17.4996L57.793 35H50.9902L36.7794 17.4996L50.9902 0Z" fill="#4A00E0"/>
<path opacity="0.1" d="M63.2129 0H70.0156L55.8057 17.4996L70.0156 35H63.2129L49.0029 17.4996L63.2129 0Z" fill="#4A00E0"/>
</svg>
