<svg width="92" height="101" viewBox="0 0 92 101" fill="none" xmlns="http://www.w3.org/2000/svg">
<path d="M45.3925 49.2917L39.1951 54.3795C38.9705 54.527 38.8073 54.7505 38.7356 55.0086C37.4265 60.3438 34.5955 64.8967 31.4166 69.3008C27.266 75.0491 23.2229 80.8729 19.5339 86.9316C18.5326 88.5737 18.0457 88.6807 16.4668 87.6719C11.3613 84.4129 6.26204 81.1448 1.16915 77.8677C-0.192604 76.9932 -0.327482 76.4374 0.570518 75.1015C6.18056 66.7632 12.0766 58.6297 18.2586 50.701C19.9007 48.6039 21.7283 46.5948 24.0092 45.1163C24.553 44.764 24.3844 44.3592 24.3696 43.9377C24.3085 42.1047 23.8026 40.3515 23.3473 38.5983C22.6301 35.9947 22.7146 33.2369 23.5897 30.6815C24.9583 26.6355 25.8331 22.4404 26.1952 18.1866C26.3237 16.7542 26.701 15.5756 28.3748 15.3764C29.1189 15.2883 28.8766 14.7473 28.8766 14.3425C28.8934 11.0709 28.8765 7.79934 28.8913 4.52777C28.8913 1.54351 30.449 0.00209716 33.4297 0C39.5963 0 45.7621 0 51.9273 0C54.8995 0 56.47 1.54351 56.4827 4.52987C56.5016 8.70951 56.5059 12.8892 56.47 17.0688C56.47 17.8741 56.6176 18.3732 57.4228 18.7717C58.9321 19.5162 59.6657 21.4351 59.1788 23.2303C58.968 23.9978 58.8752 24.6983 59.1471 25.4575C59.2101 25.5791 59.2399 25.7151 59.2336 25.8517C58.7656 27.9237 59.3094 30.0461 58.892 32.1139C58.7656 32.7283 58.616 33.4791 59.1219 33.7182C59.6615 33.972 60.3339 34.2719 61.1139 33.7014C63.5338 31.9356 65.8442 32.4914 67.227 35.1967C68.7195 38.1327 69.4594 41.3309 70.2751 44.4892C71.3607 48.6835 71.5716 53.0058 71.873 57.305C71.9173 57.9614 71.9636 58.4228 72.7921 58.492C73.3928 58.5423 73.8102 59.0079 74.2318 59.4504C76.3398 61.6524 77.7058 64.2969 78.92 67.0358C82.4509 75.0051 86.6183 82.6681 90.419 90.5073C90.6952 91.0756 91.0156 91.646 91.1548 92.2542C91.3424 93.0931 90.866 93.6069 90.1008 93.9173C84.3994 96.2116 78.7 98.5107 73.0029 100.815C72.1301 101.165 71.3165 101.056 70.8949 100.163C67.0267 91.9124 62.1573 84.134 59.1282 75.4874C58.0742 72.4675 57.231 69.3595 57.3722 66.1823C57.4544 64.4039 57.0033 63.8335 55.397 63.2463C53.23 62.4682 51.9863 60.4507 50.6773 58.6451C49.2881 56.7325 47.96 54.7737 46.5519 52.8779C45.7867 51.8649 45.2239 50.8206 45.3925 49.2917Z" fill="#042E56"/>
<path d="M85.0846 94.3262C81.0795 95.962 77.0743 97.5831 73.0691 99.2462C72.3398 99.5503 72.0531 99.3154 71.7348 98.6736C68.6403 92.4514 65.453 86.2731 62.4238 80.0089C60.8787 76.817 59.8479 73.4133 59.1122 69.9425C58.6484 67.7615 58.8382 67.3756 60.8155 66.3522C64.0955 64.6514 67.464 63.1582 71.115 62.4095C72.8879 65.4839 74.1548 68.7975 75.624 72.0145C78.1873 77.6328 80.875 83.1966 83.2739 88.8946C83.8157 90.1864 84.427 91.4594 84.9414 92.7659C85.1353 93.2588 85.462 93.7747 85.0846 94.3262Z" fill="#A81203"/>
<path d="M12.4255 83.2553C8.96423 81.0701 5.50919 78.8743 2.03313 76.7143C1.32274 76.2739 1.71489 75.9236 1.99525 75.5252C4.18755 72.4025 6.33554 69.2484 8.58897 66.1697C12.2632 61.1365 15.7414 55.9796 19.7212 51.1813C22.2508 48.1299 22.7356 48.0356 26.2307 49.8706C28.5684 51.0995 30.8366 52.4417 32.7654 54.2746C32.4935 56.2921 31.1823 57.8251 30.1642 59.4441C26.705 64.9492 23.113 70.3703 19.5716 75.8251C17.6765 78.7237 15.2527 81.2439 12.4255 83.2553Z" fill="#A81203"/>
<path d="M56.7763 62.2607C55.5474 62.0048 54.6683 61.2121 53.8799 60.3229C51.4178 57.5106 49.4953 54.3019 47.2735 51.3051C46.2785 49.965 46.7317 48.5977 48.4518 47.5721C49.3878 47.0164 49.4869 46.5236 49.1349 45.54C47.5159 40.9619 45.996 36.3523 44.4467 31.7511C44.178 31.0257 44.0743 30.25 44.1431 29.4799C44.1629 29.0912 44.3069 28.7188 44.5541 28.4171C44.8013 28.1153 45.1388 27.8999 45.5175 27.8022C45.9055 27.6571 46.3301 27.64 46.7286 27.7533C47.1271 27.8665 47.4785 28.1043 47.7309 28.4313C48.3064 29.0982 48.5742 29.9266 48.8714 30.7382C49.8916 33.5925 50.9034 36.4509 51.9743 39.4708C52.7458 36.7445 54.3121 36.2328 56.4686 37.8057C57.4994 35.0332 58.8442 34.5865 61.144 36.2789C61.2747 35.5239 61.593 34.9116 62.3772 34.6641C63.8296 35.6078 64.4578 37.1493 65.0606 38.6215C67.0569 43.5058 67.6704 48.648 67.2931 53.8616C67.0823 56.8207 65.8849 59.4148 62.881 60.7298C62.6307 60.8491 62.4349 61.058 62.3329 61.3149L62.0736 61.4029C60.2945 61.6043 58.625 62.4872 56.7763 62.2607Z" fill="#F7BC94"/>
<path d="M31.6762 6.3104L31.6909 6.04825C32.0198 5.81127 32.3971 5.90986 32.7449 5.90986C38.3943 5.90986 44.0416 5.90985 49.691 5.89726C50.4119 5.89726 51.0486 5.89726 51.232 6.80953C51.9023 10.1839 51.837 13.5561 51.2657 16.9304C51.1954 17.2424 51.0459 17.5312 50.8315 17.7693L50.8104 17.8784C49.9503 18.0063 49.6468 17.2849 49.202 16.8046C46.293 13.6589 42.4164 12.8892 38.7991 14.7221C35.2788 16.5026 33.8707 19.4282 34.1953 23.2282C34.4799 26.5627 36.3876 28.7983 39.3345 30.2286C39.9183 30.4881 40.5166 30.7143 41.1263 30.9059C41.6617 31.1492 42.6018 30.8766 42.6398 31.728C42.6777 32.5229 41.8514 32.7493 41.2422 33.0325C38.6958 34.2195 36.0608 34.2404 33.3647 33.6385C32.2053 33.3806 31.7374 32.827 31.7458 31.5728C31.8006 23.6456 31.7753 15.7162 31.7689 7.78891C31.7711 7.29608 31.868 6.79065 31.6762 6.3104Z" fill="#FEFEFE"/>
<path d="M12.4231 83.2552C12.8004 81.9696 14.0863 81.5041 14.9527 80.7386C17.7352 78.2912 19.5776 75.1958 21.5486 72.1717C24.2889 67.9774 27.0461 63.783 29.738 59.5489C30.8257 57.8397 31.7617 56.034 32.7651 54.2724C33.0732 54.4644 33.3696 54.6745 33.6526 54.9015C36.3929 57.328 36.5721 58.2423 34.7761 61.4028C31.6142 66.9812 27.5689 71.9683 24.0359 77.2972C22.1809 80.0934 20.3659 82.9148 18.591 85.7613C18.0851 86.575 17.6825 86.8414 16.8161 86.2101C15.389 85.1762 13.8924 84.2367 12.4231 83.2552Z" fill="#C74336"/>
<path d="M28.8942 29.4064C28.8942 33.0408 28.8942 36.6752 28.8942 40.3116C28.8942 43.038 30.5933 44.7157 33.34 44.7157C37.634 44.7283 41.9258 44.7157 46.2198 44.7367C46.5866 44.7367 47.1135 44.4976 47.2885 45.0387C47.4213 45.4581 46.9955 45.6678 46.7446 45.9048C44.2741 48.3333 41.6243 50.5605 38.9282 52.7352C38.4919 53.0855 38.2157 53.4022 37.6149 52.7835C34.5668 49.6377 30.9073 47.3309 26.9696 45.4791C26.1391 45.0869 25.8314 44.6528 25.8124 43.7699C25.7681 41.8048 25.18 39.9237 24.7142 38.032C24.1119 35.7768 24.1963 33.3944 24.9566 31.1869C26.4511 26.915 27.2395 22.5046 27.718 18.0251C27.7686 17.5407 27.718 16.8821 28.4305 16.9262C29.2273 16.9744 28.8689 17.6896 28.871 18.0943C28.9069 21.8629 28.8942 25.6336 28.8942 29.4064Z" fill="#F7BC95"/>
<path d="M40.6901 31.1325C37.4353 30.1217 35.1271 28.142 34.0499 24.841C32.7514 20.8564 34.7729 16.2846 38.7507 14.307C42.583 12.4006 47.5241 13.6023 49.8598 17.0165C50.1148 17.3877 50.2813 17.8344 50.8189 17.8826C49.2716 18.8893 49.2716 20.3992 49.5183 21.9595C49.5731 22.3055 49.8261 22.6348 49.5858 22.9871C48.5529 24.5034 48.6561 26.0888 49.3012 27.7603C48.6094 27.1108 47.8145 26.5793 46.9486 26.1874C46.1413 25.2521 45.2623 24.7571 44.0186 25.4995C43.5654 25.7722 43.0004 25.4995 42.6462 25.1325C41.4636 23.8868 40.5593 22.4985 40.612 20.6823C40.631 19.9861 40.8608 19.445 41.5564 19.1808C42.2141 18.9123 43.0785 18.7802 42.4798 17.7128C41.6113 16.1671 41.1096 15.4457 39.8891 16.379C38.5463 17.4024 38.2259 18.1658 38.7824 19.7974C39.6477 22.334 40.8198 24.7565 42.2731 27.0116C42.5492 27.3728 42.802 27.751 43.0299 28.1441C42.5535 29.0878 42.6379 30.107 42.6083 31.1115C41.9894 31.3323 41.3138 31.3397 40.6901 31.1325Z" fill="#A81203"/>
<path d="M85.0861 94.3263C84.1628 91.3001 82.7146 88.4962 81.4098 85.6294C79.9152 82.3473 78.4586 79.0464 76.9619 75.7727C75.6486 72.9059 74.2216 70.0894 72.9842 67.1932C72.3666 65.7504 71.8058 64.2949 71.0026 62.9402C70.9373 62.829 71.0764 62.5983 71.1207 62.4243C74.0339 61.4281 74.7043 61.6064 75.9691 64.3117C80.2356 73.4847 84.8227 82.4962 89.3211 91.556C89.7195 92.3592 89.5656 92.6381 88.773 92.9086C87.5251 93.3218 86.3129 93.8523 85.0861 94.3263Z" fill="#C74336"/>
<path d="M40.6867 31.1325L42.605 31.1094L45.2948 38.7955C40.8322 38.7955 36.553 38.7955 32.2738 38.7955C31.4116 38.7955 31.6414 38.1915 31.6414 37.7469C31.6217 34.1608 31.614 30.5753 31.6182 26.9906C31.6309 20.0923 31.6492 13.1947 31.6731 6.29785C32.082 6.77181 31.8943 7.34643 31.8964 7.86443C31.9091 15.6617 31.9344 23.4568 31.8733 31.252C31.8733 32.4935 32.2548 33.0052 33.4542 33.2485C36.1946 33.8105 38.8613 33.7707 41.4183 32.504C41.8103 32.309 42.4932 32.2041 42.4363 31.7344C42.3647 31.1388 41.6775 31.5246 41.2854 31.382C41.0809 31.3212 40.887 31.2205 40.6867 31.1325Z" fill="#DEE6EC"/>
<path d="M62.3314 61.3192C62.0047 60.7844 62.42 60.5453 62.7783 60.3901C65.7506 59.0962 66.7687 56.4873 66.9436 53.6289C67.243 48.6858 66.6423 43.8204 64.8905 39.127C64.2792 37.4891 63.1514 36.191 62.3736 34.6684C63.7585 33.8925 64.6481 34.0393 65.5356 35.22C65.8377 35.6183 66.085 36.0548 66.2712 36.5181C69.0116 43.4388 70.2764 50.6299 70.405 58.0455C70.405 58.5635 70.1942 58.6746 69.8105 58.7543C67.2325 59.3541 64.8125 60.4258 62.3314 61.3192Z" fill="#F2A57C"/>
<path d="M49.9984 4.35393C43.5164 4.50492 37.0238 4.19663 30.4912 4.50282C30.1012 2.85235 31.1236 1.42419 33.0608 1.4179C38.434 1.39693 43.8115 1.43048 49.1784 1.44306C50.2282 2.45599 50.5233 3.46473 49.9984 4.35393Z" fill="#BCC0C7"/>
<path d="M30.4582 39.8295C31.2824 40.4209 32.2036 40.3224 33.1079 40.3245C35.5279 40.3245 37.9458 40.3245 40.3657 40.3245C40.9538 40.3245 41.3797 40.2783 41.3185 41.1633C41.2574 42.0022 41.9024 42.495 42.7414 42.4803C43.5256 42.4657 43.9915 41.9938 44.0273 41.1759C44.0442 40.8299 43.9134 40.3853 44.4678 40.3538C44.9126 40.3287 45.5408 40.1441 45.758 40.5405C46.1453 41.3091 46.4397 42.1208 46.6349 42.9585C46.7298 43.3108 46.3166 43.3318 46.051 43.3213C41.5863 43.1472 37.1174 43.5436 32.6569 43.1913C31.0169 43.0487 30.2432 41.8428 30.4582 39.8295Z" fill="#989CA3"/>
<path d="M50.8369 17.7692C50.9929 16.1558 51.1482 14.5431 51.3028 12.9311C51.5136 10.7479 51.0477 8.61508 50.7589 6.47388C50.6683 5.79021 49.9347 6.05445 49.4836 6.05445C43.5539 6.03557 37.622 6.04188 31.6901 6.04188C31.941 5.52178 32.4131 5.7902 32.7673 5.7881C39.321 5.77552 45.8769 5.81537 52.4306 5.76714C53.5352 5.76714 53.7986 6.07962 53.7733 7.13449C53.6995 10.2131 53.7165 13.2939 53.7565 16.362C53.7692 17.2533 53.6279 17.7147 52.5739 17.5574C52.0174 17.4924 51.4187 17.6958 50.8369 17.7692Z" fill="#DCE4E9"/>
<path d="M43.0291 28.1419C42.2006 27.9699 41.8844 27.2275 41.5724 26.6298C40.3941 24.3817 39.0892 22.1797 38.3809 19.7218C37.8539 17.8889 38.2629 16.9724 39.8144 16.0853C40.1496 15.9558 40.5134 15.9174 40.8684 15.9741C41.6464 16.6148 42.1616 17.5168 42.3166 18.5096C42.3262 18.6894 42.2802 18.8677 42.1849 19.0207C42.0895 19.1737 41.9493 19.2939 41.7832 19.3652C41.3195 19.575 40.9401 19.8287 40.86 20.4285C40.7145 21.6239 42.0109 24.4509 43.0565 25.0884C43.2208 25.2068 43.4148 25.2778 43.6171 25.2937C43.8194 25.3096 44.0222 25.2698 44.2032 25.1786C46.0308 24.3397 46.0392 24.367 46.9436 26.1831C45.3204 26.202 43.8301 26.4914 43.0291 28.1419Z" fill="#F6FCFC"/>
<path d="M57.5439 31.1282C56.0177 30.3858 54.7634 31.296 53.4312 31.7741C51.6183 32.4221 50.0394 31.145 50.3577 29.3036C50.5222 28.3536 51.0471 27.8671 52.0547 27.972C53.4081 28.1104 54.7635 28.2278 56.1168 28.3662C57.3015 28.4858 57.7547 29.3351 57.5439 31.1282Z" fill="#F4BD96"/>
<path d="M53.3465 23.7167L56.1016 24.0354C56.9237 24.1298 57.4127 24.6121 57.6509 25.3734C58.0557 26.6716 57.7415 27.005 56.4009 26.9589C54.5796 26.896 52.7942 26.3843 50.9581 26.5667C50.2456 26.6359 50.2709 26.0697 50.2561 25.6503C50.2224 24.8114 50.2772 23.939 51.3354 23.7334C51.8624 23.6328 52.4253 23.7167 53.3465 23.7167Z" fill="#F3BC98"/>
<path d="M53.0499 19.0299C54.1629 19.0299 55.1958 19.3781 56.2119 19.7493C56.8211 19.959 57.3734 20.3197 57.5863 20.9719C57.7802 21.5675 58.088 22.2868 57.6938 22.7901C57.3903 23.1739 56.7937 22.6517 56.3088 22.614C54.9998 22.507 53.697 22.2554 52.388 22.2449C51.3087 22.2449 50.7733 21.9219 50.8029 20.7894C50.8324 19.657 51.2519 18.967 52.4892 19.0278C52.6874 19.0362 52.8686 19.0299 53.0499 19.0299Z" fill="#F4BD97"/>
<path d="M49.9972 4.35364C50.2902 3.22536 49.4386 2.41586 49.1772 1.44277C50.1279 1.42809 51.0744 1.39455 52.0272 1.40294C54.1352 1.42391 55.0901 2.52281 54.9046 4.71854C53.3046 4.06423 51.6288 4.54028 49.9972 4.35364Z" fill="#999CA2"/>
<path d="M32.6747 52.1585C29.8584 50.2459 27.0506 48.327 23.7369 47.2407C24.7487 46.2131 24.9827 46.125 26.218 46.6933C28.7447 47.8392 31.1199 49.2902 33.2902 51.0135C33.404 51.565 33.6296 52.1774 32.6747 52.1585Z" fill="#F5F9F9"/>
<path d="M72.952 60.4109C67.954 61.4259 63.3165 63.3049 58.8623 65.7691C58.584 65.077 59.0267 64.7373 59.4947 64.4731C63.2764 62.3486 67.2415 60.6877 71.546 59.9285C72.2522 59.8048 72.2606 59.8488 72.952 60.4109Z" fill="#EAF6FA"/>
<path d="M54.8627 35.4966C54.3229 35.4369 53.7767 35.5089 53.2712 35.7063C52.7168 35.9517 52.2277 36.153 51.9769 35.2722C51.7661 34.5194 51.7239 33.9447 52.5713 33.6218C53.6253 33.217 54.6983 32.8248 55.7481 32.3991C56.469 32.1097 56.8863 32.4809 57.2004 33.0283C57.5145 33.5756 57.679 34.1041 56.9264 34.4963C56.2245 34.8654 55.8492 35.9517 54.8627 35.4966Z" fill="#F1BC97"/>
<path d="M32.6718 52.1585C33.319 52.0117 33.028 51.3658 33.2873 51.0135C34.6069 51.76 35.6778 52.796 36.6917 53.895C37.3241 54.5744 37.4696 55.2959 36.7655 56.2018C35.6124 54.6017 34.0989 53.4252 32.6718 52.1585Z" fill="#DAE4EF"/>
<path d="M56.7777 62.2606C58.1163 61.9124 59.4591 61.5811 60.7829 61.212C60.9986 61.1514 61.2248 61.1377 61.4463 61.1717C61.6677 61.2057 61.8793 61.2867 62.0666 61.4091C60.4519 62.5584 58.7381 63.1728 56.7777 62.2606Z" fill="#DDA586"/>
<path d="M41.795 19.3651L42.069 18.5808C42.2609 17.5322 41.4367 16.9157 40.9919 16.1376L39.8198 16.0852C40.3911 15.6909 41.0046 15.303 41.6264 15.9153C42.3642 16.643 43.0577 17.4819 43.0367 18.5598C43.0198 19.1387 42.3515 19.3106 41.795 19.3651Z" fill="#BFF6F7"/>
<path d="M44.1139 3.89665C43.1568 3.89665 42.1998 3.89665 41.2428 3.89665C41.032 3.89665 40.7558 3.89663 40.7242 3.58625C40.6842 3.22763 40.9561 3.10181 41.2343 3.09972C43.1926 3.08294 45.1531 3.08712 47.1115 3.08502C47.415 3.08502 47.689 3.21295 47.7079 3.50445C47.7311 3.87146 47.3917 3.88825 47.1198 3.89035C46.1143 3.90293 45.1109 3.89665 44.1139 3.89665Z" fill="#153352"/>
<path d="M38.2452 2.83539C38.6667 2.86894 38.9576 3.1164 38.9766 3.50647C38.9831 3.59811 38.9698 3.69008 38.9377 3.77619C38.9055 3.8623 38.8551 3.94057 38.7901 4.00572C38.725 4.07088 38.6466 4.12141 38.5602 4.15395C38.4739 4.18648 38.3816 4.20026 38.2894 4.19435C37.9163 4.19435 37.7097 3.95528 37.657 3.60506C37.6043 3.15836 37.8488 2.92976 38.2452 2.83539Z" fill="#20334D"/>
<path d="M40.9849 16.1376C41.7248 16.7857 42.5616 17.3959 42.062 18.5808C41.7023 17.7671 41.3432 16.9527 40.9849 16.1376Z" fill="#8FB9BA"/>
</svg>
