<svg width="20" height="20" viewBox="0 0 20 20" fill="none" xmlns="http://www.w3.org/2000/svg">
<path d="M8.47357 7.63206L8.12001 7.98561L8.47357 7.63206C8.15848 7.31698 7.64764 7.31698 7.33255 7.63206C7.01747 7.94714 7.01747 8.45799 7.33255 8.77307C7.64763 9.08815 8.15849 9.08815 8.47357 8.77307C8.78865 8.45799 8.78865 7.94714 8.47357 7.63206ZM11.5173 11.8168C11.2023 12.1319 11.2023 12.6428 11.5173 12.9579C11.8324 13.2729 12.3433 13.2729 12.6584 12.9579C12.9734 12.6428 12.9734 12.1319 12.6584 11.8168C12.3433 11.5018 11.8324 11.5018 11.5173 11.8168ZM16.0815 3.91878C15.2054 3.04267 13.9485 2.78121 12.8448 3.13278C12.3131 2.10381 11.2394 1.3999 10.0004 1.3999C8.76138 1.3999 7.68771 2.10381 7.15593 3.13278C6.05232 2.78121 4.79538 3.04267 3.91927 3.91878C3.04316 4.7949 2.7817 6.05184 3.13327 7.15545C2.1043 7.68722 1.40039 8.76089 1.40039 9.9999C1.40039 11.2389 2.1043 12.3126 3.13327 12.8444C2.7817 13.948 3.04316 15.2049 3.91927 16.081C4.79538 16.9571 6.05232 17.2186 7.15594 16.867C7.68771 17.896 8.76138 18.5999 10.0004 18.5999C11.2394 18.5999 12.3131 17.896 12.8448 16.867C13.9485 17.2186 15.2054 16.9571 16.0815 16.081C16.9576 15.2049 17.2191 13.948 16.8675 12.8444C17.8965 12.3126 18.6004 11.2389 18.6004 9.9999C18.6004 8.76089 17.8965 7.68722 16.8675 7.15545C17.2191 6.05183 16.9576 4.7949 16.0815 3.91878ZM6.4559 13.6851C6.35827 13.5874 6.35827 13.4291 6.4559 13.3315L13.032 6.75541C13.1296 6.65778 13.2879 6.65778 13.3855 6.75541C13.4832 6.85304 13.4832 7.01133 13.3855 7.10896L6.80946 13.6851C6.71182 13.7827 6.55353 13.7827 6.4559 13.6851ZM6.979 9.12663C6.46866 8.61628 6.46866 7.78885 6.979 7.27851C7.48934 6.76816 8.31678 6.76816 8.82712 7.2785C9.33746 7.78885 9.33746 8.61628 8.82712 9.12663C8.31678 9.63697 7.48935 9.63697 6.979 9.12663ZM11.1638 13.3114C10.6534 12.8011 10.6534 11.9736 11.1638 11.4633C11.6741 10.9529 12.5016 10.9529 13.0119 11.4633C13.5223 11.9736 13.5223 12.8011 13.0119 13.3114C12.5016 13.8218 11.6741 13.8218 11.1638 13.3114Z" stroke="white"/>
</svg>
