<svg width="109" height="86" viewBox="0 0 109 86" fill="none" xmlns="http://www.w3.org/2000/svg">
<path d="M72.016 12.8516C72.9072 13.1997 73.8618 13.0981 74.784 13.239C76.3673 13.4802 77.9532 13.7037 79.5324 13.9855C81.6219 14.3581 83.6427 14.9826 85.6662 15.5868C86.9029 15.9673 88.1144 16.4266 89.2932 16.9619C90.8603 17.6569 92.4274 18.3586 93.9272 19.2054C96.8474 20.8514 99.5346 22.7995 101.786 25.3018C102.922 26.5671 103.855 27.9882 104.768 29.4297C105.802 31.0851 106.65 32.8513 107.296 34.6956C107.944 36.4615 108.385 38.2974 108.61 40.1662C108.786 41.7268 109.058 43.2821 108.99 44.8563C108.867 47.6823 108.62 50.5165 107.747 53.2165C107.184 54.9574 106.632 56.7253 105.773 58.3578C104.998 59.8318 104.148 61.2597 103.236 62.6605C101.468 65.37 99.2747 67.6989 96.9214 69.8651C95.2296 71.3994 93.4003 72.7727 91.4567 73.9673C90.4739 74.5824 89.4722 75.1649 88.4598 75.7149C86.3222 76.8712 84.0986 77.8586 81.809 78.6683C79.2886 79.5748 76.7093 80.3059 74.0893 80.8562C72.4154 81.2013 70.7262 81.4817 69.0217 81.6975C67.6539 81.8682 66.2793 82.0146 64.9115 82.1758C64.2383 82.2557 63.5221 82.5077 62.8301 82.1866C62.9149 81.8168 63.2608 81.8398 63.514 81.7463C66.4893 80.6422 68.6206 78.6656 69.7582 75.6499C70.0222 74.9071 70.169 74.1272 70.1931 73.3387C70.3533 70.239 70.3977 67.1366 70.4623 64.0342C70.4691 63.7375 70.4031 63.3704 70.842 63.2796C70.9094 63.2763 70.9767 63.2888 71.0385 63.3162C73.5965 64.8783 76.5665 65.0882 79.3655 65.8496C81.0066 66.2953 82.6922 66.5934 84.332 67.0459C89.1707 68.383 94.0363 65.3619 95.147 60.497C96.1343 56.3839 97.1063 52.2686 98.0631 48.1511C98.1977 47.5604 98.3647 46.9752 98.4549 46.3736C98.7605 44.3415 98.1129 42.705 96.4906 41.4586C96.3372 41.364 96.2138 41.2272 96.1352 41.0644C96.1634 40.3165 96.4354 39.6175 96.6037 38.8967C97.0641 36.931 97.1422 34.9869 96.5781 33.0225C95.8646 30.5393 94.424 28.5938 92.3601 27.0995C90.5453 25.7895 88.4558 25.2381 86.2842 25.2516C83.1379 25.2706 80.4654 26.5061 78.3597 28.9163C76.9407 30.542 76.1908 32.4576 75.8018 34.548C75.7102 35.0343 75.5554 35.5058 75.4315 35.984C75.2727 36.1981 75.0371 36.255 74.7934 36.2956C73.6477 36.4636 72.7228 37.0326 71.9352 37.8658C71.7669 38.0433 71.6323 38.3481 71.2876 38.1665C71.2539 38.0995 71.2377 38.0249 71.2405 37.9498C71.2808 37.3662 71.2835 36.7806 71.2485 36.1967C71.2203 34.3705 71.2378 32.5389 71.3832 30.7249C71.4034 30.4769 71.3832 30.183 71.569 30.0217C72.0752 29.576 72.0213 28.9921 72.0617 28.4055C72.2448 25.6852 72.1964 22.958 72.3216 20.2363C72.3458 19.7066 72.2892 19.2203 71.8907 18.7989C71.5744 18.4643 71.6107 17.9861 71.6659 17.5702C71.8342 16.2899 71.7615 15.0043 71.7871 13.7213C71.7938 13.4246 71.7413 13.0927 72.016 12.8516Z" fill="#4A00E0"/>
<path d="M71.8055 12.8387C71.7648 14.5771 71.7237 16.3156 71.6821 18.0541C71.6726 18.3922 71.6224 18.7033 72.0563 18.869C72.318 18.9708 72.3546 19.2968 72.3464 19.582C72.2561 22.8335 72.1657 26.0849 72.0753 29.3364C72.0753 29.5781 72.0184 29.8484 71.8136 29.9245C71.2781 30.1255 71.358 30.5519 71.3485 30.9594C71.3043 32.744 71.2591 34.5282 71.213 36.3119C71.0936 36.9041 71.2346 37.5085 71.1316 38.102C71.1262 38.1182 71.1241 38.1354 71.1255 38.1524C71.1269 38.1695 71.1318 38.186 71.1397 38.2011C71.2774 38.4365 71.3385 38.709 71.3147 38.9807C71.3011 41.8451 71.2116 44.7068 71.0706 47.5671C71.0638 47.7029 71.0476 47.8387 71.0516 47.9745C71.137 50.7737 70.878 53.5661 70.8916 56.3653C70.8984 57.6692 70.7424 58.9757 70.7736 60.285C70.77 60.691 70.8096 61.0962 70.8916 61.4938C70.8645 62.1728 70.5309 62.8071 70.6909 63.4998C70.2462 63.5202 70.4577 63.8719 70.451 64.0539C70.3547 66.9862 70.2042 69.9198 70.2178 72.8521C70.2381 77.1195 67.041 81.0989 62.7903 82.2384C62.7073 82.2681 62.627 82.3049 62.5503 82.3484C54.0391 83.3807 45.5284 84.4138 37.0181 85.4478C35.0385 85.6895 33.0685 85.8851 31.1187 85.2468C27.7684 84.1507 25.5447 82.0143 24.8383 78.4641C24.8184 78.3994 24.7907 78.3373 24.7557 78.2794C24.3733 77.6247 24.475 76.8818 24.4113 76.1783C24.1762 73.624 23.9652 71.0666 23.7781 68.506C23.6615 66.9142 23.3714 65.3306 23.4717 63.7239C23.5151 63.3449 23.7564 63.1806 24.1089 63.1562C24.8934 63.1141 25.6796 63.1141 26.4641 63.1562C26.6001 63.1534 26.7341 63.1887 26.8512 63.258C26.9683 63.3274 27.0639 63.428 27.1271 63.5487C27.4294 64.7167 27.4132 65.9241 27.5054 67.1139C27.7264 69.9973 27.9202 72.8834 28.1656 75.7654C28.2199 76.3956 28.205 77.0271 28.3012 77.6587C28.6754 80.2392 30.2781 81.6802 32.64 82.4123C33.5552 82.6975 34.4908 82.7206 35.4548 82.6092C41.8273 81.8758 48.1999 81.1655 54.5725 80.4171C56.7418 80.1618 58.9261 79.935 61.1009 79.6837C64.2086 79.3224 66.5054 77.3246 67.1372 74.4643C67.2017 74.2237 67.235 73.9759 67.2362 73.7268C67.1616 71.7574 67.4098 69.7976 67.3881 67.8283C67.3542 64.7045 67.4952 61.5875 67.5589 58.4691C67.6023 56.3449 67.5331 54.214 67.6741 52.0952C67.8219 49.8787 67.6741 47.6594 67.8097 45.4511C67.9453 43.2427 67.7989 41.0153 67.9453 38.8055C68.089 36.5659 67.9372 34.3236 68.0809 32.0935C68.2314 29.8307 68.0687 27.568 68.2097 25.3135C68.3575 22.9611 68.2192 20.6061 68.3535 18.2619C68.4673 16.6147 68.4971 14.9629 68.4429 13.3127C68.3073 10.4008 67.0328 8.1204 64.4513 6.65087C63.2879 5.98808 61.9999 5.90387 60.7132 5.84547C58.4611 5.74225 56.209 5.63224 53.9596 5.46247C52.9251 5.38505 51.8865 5.37147 50.8506 5.31171C47.6521 5.12972 44.455 4.94229 41.2565 4.79017C39.2295 4.69374 37.2052 4.52669 35.1741 4.46422C33.6203 4.41532 32.0678 4.22789 30.5126 4.21839C26.6972 4.19666 23.7957 6.87089 23.4445 10.6765C23.309 12.1963 23.5395 13.6998 23.6466 15.2073C23.8039 17.4388 23.9543 19.6703 24.1401 21.9004C24.3706 24.6697 24.5388 27.4444 24.7598 30.2151C24.9292 32.3325 25.1136 34.4499 25.2248 36.5713C25.3021 38.0368 25.5122 39.4955 25.4878 40.9677C25.4173 41.8125 25.4173 41.8112 24.5713 41.8084C23.6452 41.8084 22.7205 41.8084 21.7958 41.8084C21.4812 41.8084 21.1558 41.8315 20.9145 41.5599C20.6677 41.0845 20.6758 40.5508 20.6433 40.0442C20.4996 37.8847 20.3166 35.7297 20.0942 33.5793C20.0623 33.345 20.0782 33.1067 20.1411 32.8788C20.2041 32.6509 20.3127 32.4382 20.4603 32.2537C20.9213 31.6616 20.8792 30.7244 20.341 30.2165C19.8352 29.7316 19.6983 29.1381 19.6793 28.5011C19.6373 27.1117 19.3146 25.7332 19.5274 24.3356C19.5376 24.2449 19.5221 24.1531 19.4827 24.0708C19.3399 22.2245 19.1966 20.3783 19.0529 18.5321C19.0149 18.0622 19 17.614 19.5654 17.4211C19.8814 17.3125 19.7484 17.0354 19.7335 16.8385C19.6251 15.4192 19.5112 13.9999 19.3742 12.582C19.0163 8.88234 19.842 5.56433 22.5632 2.89688C24.7123 0.789003 27.3548 -0.153566 30.3296 0.0202801C38.7549 0.510579 47.1776 1.06472 55.6015 1.5944C57.8306 1.73022 60.0759 1.75738 62.286 2.05075C66.9379 2.66328 69.75 5.52902 71.2414 9.848C71.579 10.8123 71.716 11.8228 71.8055 12.8387Z" fill="#193542"/>
<path d="M23.6006 63.9192C23.9826 68.6354 24.3645 73.351 24.7464 78.0663C24.7573 78.2021 24.7464 78.3378 24.7464 78.4736C24.3504 78.6366 23.983 78.4492 23.636 78.3378C19.4272 76.9162 15.3354 75.2149 11.6926 72.6432C10.1624 71.5757 8.72984 70.3752 7.41168 69.0558C5.52839 67.1549 3.89958 65.0829 2.72524 62.6877C1.77874 60.7296 1.06407 58.6681 0.59567 56.5449C0.25496 55.0822 0.0590053 53.5896 0.0105705 52.0886C-0.0683535 49.3336 0.289515 46.5772 1.25837 43.9987C2.48115 40.6829 4.32874 37.6313 6.7014 35.0087C8.73166 32.7805 10.8911 30.7057 13.2997 28.8985C15.1301 27.512 17.0533 26.2517 19.0557 25.1265C19.464 24.9011 19.3796 24.5834 19.4463 24.2751C19.5824 25.7334 19.7062 27.1917 19.8545 28.6473C19.9225 29.3262 19.8232 30.0431 20.6832 30.4125C20.9989 30.5482 20.8669 31.1104 20.8955 31.4824C20.9309 31.9481 21.1105 32.4532 20.4668 32.7289C20.2042 32.8402 20.2328 33.1905 20.2573 33.4675C20.4968 36.213 20.7353 38.9576 20.973 41.7013C21.0166 42.0584 20.758 42.1019 20.5076 42.1304C20.1743 42.1698 19.8368 42.1304 19.502 42.1684C16.3111 42.8473 14.455 45.1244 14.4536 48.379C14.4536 53.8728 14.4536 59.3665 14.4536 64.8602C14.4536 64.9512 14.4536 65.0408 14.4536 65.1317C14.4631 65.9464 14.504 65.9654 15.2469 65.6151C16.4553 65.0448 17.6079 64.3646 18.8013 63.7631C19.3639 63.468 19.9934 63.323 20.6288 63.3421C21.3976 63.3666 22.1691 63.3421 22.9421 63.353C23.319 63.3584 23.6088 63.463 23.6006 63.9192Z" fill="#4A00E0"/>
<path d="M70.7674 61.7048C70.6546 61.6104 70.5666 61.49 70.5113 61.3539C70.4559 61.2178 70.435 61.0703 70.4501 60.9242C70.5902 56.197 70.7234 51.4693 70.8498 46.7411C70.9267 43.8298 70.9872 40.9197 71.0559 38.0084C71.5875 37.6318 71.9667 37.0895 72.5189 36.7252C73.3198 36.1966 74.2182 36.0022 75.129 35.831C75.9285 35.4996 76.6827 35.8803 77.4396 36.0159C78.0564 36.1268 78.676 36.2993 79.2804 36.4678C83.5756 37.461 87.8635 38.4831 92.1441 39.5339C93.1057 39.7913 94.0948 39.9858 95.0742 40.1926C95.5839 40.3008 96.1032 40.4281 96.4219 40.9074C97.8492 41.8482 98.7297 43.1272 98.9701 44.8445C99.0423 45.4563 99.0004 46.0761 98.8465 46.6727C97.8657 50.8987 96.8491 55.1165 95.8243 59.333C95.7185 59.7684 95.7405 60.2395 95.4836 60.6366C95.0523 61.4583 94.6951 62.2978 94.0522 63.0071C92.2553 64.9873 90.0683 66.0678 87.3744 66.1568C85.693 66.2157 84.1105 65.7679 82.5169 65.3762C79.6513 64.6696 76.761 64.0616 73.9036 63.3221C72.9754 63.0713 72.082 62.7065 71.2441 62.2361C71.0311 62.1184 70.7976 62.0006 70.7674 61.7048Z" fill="#768EB4"/>
<path d="M79.2691 36.7882C77.9185 36.5094 76.5976 36.0706 75.2051 35.988C75.2524 34.989 75.6102 34.054 75.8142 33.0857C76.0505 31.952 76.6084 30.9397 77.2229 29.9928C78.3466 28.2589 79.9241 27.0065 81.8245 26.1516C83.105 25.5553 84.5012 25.24 85.9169 25.2273C87.8969 25.2273 89.8202 25.6034 91.576 26.5997C93.7682 27.8155 95.4608 29.7499 96.3612 32.0681C97.0226 33.6724 97.2456 35.4201 97.0082 37.1363C96.8346 38.4256 96.544 39.6969 96.1398 40.9348C94.8324 40.2239 93.3115 40.2439 91.9393 39.7518C92.3445 38.39 92.7956 37.0389 92.7199 35.5905C92.6132 33.5592 91.7515 31.9374 90.0471 30.765C88.3655 29.6073 86.5355 29.2325 84.5446 29.7527C82.3566 30.3262 80.9425 31.7453 80.147 33.7979C79.8674 34.5478 79.6563 35.3209 79.5163 36.108C79.4757 36.3454 79.4541 36.5961 79.2691 36.7882Z" fill="#B9C5DD"/>
<path d="M70.8438 61.5278C72.181 62.524 73.7375 62.9476 75.3102 63.3215C78.4999 64.0804 81.6891 64.8439 84.8778 65.612C86.818 66.0895 88.8596 65.8823 90.6694 65.0243C92.4792 64.1662 93.9501 62.7079 94.842 60.8876C94.9232 60.7234 94.9137 60.4543 95.1965 60.4502C94.2275 65.1884 89.6893 68.3784 84.9549 67.4195C80.9852 66.6165 77.067 65.5458 73.1324 64.5689C72.2435 64.3403 71.4102 63.9279 70.6841 63.3574C70.3159 62.8565 70.3769 62.1846 70.8438 61.5278Z" fill="#113845"/>
<path d="M25.4526 40.8243C25.1563 36.6666 24.8587 32.509 24.5596 28.3513C24.2188 23.6508 23.8659 18.953 23.5305 14.2525C23.4376 12.9451 23.2288 11.6417 23.3743 10.322C23.8053 6.39563 26.9235 3.62294 30.8297 3.81749C37.0365 4.12633 43.2379 4.50863 49.442 4.85284C53.3388 5.06915 57.2383 5.26098 61.135 5.4841C65.1045 5.7113 67.7621 8.13162 68.4086 12.092C68.6497 13.5573 68.4975 15.0348 68.4719 16.5041C68.3561 23.1433 68.2106 29.7825 68.0678 36.4218C67.8128 48.7478 67.556 61.0739 67.2974 73.4C67.226 76.6801 64.5509 79.4229 61.1014 79.8188C52.4808 80.8056 43.858 81.7929 35.2329 82.7806C32.1053 83.1343 28.2543 81.1916 28.1169 76.823C28.0725 75.4435 27.931 74.0666 27.8273 72.6885C27.5965 69.6165 27.3644 66.5449 27.131 63.4738C27.0811 63.0902 27.3828 63.1024 27.6105 63.0657C27.9007 63.033 28.1931 63.0248 28.4846 63.0412H51.8356C55.6354 63.0412 58.1825 60.493 58.2 56.6605C58.2121 53.8034 58.2189 50.9464 58.2 48.0893C58.1771 45.035 56.5486 42.8025 53.7914 41.9671C53.4666 41.878 53.1334 41.8237 52.7973 41.8052C44.2589 41.7875 35.7219 41.8052 27.1835 41.7984H26.51C25.5308 41.8025 25.5308 41.8025 25.4526 40.8243Z" fill="#FEFEFE"/>
<path d="M26.9959 63.3605C27.0138 63.3449 27.0326 63.3304 27.0525 63.3172C27.1618 63.2444 27.2784 63.2251 27.3769 63.2242C27.4705 63.2234 27.5631 63.2396 27.6308 63.2515L27.6329 63.2519C27.7107 63.2655 27.7572 63.2733 27.7949 63.2733C32.0421 63.2634 36.293 63.2631 40.5434 63.2627C44.4667 63.2624 48.3897 63.2621 52.3093 63.2543C55.7355 63.2477 58.2863 60.6763 58.2994 57.2564C58.3057 54.7456 58.3057 52.2338 58.2994 49.7212C58.2994 49.7211 58.2994 49.7211 58.2994 49.7211L26.9959 63.3605ZM26.9959 63.3605C26.9082 63.3008 26.794 63.2519 26.6488 63.2529L26.6482 63.2529C25.789 63.2611 24.9314 63.2624 24.0733 63.2435L24.0733 63.2434H24.0681C23.8978 63.2434 23.7379 63.28 23.6126 63.3861C23.4708 63.2749 23.2949 63.2442 23.1092 63.2489L23.1153 63.4868M26.9959 63.3605L23.4683 63.5754C23.388 63.5112 23.2759 63.4827 23.1153 63.4868M23.1153 63.4868C22.0755 63.5099 21.0344 63.495 19.9893 63.4787C19.7412 63.4921 19.5009 63.5698 19.292 63.7043M23.1153 63.4868L23.11 63.2489C22.0754 63.2719 21.0386 63.257 19.993 63.2407L19.9847 63.2406L19.9764 63.241C19.691 63.2565 19.4144 63.3449 19.173 63.4979M19.292 63.7043L19.1826 63.4929C19.1794 63.4946 19.1762 63.4962 19.173 63.4979M19.292 63.7043C18.8925 63.9112 18.4924 64.1175 18.0924 64.3237C16.9873 64.8933 15.8818 65.4632 14.7851 66.0499L19.292 63.7043ZM19.173 63.4979C18.7775 63.7027 18.3812 63.907 17.9847 64.1115C16.8791 64.6814 15.7713 65.2524 14.6729 65.84L14.6726 65.8401C14.6153 65.8709 14.5711 65.8913 14.5377 65.9044M19.173 63.4979L14.5377 65.9044M14.5377 65.9044C14.5335 65.8664 14.5311 65.8155 14.5311 65.7482C14.5311 63.9669 14.5277 62.186 14.5242 60.4055C14.516 56.1716 14.5078 51.9395 14.546 47.7073L14.546 47.7072C14.5707 44.9222 16.7179 42.5912 19.459 42.1711C19.8895 42.2249 20.3139 42.2097 20.7224 42.1838C20.8162 42.1779 20.9086 42.1715 21.0002 42.1651C21.3248 42.1425 21.638 42.1207 21.9539 42.1253L21.9542 42.1253C28.6372 42.2154 35.3224 42.2058 42.0053 42.1962C45.4058 42.1913 48.8058 42.1864 52.2046 42.1947V42.1947L52.21 42.1946C52.2692 42.1934 52.3304 42.1953 52.3985 42.1977L52.4144 42.1982C52.4763 42.2004 52.5439 42.2028 52.6118 42.2025C52.7475 42.2018 52.8995 42.1905 53.0547 42.1394C54.2357 42.1577 55.4344 42.7234 56.3898 43.6189C57.3553 44.524 58.053 45.7483 58.2281 47.0345L14.5377 65.9044ZM14.5517 65.9742C14.5517 65.9742 14.5515 65.9738 14.5511 65.9729L14.5517 65.9742ZM24.0681 63.4814C23.9304 63.4814 23.8341 63.5108 23.7667 63.5675L24.0681 63.4814Z" fill="white" stroke="black" stroke-width="0.475985"/>
<path d="M52.8346 41.7534C52.624 41.953 52.3636 41.869 52.126 41.869C41.4723 41.869 30.8195 41.869 20.1675 41.869C19.9489 41.869 19.7154 41.9337 19.5156 41.7768C20.0015 41.5497 20.6074 41.9475 21.0461 41.4727C21.5737 41.7479 22.1379 41.5731 22.6845 41.5993C23.3269 41.6296 23.9815 41.5429 24.6158 41.6227C25.2123 41.6984 25.4147 41.5043 25.3486 40.9346C25.3486 41.5786 25.6563 41.7039 26.2609 41.7025C34.6042 41.675 42.9469 41.669 51.2893 41.6846C51.8035 41.6832 52.3231 41.6282 52.8346 41.7534Z" fill="#0A6096"/>
<path d="M79.4883 37.0004C79.7474 34.6341 80.4007 32.4265 82.3864 30.8835C83.817 29.775 85.4591 29.327 87.3343 29.5799C89.5028 29.8718 91.153 30.8821 92.3027 32.6646C93.2574 34.1364 93.4947 35.7682 93.1278 37.478C92.9914 38.1103 92.8551 38.7426 92.69 39.3614C92.6259 39.5982 92.6505 39.9251 92.2809 39.9829C90.1697 39.495 88.0585 39.0062 85.9473 38.5166C83.7988 38.017 81.6458 37.5116 79.4883 37.0004Z" fill="#4A00E0"/>
<path d="M87.1051 47.6921C87.0632 48.5807 86.4946 49.5984 85.3224 50.1913C85.1711 50.2579 85.0388 50.363 84.9382 50.4966C84.8375 50.6302 84.7717 50.788 84.7471 50.9549C84.4655 52.2379 84.1582 53.5152 83.8455 54.7898C83.5937 55.8187 82.7504 56.3393 81.7379 56.1144C80.8309 55.9131 80.2705 54.9828 80.4884 53.9762C80.7592 52.7377 81.0448 51.5034 81.3453 50.2732C81.4523 49.8456 81.4333 49.5165 81.1571 49.1277C80.7566 48.5478 80.5444 47.8532 80.5506 47.1425C80.5568 46.4318 80.7811 45.7412 81.1917 45.1687C81.6023 44.5962 82.1783 44.1709 82.8379 43.9531C83.4974 43.7354 84.2071 43.7363 84.8662 43.9558C86.2225 44.4154 87.1133 45.7274 87.1051 47.6921Z" fill="#0F3947"/>
<path d="M31.2505 52.6111C30.8082 52.2719 30.3095 52.1888 29.8604 52.0129C29.5512 51.8904 29.4329 51.8018 29.6198 51.4288C30.1764 50.3239 30.1575 50.314 31.1094 51.0755C31.3366 51.2571 31.5652 51.4372 31.916 51.7187C31.8139 51.0741 31.7561 50.5758 31.6472 50.0888C31.5544 49.6539 31.6929 49.4737 32.1096 49.5061C32.1984 49.5061 32.2884 49.5061 32.3785 49.5132C33.3196 49.5652 33.2066 49.3851 33.0749 50.39C33.0238 50.7799 32.9485 51.1684 32.8732 51.6287C33.3922 51.4133 33.7229 51.0333 34.0832 50.7124C34.4072 50.4238 34.5901 50.3886 34.8253 50.8306C35.3631 51.8356 35.3806 51.8158 34.3413 52.2128C34.0724 52.3155 33.8036 52.4267 33.4002 52.5872C33.9756 52.818 34.4288 53.0221 34.8966 53.1783C35.2502 53.2951 35.3066 53.4598 35.1157 53.7821C34.3629 55.0742 34.7285 55.0193 33.6046 54.0904C33.4164 53.937 33.2712 53.7132 32.9754 53.6681C32.8759 54.1959 33.0386 54.6886 33.13 55.1756C33.2013 55.5626 33.1058 55.6527 32.7469 55.671C31.5947 55.7259 31.596 55.7414 31.7439 54.5816C31.7843 54.2607 31.8259 53.9412 31.8784 53.4866C31.3809 53.9173 30.9669 54.2621 30.5689 54.6252C30.3552 54.8195 30.2355 54.8251 30.0513 54.5577C29.2662 53.4218 29.2715 53.3754 30.5097 52.9053C30.7517 52.8208 30.9776 52.7223 31.2505 52.6111Z" fill="#4A00E0"/>
<path d="M39.9748 53.4732C39.4835 53.9096 39.1039 54.2315 38.7431 54.5732C38.4739 54.8232 38.3123 54.8754 38.0875 54.4871C37.4373 53.3574 37.4144 53.3786 38.626 52.9112C38.8467 52.8265 39.0567 52.7149 39.33 52.5879C38.8723 52.28 38.4052 52.1939 37.9677 52.0371C37.6338 51.9171 37.4952 51.7985 37.6984 51.3961C38.2665 50.3045 38.2463 50.2947 39.19 51.0798C39.4135 51.2662 39.6423 51.4441 39.9977 51.7321C39.8927 51.0812 39.8227 50.5841 39.7285 50.0927C39.6558 49.7115 39.6666 49.4996 40.1539 49.5025C41.3075 49.5109 41.3035 49.4799 41.0962 50.6957C41.0491 50.9696 41.0289 51.2492 40.975 51.7053C41.4826 51.2902 41.8877 50.9809 42.2673 50.642C42.5365 50.3977 42.6712 50.4415 42.861 50.7663C43.4695 51.8225 43.4843 51.8112 42.3589 52.2292C42.1085 52.321 41.8366 52.3704 41.5673 52.6217C42.0883 52.8336 42.5675 53.0454 43.0548 53.2219C43.2945 53.3122 43.3954 53.4111 43.2433 53.6752C43.0266 54.0522 42.8314 54.4419 42.6066 54.8669L41.045 53.5693C40.9737 54.1341 41.1137 54.6015 41.1918 55.0675C41.2631 55.4911 41.2187 55.6944 40.7233 55.6902C39.6692 55.6817 39.6706 55.7128 39.8213 54.6297C39.8738 54.3063 39.9102 53.983 39.9748 53.4732Z" fill="#4A00E0"/>
<path d="M24.8827 51.6431C25.3004 51.3012 25.6938 51.0029 26.0628 50.6681C26.3467 50.4078 26.5048 50.3994 26.717 50.7722C27.3064 51.8119 27.3226 51.8006 26.2385 52.2157C25.9681 52.3184 25.6748 52.3718 25.3963 52.6194C25.8843 52.815 26.3291 53.026 26.7927 53.1681C27.2091 53.2947 27.1888 53.479 27.0144 53.8237C26.4737 54.9042 26.4886 54.9056 25.568 54.1304C25.349 53.9461 25.1625 53.6985 24.8489 53.6113C24.8029 54.174 24.9719 54.6946 25.0544 55.2193C25.1152 55.6006 24.9908 55.6414 24.6839 55.6625C23.4755 55.7371 23.4769 55.7469 23.6512 54.537C23.6945 54.2387 23.7337 53.9391 23.7864 53.5677C23.2295 53.849 22.8712 54.3035 22.4441 54.6538C22.2467 54.817 22.1129 54.8845 21.9872 54.6003C21.9656 54.559 21.9416 54.5191 21.9155 54.4807C21.2396 53.3552 21.2397 53.3552 22.4373 52.8868C22.6577 52.7995 22.8739 52.7038 23.2213 52.5575C22.6144 52.3254 22.1399 52.1242 21.6546 51.9652C21.3843 51.8752 21.3843 51.7556 21.4721 51.5108C21.9372 50.2756 22.0426 50.2447 23.0254 51.0789C23.2444 51.266 23.4309 51.501 23.8067 51.5995C23.7188 51.0564 23.6539 50.5513 23.5526 50.0519C23.4741 49.665 23.5525 49.4892 23.9729 49.5032C25.4018 49.5356 25.1206 49.3625 24.9462 50.6737C24.9043 50.9748 24.7935 51.2604 24.8827 51.6431Z" fill="#4A00E0"/>
<path d="M49.0417 51.7345C49.5257 51.3386 49.9261 51.0414 50.2929 50.7033C50.5922 50.4216 50.7525 50.3821 50.9831 50.8132C51.5318 51.8373 51.5574 51.8218 50.4991 52.2219C50.2295 52.3247 49.9342 52.3782 49.674 52.629C50.1593 52.8234 50.611 53.0262 51.0775 53.1812C51.4132 53.2925 51.4954 53.408 51.3107 53.77C50.735 54.897 50.7512 54.9096 49.7819 54.0898C49.5756 53.9151 49.3666 53.7432 49.0525 53.4812C49.1469 54.1165 49.2089 54.6321 49.3046 55.1393C49.3815 55.5421 49.2587 55.714 48.8624 55.6717C48.728 55.6547 48.5922 55.6547 48.4579 55.6717C47.8701 55.7633 47.6976 55.5154 47.8405 54.9265C47.9443 54.5039 47.9874 54.0574 48.0643 53.5798C47.5438 53.801 47.2284 54.2123 46.8577 54.5406C46.5516 54.8124 46.3939 54.8575 46.1566 54.4476C45.5229 53.3601 45.5041 53.3728 46.6365 52.9304C46.8873 52.8318 47.1354 52.7304 47.4306 52.6107C46.9803 52.2669 46.4868 52.1881 46.0258 52.012C45.6955 51.8838 45.6092 51.7809 45.7831 51.4217C46.3305 50.2948 46.3157 50.2849 47.2769 51.0738C47.5021 51.2597 47.7353 51.4358 48.098 51.7204C47.9928 51.0822 47.92 50.5934 47.8283 50.1046C47.7515 49.7031 47.8283 49.4651 48.2827 49.5186C48.4394 49.539 48.5979 49.539 48.7545 49.5186C49.2938 49.4355 49.4179 49.6749 49.2938 50.1933C49.1873 50.6469 49.1401 51.1146 49.0417 51.7345Z" fill="#4A00E0"/>
<line x1="28.084" y1="25.9412" x2="36.1757" y2="25.9412" stroke="black" stroke-width="0.475985"/>
<line x1="38.5547" y1="25.9412" x2="46.6464" y2="25.9412" stroke="black" stroke-width="0.475985"/>
<line x1="49.0273" y1="25.9412" x2="57.1191" y2="25.9412" stroke="black" stroke-width="0.475985"/>
<line x1="59.5" y1="25.9412" x2="67.5918" y2="25.9412" stroke="black" stroke-width="0.475985"/>
<rect x="42.3633" y="8.56787" width="10.4717" height="2.85591" rx="1.42796" fill="#193542"/>
</svg>
