<svg width="24" height="24" viewBox="0 0 24 24" fill="none" xmlns="http://www.w3.org/2000/svg">
<mask id="mask0_779_2881" style="mask-type:alpha" maskUnits="userSpaceOnUse" x="0" y="0" width="24" height="24">
<rect width="24" height="24" fill="#D9D9D9"/>
</mask>
<g mask="url(#mask0_779_2881)">
<path d="M21.7905 9.08043V18.8403C21.7779 18.8618 21.7679 18.8847 21.7608 18.9086C21.4988 20.4204 20.3661 21.3804 18.8383 21.3809C14.2676 21.3809 9.6984 21.3809 5.13077 21.3809C4.97139 21.3847 4.81197 21.3762 4.65392 21.3552C3.1727 21.1181 2.18215 19.9517 2.18164 18.4476C2.18164 15.4897 2.18267 12.5315 2.18471 9.57325C2.18587 9.26632 2.21222 8.96001 2.2635 8.65743C2.5976 6.68512 4.37763 5.09321 6.37151 5.00953C7.29555 4.97051 8.22214 4.98951 9.1472 4.99464C9.37558 4.99779 9.6007 4.94004 9.79954 4.82729C10.9405 4.20202 12.0849 3.58292 13.2327 2.96997C14.6709 2.20251 16.3803 2.73024 17.1381 4.16814C17.2599 4.40018 17.3658 4.64043 17.4962 4.86784C17.5176 4.90258 17.5459 4.93249 17.5793 4.95564C17.6128 4.9788 17.6507 4.99471 17.6907 5.00234C19.5142 5.16097 21.0957 6.45565 21.6027 8.22313C21.682 8.50342 21.7286 8.79398 21.7905 9.08043ZM20.958 11.5445C20.958 11.0769 20.9713 10.6421 20.958 10.2098C20.9268 9.36996 20.3952 8.66975 19.6068 8.38483C19.2353 8.25034 18.8536 8.27344 18.4714 8.27344C13.9853 8.27344 9.49988 8.27344 5.01513 8.27344C4.52504 8.27182 4.05225 8.45505 3.69049 8.78679C3.16758 9.24881 2.9972 9.84892 2.99874 10.5271C3.00385 13.1652 2.99874 15.8028 3.00284 18.4409C3.00213 18.6074 3.01928 18.7735 3.054 18.9363C3.27247 19.9281 4.08753 20.5637 5.13794 20.5637C9.70694 20.5637 14.2761 20.5637 18.8454 20.5637C18.9033 20.5637 18.9606 20.5637 19.0179 20.5601C19.9429 20.5169 20.7365 19.8865 20.911 18.9738C21 18.5087 20.9667 18.019 20.9816 17.5405C20.9898 17.2838 20.9816 17.2838 20.7257 17.2838C19.7623 17.2782 18.7968 17.3085 17.836 17.2571C16.365 17.1791 15.157 15.7484 15.2644 14.2751C15.3806 12.6837 16.5947 11.5456 18.188 11.542C19.0174 11.542 19.8473 11.542 20.6766 11.542L20.958 11.5445ZM16.3343 4.41507C16.2985 4.3586 16.276 4.32061 16.2504 4.28467C15.6574 3.44123 14.5353 3.20201 13.5699 3.71998C11.6041 4.77852 9.63923 5.83945 7.67519 6.90278C7.3636 7.07116 7.05252 7.24159 6.69846 7.4341C6.77674 7.44437 6.8059 7.45104 6.83506 7.45104C8.08604 7.45104 9.33701 7.45104 10.588 7.44796C10.689 7.44201 10.7872 7.41267 10.875 7.36223C11.9263 6.79891 12.9764 6.23285 14.0252 5.66406L16.3343 4.41507ZM20.9575 12.3859C20.9278 12.3783 20.8975 12.3731 20.867 12.3705C19.8948 12.3705 18.9273 12.3484 17.9593 12.3849C16.7723 12.429 15.8825 13.599 16.1041 14.7689C16.2928 15.7638 17.0987 16.4501 18.1107 16.4604C19.0097 16.4697 19.9092 16.463 20.8086 16.4604C20.8598 16.4604 20.9053 16.4507 20.9575 16.4455V12.3859ZM17.8575 7.43872L16.7114 5.14249L12.5215 7.40638L12.5328 7.43872H17.8575ZM3.34461 7.98442C3.80509 7.68205 4.29883 7.49211 4.84834 7.45464C4.93624 7.44088 5.02048 7.40945 5.09598 7.36223C5.98931 6.8831 6.88179 6.40209 7.77342 5.91919C7.81538 5.89661 7.85426 5.86786 7.89468 5.84476C7.46746 5.8119 7.04893 5.80934 6.63092 5.81242C5.91888 5.81492 5.2239 6.03127 4.63549 6.43358C4.06139 6.81072 3.6119 7.35051 3.3441 7.98442H3.34461ZM20.6505 8.02292C20.1512 6.78214 18.8941 5.99876 18.0048 5.9002C18.2535 6.39969 18.495 6.88943 18.7436 7.37558C18.7601 7.397 18.7812 7.41446 18.8053 7.42671C18.8293 7.43896 18.8558 7.4457 18.8828 7.44642C19.5188 7.44086 20.1393 7.64323 20.6505 8.02292Z" fill="black"/>
<path d="M18.105 13.19C18.2661 13.1886 18.4259 13.2193 18.5752 13.2801C18.7245 13.3409 18.8603 13.4308 18.9748 13.5445C19.0894 13.6581 19.1804 13.7934 19.2427 13.9425C19.3049 14.0917 19.3372 14.2516 19.3375 14.4133C19.3363 14.7397 19.2066 15.0524 18.9765 15.2832C18.7465 15.5139 18.4349 15.6441 18.1096 15.6454C17.7876 15.6426 17.4795 15.5136 17.251 15.286C17.0226 15.0584 16.8918 14.7502 16.8868 14.4272C16.8854 14.2656 16.9159 14.1053 16.9765 13.9556C17.037 13.8058 17.1265 13.6696 17.2397 13.5546C17.3529 13.4396 17.4876 13.3483 17.6361 13.2857C17.7846 13.2231 17.9439 13.1906 18.105 13.19ZM18.5205 14.4195C18.5186 14.3103 18.4742 14.2063 18.3969 14.1295C18.3195 14.0528 18.2153 14.0094 18.1065 14.0088C18.0007 14.0129 17.9004 14.0571 17.8258 14.1324C17.7512 14.2078 17.7078 14.3087 17.7044 14.4148C17.7043 14.5213 17.7455 14.6237 17.8192 14.7003C17.8928 14.7769 17.9933 14.8218 18.0994 14.8255C18.1537 14.8271 18.2078 14.8178 18.2586 14.7982C18.3093 14.7785 18.3556 14.7489 18.3948 14.7111C18.434 14.6733 18.4653 14.6281 18.4869 14.578C18.5084 14.5279 18.5199 14.474 18.5205 14.4195Z" fill="black"/>
</g>
</svg>
