<svg width="14" height="12" viewBox="0 0 14 12" fill="none" xmlns="http://www.w3.org/2000/svg">
<path d="M3.99297 5.68413C3.91804 6.04068 3.6876 6.34504 3.36476 6.51389C3.01074 6.69905 2.58848 6.69905 2.23446 6.51389C1.91161 6.34504 1.68118 6.04068 1.60625 5.68413L1.58027 5.56051C1.50316 5.19356 1.58591 4.81112 1.80784 4.50888L1.84992 4.45158C2.0719 4.14926 2.42455 3.9707 2.79961 3.9707C3.17467 3.9707 3.52732 4.14926 3.7493 4.45157L3.79138 4.50888C4.01331 4.81112 4.09606 5.19356 4.01895 5.56051L3.99297 5.68413Z" stroke="#333333" stroke-linecap="round" stroke-linejoin="round"/>
<path d="M0.599609 9.04948C0.599609 9.25566 0.766757 9.42281 0.972944 9.42281H3.26174C3.4089 8.769 3.80928 8.19742 4.37463 7.83583C4.27288 7.76326 4.16091 7.70275 4.04041 7.65677L3.95605 7.62458C3.21128 7.34037 2.38794 7.34037 1.64317 7.62458L1.55881 7.65677C0.98121 7.87719 0.599609 8.43125 0.599609 9.04948Z" stroke="#333333" stroke-linecap="round" stroke-linejoin="round"/>
<path d="M13.0263 9.42285H10.7375C10.5903 8.76904 10.19 8.19745 9.62462 7.83586C9.72637 7.76329 9.83832 7.70279 9.95881 7.65681L10.0432 7.62462C10.7879 7.34041 11.6113 7.34041 12.356 7.62462L12.4404 7.65681C13.018 7.87723 13.3996 8.4313 13.3996 9.04952C13.3996 9.25571 13.2325 9.42285 13.0263 9.42285Z" stroke="#333333" stroke-linecap="round" stroke-linejoin="round"/>
<path d="M10.0063 5.68418C10.0812 6.04072 10.3116 6.34508 10.6345 6.51394C10.9885 6.6991 11.4107 6.6991 11.7648 6.51394C12.0876 6.34508 12.318 6.04072 12.393 5.68417L12.4189 5.56056C12.4961 5.1936 12.4133 4.81117 12.1914 4.50892L12.1493 4.45162C11.9273 4.14931 11.5747 3.97074 11.1996 3.97074C10.8246 3.97074 10.4719 4.14931 10.2499 4.45162L10.2078 4.50892C9.98591 4.81117 9.90316 5.1936 9.98027 5.56056L10.0063 5.68418Z" stroke="#333333" stroke-linecap="round" stroke-linejoin="round"/>
<path d="M10.1596 10.6228H3.83961C3.48615 10.6228 3.19961 10.3363 3.19961 9.98285C3.19961 8.92353 3.85488 7.97467 4.84552 7.59947L5.01182 7.53648C6.29262 7.05139 7.7066 7.05139 8.9874 7.53648L9.1537 7.59947C10.1443 7.97467 10.7996 8.92353 10.7996 9.98285C10.7996 10.3363 10.5131 10.6228 10.1596 10.6228Z" stroke="#333333" stroke-linecap="round" stroke-linejoin="round"/>
<path d="M6.02787 5.63843C6.6371 5.95468 7.36212 5.95468 7.97134 5.63843C8.53168 5.34757 8.93226 4.82099 9.06305 4.20336L9.10398 4.01005C9.23822 3.37609 9.09444 2.71499 8.70903 2.19405L8.64297 2.10477C8.25748 1.58373 7.64775 1.27637 6.99961 1.27637C6.35147 1.27637 5.74174 1.58373 5.35625 2.10477L5.29019 2.19405C4.90478 2.715 4.761 3.37609 4.89524 4.01005L4.93617 4.20336C5.06696 4.82099 5.46754 5.34757 6.02787 5.63843Z" stroke="#333333" stroke-linecap="round" stroke-linejoin="round"/>
</svg>
