<svg width="63" height="63" viewBox="0 0 63 63" fill="none" xmlns="http://www.w3.org/2000/svg">
<g filter="url(#filter0_d_110_1047)">
<path d="M59 27.8455C58.9794 35.0473 56.1095 41.9477 51.0182 47.0367C45.927 52.1258 39.029 54.989 31.8337 55C16.0498 55 4.3248 43.1241 4.00819 28.5052C3.61892 11.4031 17.1657 -0.0155692 31.216 1.59339e-05C38.5835 0.0247138 45.6416 2.9675 50.8478 8.18523C56.054 13.403 58.985 20.4713 59 27.8455Z" fill="#F7C937"/>
</g>
<path d="M47.7317 41.4455C46.9242 40.8178 46.3343 40.3627 45.6679 39.8429C42.8241 45.873 38.2576 49.3549 31.5725 49.3529C24.9285 49.3529 20.4012 45.8926 17.5692 39.8625L15.4271 41.4573C15.4271 40.1116 15.3957 38.9562 15.4526 37.8047C15.4663 37.5418 15.7426 37.2397 15.9739 37.0436C21.1342 32.6652 26.3044 28.3005 31.5921 23.8319C32.8445 24.8794 34.1106 25.9269 35.3629 26.9862C39.0867 30.1249 42.7693 33.2929 46.5126 36.4021C47.3965 37.1377 47.9061 37.8949 47.7473 39.0817C47.6552 39.7762 47.7317 40.498 47.7317 41.4455ZM28.0487 46.126C28.0487 45.2413 28.0761 44.6371 28.0487 44.0349C27.8135 39.7467 29.3285 39.682 32.3996 39.7762C34.2771 39.835 35.2159 40.7452 35.2394 42.6323C35.2532 43.7171 35.2394 44.8019 35.2394 45.8808C35.4038 45.9237 35.5733 45.9442 35.7431 45.9416C36.0173 45.874 36.2849 45.7821 36.5428 45.667C39.5433 44.2801 41.6619 42.0497 42.979 39.0131C43.3435 38.1715 43.2338 37.6556 42.5106 37.0514C39.0808 34.209 35.6863 31.3175 32.3075 28.4202C31.745 27.9357 31.3981 28.0181 30.8748 28.4653C27.4293 31.4169 23.9669 34.347 20.4875 37.2554C19.8995 37.7419 19.7819 38.2363 20.1582 38.8247C21.1166 40.3117 21.9927 41.879 23.1372 43.2129C24.3445 44.6273 25.9673 45.5611 28.0487 46.126Z" fill="#A81203"/>
<path d="M46.0543 34.7289C45.8779 34.2542 45.5976 33.7913 45.5427 33.3028C44.6686 25.621 38.5342 20.2873 30.8182 20.5306C24.1723 20.7405 18.1614 26.5548 17.7086 33.1655C17.6714 33.7167 17.3265 34.2483 16.9854 34.7348C16.2642 30.5644 18.8414 25.0992 22.7827 22.402C28.0626 18.7867 33.5503 18.4787 39.1555 21.5957C43.8141 24.1812 46.8892 29.7699 46.407 34.5975L46.0543 34.7289Z" fill="#328128"/>
<path d="M31.5194 18.8592C30.2141 15.9913 31.3234 13.5314 32.2583 11.0322C30.5297 13.088 29.5145 15.3832 29.9064 18.4159C28.6541 16.8976 28.1269 15.4636 28.4875 13.7511C29.2166 10.3064 31.7467 8.35065 34.4357 6.23404C34.5944 8.59978 34.7767 10.687 34.8629 12.7781C34.9688 15.3734 33.6008 17.2055 31.5194 18.8592Z" fill="#6CAC27"/>
<path d="M18.6864 12.7585C21.3538 12.2466 23.9781 11.9307 26.5906 12.7703C26.9531 12.8861 27.4216 13.4902 27.4039 13.8453C27.3118 15.6657 27.7312 17.2939 29.0404 18.8848C26.8571 19.3085 25.0344 18.9731 23.4685 17.7078C22.5669 16.9722 21.8202 16.0463 21.0089 15.2028C20.2582 14.4122 19.5154 13.6276 18.6864 12.7585Z" fill="#6CAC27"/>
<path d="M18.6417 32.9869C19.1258 26.0427 25.5013 20.8385 32.8763 21.3799C38.9617 21.8291 44.8981 27.8161 44.2592 33.187C44.028 32.728 43.6948 32.2925 43.5772 31.8139C42.2151 26.1585 37.3781 22.2744 31.622 22.2469C25.905 22.2175 21.0759 26.0918 19.6667 31.8002C19.5472 32.2886 19.2003 32.7221 18.9573 33.1733L18.6417 32.9869Z" fill="#A81203"/>
<path d="M29.0991 36.516V34.6348H31.0041V36.516H29.0991Z" fill="black"/>
<path d="M32.2131 36.5453V34.8033C34.0299 34.2148 34.3572 34.5228 33.977 36.5453H32.2131Z" fill="black"/>
<path d="M28.9581 33.0869L30.867 31.2979C31.3335 33.5165 31.1845 33.6695 29.258 33.4283L28.9581 33.0869Z" fill="black"/>
<path d="M32.5976 31.4529L34.2066 33.0418L33.9891 33.3949H32.2252V31.7079L32.5976 31.4529Z" fill="black"/>
<defs>
<filter id="filter0_d_110_1047" x="0" y="0" width="63" height="63" filterUnits="userSpaceOnUse" color-interpolation-filters="sRGB">
<feFlood flood-opacity="0" result="BackgroundImageFix"/>
<feColorMatrix in="SourceAlpha" type="matrix" values="0 0 0 0 0 0 0 0 0 0 0 0 0 0 0 0 0 0 127 0" result="hardAlpha"/>
<feOffset dy="4"/>
<feGaussianBlur stdDeviation="2"/>
<feComposite in2="hardAlpha" operator="out"/>
<feColorMatrix type="matrix" values="0 0 0 0 0 0 0 0 0 0 0 0 0 0 0 0 0 0 0.25 0"/>
<feBlend mode="normal" in2="BackgroundImageFix" result="effect1_dropShadow_110_1047"/>
<feBlend mode="normal" in="SourceGraphic" in2="effect1_dropShadow_110_1047" result="shape"/>
</filter>
</defs>
</svg>
