<svg width="12" height="16" viewBox="0 0 12 16" fill="none" xmlns="http://www.w3.org/2000/svg">
<path d="M9.38522 15.9992C8.62375 15.9992 7.86217 16.0032 7.10083 15.9934C7.01898 15.9924 6.91732 15.9271 6.86013 15.8639C4.8142 13.6085 2.77226 11.3499 0.734302 9.08826C0.651834 8.99178 0.603284 8.87395 0.595266 8.75082C0.578447 8.35452 0.588787 7.95716 0.588787 7.55598C0.850415 7.55598 1.11865 7.55354 1.38613 7.55598C2.49232 7.56759 3.58318 7.48074 4.61674 7.07909C5.63958 6.68162 6.33376 6.02126 6.49485 4.9567C6.50855 4.86578 6.51329 4.77369 6.525 4.65351H0C0.37064 4.14167 0.702782 3.67209 1.05274 3.21436C1.09336 3.16129 1.23252 3.15827 1.32596 3.15804C2.87911 3.15494 4.43227 3.15429 5.98542 3.15607H6.30735C6.16109 2.80771 5.92799 2.56445 5.65303 2.35671C4.87749 1.7709 3.96117 1.55551 2.98941 1.53298C2.03796 1.51127 1.08551 1.52833 0.0504574 1.52833C0.426329 1.00256 0.744269 0.544706 1.08264 0.100093C1.12774 0.040641 1.27637 0.0304227 1.37728 0.0304227C3.82031 0.0209785 6.26333 0.0142826 8.70635 0.0103346C9.70527 0.00778002 10.7042 0.00433504 11.7032 0C11.7828 0 11.8625 0 12 0C11.6477 0.501162 11.3262 0.967024 10.9909 1.42348C10.9535 1.47376 10.8336 1.48862 10.7517 1.4892C9.95257 1.49396 9.15336 1.49222 8.35415 1.49222H8.09851C8.38256 2.04378 8.65826 2.57908 8.95814 3.16059H11.9941C11.6483 3.65549 11.3325 4.11636 11.0022 4.56805C10.9638 4.62065 10.8465 4.64411 10.7655 4.64504C10.1675 4.65131 9.56885 4.6484 8.97907 4.6484C8.31877 7.50605 6.10116 8.38239 3.33439 8.63053C3.526 8.85614 3.69643 9.06016 3.8701 9.2607C5.6662 11.3459 7.46154 13.4317 9.25615 15.5181C9.34909 15.6264 9.39319 15.771 9.45984 15.8988C9.43451 15.9324 9.40963 15.9658 9.38522 15.9992Z" fill="#099A29"/>
</svg>
