<svg width="14" height="14" viewBox="0 0 14 14" fill="none" xmlns="http://www.w3.org/2000/svg">
<path d="M5.20985 12.7104C4.17431 12.4012 3.23646 11.8292 2.48759 11.05C2.72854 10.7642 2.87874 10.413 2.91897 10.0414C2.9592 9.66978 2.88764 9.29461 2.71344 8.96389C2.53924 8.63317 2.27032 8.36195 1.9411 8.18493C1.61188 8.00791 1.23733 7.93314 0.865379 7.9702C0.780643 7.55513 0.738061 7.13256 0.738282 6.70893C0.738282 6.05466 0.838457 5.42356 1.02503 4.83065H1.05133C1.37056 4.83075 1.68455 4.74949 1.96365 4.59453C2.24276 4.43958 2.47776 4.21604 2.64647 3.94503C2.81519 3.67403 2.91204 3.36449 2.9279 3.04565C2.94375 2.72681 2.87809 2.4092 2.73709 2.12279C3.47106 1.43935 4.3587 0.942544 5.32506 0.674316C5.48232 0.983107 5.72195 1.24237 6.01742 1.42342C6.3129 1.60448 6.6527 1.70026 6.99923 1.70017C7.34577 1.70026 7.68557 1.60448 7.98104 1.42342C8.27652 1.24237 8.51614 0.983107 8.67341 0.674316C9.63977 0.942544 10.5274 1.43935 11.2614 2.12279C11.1194 2.4112 11.0537 2.73124 11.0708 3.05227C11.0879 3.37331 11.1871 3.68459 11.3589 3.95632C11.5307 4.22804 11.7693 4.45113 12.052 4.60422C12.3347 4.7573 12.652 4.83527 12.9734 4.83065C13.1641 5.4385 13.2608 6.07189 13.2602 6.70893C13.2602 7.14094 13.2164 7.56293 13.1331 7.97052C12.7611 7.93346 12.3866 8.00822 12.0574 8.18524C11.7281 8.36226 11.4592 8.63348 11.285 8.9642C11.1108 9.29492 11.0393 9.67009 11.0795 10.0417C11.1197 10.4133 11.2699 10.7645 11.5109 11.0503C10.762 11.8294 9.82412 12.4013 8.78861 12.7104C8.66701 12.3314 8.4282 12.0008 8.10662 11.7662C7.78503 11.5316 7.39727 11.4053 6.99923 11.4053C6.60119 11.4053 6.21344 11.5316 5.89185 11.7662C5.57026 12.0008 5.33146 12.3314 5.20985 12.7104Z" stroke="#333333" stroke-linejoin="round"/>
<path d="M6.99993 8.90024C7.2877 8.90024 7.57265 8.84356 7.83851 8.73344C8.10438 8.62331 8.34595 8.4619 8.54943 8.25842C8.75292 8.05493 8.91433 7.81336 9.02445 7.5475C9.13458 7.28163 9.19126 6.99668 9.19126 6.70891C9.19126 6.42114 9.13458 6.13619 9.02445 5.87032C8.91433 5.60446 8.75292 5.36289 8.54943 5.1594C8.34595 4.95592 8.10438 4.79451 7.83851 4.68438C7.57265 4.57426 7.2877 4.51758 6.99993 4.51758C6.41875 4.51758 5.86138 4.74845 5.45042 5.1594C5.03947 5.57036 4.80859 6.12773 4.80859 6.70891C4.80859 7.29009 5.03947 7.84746 5.45042 8.25842C5.86138 8.66937 6.41875 8.90024 6.99993 8.90024Z" stroke="#333333" stroke-linejoin="round"/>
</svg>
