<svg width="205" height="182" viewBox="0 0 205 182" fill="none" xmlns="http://www.w3.org/2000/svg">
<path d="M136.693 79.2371C135.047 82.2569 133.411 85.2911 129.498 85.0939C125.522 84.8968 124.396 81.6084 123.025 78.14C121.737 81.8827 120.272 85.2139 116.03 85.0825C111.874 84.9568 110.509 81.6541 109.301 78.18C108.081 81.4884 106.873 84.8597 102.783 85.0739C98.7841 85.2796 96.4991 82.9769 95.5251 79.0485C94.4454 82.694 92.2576 85.0482 88.4759 85.0654C84.6399 85.0968 82.4777 82.734 81.4694 79.0457C80.444 82.4912 78.4389 84.8711 74.88 85.0453C71.4839 85.2225 68.8562 83.6654 67.628 79.8542C67.2109 80.6399 67.0053 81.0427 66.7854 81.4427C66.1165 82.6583 65.0876 83.6368 63.8401 84.2435C62.5926 84.8503 61.1878 85.0555 59.8189 84.8311C58.4451 84.6247 57.1701 83.9941 56.172 83.0276C55.1739 82.061 54.5027 80.8067 54.252 79.4399C53.6351 76.063 53.9293 72.9831 56.1543 70.049C60.0474 64.9064 63.6777 59.5896 67.348 54.2928C67.9936 53.3585 68.7305 53.1671 69.7359 53.1671C80.4326 53.1671 91.1322 53.1299 101.829 53.1299C112.934 53.1299 124.036 53.17 135.142 53.1471C136.31 53.1471 137.041 53.4899 137.689 54.4985C141.688 60.7153 145.784 66.8635 149.774 73.086C152.133 76.7658 149.526 83.6311 145.356 84.9053C143.091 85.5967 141.197 84.7339 139.672 83.154C138.603 82.0626 137.792 80.7113 136.693 79.2371Z" fill="#FC4C00"/>
<path d="M68.1277 146.434C70.3556 145.291 72.5606 144.128 74.8142 143.051C84.0742 138.631 93.5713 134.8 103.468 132.063C110.821 129.997 118.347 128.61 125.953 127.92C135.761 127.063 145.478 127.366 155.104 129.58C155.373 129.609 155.644 129.58 155.901 129.496C156.158 129.413 156.394 129.276 156.595 129.095C161.746 124.002 165.971 118.05 169.08 111.507C169.785 110.024 169.674 107.939 169.365 106.23C168.551 101.622 166.849 97.2734 164.672 93.1279C164.443 92.7326 164.084 92.4294 163.656 92.2708C165.549 97.7962 166.972 103.347 166.772 109.441C164.138 107.911 161.915 105.764 160.294 103.184C157.172 98.3533 156.581 92.9908 157.12 87.4225C157.389 84.677 157.774 81.9428 156.672 79.0858C157.755 79.5944 158.877 80.0429 159.92 80.6257C166.363 84.217 171.239 89.0996 172.853 96.5992C173.473 99.252 173.357 102.024 172.519 104.616C172.139 105.759 172.136 107.024 171.882 108.219C171.627 109.413 171.459 110.753 170.91 111.855C166.837 120.064 161.339 127.283 154.793 133.623C149.455 138.826 143.378 143.211 136.758 146.636C127.904 151.19 118.572 154.013 108.632 154.87C99.3867 155.67 90.2952 154.907 81.455 152.119C76.9135 150.69 72.5349 148.733 68.082 147.016C68.102 146.825 68.1162 146.628 68.1277 146.434Z" fill="#6CAC27"/>
<path d="M25.715 70.0633C23.9584 67.7777 22.2304 65.6521 20.6509 63.4122C20.3196 62.9437 20.3653 62.0466 20.5252 61.4123C22.9445 52.1957 27.226 43.8504 32.7472 36.1509C47.0999 16.152 66.5368 4.20687 90.8808 0.847052C110.589 -1.8728 129.218 1.95557 146.318 12.3579C165.238 23.8687 177.668 40.3563 183.867 61.6009C184.152 62.5523 184.001 63.1551 183.341 63.8722C181.516 65.8721 179.782 67.9406 177.877 70.1404C177.511 68.9976 177.129 67.9577 176.832 66.8835C169.425 39.9678 152.91 21.1859 126.347 12.2579C86.1137 -1.25855 42.2814 21.1145 29.1854 61.3266C28.3285 63.9779 27.2888 66.5692 26.3291 69.1833C26.1541 69.4963 25.9484 69.7911 25.715 70.0633Z" fill="#27336E"/>
<path d="M72.915 95.3676H97.6246V126.297H106.765V95.5019H131.203V124.275C128.372 124.517 125.582 124.717 122.803 125.006C112.532 126.057 102.431 128.377 92.7318 131.914C91.3779 132.408 90.3154 132.386 89.0043 131.697C84.4172 129.297 79.4501 128.006 74.3774 127.089C73.9118 127.006 73.4491 126.912 72.915 126.803V95.3676ZM129.352 98.1189C129.165 98.0647 128.974 98.0246 128.781 97.9989C126.878 97.9989 124.979 97.9732 123.068 97.976C119.641 97.976 119.641 97.976 119.641 101.404C119.641 103.667 119.641 105.93 119.641 108.207H129.369L129.352 98.1189ZM75.3914 108.164H84.6799V98.0446H75.3914V108.164ZM86.0481 97.9903V108.201H95.1882V97.9989L86.0481 97.9903ZM118.421 108.224V98.0818H109.395V108.224H118.421Z" fill="#2C4D9D"/>
<path d="M46.8114 79.5456C47.1999 82.8483 47.6197 85.6596 47.8454 88.488C48.4909 96.5875 45.6261 103.29 39.5993 108.678C39.1195 109.107 38.5511 109.441 37.777 109.995C37.4457 103.873 38.8339 98.3732 40.9018 92.9906L40.5619 92.7306C40.2506 93.0163 39.8279 93.2591 39.645 93.6163C37.3772 98.0932 35.4406 102.699 35.0893 107.77C34.9905 109.179 35.2122 110.592 35.7377 111.904C38.5168 118.492 42.8126 124.029 48.0196 128.877C48.6205 129.381 49.3838 129.649 50.1675 129.631C53.7207 129.446 57.2711 128.814 60.81 128.9C69.0932 129.109 77.3049 129.869 85.0883 133.051C85.6367 133.274 86.1594 133.563 87.0877 134.014C84.8997 134.971 83.0546 135.677 81.3037 136.56C76.2424 139.114 71.2297 141.759 66.1655 144.302C65.6485 144.559 64.7374 144.588 64.2775 144.319C58.2365 140.702 52.6753 136.457 47.7854 131.368C44.0723 127.5 40.1934 123.763 37.3343 119.152C35.4767 116.212 34.17 112.958 33.4784 109.55C33.1099 107.693 32.4273 105.898 32.0017 104.047C30.1137 95.859 32.6929 89.2136 39.2566 84.1625C41.553 82.3912 44.2265 81.1027 46.8114 79.5456Z" fill="#6CAC27"/>
<path d="M16.7949 59.4382C17.2233 64.0094 19.6654 67.2206 22.4103 70.129C28.6112 76.7001 30.4078 84.4911 29.3396 93.1906C29.1225 94.9848 28.8597 96.7704 28.6141 98.5589C28.5912 98.7332 28.537 98.9046 28.4113 99.4589C24.4439 92.3164 21.0393 85.2568 18.3429 77.8486L17.6946 78.1343C19.0684 85.7768 21.8362 92.9564 25.3379 99.8931L25.0866 100.179C23.7213 99.3846 22.3046 98.6703 20.9993 97.7875C15.5238 94.0906 11.8107 89.1394 10.6682 82.5284C9.82841 77.5743 10.7424 72.766 12.579 68.1492C13.613 65.5493 14.864 63.0351 16.0437 60.4896C16.2658 60.1198 16.517 59.7682 16.7949 59.4382Z" fill="#328128"/>
<path d="M188.043 59.8868C188.977 61.9353 189.951 63.9695 190.842 66.0408C193.644 72.5747 194.629 79.26 192.401 86.1854C191.204 89.8994 189.122 93.125 186.589 96.0677C186.412 96.2919 186.198 96.4851 185.957 96.6391C183.541 97.999 181.102 99.3447 178.263 100.925C182.373 92.7907 185.358 84.6997 186.477 75.9831C183.712 83.6369 180.742 91.1851 176.8 98.3019L176.323 98.3276C175.892 95.8505 175.244 93.3878 175.069 90.8994C174.455 82.1856 177.574 74.6946 182.956 68.0149C184.918 65.5808 187.197 63.3323 187.646 60.0154L188.043 59.8868Z" fill="#328128"/>
<path d="M174.238 116.169L192.744 105.216L192.538 104.716C190.905 105.376 189.268 106.027 187.64 106.716C186.012 107.404 184.304 108.104 182.661 108.856C181.019 109.607 179.302 110.427 177.657 111.275C176.063 112.095 174.515 112.99 172.756 113.961C172.916 111.701 173.55 109.833 174.755 108.218C179.517 101.867 185.872 98.2961 193.761 97.4276C195.317 97.2562 196.877 97.0476 198.417 96.7676C200.844 96.3277 203.038 95.3591 204.857 93.5992C205.874 96.9476 201.273 106.741 196.837 110.795C190.613 116.487 180.95 118.915 174.238 116.169Z" fill="#328128"/>
<path d="M12.7704 105.89C18.6569 109.639 24.8216 112.932 31.2104 115.741L31.2704 116.184C29.7109 116.601 28.1714 117.206 26.5861 117.398C17.0919 118.541 7.68906 113.498 3.22186 105.039C1.68113 102.139 0.633801 99.0029 0.122817 95.7591C0.0342731 95.2048 0.0514128 94.6363 0 93.6964C3.86739 97.039 8.54309 96.9619 12.8989 97.9304C20.8964 99.7075 26.8546 104.147 30.6078 111.461C30.7334 111.707 30.8305 111.97 31.099 112.604C27.8286 111.318 24.8581 110.178 21.9076 108.987C18.957 107.796 15.9979 106.539 13.0531 105.313L12.7704 105.89Z" fill="#328128"/>
<path d="M180.456 131.826C175.76 128.954 170.762 126.832 165.192 125.915C166.366 123.509 168.368 122.695 170.699 122.541C181.313 121.826 189.55 128.455 192.37 138.885C191.49 139.008 190.636 139.171 189.773 139.243C184.381 139.697 179.022 139.725 173.907 137.58C170.313 136.074 167.274 133.866 165.338 130.397C165.052 129.872 164.835 129.295 164.41 128.349C167.369 128.955 170.005 129.406 172.596 130.063C175.186 130.72 177.757 131.543 180.336 132.297C180.362 132.137 180.407 131.98 180.456 131.826Z" fill="#328128"/>
<path d="M24.921 131.566L39.8164 128.286L40.1649 128.82C39.4765 129.923 38.9224 131.143 38.0741 132.106C34.4124 136.26 29.671 138.357 24.2498 139.054C20.3595 139.554 16.4864 139.308 12.1449 138.768C13.1017 136.554 13.793 134.446 14.8698 132.554C18.4573 126.252 23.9013 122.781 31.2105 122.589C34.0668 122.515 36.5374 123.755 38.831 125.849C33.884 127.277 29.1197 128.706 24.8182 131.209L24.921 131.566Z" fill="#328128"/>
<path d="M32.2787 87.6481C32.0987 82.297 33.2298 77.5001 34.4266 72.7118L33.9096 72.4632C33.6468 72.8346 33.2927 73.1717 33.1356 73.586C32.4501 75.383 31.8217 77.2029 31.1704 79.0143C30.0536 76.8572 28.9454 74.7631 27.8943 72.6375C27.8383 72.4678 27.8168 72.2887 27.831 72.1106C27.8452 71.9325 27.8949 71.759 27.9771 71.6004C30.1759 67.1529 33.7225 63.5134 38.1112 61.201C39.7193 60.3439 41.3902 59.5925 43.2268 58.6982C42.984 59.981 42.5955 61.141 42.5784 62.3038C42.527 65.6607 42.6098 69.0205 42.6641 72.3775C42.6955 74.2717 42.8497 76.1687 42.7812 78.0572C42.764 78.5114 42.1699 79.0772 41.7015 79.3629C39.148 80.9085 36.5945 82.4427 34.618 84.7425C33.8839 85.6025 33.1984 86.5053 32.2787 87.6481Z" fill="#ADDA41"/>
<path d="M160.637 60.0439C167.54 61.6381 172.918 64.9751 176.169 71.2119C176.389 71.629 176.523 72.2747 176.357 72.6775C175.561 74.6231 174.644 76.523 173.77 78.46C172.533 76.943 172.847 74.5317 170.805 73.4374C171.89 78.2 173.127 82.8941 171.876 88.1395C169.734 85.6682 167.692 83.3569 165.704 80.9971C163.716 78.6372 163.496 75.7259 163.244 72.7975C162.999 69.9405 162.567 67.0835 162.085 64.2494C161.925 63.3037 161.333 62.4323 160.985 61.5124C160.839 61.0305 160.722 60.5401 160.637 60.0439Z" fill="#AEDA3F"/>
<path d="M142.445 124.572L137.432 124.22V85.5197C138.937 86.3767 140.474 87.1739 141.925 88.1052C142.245 88.3109 142.402 88.9623 142.408 89.428C142.448 93.5192 142.442 97.6104 142.445 101.713C142.445 108.76 142.445 115.8 142.445 122.832V124.572Z" fill="#25346E"/>
<path d="M66.751 126.2C66.2112 126.2 65.7856 126.218 65.3629 126.2C64.3746 126.152 63.3835 126.086 62.2353 126.018C62.1782 125.115 62.081 124.275 62.081 123.446C62.081 112.018 62.1096 100.619 62.0982 89.2025C62.0982 88.3196 62.2753 87.8739 63.2407 87.614C64.4089 87.294 65.4971 86.6711 66.7625 86.1198L66.751 126.2Z" fill="#25346E"/>
<path d="M57.4624 126.043C54.9261 126.329 52.781 126.686 50.6302 126.723C49.8762 126.723 48.9479 126.092 48.3738 125.489C45.4775 122.441 42.6241 119.346 40.4591 115.707C39.9857 114.946 39.5895 114.14 39.2766 113.301C39.1537 112.95 39.2766 112.25 39.5622 112.064C42.4842 110.021 44.7035 107.318 46.7828 104.49C46.8314 104.424 46.9485 104.407 47.2513 104.267C48.9422 112.252 51.9641 119.606 57.4624 126.043Z" fill="#AEDA3F"/>
<path d="M145.753 124.823C149.322 121.176 152.369 117.052 154.81 112.57C155.927 110.55 156.838 108.416 157.869 106.344C157.997 106.084 158.269 105.742 158.489 105.727C158.709 105.713 159.06 105.987 159.266 106.204C160.962 107.919 162.596 109.701 164.353 111.347C164.967 111.918 165.329 112.147 164.827 113.124C162.867 116.929 160.257 120.266 157.623 123.589C157.309 123.983 157.052 124.42 156.721 124.8C155.621 126.08 154.524 126.735 152.608 126.06C150.534 125.343 148.232 125.24 145.753 124.823Z" fill="#AEDA3F"/>
<path d="M48.6051 53.3043C48.588 54.9099 47.177 56.6441 45.8945 56.6584C45.6099 56.6744 45.325 56.631 45.0581 56.5307C44.7913 56.4305 44.5482 56.2757 44.3445 56.0762C44.1407 55.8767 43.9808 55.637 43.8749 55.3722C43.7691 55.1074 43.7195 54.8235 43.7295 54.5385C43.7466 52.8672 45.2233 51.1387 46.6 51.1758C46.8743 51.1745 47.1458 51.2295 47.3979 51.3376C47.6499 51.4457 47.877 51.6045 48.065 51.8042C48.2531 52.0038 48.3981 52.24 48.491 52.498C48.5839 52.7561 48.6228 53.0305 48.6051 53.3043Z" fill="#308124"/>
<path d="M67.9793 30.7484C68.0135 32.2026 66.3426 33.8911 64.8716 33.8911C64.6107 33.8968 64.3513 33.8508 64.1082 33.7558C63.8652 33.6608 63.6433 33.5187 63.4553 33.3376C63.2674 33.1565 63.1171 32.9401 63.0131 32.7007C62.9091 32.4613 62.8535 32.2037 62.8494 31.9427C62.8494 30.4656 64.3289 28.9857 65.8913 28.9085C66.1507 28.8847 66.4123 28.914 66.66 28.9948C66.9077 29.0756 67.1363 29.2061 67.3317 29.3784C67.5272 29.5506 67.6855 29.761 67.7968 29.9966C67.9082 30.2322 67.9702 30.488 67.9793 30.7484Z" fill="#308124"/>
<path d="M56.9141 40.8878C56.8827 42.4849 55.4431 44.0648 54.0178 44.0648C52.7754 44.0648 51.9528 43.2363 51.9785 42.0049C52.0099 40.5022 53.6094 38.9308 55.0461 38.9879C56.1772 39.0365 56.9398 39.805 56.9141 40.8878Z" fill="#308124"/>
<path d="M78.6873 22.0632C78.9467 22.056 79.205 22.1001 79.4472 22.1932C79.6895 22.2862 79.911 22.4262 80.0989 22.6052C80.2869 22.7842 80.4376 22.9985 80.5424 23.236C80.6472 23.4734 80.704 23.7293 80.7095 23.9888C80.681 25.3487 79.0557 26.7715 77.5876 26.7172C76.3194 26.6715 75.5882 25.9687 75.6254 24.7973C75.6511 23.3746 77.1421 22.0432 78.6873 22.0632Z" fill="#308124"/>
<path d="M138.914 28.9398C140.277 28.9398 141.611 30.2283 141.608 31.5511C141.576 32.0966 141.342 32.6106 140.951 32.9922C140.56 33.3738 140.04 33.5955 139.494 33.6138C138.172 33.5881 136.804 32.2682 136.778 30.9883C136.761 29.974 137.838 28.9398 138.914 28.9398Z" fill="#35822A"/>
<path d="M126.381 26.5887C125.087 26.5887 123.713 25.3374 123.671 24.1317C123.631 22.9718 124.742 21.9576 126.018 21.9918C127.384 22.029 128.512 23.1061 128.509 24.3717C128.506 25.5317 127.489 26.5945 126.381 26.5887Z" fill="#35822A"/>
<path d="M160.425 54.1385C160.405 55.2613 159.411 56.2984 158.38 56.2727C157.118 56.2441 155.884 54.9327 155.895 53.63C155.895 52.6129 156.886 51.5187 157.8 51.5072C158.494 51.5183 159.156 51.7993 159.646 52.2905C160.136 52.7817 160.416 53.4446 160.425 54.1385Z" fill="#35822A"/>
<path d="M150.237 43.6506C148.866 43.6049 147.646 42.3449 147.732 41.0793C147.803 40.0022 148.848 39.1108 149.988 39.1536C151.128 39.1965 152.316 40.4222 152.313 41.6107C152.316 41.8826 152.265 42.1524 152.161 42.4037C152.057 42.6551 151.904 42.8829 151.71 43.0735C151.516 43.264 151.285 43.4134 151.032 43.5125C150.779 43.6117 150.508 43.6587 150.237 43.6506Z" fill="#35822A"/>
<path d="M117.383 29.0371C117.372 32.9977 115.792 36.7925 112.991 39.5912C110.189 42.3899 106.393 43.9645 102.433 43.9705C93.7473 43.9705 87.295 37.4395 87.1207 29.3999C86.9065 19.9947 94.3614 13.715 102.093 13.7236C106.148 13.7372 110.032 15.3556 112.897 18.225C115.762 21.0945 117.375 24.9817 117.383 29.0371Z" fill="#F7C937"/>
<path d="M111.182 36.5163C110.738 36.1711 110.413 35.9208 110.046 35.635C108.481 38.9512 105.968 40.866 102.289 40.865C98.6333 40.865 96.1419 38.962 94.5834 35.6457L93.4046 36.5228C93.4046 35.7828 93.3873 35.1473 93.4186 34.5141C93.4262 34.3695 93.5782 34.2034 93.7055 34.0955C96.5453 31.6876 99.3904 29.2873 102.3 26.8298C102.989 27.4059 103.686 27.982 104.375 28.5645C106.425 30.2906 108.451 32.0329 110.511 33.7428C110.997 34.1473 111.278 34.5637 111.191 35.2164C111.14 35.5983 111.182 35.9953 111.182 36.5163ZM100.35 39.0903C100.35 38.6038 100.365 38.2715 100.35 37.9403C100.221 35.5821 101.055 35.5465 102.745 35.5983C103.778 35.6307 104.294 36.1312 104.307 37.169C104.315 37.7656 104.307 38.3622 104.307 38.9555C104.398 38.9791 104.491 38.9904 104.585 38.9889C104.735 38.9518 104.883 38.9012 105.025 38.8379C106.676 38.0752 107.842 36.8486 108.566 35.1786C108.767 34.7158 108.707 34.4321 108.309 34.0998C106.421 32.5367 104.553 30.9465 102.694 29.3531C102.384 29.0867 102.193 29.132 101.906 29.3779C100.009 31.0012 98.1041 32.6125 96.1893 34.212C95.8658 34.4796 95.8011 34.7514 96.0081 35.0751C96.5355 35.8928 97.0176 36.7547 97.6475 37.4883C98.3119 38.2661 99.2049 38.7797 100.35 39.0903Z" fill="#FC4C00"/>
<path d="M110.259 32.8226C110.162 32.5615 110.008 32.3069 109.977 32.0383C109.496 27.8137 106.121 24.8805 101.874 25.0143C98.2171 25.1297 94.9093 28.3272 94.6602 31.9628C94.6397 32.2659 94.4499 32.5583 94.2622 32.8258C93.8653 30.5323 95.2836 27.5268 97.4525 26.0434C100.358 24.0552 103.378 23.8858 106.462 25.6C109.026 27.0219 110.718 30.0954 110.453 32.7503L110.259 32.8226Z" fill="#328128"/>
<path d="M102.261 24.0951C101.542 22.5179 102.153 21.1651 102.667 19.7907C101.716 20.9213 101.157 22.1835 101.373 23.8513C100.683 23.0163 100.393 22.2277 100.592 21.2859C100.993 19.3916 102.386 18.316 103.866 17.152C103.953 18.453 104.054 19.6009 104.101 20.7509C104.159 22.1781 103.406 23.1857 102.261 24.0951Z" fill="#6CAC27"/>
<path d="M95.1981 20.7401C96.666 20.4585 98.1101 20.2848 99.5478 20.7466C99.7473 20.8102 100.005 21.1425 99.9954 21.3377C99.9447 22.3389 100.176 23.2343 100.896 24.1092C99.6945 24.3422 98.6915 24.1577 97.8297 23.4619C97.3336 23.0573 96.9227 22.5482 96.4762 22.0843C96.0631 21.6495 95.6543 21.218 95.1981 20.7401Z" fill="#6CAC27"/>
<path d="M95.1735 31.8646C95.4399 28.0457 98.9483 25.1836 103.007 25.4814C106.356 25.7284 109.622 29.0209 109.271 31.9746C109.144 31.7222 108.96 31.4827 108.896 31.2195C108.146 28.1093 105.484 25.9733 102.317 25.9582C99.1705 25.942 96.513 28.0726 95.7375 31.2119C95.6717 31.4805 95.4808 31.719 95.3471 31.9671L95.1735 31.8646Z" fill="#FC4C00"/>
<path d="M100.928 33.8054V32.7708H101.977V33.8054H100.928Z" fill="black"/>
<path d="M102.642 33.8215V32.8635C103.642 32.5399 103.822 32.7092 103.613 33.8215H102.642Z" fill="black"/>
<path d="M100.851 31.9196L101.902 30.9357C102.158 32.1558 102.076 32.24 101.016 32.1073L100.851 31.9196Z" fill="black"/>
<path d="M102.854 31.0209L103.739 31.8948L103.62 32.0889H102.649V31.1612L102.854 31.0209Z" fill="black"/>
<path d="M170 136.472C166.473 146.052 163.042 155.314 159.585 164.679C156.413 164.051 153.358 163.286 150.257 162.863C140.425 161.518 130.61 159.861 120.73 159.152C110.469 158.413 100.127 158.302 89.8307 158.501C73.0952 158.826 56.5232 161.007 40.1276 164.458C39.1303 164.666 38.6141 164.585 38.2036 163.481C34.92 154.728 31.5691 145.997 28.2406 137.26C28.1668 137.068 28.1187 136.863 28.0001 136.465C75.327 125.319 122.526 125.036 170 136.472Z" fill="#F7C937"/>
<path d="M21.0819 180.981C21.8452 177.189 22.5636 173.695 23.2532 170.195C23.5932 168.471 24.5361 166.499 24.0165 165.057C23.497 163.615 21.5277 162.713 20.1325 161.65C16.5692 158.934 12.9738 156.262 9 153.276L29.1418 146.34C29.6229 147.46 30.0655 148.411 30.444 149.39C32.5383 154.823 34.6134 160.273 36.7206 165.696C36.9546 166.332 37.3639 166.889 37.9009 167.302C40.7682 169.257 43.6933 171.126 47 173.287L21.0819 180.981Z" fill="#F7C937"/>
<path d="M176.605 182L151 174.701C154.188 172.389 157.149 170.322 160.019 168.141C160.823 167.56 161.462 166.77 161.871 165.852C164.074 160.198 166.155 154.495 168.288 148.812C168.569 148.056 168.9 147.317 169.308 146.34L189 153.861C187.32 155.13 185.911 156.15 184.537 157.239C181.247 159.809 177.992 162.432 174.673 164.966C173.813 165.62 173.66 166.254 173.87 167.311C174.82 172.101 175.665 176.899 176.605 182Z" fill="#F7C937"/>
<path d="M51.1027 138.41C51.2235 138.41 51.3409 138.45 51.4353 138.525C51.5552 138.617 51.6633 138.723 51.757 138.841C51.8532 138.98 51.9321 139.129 51.9922 139.287C52.0568 139.417 52.0988 139.557 52.1167 139.701C52.1205 139.736 52.1173 139.772 52.107 139.807C52.0968 139.841 52.0798 139.873 52.0571 139.901C52.0344 139.929 52.0064 139.952 51.9747 139.969C51.9431 139.986 51.9082 139.997 51.8724 140.001C51.0211 140.159 50.1713 140.354 49.3038 140.568C48.4363 140.782 47.4965 141.016 46.7403 141.28C47.0421 141.306 47.3421 141.35 47.6387 141.411C47.9483 141.4 48.1182 141.557 48.1593 141.683L48.1633 141.792C48.0606 142.026 47.9899 142.274 47.9532 142.527C47.8583 143.022 47.7914 143.523 47.7529 144.026C47.7716 144.534 47.7897 145.025 47.6809 145.538C48.2746 145.37 48.8794 145.245 49.4908 145.162C49.4908 145.162 49.5818 145.159 49.6593 145.283C49.7387 145.378 49.7985 145.487 49.8351 145.604L49.9579 145.963C49.9619 146.072 49.9645 146.145 49.9659 146.181C49.4887 146.546 49.0736 146.985 48.7369 147.481C48.4163 147.943 48.1647 148.448 47.9897 148.982C47.8097 149.522 47.6954 150.082 47.6496 150.649C47.596 151.255 47.5819 151.863 47.6072 152.47C47.6197 152.608 47.6249 152.748 47.6225 152.887C47.6355 152.996 47.6395 153.105 47.6345 153.214C47.6478 153.248 47.6527 153.284 47.6486 153.32C47.6445 153.355 47.6315 153.39 47.6109 153.419C47.5903 153.449 47.5628 153.473 47.5306 153.489C47.4985 153.505 47.4627 153.514 47.4267 153.513C47.277 153.545 47.1229 153.551 46.9714 153.53C46.8001 153.513 46.6324 153.47 46.4743 153.402C46.3181 153.359 46.1726 153.284 46.0468 153.182C45.9383 153.106 45.8625 152.991 45.8344 152.862C45.7074 152.174 45.621 151.479 45.5757 150.78C45.545 149.945 45.513 149.073 45.4796 148.165C45.0251 148.482 44.6044 148.845 44.2244 149.248C44.1334 149.251 44.0605 149.254 43.9877 149.256C43.8276 149.071 43.7135 148.851 43.6542 148.614C43.6228 148.391 43.6146 148.166 43.6295 147.942C43.6112 147.828 43.6069 147.712 43.6168 147.597C43.6653 147.499 43.7375 147.415 43.8267 147.353C44.3411 146.957 44.9053 146.63 45.5052 146.382C45.4771 145.619 45.5577 144.834 45.5836 144.051C45.6212 143.244 45.7324 142.443 45.9153 141.656L44.3664 142.186C43.9165 142.348 43.3948 142.549 42.8389 142.806L42.1407 143.159L41.5869 143.47L41.4277 143.603L41.269 143.755C41.269 143.755 41.2691 143.755 41.1598 143.759C41.0505 143.763 40.9776 143.765 40.8792 143.569C40.7515 143.409 40.6412 143.237 40.5502 143.054C40.5429 142.854 40.3536 142.661 40.2734 142.464C40.2091 142.321 40.1665 142.169 40.1474 142.014C40.142 141.868 40.3539 141.679 40.783 141.445C41.3647 141.154 41.9646 140.901 42.5788 140.688C43.2804 140.425 44.0912 140.159 44.9931 139.89C45.895 139.62 46.797 139.351 47.7731 139.115C48.3148 138.967 48.8755 138.838 49.4367 138.726C49.9824 138.575 50.5396 138.47 51.1027 138.41ZM47.6229 146.94C47.6316 147.176 47.6416 147.449 47.6529 147.758C47.6643 148.066 47.6736 148.321 47.6829 148.575C47.8078 148.216 47.9532 147.865 48.1185 147.522C48.277 147.166 48.4858 146.833 48.7387 146.536C48.3591 146.648 47.9865 146.784 47.6229 146.94Z" fill="#27336E"/>
<path d="M54.5444 150.687C54.5577 150.548 54.5525 150.408 54.5291 150.27L54.5137 149.852C54.5298 149.798 54.5277 149.741 54.5077 149.689C54.3316 150.338 54.0661 150.96 53.7185 151.536C53.5977 151.775 53.4254 151.985 53.2139 152.15C53.0025 152.315 52.7571 152.431 52.4954 152.49C52.3125 152.53 52.1231 152.532 51.9397 152.495C51.7562 152.458 51.5825 152.383 51.4296 152.275C51.1469 152.048 50.944 151.737 50.85 151.387C50.6777 150.744 50.5918 150.08 50.595 149.414C50.5546 147.947 50.8771 146.492 51.5338 145.178C51.805 144.588 52.2182 144.073 52.737 143.679C52.8775 143.553 53.052 143.471 53.239 143.443C53.4252 143.409 53.6152 143.402 53.8034 143.422C54.0101 143.458 54.2135 143.512 54.4112 143.581L55.0384 143.777C55.043 143.734 55.0415 143.691 55.0337 143.65C55.0229 143.596 55.0208 143.541 55.0277 143.486C55.0204 143.286 55.1803 143.171 55.3071 143.148C55.4275 143.129 55.5498 143.124 55.6713 143.135C55.8159 143.147 55.9582 143.178 56.0941 143.229C56.2279 143.258 56.3582 143.302 56.4821 143.36L56.7793 143.513C56.8086 143.523 56.8353 143.54 56.8577 143.561C56.88 143.583 56.8974 143.609 56.9088 143.638C56.9202 143.667 56.9254 143.698 56.9239 143.728C56.9224 143.759 56.9142 143.79 56.9 143.817C56.8539 143.943 56.8159 144.072 56.7864 144.203C56.6952 144.698 56.6054 145.229 56.535 145.795C56.4646 146.361 56.4118 146.909 56.3772 147.456C56.3425 148.003 56.3071 148.531 56.2894 149.041C56.2716 149.551 56.3254 150.022 56.3394 150.403C56.3534 150.785 56.3487 150.658 56.3487 150.658C56.3487 150.658 56.4944 150.652 56.5626 150.522C56.8522 150.103 57.0986 149.655 57.2978 149.186C57.5037 148.687 57.6798 148.177 57.8251 147.657C57.9703 147.143 58.0966 146.61 58.2061 146.115C58.3156 145.62 58.3901 145.163 58.4847 144.759C58.4913 144.719 58.5074 144.682 58.5316 144.649C58.5558 144.617 58.5872 144.59 58.6236 144.572C58.6931 144.543 58.7707 144.54 58.8421 144.564C58.9142 144.587 58.9789 144.629 59.0291 144.685C59.0597 144.76 59.0628 144.844 59.0378 144.921C59.0478 145.193 58.9141 145.526 58.8201 145.947C58.7368 146.418 58.6259 146.884 58.4882 147.342C58.343 147.856 58.1973 148.353 58.0156 148.869C57.8609 149.358 57.6649 149.834 57.4296 150.29C57.2383 150.682 56.9939 151.046 56.7033 151.372C56.4903 151.631 56.1941 151.809 55.8648 151.876C55.6933 151.927 55.5113 151.934 55.3365 151.895C55.1669 151.832 55.0136 151.732 54.8881 151.602C54.76 151.481 54.6557 151.337 54.5807 151.177C54.5464 151.016 54.5342 150.852 54.5444 150.687ZM52.9436 151.292C53.1257 151.285 53.2836 151.116 53.42 150.856C53.5919 150.538 53.7323 150.204 53.8392 149.859C53.9922 149.428 54.1101 148.986 54.1918 148.536C54.2838 148.06 54.3947 147.601 54.469 147.144C54.5434 146.686 54.6205 146.302 54.6618 145.936C54.7031 145.571 54.7476 145.297 54.7774 145.114C54.7648 145.011 54.761 144.908 54.766 144.805C54.7627 144.714 54.7594 144.623 54.756 144.533C54.6937 144.449 54.6078 144.385 54.5091 144.35C54.4104 144.314 54.3035 144.309 54.2018 144.335C53.9933 144.378 53.7978 144.469 53.6315 144.602C53.4652 144.734 53.3328 144.904 53.245 145.097C52.9701 145.607 52.7692 146.154 52.6481 146.72C52.4978 147.32 52.3983 147.932 52.3506 148.549C52.3301 149.113 52.3509 149.678 52.4127 150.238C52.4127 150.238 52.418 150.384 52.4227 150.511C52.4177 150.62 52.4217 150.729 52.4347 150.838C52.4659 150.934 52.5122 151.024 52.5721 151.105C52.5473 151.155 52.543 151.212 52.5603 151.264C52.5776 151.316 52.6152 151.359 52.6644 151.384C52.7137 151.409 52.7708 151.413 52.8231 151.396C52.8755 151.378 52.9188 151.341 52.9436 151.292Z" fill="#27336E"/>
<path d="M60.9474 151.234C60.598 151.306 60.2378 151.308 59.8877 151.24C59.5376 151.172 59.2046 151.034 58.9085 150.836C58.4026 150.471 58.036 149.946 57.869 149.347C57.7126 148.649 57.6862 147.929 57.7909 147.222C57.8642 146.468 58.0396 145.727 58.312 145.02C58.5439 144.351 58.8843 143.724 59.3197 143.164C59.6462 142.719 60.1308 142.415 60.6745 142.314C60.9304 142.248 61.1977 142.238 61.4577 142.286C61.7148 142.36 61.9586 142.474 62.1811 142.623C62.3895 142.769 62.5744 142.946 62.7294 143.148C62.8789 143.341 62.9753 143.569 63.009 143.811C63.0471 144.106 63.058 144.404 63.0417 144.701C63.011 144.98 62.954 145.256 62.8714 145.525C62.7983 145.739 62.7018 145.944 62.5838 146.136C62.5056 146.269 62.3781 146.365 62.229 146.404C62.0057 146.417 61.7831 146.368 61.5856 146.264C61.353 146.167 61.1337 146.04 60.9333 145.888C60.9094 145.846 60.8963 145.8 60.8945 145.753C60.8928 145.705 60.9025 145.658 60.9233 145.615C60.9542 145.504 61.0213 145.405 61.1138 145.335C61.3212 145.166 61.4985 144.962 61.6387 144.734C61.7859 144.501 61.8937 144.245 61.9575 143.977C62.0205 143.762 62.0121 143.533 61.9335 143.323C61.9143 143.261 61.8736 143.208 61.8189 143.174C61.7642 143.139 61.6989 143.125 61.6347 143.134C61.4568 143.175 61.2894 143.253 61.1428 143.361C60.9962 143.47 60.8736 143.607 60.7826 143.765C60.4982 144.173 60.2808 144.623 60.1385 145.098C59.9507 145.645 59.8247 146.211 59.7628 146.785C59.7202 147.331 59.7403 147.879 59.8229 148.42C59.8885 148.846 60.0532 149.251 60.304 149.603C60.4233 149.757 60.5837 149.874 60.7667 149.941C60.9498 150.008 61.1481 150.023 61.3391 149.983C61.841 149.899 62.2896 149.621 62.5873 149.21C62.9762 148.73 63.2943 148.198 63.5322 147.629C63.7985 147.032 64.0197 146.416 64.194 145.786C64.3878 145.106 64.5487 144.518 64.6737 143.95C64.6835 143.908 64.7026 143.87 64.7299 143.837C64.7572 143.805 64.7918 143.779 64.8309 143.762C64.8621 143.747 64.896 143.739 64.9304 143.738C64.9648 143.737 64.999 143.742 65.0312 143.755C65.1047 143.784 65.1693 143.832 65.2186 143.893C65.2426 143.928 65.2563 143.968 65.2578 144.01C65.2594 144.052 65.2487 144.093 65.2273 144.129C65.1009 144.661 64.924 145.304 64.7146 146.058C64.5141 146.82 64.255 147.565 63.9394 148.287C63.6502 148.965 63.2546 149.594 62.7676 150.149C62.555 150.444 62.2838 150.693 61.9706 150.88C61.6575 151.067 61.3091 151.187 60.9474 151.234Z" fill="#27336E"/>
<path d="M67.2571 138.817C67.1967 138.898 67.1447 138.986 67.1024 139.077C67.0956 139.174 67.0991 139.272 67.1131 139.368C67.1089 139.477 67.1129 139.586 67.1251 139.695C67.1206 139.804 67.1246 139.913 67.1371 140.022L68.1024 139.986C68.3412 139.969 68.5807 140.01 68.7998 140.106C68.8386 140.142 68.8711 140.184 68.8956 140.23C68.9561 140.302 68.9968 140.388 69.0141 140.48C69.0277 140.564 69.0308 140.65 69.0234 140.735C69.0408 140.806 69.0435 140.88 69.0314 140.952C69.0536 140.991 69.066 141.034 69.0677 141.078C69.0693 141.123 69.0601 141.167 69.0408 141.207C68.6943 141.12 68.336 141.09 67.9799 141.118L66.9235 141.157C66.8018 141.816 66.699 142.493 66.5982 143.224C66.4974 143.955 66.3954 144.65 66.3115 145.344C66.2275 146.039 66.1793 146.713 66.1109 147.334C66.0426 147.955 66.0276 148.538 66.028 149.047C66.0367 149.283 66.042 149.428 66.0434 149.464C66.0447 149.501 66.2071 149.458 66.3455 149.253C66.6515 148.843 66.9222 148.407 67.1547 147.95C67.4287 147.468 67.6658 146.968 67.9028 146.468C68.1397 145.968 68.3396 145.452 68.5043 144.973C68.664 144.551 68.8004 144.121 68.9129 143.685C68.9381 143.599 68.9938 143.526 69.0695 143.479C69.1006 143.464 69.1345 143.456 69.169 143.455C69.2034 143.454 69.2376 143.459 69.2698 143.472C69.3084 143.475 69.3459 143.488 69.3784 143.509C69.411 143.53 69.4379 143.558 69.4567 143.592C69.4859 143.668 69.489 143.751 69.4654 143.828L69.1384 144.859C69.0078 145.276 68.8425 145.736 68.6422 146.241C68.4417 146.739 68.2229 147.238 67.9866 147.756C67.7517 148.23 67.4883 148.689 67.1981 149.131C66.9568 149.514 66.6697 149.867 66.3431 150.181C66.1122 150.431 65.8034 150.596 65.4667 150.65C65.2191 150.69 64.9652 150.641 64.7504 150.512C64.579 150.382 64.4415 150.212 64.3493 150.018C64.2632 149.804 64.206 149.58 64.1791 149.351C64.1697 149.097 64.161 148.861 64.153 148.643C64.145 148.425 64.115 147.608 64.0937 147.026C64.0723 146.445 64.1595 145.842 64.209 145.203L64.4156 143.377C64.3922 142.742 64.5515 142.117 64.6401 141.55L64.1668 141.568L63.2742 141.601C63.1222 141.586 62.9733 141.548 62.8325 141.489C62.6921 141.424 62.5787 141.313 62.511 141.174C62.505 141.01 62.5016 140.92 62.6831 140.895C63.0363 140.858 63.3873 140.803 63.7346 140.729L64.7655 140.491L64.8973 139.613C64.9342 139.333 64.9973 139.056 65.0858 138.788C65.2479 138.236 65.4195 137.939 65.6191 137.913L66.0926 137.896C66.3006 137.936 66.5042 137.995 66.7009 138.074C66.8877 138.133 67.0678 138.212 67.2385 138.309C67.3875 138.394 67.4819 138.481 67.4846 138.554C67.4977 138.595 67.4994 138.639 67.4892 138.681L67.2571 138.817Z" fill="#27336E"/>
<path d="M70.1645 141.511C70.4063 141.375 70.6881 141.326 70.9619 141.373C71.2361 141.405 71.5002 141.494 71.7374 141.635C72.0623 141.604 72.3902 141.629 72.7067 141.709C73 141.794 73.2807 141.918 73.541 142.078C73.7702 142.226 73.969 142.416 74.1268 142.639C74.2557 142.853 74.339 143.091 74.3713 143.339C74.4342 143.851 74.4531 144.367 74.428 144.883C74.3589 145.411 74.2439 145.933 74.0841 146.441C74.5285 145.97 74.9249 145.456 75.2677 144.906C75.6199 144.332 75.886 143.71 76.0571 143.059C76.0956 142.984 76.1574 142.924 76.2332 142.889L76.4517 142.881C76.5225 142.906 76.5822 142.955 76.6209 143.02C76.64 143.056 76.6509 143.096 76.6524 143.137C76.6539 143.178 76.646 143.218 76.6296 143.256C76.0992 144.991 75.0233 146.51 73.5608 147.588C73.2304 148.244 72.7896 148.838 72.2576 149.345C71.7718 149.81 71.1347 150.085 70.4625 150.121C70.1001 150.154 69.7351 150.099 69.3989 149.96C69.08 149.816 68.7935 149.61 68.5561 149.354C68.3204 149.112 68.1308 148.829 67.9966 148.52C67.8559 148.245 67.7705 147.945 67.7453 147.638C67.6962 147.067 67.7178 146.492 67.81 145.926C67.8877 145.3 68.0364 144.684 68.2533 144.091C68.4427 143.534 68.7053 143.005 69.0343 142.517C69.3479 142.117 69.7307 141.776 70.1645 141.511ZM69.8818 148.705L70.0821 148.698L70.7141 148.529L71.3259 148.307C71.5125 147.969 71.6704 147.616 71.7979 147.253C71.9431 146.846 72.0557 146.428 72.1349 146.004C72.2248 145.581 72.2883 145.154 72.325 144.723C72.3356 144.336 72.3214 143.947 72.2823 143.561C72.2733 143.273 72.2007 142.99 72.0695 142.732C71.9915 142.577 71.8565 142.459 71.6927 142.401C71.5166 142.385 71.3399 142.423 71.186 142.51C70.977 142.643 70.7971 142.816 70.6576 143.021C70.3562 143.436 70.1153 143.892 69.9415 144.375C69.7622 144.905 69.6357 145.452 69.5638 146.007C69.4935 146.532 69.4762 147.063 69.5125 147.591C69.5673 147.958 69.6918 148.312 69.8791 148.633L69.8818 148.705Z" fill="#27336E"/>
<path d="M75.0448 148.77C75.0235 148.189 75.129 147.585 75.2149 146.945C75.3008 146.305 75.4042 145.647 75.5259 144.988C75.6476 144.328 75.8071 143.704 75.9841 143.061C76.1383 142.475 76.324 141.898 76.5405 141.331C76.5332 141.131 76.712 141.034 76.8395 141.029C76.9592 141.004 77.0824 140.999 77.2037 141.016L77.6278 141.146L78.0002 141.35L78.2801 141.522C78.3041 141.542 78.3235 141.566 78.3373 141.594C78.3511 141.621 78.3588 141.652 78.3599 141.683C78.3611 141.714 78.3556 141.744 78.3439 141.773C78.3322 141.802 78.3146 141.828 78.2921 141.849C78.2268 141.959 78.1758 142.077 78.1407 142.2C77.9597 142.734 77.7802 143.304 77.6383 143.91C77.4964 144.515 77.3363 145.121 77.2315 145.743C77.3983 145.319 77.5819 144.858 77.8026 144.413C78.0233 143.968 78.261 143.487 78.5007 143.06C78.7235 142.648 78.9707 142.251 79.2409 141.869C79.4638 141.546 79.7222 141.25 80.011 140.985C80.0597 140.929 80.1203 140.883 80.1885 140.853C80.2567 140.822 80.3308 140.806 80.4056 140.807L80.6789 140.797L81.0659 140.91L81.4545 141.06C81.5762 141.119 81.6893 141.194 81.7909 141.284C81.9412 141.406 82.0007 141.531 81.9318 141.642C81.8776 141.766 81.794 141.876 81.6882 141.96C81.3231 142.293 81.0549 142.717 80.9125 143.189C80.7594 143.607 80.6711 144.046 80.6504 144.49C80.6242 144.698 80.6704 144.908 80.7816 145.085C80.8163 145.138 80.8633 145.18 80.9184 145.21C80.9735 145.24 81.0353 145.255 81.098 145.256C81.352 145.242 81.5903 145.128 81.7611 144.94C81.9813 144.734 82.1748 144.501 82.3373 144.246C82.5277 143.966 82.6816 143.688 82.8355 143.41L83.1932 142.724C83.2101 142.684 83.2369 142.649 83.271 142.622C83.3051 142.595 83.3454 142.578 83.3882 142.571C83.4207 142.551 83.4581 142.539 83.4965 142.538C83.5349 142.536 83.5728 142.545 83.6067 142.563C83.674 142.597 83.7277 142.652 83.7586 142.721C83.7878 142.796 83.7908 142.88 83.7673 142.957C83.666 143.179 83.529 143.42 83.3575 143.718C83.1951 144.018 83.017 144.31 82.8242 144.592C82.6285 144.876 82.413 145.145 82.1791 145.398C81.9854 145.635 81.735 145.819 81.451 145.934C81.2443 145.998 81.0244 146.006 80.8136 145.957C80.5637 145.917 80.3212 145.84 80.094 145.729C79.8647 145.622 79.6604 145.468 79.494 145.278C79.32 145.103 79.2036 144.879 79.1603 144.636C79.1192 144.238 79.1541 143.835 79.2627 143.45C79.3568 143.048 79.4826 142.654 79.6389 142.272C79.6349 142.163 79.6336 142.127 79.6336 142.127C79.5934 142.16 79.5579 142.198 79.5282 142.24C79.1475 142.761 78.8139 143.315 78.5313 143.895C78.1904 144.544 77.8872 145.228 77.6023 145.912C77.3174 146.595 77.1041 147.239 76.9265 147.864C76.7832 148.335 76.6909 148.82 76.6513 149.311C76.6553 149.42 76.6579 149.493 76.6586 149.511C76.6002 149.532 76.5364 149.535 76.4765 149.518C76.3256 149.536 76.1725 149.51 76.0361 149.443C75.8733 149.388 75.7176 149.315 75.5722 149.223C75.4357 149.132 75.3145 149.02 75.2133 148.891C75.1505 148.861 75.0936 148.82 75.0448 148.77Z" fill="#27336E"/>
<path d="M87.7073 140.994C87.6999 140.794 87.8788 140.696 88.0063 140.692C88.2781 140.709 88.5425 140.786 88.7804 140.918C89.0093 141.03 89.228 141.162 89.4333 141.312C89.4333 141.312 89.5472 141.435 89.4413 141.53C89.4512 141.602 89.4538 141.675 89.4493 141.748C89.4547 141.893 89.3156 142.08 89.2326 142.302C89.0056 143.074 88.7969 143.845 88.6246 144.616C88.4522 145.386 88.2602 146.12 88.1028 146.799L88.1101 146.999C88.6987 146.425 89.2314 145.796 89.7008 145.122C90.2241 144.395 90.6487 143.603 90.9637 142.765C90.9733 142.726 90.9927 142.69 91.0204 142.66C91.0481 142.63 91.0829 142.608 91.1216 142.596C91.1547 142.577 91.1919 142.567 91.23 142.565C91.268 142.564 91.3059 142.572 91.3403 142.588C91.4111 142.614 91.4708 142.663 91.5095 142.727C91.5335 142.762 91.5472 142.802 91.5487 142.844C91.5503 142.886 91.5396 142.927 91.5182 142.963C91.1564 143.997 90.6248 144.963 89.9453 145.822C89.2982 146.61 88.5733 147.331 87.7813 147.975C87.6252 148.69 87.451 149.405 87.276 150.103C87.1011 150.8 86.8707 151.482 86.6229 152.182C86.4262 152.836 86.087 153.438 85.6298 153.946C85.3732 154.186 85.07 154.372 84.7387 154.49C84.4074 154.609 84.0552 154.658 83.7039 154.635C83.4366 154.639 83.1721 154.58 82.9316 154.464C82.6784 154.354 82.4583 154.18 82.2931 153.96C82.1426 153.745 82.0403 153.501 81.9932 153.243C81.9386 152.993 81.9291 152.734 81.9652 152.48C81.9934 152.217 82.0706 151.961 82.1929 151.726C82.3171 151.496 82.4616 151.278 82.6248 151.074C82.8202 150.833 83.0451 150.617 83.2942 150.431L84.2057 149.925L85.0071 149.404C85.2656 149.258 85.5155 149.097 85.7554 148.922C85.8351 148.61 85.896 148.28 85.9575 147.969C86.019 147.657 86.0981 147.327 86.1771 146.997C85.9007 147.619 85.5418 148.201 85.11 148.728C84.9539 148.941 84.753 149.117 84.5215 149.245C84.29 149.373 84.0334 149.449 83.7695 149.468C83.5609 149.471 83.3539 149.429 83.163 149.345C82.9744 149.245 82.7987 149.123 82.6392 148.982C82.505 148.841 82.3943 148.679 82.3116 148.503C82.2537 148.339 82.2471 148.162 82.2929 147.994C82.2966 147.861 82.2917 147.728 82.2782 147.595L82.2629 147.177C82.4178 146.103 82.6346 145.038 82.9118 143.989C83.1602 142.984 83.4837 142 83.8795 141.043C83.9578 140.859 84.0638 140.764 84.1974 140.759C84.3179 140.741 84.44 140.736 84.5615 140.746L84.9688 140.913L85.323 141.118L85.6033 141.307C85.6472 141.35 85.6731 141.408 85.6753 141.469C85.6776 141.529 85.656 141.589 85.6153 141.634C85.55 141.744 85.4992 141.862 85.4641 141.985C85.3156 142.409 85.1676 142.851 85.0211 143.329C84.8745 143.808 84.7279 144.286 84.5996 144.763C84.4712 145.241 84.3612 145.718 84.2692 146.194C84.1773 146.67 84.0653 147.093 83.9882 147.477C83.9201 147.667 83.9278 147.875 84.0096 148.059C84.0284 148.122 84.0682 148.177 84.1226 148.215C84.177 148.252 84.2427 148.27 84.3088 148.266C84.5274 148.258 84.7933 148.048 85.0518 147.638C85.3676 147.189 85.6489 146.717 85.8934 146.225C86.1459 145.652 86.3796 145.062 86.5917 144.381C86.8038 143.7 86.9704 143.276 87.0839 142.89L87.0779 142.726L87.0726 142.581C87.1342 142.3 87.2155 142.024 87.3158 141.754C87.4304 141.493 87.5611 141.239 87.7073 140.994ZM83.5559 153.586C83.6655 153.582 83.7733 153.556 83.872 153.509C83.9708 153.461 84.0585 153.394 84.1294 153.31C84.3637 153.064 84.5343 152.764 84.6263 152.437C84.7587 152.069 84.889 151.645 85.0187 151.204C85.1484 150.763 85.2943 150.267 85.4219 149.771L84.6041 150.347C84.3007 150.543 84.016 150.766 83.7533 151.014C83.4968 151.257 83.2682 151.528 83.0717 151.821C82.9042 152.116 82.8337 152.456 82.8703 152.793C82.8808 152.986 82.9446 153.172 83.0543 153.331C83.1084 153.414 83.1831 153.481 83.2712 153.525C83.3592 153.57 83.4572 153.591 83.5559 153.586Z" fill="#27336E"/>
<path d="M106.93 136.068C106.99 136.07 107.048 136.086 107.1 136.116C107.152 136.146 107.196 136.188 107.228 136.239C107.327 136.363 107.406 136.501 107.462 136.649C107.519 136.808 107.567 136.97 107.607 137.134C107.64 137.277 107.646 137.425 107.623 137.57C107.618 137.604 107.606 137.637 107.588 137.666C107.57 137.695 107.546 137.72 107.517 137.74C107.489 137.76 107.457 137.774 107.423 137.781C107.39 137.788 107.355 137.788 107.321 137.781C106.647 137.806 105.949 137.668 105.201 137.659C104.453 137.65 103.762 137.712 103.052 137.738C103.331 137.873 103.445 138.015 103.43 138.106C103.363 138.287 103.278 138.461 103.176 138.625L102.87 139.236C102.769 139.458 102.651 139.717 102.551 139.994C102.229 140.806 101.933 141.689 101.664 142.645C101.371 143.601 101.111 144.484 100.872 145.402C100.632 146.32 100.46 147.109 100.304 147.824C100.177 148.378 100.087 148.94 100.038 149.506C100.044 149.688 99.9378 149.765 99.7732 149.753C99.6215 149.736 99.4728 149.699 99.3315 149.642C99.1392 149.573 98.953 149.489 98.775 149.389C98.6385 149.298 98.5175 149.186 98.4164 149.057C98.3731 149.008 98.3398 148.951 98.3188 148.89C98.2977 148.828 98.2892 148.763 98.2937 148.698C98.279 148.298 98.3709 147.822 98.4426 147.292C98.5143 146.762 98.6386 146.175 98.7623 145.571C98.886 144.966 99.0273 144.342 99.1874 143.736C99.3475 143.13 99.5226 142.433 99.7184 141.807C99.9143 141.182 100.089 140.466 100.302 139.822C100.515 139.154 100.771 138.5 101.069 137.866L99.6666 137.917L98.5375 137.959C98.2265 137.987 97.9176 138.034 97.6127 138.102C97.3486 138.151 97.089 138.221 96.8364 138.312L96.6361 138.319L96.5536 138.559C96.5536 138.559 96.5535 138.559 96.4442 138.563C96.3878 138.54 96.3376 138.504 96.2979 138.458C96.2581 138.412 96.2299 138.358 96.2157 138.299C96.1433 138.11 96.0815 137.918 96.0305 137.723C96.0225 137.505 96.0145 137.287 96.0065 137.07C95.9707 136.915 95.9648 136.754 95.9891 136.597C95.9824 136.416 96.342 136.275 96.9222 136.181C97.7596 136.003 98.6081 135.88 99.4619 135.815C100.336 135.783 101.283 135.748 102.066 135.719C102.849 135.691 103.778 135.656 104.622 135.807C105.467 135.958 106.16 135.969 106.93 136.068Z" fill="#27336E"/>
<path d="M107.078 141.591C107.334 141.49 107.617 141.48 107.879 141.562C108.146 141.64 108.393 141.774 108.605 141.953C108.929 141.991 109.246 142.078 109.544 142.21C109.819 142.335 110.072 142.504 110.292 142.71C110.5 142.889 110.664 143.113 110.772 143.365C110.887 143.594 110.935 143.851 110.909 144.106C110.856 144.616 110.752 145.119 110.599 145.608C110.437 146.115 110.235 146.609 109.997 147.085C110.516 146.699 110.995 146.261 111.426 145.778C111.857 145.286 112.223 144.741 112.515 144.156C112.536 144.12 112.564 144.09 112.598 144.066C112.632 144.043 112.67 144.028 112.711 144.021C112.781 143.992 112.858 143.989 112.93 144.013C112.997 144.047 113.05 144.103 113.081 144.171C113.11 144.247 113.113 144.33 113.09 144.407C112.269 146.033 110.951 147.355 109.326 148.183C108.89 148.778 108.346 149.285 107.722 149.679C107.19 150.035 106.555 150.205 105.916 150.163C105.546 150.132 105.189 150.008 104.881 149.801C104.592 149.608 104.347 149.357 104.161 149.064C103.978 148.782 103.838 148.475 103.745 148.152C103.68 147.853 103.669 147.546 103.711 147.244C103.772 146.669 103.898 146.103 104.087 145.557C104.275 144.981 104.517 144.424 104.81 143.893C105.107 143.385 105.463 142.914 105.871 142.49C106.216 142.12 106.624 141.816 107.078 141.591ZM105.512 148.614C105.583 148.595 105.658 148.592 105.731 148.606L106.386 148.582L107.024 148.559C107.27 148.265 107.484 147.946 107.664 147.608C107.872 147.23 108.059 146.84 108.223 146.441C108.384 146.039 108.521 145.627 108.633 145.208C108.74 144.831 108.811 144.444 108.846 144.054C108.893 143.777 108.883 143.492 108.816 143.219C108.797 143.131 108.758 143.048 108.701 142.977C108.645 142.907 108.573 142.85 108.49 142.812C108.317 142.764 108.132 142.771 107.962 142.832C107.739 142.931 107.534 143.067 107.357 143.236C106.989 143.598 106.678 144.014 106.436 144.47C106.156 144.956 105.931 145.47 105.763 146.004C105.604 146.504 105.5 147.021 105.455 147.543C105.419 147.903 105.451 148.265 105.549 148.613L105.512 148.614Z" fill="#27336E"/>
<path d="M120.808 150.98C120.929 150.361 121.083 149.748 121.27 149.145C121.499 148.445 121.745 147.69 122.045 146.916C121.832 146.836 121.632 146.727 121.449 146.592C121.449 146.592 121.445 146.465 121.294 146.325C121.246 146.172 121.209 146.015 121.185 145.856C121.17 145.693 121.164 145.529 121.167 145.366C121.161 145.202 121.157 145.093 121.155 145.02C121.166 144.924 121.208 144.834 121.273 144.762C121.283 144.75 121.295 144.74 121.309 144.733C121.323 144.726 121.338 144.722 121.353 144.722C121.369 144.721 121.384 144.724 121.399 144.73C121.413 144.735 121.426 144.744 121.437 144.756C121.623 144.88 121.816 144.995 122.015 145.098L122.626 145.367C122.977 144.499 123.33 143.668 123.701 142.854C124.073 142.04 124.411 141.318 124.752 140.687C125.012 140.158 125.31 139.649 125.644 139.163C125.922 138.789 126.117 138.618 126.264 138.649C126.426 138.688 126.582 138.749 126.727 138.832L127.323 139.174C127.5 139.282 127.664 139.41 127.811 139.556C127.914 139.635 127.983 139.749 128.005 139.877L127.828 140.029C127.828 140.029 127.719 140.033 127.67 140.198C127.427 140.498 127.207 140.816 127.012 141.15C126.771 141.541 126.532 141.986 126.276 142.468C126.021 142.95 125.748 143.47 125.477 144.043C125.207 144.617 124.953 145.172 124.701 145.745L125.575 145.713L126.489 145.77L127.363 145.738L128.115 145.838C128.448 144.989 128.801 144.176 129.155 143.381C129.509 142.586 129.866 141.9 130.191 141.288C130.457 140.789 130.75 140.305 131.067 139.837C131.328 139.482 131.522 139.311 131.669 139.342C131.824 139.385 131.973 139.447 132.114 139.526L132.71 139.867C132.887 139.975 133.051 140.103 133.198 140.25C133.348 140.371 133.407 140.478 133.392 140.57C133.342 140.63 133.282 140.681 133.215 140.722C133.155 140.765 133.107 140.823 133.075 140.891C132.826 141.207 132.595 141.538 132.382 141.88C132.141 142.271 131.884 142.717 131.63 143.235C131.375 143.754 131.103 144.273 130.832 144.847L130.038 146.585C130.121 146.71 130.176 146.85 130.2 146.998C130.233 147.079 130.237 147.169 130.209 147.252C130.209 147.252 130.081 147.257 129.918 147.263L129.808 147.267C129.573 147.821 129.357 148.375 129.157 148.909C128.958 149.444 128.757 149.924 128.592 150.403C128.427 150.882 128.278 151.288 128.164 151.656C128.05 152.024 127.97 152.336 127.924 152.574C127.922 152.609 127.912 152.643 127.894 152.674C127.877 152.705 127.853 152.731 127.824 152.751C127.795 152.772 127.762 152.785 127.727 152.791C127.692 152.797 127.656 152.795 127.622 152.785C127.473 152.75 127.33 152.694 127.196 152.619L126.766 152.325C126.653 152.211 126.551 152.087 126.461 151.955C126.416 151.832 126.411 151.699 126.447 151.573C126.586 150.897 126.762 150.228 126.975 149.571C127.22 148.799 127.5 147.97 127.833 147.103L126.008 147.061C125.37 147.084 124.783 146.997 124.18 146.946C123.76 147.944 123.409 148.793 123.113 149.695C122.894 150.297 122.709 150.911 122.561 151.534C122.559 151.569 122.548 151.604 122.531 151.634C122.514 151.665 122.489 151.692 122.46 151.712C122.431 151.732 122.398 151.746 122.364 151.751C122.329 151.757 122.293 151.755 122.259 151.745C122.11 151.71 121.966 151.654 121.833 151.579C121.68 151.497 121.536 151.398 121.403 151.286C121.285 151.176 121.182 151.052 121.098 150.915C121.01 150.965 120.909 150.988 120.808 150.98Z" fill="#27336E"/>
<path d="M133.798 145.647C134.061 145.582 134.34 145.61 134.585 145.727C134.844 145.835 135.075 146.001 135.259 146.212C135.579 146.284 135.886 146.408 136.166 146.579C136.428 146.732 136.658 146.933 136.844 147.172C137.03 147.375 137.164 147.62 137.235 147.885C137.307 148.127 137.317 148.383 137.263 148.63C137.147 149.13 136.981 149.617 136.769 150.085C136.542 150.568 136.279 151.034 135.981 151.478C136.542 151.157 137.072 150.784 137.563 150.365C138.052 149.929 138.487 149.436 138.859 148.898C138.859 148.898 138.982 148.767 139.073 148.763C139.136 148.736 139.208 148.733 139.273 148.756C139.337 148.798 139.385 148.86 139.407 148.933C139.429 149.01 139.432 149.091 139.416 149.169C138.393 150.669 136.913 151.801 135.194 152.398C134.691 152.941 134.088 153.382 133.419 153.7C132.828 153.991 132.156 154.074 131.512 153.933C131.145 153.864 130.803 153.694 130.528 153.442C130.267 153.213 130.053 152.937 129.896 152.629C129.756 152.326 129.658 152.005 129.606 151.675C129.539 151.371 129.527 151.058 129.572 150.749C129.697 150.195 129.885 149.658 130.133 149.146C130.398 148.597 130.714 148.074 131.079 147.584C131.425 147.111 131.832 146.686 132.29 146.321C132.743 145.999 133.255 145.77 133.798 145.647ZM131.402 152.428L131.621 152.42L132.258 152.396L132.914 152.372C133.188 152.105 133.439 151.816 133.666 151.508C133.923 151.156 134.159 150.789 134.374 150.409C134.578 150.026 134.765 149.637 134.933 149.243C135.081 148.885 135.202 148.515 135.293 148.138C135.341 147.855 135.33 147.564 135.262 147.285C135.255 147.197 135.226 147.113 135.179 147.038C135.132 146.964 135.067 146.902 134.991 146.858C134.824 146.806 134.644 146.813 134.481 146.877C134.246 146.944 134.027 147.057 133.837 147.21C133.421 147.513 133.059 147.883 132.765 148.304C132.421 148.745 132.132 149.225 131.905 149.736C131.682 150.22 131.511 150.726 131.395 151.246C131.316 151.636 131.318 152.039 131.402 152.428Z" fill="#27336E"/>
<path d="M136.235 153.942C136.435 153.407 136.669 152.834 136.939 152.243C137.209 151.651 137.516 151.057 137.838 150.391C138.16 149.724 138.506 149.239 138.851 148.681C139.181 148.168 139.54 147.675 139.927 147.204C140.03 147.037 140.156 146.978 140.285 147.009C140.545 147.089 140.781 147.23 140.975 147.42C141.202 147.648 141.391 147.842 141.506 147.983C141.55 148.025 141.576 148.083 141.578 148.144C141.58 148.205 141.558 148.264 141.518 148.31C141.416 148.397 141.328 148.498 141.255 148.61C140.925 149.059 140.597 149.544 140.252 150.084C139.907 150.624 139.616 151.144 139.326 151.682C139.604 151.326 139.937 150.95 140.288 150.574L141.343 149.516C141.714 149.175 142.067 148.872 142.422 148.604C142.726 148.364 143.055 148.157 143.403 147.986C143.473 147.952 143.55 147.933 143.628 147.93C143.707 147.927 143.785 147.94 143.858 147.969L144.118 148.087C144.243 148.148 144.362 148.223 144.472 148.31L144.811 148.589C144.903 148.676 144.98 148.778 145.041 148.89C145.07 148.965 145.073 149.048 145.049 149.126C145.009 149.198 144.963 149.267 144.911 149.331C144.511 149.855 144.148 150.395 143.803 150.954C143.459 151.512 143.133 152.07 142.807 152.627C143.104 152.271 143.419 151.914 143.77 151.537C144.121 151.16 144.472 150.802 144.843 150.461C145.213 150.12 145.567 149.816 145.904 149.549C146.214 149.313 146.549 149.111 146.903 148.948C147.041 148.889 147.197 148.883 147.34 148.932L147.693 149.101C147.842 149.181 147.981 149.28 148.105 149.395C148.239 149.504 148.36 149.627 148.465 149.764C148.494 149.816 148.51 149.875 148.512 149.935C148.515 149.995 148.503 150.055 148.477 150.109C148.477 150.109 148.477 150.109 148.481 150.218L148.485 150.309C148.405 150.375 148.335 150.451 148.274 150.535L148.101 150.778L147.236 152.064C146.943 152.53 146.686 152.976 146.411 153.44L145.694 154.776C145.482 155.155 145.289 155.544 145.117 155.943C145.123 156.088 145.126 156.179 145.128 156.234C145.13 156.288 145.292 156.228 145.437 156.222C145.865 155.96 146.264 155.653 146.626 155.306C147.029 154.939 147.411 154.548 147.768 154.136C148.136 153.723 148.467 153.31 148.78 152.899L149.614 151.777C149.64 151.744 149.673 151.716 149.71 151.696C149.747 151.676 149.787 151.664 149.829 151.66C149.892 151.632 149.964 151.63 150.03 151.652C150.064 151.67 150.094 151.695 150.117 151.726C150.14 151.756 150.156 151.792 150.164 151.829C150.186 151.865 150.198 151.905 150.2 151.946C150.201 151.988 150.192 152.029 150.172 152.065L149.547 152.907C149.286 153.262 148.99 153.637 148.64 154.05C148.291 154.463 147.958 154.838 147.59 155.234C147.227 155.602 146.844 155.95 146.443 156.276C146.096 156.545 145.718 156.773 145.319 156.954C144.998 157.08 144.645 157.093 144.317 156.991C143.982 156.905 143.694 156.694 143.511 156.402C143.442 156.272 143.403 156.127 143.397 155.979C143.392 155.831 143.42 155.684 143.48 155.549C143.664 155.105 143.866 154.643 144.103 154.144C144.34 153.644 144.577 153.144 144.85 152.643C145.123 152.142 145.397 151.659 145.69 151.194C145.983 150.728 146.259 150.282 146.517 149.872C146.184 150.102 145.865 150.35 145.56 150.616C145.206 150.92 144.854 151.261 144.485 151.638C144.116 152.015 143.783 152.391 143.452 152.803C143.121 153.216 142.807 153.609 142.529 153.983C142.251 154.357 142.009 154.73 141.821 155.064C141.641 155.334 141.498 155.627 141.397 155.934C141.401 156.043 141.348 156.1 141.239 156.104L141.057 156.111C140.913 156.071 140.78 156.002 140.666 155.907C140.527 155.798 140.4 155.675 140.288 155.539C140.191 155.411 140.106 155.274 140.036 155.13C139.987 155.002 139.982 154.861 140.021 154.73C140.396 153.732 140.829 152.757 141.318 151.809C141.833 150.832 142.407 149.888 143.038 148.981C142.491 149.335 141.986 149.751 141.533 150.219C140.97 150.748 140.442 151.314 139.954 151.914C139.479 152.461 139.038 153.036 138.632 153.635C138.322 154.062 138.063 154.523 137.861 155.009C137.865 155.118 137.867 155.173 137.74 155.178C137.681 155.198 137.618 155.2 137.558 155.184C137.41 155.142 137.272 155.073 137.149 154.981C137.016 154.878 136.895 154.761 136.79 154.631C136.685 154.501 136.6 154.357 136.537 154.203C136.409 154.154 136.302 154.062 136.235 153.942Z" fill="#27336E"/>
<path d="M149.155 158.632C148.612 158.494 148.12 158.202 147.738 157.793C147.427 157.454 147.221 157.032 147.147 156.578C147.065 156.092 147.09 155.595 147.221 155.12C147.358 154.596 147.566 154.092 147.84 153.624C148.12 153.13 148.452 152.667 148.829 152.242C149.193 151.832 149.602 151.463 150.047 151.142C150.442 150.867 150.877 150.654 151.337 150.513C151.723 150.371 152.144 150.356 152.539 150.469C152.774 150.55 152.99 150.678 153.173 150.846C153.388 151.061 153.58 151.298 153.746 151.552C153.899 151.804 154.019 152.075 154.104 152.357C154.187 152.604 154.197 152.869 154.132 153.12C153.988 153.601 153.713 154.033 153.339 154.368C152.948 154.697 152.509 154.965 152.037 155.161C151.56 155.339 151.061 155.449 150.553 155.489C150.092 155.532 149.626 155.488 149.181 155.357C148.989 155.826 148.92 156.335 148.98 156.838C149.008 157.055 149.104 157.259 149.254 157.419C149.403 157.58 149.6 157.69 149.815 157.735C150.048 157.799 150.292 157.816 150.532 157.785C150.772 157.755 151.003 157.677 151.213 157.556C151.762 157.271 152.275 156.922 152.743 156.518C153.266 156.07 153.754 155.584 154.203 155.064C154.676 154.537 155.06 154.068 155.392 153.656C155.413 153.623 155.442 153.595 155.476 153.575C155.51 153.554 155.548 153.542 155.588 153.54C155.668 153.544 155.746 153.573 155.81 153.622C155.836 153.686 155.838 153.757 155.817 153.822C155.837 153.855 155.849 153.892 155.85 153.93C155.852 153.968 155.843 154.006 155.825 154.04L154.515 155.616C153.981 156.224 153.391 156.782 152.753 157.281C152.218 157.76 151.619 158.162 150.973 158.474C150.406 158.745 149.76 158.801 149.155 158.632ZM152.203 151.754C151.912 151.857 151.64 152.008 151.399 152.202C151.116 152.428 150.851 152.675 150.606 152.941C150.343 153.233 150.104 153.546 149.892 153.876C149.681 154.203 149.493 154.544 149.328 154.897C149.639 154.986 149.971 154.974 150.275 154.862C150.638 154.756 150.978 154.583 151.277 154.353C151.617 154.093 151.918 153.788 152.174 153.447C152.431 153.093 152.627 152.698 152.752 152.28C152.801 152.207 152.825 152.12 152.822 152.032C152.819 151.944 152.788 151.859 152.734 151.789C152.661 151.726 152.57 151.689 152.474 151.682C152.378 151.676 152.283 151.701 152.203 151.754Z" fill="#27336E"/>
</svg>
