<svg width="101" height="44" viewBox="0 0 101 44" fill="none" xmlns="http://www.w3.org/2000/svg">
<mask id="mask0_875_6374" style="mask-type:alpha" maskUnits="userSpaceOnUse" x="0" y="0" width="101" height="44">
<rect width="101" height="44" fill="#D9D9D9"/>
</mask>
<g mask="url(#mask0_875_6374)">
<path d="M56.1975 1.83325H56.8625C56.9943 2.40136 57.1011 2.97683 57.2689 3.5351C57.3932 3.94212 57.4827 4.50777 57.781 4.68361C58.7928 5.28246 59.203 6.09649 59.1483 7.22778C59.1085 7.95573 59.2229 8.70337 59.1234 9.41658C58.9345 10.7815 59.4876 11.641 60.7393 12.1132C60.7032 11.8218 60.5193 11.4049 60.6535 11.2365C61.2638 10.4753 61.8703 9.63792 62.682 9.15466C62.948 8.99972 63.833 9.85311 64.4221 10.2614C64.8746 10.5786 64.9056 10.9414 64.5079 11.3533C63.8367 12.0481 63.1854 12.7625 62.3713 13.6343C63.7534 13.3281 63.8988 14.4791 64.2817 15.0275C65.588 14.1668 66.7676 13.2285 68.0814 12.5682C69.2821 11.9632 70.4256 12.4834 70.612 13.7794C70.8291 15.322 70.8249 16.8873 70.5996 18.4288C70.4119 19.7088 69.2858 20.1294 68.0416 19.64C67.486 19.4211 66.9727 19.0965 66.2418 18.7165C67.2474 20.5548 68.1845 22.1952 69.0409 23.8811C69.3678 24.523 69.7308 24.6558 70.4281 24.5414C74.2178 23.9266 78.0312 25.8166 79.7228 29.2252C80.2324 30.2507 80.4487 31.4189 80.7992 32.5219V34.2754C80.399 35.3944 80.1243 36.5773 79.5737 37.6189C78.2064 40.2134 75.8299 41.5046 73.0445 42.1686H70.607C70.4769 42.1025 70.3408 42.0486 70.2006 42.0075C66.5351 41.2697 64.0704 39.135 63.1245 35.5789C62.1699 31.9895 63.204 28.8784 66.0852 26.4252C66.2233 26.2931 66.354 26.1535 66.4767 26.0072C65.6303 24.3754 64.7975 22.7719 63.8765 20.9951C62.3489 25.5362 60.8797 29.8486 59.464 34.1672C59.2154 34.9431 58.8724 35.376 58.0048 35.2124C57.2404 35.0685 56.9508 35.4079 56.7494 36.1506C56.1279 38.439 54.8651 39.2531 52.506 38.9653C49.3253 38.5768 46.1508 38.1402 42.97 37.7357C42.7053 37.7025 42.2653 37.6889 42.1795 37.8304C41.6389 38.7133 40.8633 38.5042 40.115 38.3222C38.5563 37.941 37.0984 37.7554 36.1761 39.499C36.0182 39.799 35.6329 39.9823 35.3495 40.2147C33.94 41.3669 32.2335 41.796 30.502 42.1661H28.9471C28.6637 42.0973 28.384 42.0063 28.0969 41.9645C23.7466 41.3275 20.3185 37.2315 20.5423 32.9289C20.771 28.5378 24.1642 25.0591 28.7855 24.4639C32.8872 23.9426 37.1618 26.6404 38.3948 30.6245C38.7341 31.7202 38.7925 32.9006 39.0026 34.1906L42.5698 35.0513C42.4455 35.6563 42.5276 36.1236 43.287 36.2244C46.4615 36.6437 49.626 37.0999 52.808 37.4984C54.3542 37.6926 55.1398 36.9364 55.233 35.2013H54.0311C50.6005 35.2013 47.1687 35.2013 43.737 35.1952C43.3415 35.1726 42.9476 35.1274 42.5574 35.0599C42.3697 34.5877 42.1721 34.1192 41.9968 33.6434C40.9788 30.8754 39.6166 28.3091 37.5222 26.1719C33.73 22.2997 28.4176 21.45 24.2773 24.2352C22.9437 25.1317 21.692 24.8845 20.1992 24.8599C21.3179 22.4202 23.3874 21.4033 25.7527 20.513C25.3525 20.3323 25.1312 20.2241 24.9038 20.1318C23.6024 19.6092 23.5912 19.5773 24.3619 18.4792C24.6987 17.9996 24.992 17.4795 25.3948 17.0614C25.6371 16.8081 26.0672 16.5449 26.3829 16.5769C30.1117 16.9618 33.9003 16.9458 37.5235 18.1287C38.4394 18.4115 39.3854 18.5886 40.3425 18.6563C42.6842 18.8505 44.8009 18.6378 46.8555 17.038C51.0045 13.804 55.6568 12.4108 60.8735 14.7238C59.5759 13.852 58.6784 12.326 56.737 12.567C55.8669 12.6752 54.967 12.578 54.0808 12.5866C53.4307 12.5866 52.8577 12.4637 52.8304 11.6841C52.8005 10.8676 53.3934 10.7803 54.0398 10.7852C55.2492 10.7938 56.4573 10.7852 57.8047 10.7852C57.6207 9.11654 58.19 7.5106 57.2901 5.7239C57.1148 6.28217 57.1024 6.58467 56.9483 6.74576C56.7941 6.90684 56.4511 7.11465 56.2373 7.07776C56.0235 7.04087 55.7401 6.68549 55.7575 6.48875C55.8681 4.92954 56.0434 3.3814 56.1975 1.83325ZM46.6268 20.877C50.782 20.877 54.9832 20.8893 59.1806 20.8684C60.0917 20.8684 60.5565 20.2278 60.7753 19.4383C61.5012 16.8191 60.8238 15.6534 58.1875 14.9328C57.902 14.8553 57.6112 14.7982 57.3174 14.7619C53.4792 14.2787 50.2488 15.7051 47.2707 17.9074C45.8512 18.9624 45.84 19.0522 46.6305 20.8795L46.6268 20.877ZM41.568 35.9109C37.3109 34.7562 33.1781 33.5991 29.0242 32.5244C27.3275 32.0854 25.5899 31.7989 23.8585 31.505C23.5987 31.4607 23.0891 31.7005 23.0232 31.9108C22.8604 32.426 22.6404 33.2892 22.8865 33.4958C23.6136 34.1106 24.5023 34.6849 25.4221 34.8816C27.8981 35.4178 30.4175 35.7559 32.9208 36.1592C35.6317 36.5958 38.345 37.02 41.0435 37.4455C41.1433 37.2527 41.233 37.0548 41.312 36.8528C41.4039 36.581 41.4673 36.3007 41.5717 35.9109H41.568ZM25.258 19.2256C31.827 21.3652 38.4221 22.4448 45.3826 21.0246C45.2583 20.4098 45.1527 19.9326 45.0967 19.672C43.4685 19.672 41.9558 19.8121 40.4792 19.6449C36.2817 19.1702 32.2397 17.7586 27.9552 17.6897C26.6563 17.6627 25.7229 17.7279 25.2618 19.2256H25.258ZM55.8694 23.9794C55.279 23.9794 54.6861 24.009 54.0982 23.9721C53.3189 23.9229 53.0119 24.2512 53.0964 25.0074C53.1946 25.878 53.3114 26.7486 53.3325 27.6217C53.3574 28.6878 53.8098 29.1514 54.9098 29.0149C55.4617 28.9633 56.0173 28.9633 56.5692 29.0149C57.2317 29.058 57.6021 28.8083 57.7425 28.1542C57.9687 27.0844 58.2186 26.0195 58.5044 24.9644C58.6934 24.2672 58.4112 24.0004 57.7587 23.9918C57.1285 23.9733 56.5008 23.9807 55.8731 23.9794H55.8694ZM45.0458 24.2561V24.3791C44.2752 24.3791 43.5033 24.352 42.7351 24.3877C42.2181 24.4111 41.8775 24.6189 42.1733 25.23C42.6171 26.1449 42.9974 27.0929 43.4983 27.9746C43.6052 28.1269 43.7447 28.254 43.9069 28.3469C44.0691 28.4398 44.25 28.4961 44.4367 28.512C48.4254 28.523 47.38 28.9682 47.9742 25.4378C48.1308 24.507 47.7094 24.1774 46.807 24.2438C46.2241 24.2918 45.6362 24.2561 45.0495 24.2561H45.0458ZM69.9408 16.0432L69.0819 13.6245C68.3362 13.9565 67.5283 14.1987 66.8546 14.6377C65.0486 15.8157 65.0361 16.3297 66.7788 17.493C67.4835 17.9627 68.3138 18.2492 69.0869 18.6194L69.9408 16.0432ZM66.6221 30.5704C65.7757 32.303 65.7061 33.9004 66.4655 35.6034C67.4164 35.0956 68.33 34.6308 69.2187 34.1278C69.9495 33.7085 69.9545 32.6732 69.2336 32.201C68.4095 31.6538 67.5581 31.1484 66.6259 30.5704H66.6221ZM62.2581 15.4985C63.9647 18.8186 65.6688 22.1386 67.3977 25.5165L68.4443 24.9275C66.6371 21.5865 64.8696 18.323 63.0835 15.0226C62.8635 15.1111 62.6969 15.1652 62.544 15.2452C62.4401 15.3195 62.3443 15.4044 62.2581 15.4985ZM71.2223 38.969C71.7282 35.7867 71.6934 35.6588 70.1036 34.8263L66.9602 36.5355C68.0764 37.9718 69.4039 38.8227 71.2211 38.969H71.2223ZM67.2188 29.7023C68.1771 30.3085 69.0347 30.8668 69.9098 31.3968C70.397 31.6907 71.4237 31.3316 71.4821 30.8065C71.5989 29.733 71.6151 28.6497 71.6772 27.5086C69.8178 27.6426 68.4008 28.2747 67.2175 29.7023H67.2188ZM34.4894 30.1192C33.4018 28.7432 32.1813 27.8344 30.2808 27.6955C30.2808 28.726 30.2646 29.6629 30.2808 30.6049C30.2969 31.3427 31.1223 31.864 31.791 31.5394C32.6759 31.1127 33.5261 30.6307 34.4882 30.1192H34.4894ZM76.5372 36.5773C75.6957 36.0498 74.9897 35.5936 74.2663 35.1608C73.564 34.7427 72.4739 35.269 72.4329 36.0732C72.3845 37.0053 72.4217 37.9435 72.4217 38.9395C74.1905 38.7833 75.4521 37.9607 76.5359 36.5773H76.5372ZM72.5958 27.6254C72.5958 28.7493 72.5734 29.6949 72.6045 30.6393C72.6243 31.2467 73.4534 31.7853 74.0003 31.5283C74.8828 31.1152 75.7305 30.6307 76.6453 30.1487C75.631 28.7407 74.4391 27.8885 72.5945 27.6254H72.5958ZM29.1534 31.5074C29.2392 29.9974 29.3026 28.8833 29.3734 27.6561C27.5513 27.7791 26.2275 28.5034 24.9858 30.0724L29.1534 31.5074ZM77.1251 31.1029C76.2438 31.5492 75.4197 31.9415 74.6218 32.3817C74.1047 32.6658 73.9879 33.6901 74.4651 34.0307C75.2818 34.6136 76.1593 35.1116 77.0604 35.676C77.7217 34.0639 77.7726 32.6363 77.1238 31.1029H77.1251ZM24.9212 36.4138C25.9963 37.8304 27.2269 38.696 29.0229 38.8805V36.506C27.6631 36.5712 26.3916 35.6477 24.9175 36.4138H24.9212ZM73.4609 33.5647C73.4609 33.3901 73.4609 33.2154 73.4671 33.0421C72.9972 32.7076 72.5659 32.1887 72.0489 32.0829C71.2385 31.9181 70.6965 32.5059 70.6916 33.2806C70.6866 34.0553 71.2248 34.6566 72.0252 34.5213C72.5398 34.4328 72.9811 33.8991 73.4571 33.5647H73.4609ZM33.5908 37.7086L33.5174 37.277L30.1291 36.7507V39.1387L33.5908 37.7086ZM35.0711 30.9725L32.5119 32.3854L35.4825 33.1847C35.3383 32.4383 35.2252 31.8235 35.0674 30.9725H35.0711Z" fill="#4A00E0"/>
</g>
</svg>
