<svg width="41" height="11" viewBox="0 0 41 11" fill="none" xmlns="http://www.w3.org/2000/svg">
<path d="M23.6923 0.169533C25.5544 0.169533 27.4165 0.169533 29.2786 0.169533C30.1141 0.169533 30.4077 0.550832 30.1854 1.35596C29.8183 2.68697 29.4477 4.01714 29.0739 5.3465C28.8419 6.17182 28.3227 6.56056 27.4521 6.56092C24.4277 6.56092 21.4029 6.56554 18.3785 6.55455C18.0952 6.55455 17.9748 6.6194 17.8995 6.90608C17.5768 8.13893 17.2182 9.36292 16.8779 10.5915C16.8338 10.751 16.7797 10.8396 16.5796 10.8339C16.0206 10.8169 15.4602 10.8219 14.9009 10.8314C14.7029 10.8346 14.6728 10.7868 14.727 10.5961C15.283 8.6341 15.8313 6.66972 16.372 4.70297C16.4355 4.47228 16.5796 4.48149 16.7578 4.48149C20.0946 4.48362 23.4313 4.47829 26.768 4.49105C27.085 4.49105 27.2176 4.40389 27.2865 4.09771C27.4048 3.57006 27.5611 3.04984 27.7243 2.53352C27.8039 2.28157 27.7347 2.23266 27.4841 2.23337C24.7931 2.24116 22.1021 2.23799 19.4111 2.23799C18.7224 2.23799 18.0332 2.23054 17.3444 2.24259C17.1153 2.24649 17.0734 2.18448 17.1397 1.97221C17.2974 1.46511 17.4488 0.954808 17.5732 0.439202C17.627 0.215596 17.7256 0.163504 17.9457 0.164567C19.8597 0.173426 21.7755 0.169533 23.6923 0.169533Z" fill="#696A6B"/>
<path d="M6.90597 10.8279C5.1194 10.8279 3.33283 10.8279 1.54626 10.8279C0.763892 10.8279 0.451589 10.4466 0.657401 9.70773C1.52248 6.59708 2.3921 3.48761 3.26626 0.379325C3.31 0.222694 3.37957 0.161388 3.55311 0.166704C4.09094 0.179106 4.62878 0.18265 5.16661 0.166704C5.4176 0.158907 5.47246 0.205325 5.39896 0.462951C4.64599 3.10902 3.91238 5.76006 3.15941 8.40577C3.08268 8.67509 3.11029 8.74137 3.40502 8.73995C6.05261 8.73003 8.70007 8.73003 11.3474 8.73995C11.5812 8.73995 11.6755 8.67651 11.7397 8.44547C12.4769 5.78416 13.2298 3.12746 13.9724 0.467571C14.0309 0.258848 14.1044 0.153245 14.3557 0.164939C14.8817 0.18939 15.4099 0.179109 15.9373 0.168832C16.1327 0.164934 16.2073 0.193634 16.1449 0.413343C15.2332 3.63195 14.3249 6.85186 13.4199 10.0731C13.2765 10.5777 12.9089 10.8296 12.3625 10.8304C10.5437 10.8299 8.72481 10.8291 6.90597 10.8279Z" fill="#696A6B"/>
<path d="M29.1074 10.7737C29.3907 9.75558 29.6618 8.77469 29.9364 7.79451C30.6205 5.35185 31.31 2.91096 31.9859 0.465814C32.0537 0.219882 32.1455 0.121728 32.4162 0.135548C32.9203 0.161772 33.427 0.147948 33.9322 0.14086C34.1304 0.138026 34.2233 0.151851 34.1527 0.402744C33.1965 3.78295 32.2479 7.1654 31.3068 10.5501C31.2753 10.6631 31.2674 10.7776 31.0974 10.7762C30.4441 10.7705 29.7908 10.7737 29.1074 10.7737Z" fill="#696A6B"/>
<path d="M35.5381 8.53055C35.2416 8.69214 35.0362 8.95862 34.7941 9.17974C34.3036 9.62589 33.826 10.0845 33.3384 10.5349C33.2635 10.604 33.2075 10.712 33.0645 10.6947C34.044 7.20697 35.0232 3.72211 36.0215 0.169922L37.2481 2.54739C37.3485 2.58531 37.3861 2.67709 37.4292 2.76001C37.8444 3.57506 38.2538 4.39613 38.6734 5.20905C38.7859 5.42628 38.7472 5.58256 38.5773 5.74557C37.6289 6.65452 36.6393 7.5206 35.7067 8.4455C35.6859 8.47021 35.6602 8.49049 35.6312 8.50511C35.6023 8.51973 35.5706 8.52838 35.5381 8.53055Z" fill="#E96405"/>
<path d="M35.5379 8.53069C35.8793 8.11715 36.2948 7.77767 36.6824 7.41054C37.3038 6.82193 37.9281 6.2358 38.5627 5.66102C38.7158 5.52246 38.7029 5.4172 38.6187 5.25384C38.1554 4.35445 37.7033 3.44976 37.2475 2.54683L37.9288 0.189209C38.0937 0.496801 38.2343 0.748402 38.3648 1.00426C39.0927 2.43449 39.8152 3.86757 40.5477 5.29532C40.6251 5.44592 40.6108 5.52955 40.4878 5.64401C38.695 7.31096 36.9051 8.98087 35.1181 10.6537C35.0804 10.6892 35.0374 10.7186 34.9531 10.7852C35.1421 10.1027 35.3167 9.47084 35.491 8.839C35.5196 8.7373 35.5734 8.64019 35.5379 8.53069Z" fill="#268150"/>
</svg>
