<svg width="95" height="95" viewBox="0 0 95 95" fill="none" xmlns="http://www.w3.org/2000/svg">
<g opacity="0.2">
<path fill-rule="evenodd" clip-rule="evenodd" d="M7.91602 47.5001C7.91602 25.6388 25.6381 7.91675 47.4994 7.91675C69.3606 7.91675 87.0827 25.6388 87.0827 47.5001C87.0827 69.3614 69.3606 87.0834 47.4994 87.0834C25.6381 87.0834 7.91602 69.3614 7.91602 47.5001ZM47.4994 15.8334C30.0103 15.8334 15.8327 30.0111 15.8327 47.5001C15.8327 64.9891 30.0103 79.1667 47.4994 79.1667C64.9884 79.1667 79.166 64.9891 79.166 47.5001C79.166 30.0111 64.9884 15.8334 47.4994 15.8334Z" fill="#4A00E0"/>
<path fill-rule="evenodd" clip-rule="evenodd" d="M47.4993 31.6667C43.1271 31.6667 39.5827 35.2111 39.5827 39.5833C39.5827 43.9556 43.1271 47.5 47.4993 47.5C51.8716 47.5 55.416 43.9556 55.416 39.5833C55.416 35.2111 51.8716 31.6667 47.4993 31.6667ZM31.666 39.5833C31.666 30.8388 38.7548 23.75 47.4993 23.75C56.2439 23.75 63.3327 30.8388 63.3327 39.5833C63.3327 48.3278 56.2439 55.4167 47.4993 55.4167C38.7548 55.4167 31.666 48.3278 31.666 39.5833Z" fill="#4A00E0"/>
<path fill-rule="evenodd" clip-rule="evenodd" d="M47.5009 67.2917C39.2257 67.2917 31.8016 70.9143 26.7186 76.6733L20.7832 71.4345C27.3052 64.0452 36.8601 59.375 47.5009 59.375C58.1417 59.375 67.6966 64.0452 74.2186 71.4345L68.2832 76.6733C63.2002 70.9143 55.7761 67.2917 47.5009 67.2917Z" fill="#4A00E0"/>
</g>
</svg>
