<svg width="16" height="17" viewBox="0 0 16 17" fill="none" xmlns="http://www.w3.org/2000/svg">
<path d="M7.78978 16.9985C6.40018 16.9985 5.01054 16.9985 3.62085 16.9985C2.00023 16.9961 0.554675 15.885 0.124956 14.3143C0.0426922 14.0167 0.000662701 13.7092 0 13.4003C0 12.6686 0 11.937 0 11.2054C0 10.6675 0.417093 10.2412 0.948618 10.2319C1.48014 10.2227 1.92288 10.6404 1.92959 11.1796C1.93841 11.9044 1.92565 12.6295 1.93472 13.3543C1.94327 14.0462 2.26816 14.5543 2.86861 14.8837C3.09287 15.0068 3.33844 15.0642 3.59454 15.0713C3.634 15.0725 3.67346 15.0728 3.71292 15.0728C6.43127 15.0728 9.14922 15.0731 11.8668 15.0738C12.2614 15.0738 12.6234 14.9798 12.9405 14.7419C13.4009 14.3967 13.6421 13.9333 13.6459 13.3536C13.6504 12.6463 13.6487 11.9388 13.6466 11.2317C13.6456 10.9531 13.7343 10.713 13.9304 10.5154C14.2066 10.2367 14.6224 10.1557 14.9894 10.3065C15.3487 10.4543 15.5788 10.8006 15.5792 11.1985C15.58 11.9101 15.5851 12.6219 15.5783 13.3335C15.5651 14.6668 14.9879 15.6966 13.8875 16.4266C13.3044 16.8135 12.6511 16.9962 11.9521 16.9974C10.5647 17.0005 9.17728 17.0008 7.78978 16.9985Z" fill="#4A00E0"/>
<path d="M6.82342 6.8425C6.82342 7.97962 6.82342 9.11648 6.82342 10.2531C6.82342 10.6267 6.98547 10.9159 7.30562 11.0993C7.96184 11.4744 8.74157 11.0032 8.75314 10.2863C8.7538 10.2422 8.75314 10.1982 8.75314 10.154C8.75314 7.93101 8.75341 5.70789 8.75393 3.48469C8.75393 3.44727 8.73341 3.39214 8.77221 3.37653C8.80352 3.36397 8.82943 3.4162 8.85508 3.44146C9.49736 4.07956 10.1363 4.72085 10.7815 5.35605C11.2875 5.85413 12.1449 5.6558 12.3695 4.9882C12.4966 4.61031 12.4158 4.26904 12.1353 3.98423C11.8254 3.66941 11.5103 3.35987 11.1973 3.04822C10.284 2.13782 9.37065 1.22724 8.45719 0.316491C8.27042 0.129792 8.05351 0.0143614 7.78926 0.00140381C7.49766 -0.0130081 7.24801 0.0877457 7.04058 0.29441C6.7249 0.609365 6.40883 0.92419 6.09236 1.23888C5.21284 2.11508 4.33332 2.99137 3.4538 3.86774C3.18416 4.13616 3.09064 4.45706 3.18771 4.82358C3.37291 5.52278 4.25853 5.76858 4.78111 5.26481C5.15926 4.90054 5.5269 4.52516 5.89914 4.15414C6.18106 3.87356 6.46293 3.59294 6.74476 3.31227C6.76278 3.29442 6.77975 3.25938 6.805 3.26851C6.83552 3.27988 6.82092 3.31849 6.82276 3.34546C6.8246 3.37243 6.82342 3.40271 6.82342 3.43127V6.8425Z" fill="#4A00E0"/>
</svg>
