<svg width="20" height="20" viewBox="0 0 20 20" fill="none" xmlns="http://www.w3.org/2000/svg">
<path d="M19.7905 7.08043V16.8403C19.7779 16.8618 19.7679 16.8847 19.7608 16.9086C19.4988 18.4204 18.3661 19.3804 16.8383 19.3809C12.2676 19.3809 7.6984 19.3809 3.13077 19.3809C2.97139 19.3847 2.81197 19.3762 2.65392 19.3552C1.1727 19.1181 0.182152 17.9517 0.181641 16.4476C0.181641 13.4897 0.182667 10.5315 0.184714 7.57325C0.185872 7.26632 0.212215 6.96001 0.263497 6.65743C0.597602 4.68512 2.37763 3.09321 4.37151 3.00953C5.29555 2.97051 6.22214 2.98951 7.1472 2.99464C7.37558 2.99779 7.6007 2.94004 7.79954 2.82729C8.94052 2.20202 10.0849 1.58292 11.2327 0.969974C12.6709 0.202509 14.3803 0.730237 15.1381 2.16814C15.2599 2.40018 15.3658 2.64043 15.4962 2.86784C15.5176 2.90258 15.5459 2.93249 15.5793 2.95564C15.6128 2.9788 15.6507 2.99471 15.6907 3.00234C17.5142 3.16097 19.0957 4.45565 19.6027 6.22313C19.682 6.50342 19.7286 6.79398 19.7905 7.08043ZM18.958 9.54453C18.958 9.07687 18.9713 8.64205 18.958 8.20981C18.9268 7.36996 18.3952 6.66975 17.6068 6.38483C17.2353 6.25034 16.8536 6.27344 16.4714 6.27344C11.9853 6.27344 7.49988 6.27344 3.01513 6.27344C2.52504 6.27182 2.05225 6.45505 1.69049 6.78679C1.16758 7.24881 0.997204 7.84892 0.998738 8.52706C1.00385 11.1652 0.998742 13.8028 1.00284 16.4409C1.00213 16.6074 1.01928 16.7735 1.054 16.9363C1.27247 17.9281 2.08753 18.5637 3.13794 18.5637C7.70694 18.5637 12.2761 18.5637 16.8454 18.5637C16.9033 18.5637 16.9606 18.5637 17.0179 18.5601C17.9429 18.5169 18.7365 17.8865 18.911 16.9738C19 16.5087 18.9667 16.019 18.9816 15.5405C18.9898 15.2838 18.9816 15.2838 18.7257 15.2838C17.7623 15.2782 16.7968 15.3085 15.836 15.2571C14.365 15.1791 13.157 13.7484 13.2644 12.2751C13.3806 10.6837 14.5947 9.54556 16.188 9.54196C17.0174 9.54196 17.8473 9.54196 18.6766 9.54196L18.958 9.54453ZM14.3343 2.41507C14.2985 2.3586 14.276 2.32061 14.2504 2.28467C13.6574 1.44123 12.5353 1.20201 11.5699 1.71998C9.60412 2.77852 7.63923 3.83945 5.67519 4.90278C5.3636 5.07116 5.05252 5.24159 4.69846 5.4341C4.77674 5.44437 4.8059 5.45104 4.83506 5.45104C6.08604 5.45104 7.33701 5.45104 8.58799 5.44796C8.68898 5.44201 8.78723 5.41267 8.87502 5.36223C9.92628 4.79891 10.9764 4.23285 12.0252 3.66406L14.3343 2.41507ZM18.9575 10.3859C18.9278 10.3783 18.8975 10.3731 18.867 10.3705C17.8948 10.3705 16.9273 10.3484 15.9593 10.3849C14.7723 10.429 13.8825 11.599 14.1041 12.7689C14.2928 13.7638 15.0987 14.4501 16.1107 14.4604C17.0097 14.4697 17.9092 14.463 18.8086 14.4604C18.8598 14.4604 18.9053 14.4507 18.9575 14.4455V10.3859ZM15.8575 5.43872L14.7114 3.14249L10.5215 5.40638L10.5328 5.43872H15.8575ZM1.34461 5.98442C1.80509 5.68205 2.29883 5.49211 2.84834 5.45464C2.93624 5.44088 3.02048 5.40945 3.09598 5.36223C3.98931 4.8831 4.88179 4.40209 5.77342 3.91919C5.81538 3.89661 5.85426 3.86786 5.89468 3.84476C5.46746 3.8119 5.04893 3.80934 4.63092 3.81242C3.91888 3.81492 3.2239 4.03127 2.63549 4.43358C2.06139 4.81072 1.6119 5.35051 1.3441 5.98442H1.34461ZM18.6505 6.02292C18.1512 4.78214 16.8941 3.99876 16.0048 3.9002C16.2535 4.39969 16.495 4.88943 16.7436 5.37558C16.7601 5.397 16.7812 5.41446 16.8053 5.42671C16.8293 5.43896 16.8558 5.4457 16.8828 5.44642C17.5188 5.44086 18.1393 5.64323 18.6505 6.02292Z" fill="black"/>
<path d="M16.105 11.19C16.2661 11.1886 16.4259 11.2193 16.5752 11.2801C16.7245 11.3409 16.8603 11.4308 16.9748 11.5445C17.0894 11.6581 17.1804 11.7934 17.2427 11.9425C17.3049 12.0917 17.3372 12.2516 17.3375 12.4133C17.3363 12.7397 17.2066 13.0524 16.9765 13.2832C16.7465 13.5139 16.4349 13.6441 16.1096 13.6454C15.7876 13.6426 15.4795 13.5136 15.251 13.286C15.0226 13.0584 14.8918 12.7502 14.8868 12.4272C14.8854 12.2656 14.9159 12.1053 14.9765 11.9556C15.037 11.8058 15.1265 11.6696 15.2397 11.5546C15.3529 11.4396 15.4876 11.3483 15.6361 11.2857C15.7846 11.2231 15.9439 11.1906 16.105 11.19ZM16.5205 12.4195C16.5186 12.3103 16.4742 12.2063 16.3969 12.1295C16.3195 12.0528 16.2153 12.0094 16.1065 12.0088C16.0007 12.0129 15.9004 12.0571 15.8258 12.1324C15.7512 12.2078 15.7078 12.3087 15.7044 12.4148C15.7043 12.5213 15.7455 12.6237 15.8192 12.7003C15.8928 12.7769 15.9933 12.8218 16.0994 12.8255C16.1537 12.8271 16.2078 12.8178 16.2586 12.7982C16.3093 12.7785 16.3556 12.7489 16.3948 12.7111C16.434 12.6733 16.4653 12.6281 16.4869 12.578C16.5084 12.5279 16.5199 12.474 16.5205 12.4195Z" fill="black"/>
</svg>
