<svg width="328" height="180" viewBox="0 0 328 180" fill="none" xmlns="http://www.w3.org/2000/svg">
<path d="M47.4165 162.771C45.4097 161.015 44.9669 159.156 45.0244 157.043C45.1088 154.006 45.0359 150.964 45.0532 147.923C45.0666 145.68 46.0116 144.698 48.235 144.679C51.066 144.654 53.8971 144.679 56.7281 144.679C58.1887 144.679 59.1221 145.365 59.5841 146.801C59.6817 147.035 59.8262 147.245 60.0085 147.42C60.1908 147.596 60.4071 147.731 60.644 147.82C63.3275 148.681 64.9548 150.717 64.9433 153.381C64.9318 156.044 63.2757 158.056 60.5808 158.896C60.1016 159.045 59.6684 159.54 59.356 159.977C58.7694 160.8 58.2864 161.703 57.6903 162.675H90.5645C90.3977 162.017 90.2521 161.45 90.1045 160.871C89.7345 160.871 89.4834 160.853 89.2323 160.871C87.1738 161.03 86.3016 159.877 86.5489 157.852C86.7693 156.059 86.6716 154.209 86.57 152.403C86.4876 150.916 86.1866 149.444 85.9949 147.965C85.9448 147.763 85.9535 147.551 86.0199 147.354C87.5667 144.477 86.0065 141.766 85.4966 139.039C84.521 133.827 83.3383 128.653 82.2611 123.46C81.481 119.706 83.9306 116.628 87.7814 116.624C102.924 116.617 118.066 116.627 133.208 116.655C139.286 116.655 145.364 116.655 151.44 116.595C153.668 116.57 155.767 116.739 157.442 118.705C158.895 116.62 160.167 114.63 161.605 112.76C163.397 110.442 165.23 108.139 167.221 105.993C169.626 103.351 172.788 101.517 176.274 100.739C176.15 100.566 176.006 100.409 175.844 100.271C169.067 96.1136 166.261 89.3924 168.314 81.7355C168.917 79.4708 170.092 77.3634 170.767 75.1121C171.342 73.1734 172.022 71.112 171.917 69.1427C171.263 56.6956 176.74 49.0961 188.836 46.0318C195.023 44.4632 201.146 44.9407 207.068 47.0788C213.455 49.3799 219.481 52.4174 223.936 57.8173C227.976 62.711 229.816 68.3833 229.671 74.6922C229.479 83.2274 233.186 89.9601 239.58 95.197C243.956 98.781 247.374 102.892 249.465 108.164C252.882 116.793 251.338 124.425 245.016 131.1C244.058 132.101 243.887 132.995 244.121 134.243C244.491 136.113 244.747 138.003 244.888 139.904C244.926 140.519 244.361 141.177 244.048 141.806C243.856 142.172 243.439 142.531 243.462 142.868C243.933 149.48 243.626 156.036 242.135 162.669H274.655C273.382 155.868 272.136 149.202 270.854 142.343H276.468C275.596 141.428 274.898 140.786 274.306 140.057C272.692 138.069 271.979 135.733 271.772 133.209C271.187 126.114 273.114 119.458 275.362 112.292C276.694 114.425 277.783 116.17 278.851 117.876L283.583 102.844L284.175 102.898C286.978 107.364 288.983 112.204 290.579 117.483L293.838 112.4C294.177 113.359 294.395 113.907 294.568 114.473C296.161 119.65 297.524 124.889 297.575 130.36C297.619 134.853 296.972 139.106 292.592 142.282H300.987C299.697 149.185 298.447 155.845 297.154 162.784C300.504 162.784 303.73 162.784 306.954 162.784C311.951 162.784 316.946 162.708 321.941 162.802C323.183 162.825 324.483 163.227 325.638 163.728C327.22 164.414 328.044 165.72 327.994 167.544C327.937 169.707 327.908 171.876 327.994 174.037C328.09 176.279 327.015 177.701 325.039 178.407C323.881 178.823 322.661 179.042 321.431 179.053C293.669 179.088 265.907 179.097 238.146 179.08C220.07 179.08 201.993 179.08 183.914 179.08H23.6872C18.0749 179.08 12.4608 179.101 6.84855 179.061C5.71844 179.072 4.59201 178.93 3.49999 178.639C0.979461 177.91 0.00575025 176.493 0 173.882C0 171.872 0 169.855 0 167.853C0.00958375 165.433 0.866372 164.085 3.17605 163.339C4.40138 162.956 5.67789 162.762 6.96163 162.763C19.7348 162.723 32.5081 162.738 45.2813 162.738L47.4165 162.771ZM179.758 167.609L179.722 167.577C180.105 167.701 180.489 167.927 180.872 167.935C184.209 168.002 187.552 168.173 190.881 168.021C193.118 167.92 195.328 167.063 197.557 167.028C207.643 166.89 217.731 166.961 227.819 166.877C230.237 166.878 232.652 166.686 235.039 166.301C239.467 165.534 241.022 164.134 241.516 159.701C242.091 154.602 242.162 149.446 242.419 144.314C242.415 143.861 242.355 143.41 242.239 142.972C237.813 143.915 233.554 144.796 229.318 145.774C228.923 145.864 228.457 146.541 228.388 146.995C228.141 148.673 228.112 150.381 227.877 152.061C227.602 153.998 226.819 154.859 224.973 155.179C219.855 156.069 214.753 157.185 209.593 157.657C203.557 158.209 197.464 158.065 191.408 158.435C187.619 158.667 183.843 159.214 180.082 159.762C177.974 160.069 176.372 161.331 175.482 163.27C175.154 163.981 175.25 164.886 175.153 165.703L175.595 165.734C178.434 161.96 183.425 159.183 185.61 160.458C181.817 161.609 178.219 162.817 176.218 166.823L179.758 167.609ZM164.026 177.803H238.628C266.125 177.803 293.624 177.803 321.124 177.803C321.741 177.825 322.359 177.787 322.968 177.69C325.249 177.239 326.097 176.179 326.102 173.855C326.102 171.845 326.102 169.828 326.102 167.826C326.091 165.774 325.349 164.775 323.361 164.313C322.506 164.131 321.633 164.045 320.758 164.058C313.553 164.04 306.348 164.058 299.141 164.058C280.916 164.058 262.69 164.054 244.464 164.046C242.875 164.046 241.271 163.841 240.247 165.502C240.056 165.812 239.569 165.945 239.208 166.142C236.801 167.463 234.179 167.97 231.476 167.996C220.254 168.11 209.029 168.171 197.805 168.269C196.985 168.257 196.167 168.341 195.367 168.518C189.925 169.86 184.441 169.918 178.98 168.854C177.521 168.579 176.15 167.955 174.984 167.036C174.203 166.328 173.177 165.953 172.124 165.989C146.12 166.007 120.116 166.011 94.1124 166C93.5987 166 93.0658 166.062 92.579 165.949C92.0921 165.835 91.3868 165.642 91.2641 165.306C90.6891 163.711 89.4643 163.964 88.228 164.006C86.7387 164.067 85.2455 164.052 83.7543 164.052C58.3152 164.052 32.8761 164.058 7.43699 164.069C6.31114 164.075 5.19077 164.227 4.10376 164.52C2.59336 164.921 1.82666 165.97 1.86116 167.605C1.90908 169.82 1.92441 172.039 1.86116 174.252C1.80941 175.978 2.67962 176.984 4.20152 177.452C5.04037 177.691 5.90934 177.807 6.78146 177.797C13.1623 177.824 19.5432 177.809 25.926 177.809L164.026 177.803ZM187.531 99.8472C184.483 100.422 181.721 101.04 178.925 101.42C174.564 102.012 170.704 103.69 167.882 107.032C164.568 110.956 161.588 115.163 158.515 119.284C158.277 119.602 158.337 120.243 158.437 120.695C159.385 124.954 160.39 129.2 161.339 133.459C161.722 135.202 161.609 137.198 162.444 138.669C163.771 141.003 165.703 142.989 167.33 145.06C169.715 143.798 170.848 142.099 171.079 139.57C171.258 137.601 171.98 135.674 172.55 133.752C172.644 133.432 173.188 133.244 173.523 132.995C173.675 133.378 173.953 133.777 173.943 134.162C173.933 134.661 173.69 135.152 173.56 135.649C172.026 141.169 171.125 146.636 173.322 152.288C174.196 154.533 174.221 157.108 174.624 159.536C174.71 160.05 174.76 160.572 174.844 161.241C176.903 159.346 177.888 158.587 180.813 158.207C185.442 157.607 190.12 157.016 194.772 157.057C204.613 157.162 214.258 155.881 223.869 153.988C225.161 153.735 225.594 153.099 225.691 151.946C225.852 150.203 226.144 148.47 226.228 146.725C226.481 141.476 226.506 136.235 225.191 131.085C224.969 130.239 224.806 129.378 224.704 128.509C224.676 128.235 224.973 127.934 225.12 127.633C225.45 127.825 225.887 127.923 226.079 128.197C226.305 128.509 226.374 128.964 226.424 129.369C226.972 133.697 227.574 138.019 227.993 142.358C228.118 143.662 228.386 144.122 229.784 144.084C234.361 143.963 238.526 142.326 242.716 140.774C243.069 140.644 243.452 139.902 243.404 139.49C242.532 131.9 241.244 124.377 238.037 117.384C236.418 113.851 234.779 110.085 232.222 107.278C227.42 102.014 220.838 100.231 213.821 99.991C212.686 99.9507 211.916 100.328 211.212 101.257C208.751 104.503 205.56 106.818 201.68 108.056C196.611 109.665 190.979 108.271 188.315 103.071C188.096 102.706 187.831 102.371 187.527 102.073L187.531 99.8472ZM88.0114 144.719C89.3895 145.12 90.6105 145.25 91.5861 145.806C93.4664 146.878 91.7394 149.45 93.4051 150.763C93.6159 150.93 93.4607 151.643 93.3744 152.084C93.3188 152.368 93.0505 152.604 92.9317 152.886C92.8262 153.135 92.648 153.507 92.7496 153.67C93.5163 154.884 93.2671 155.893 92.3145 156.874C92.1477 157.047 92.2646 157.498 92.2512 157.818C92.2282 158.326 92.4141 159.038 92.1496 159.304C90.898 160.57 91.7663 161.854 91.889 163.164C92.0116 164.363 92.5464 164.671 93.685 164.664C99.554 164.616 105.423 164.641 111.292 164.641C131.528 164.641 151.762 164.641 171.994 164.641C172.635 164.609 173.275 164.545 173.91 164.449C173.91 164.271 173.91 164.094 173.91 163.918C173.503 163.838 173.092 163.782 172.678 163.751C171.39 163.73 170.104 163.751 168.816 163.741C166.728 163.722 166.194 163.295 165.764 161.266C163 148.226 160.24 135.186 157.484 122.147C156.819 118.989 155.479 117.857 152.278 117.857C136.061 117.857 119.843 117.857 103.625 117.857C98.3733 117.857 93.1214 117.838 87.8695 117.857C84.9197 117.871 82.8381 120.099 83.392 122.843C84.8737 130.203 86.4799 137.539 88.0018 144.721L88.0114 144.719ZM194.266 91.6648C194.297 91.5977 194.182 91.7357 194.184 91.8738C194.22 95.4731 192.407 97.8663 189.342 99.5231C189.051 99.6803 188.853 100.467 188.97 100.854C190.345 105.456 195.094 108.407 199.704 107.128C202.217 106.434 204.582 105.019 206.827 103.615C208.199 102.762 209.217 101.337 210.469 100.095C209.976 99.7819 209.765 99.64 209.547 99.5192C205.272 96.9669 203.133 91.2947 204.661 86.5371C204.736 86.3457 204.842 86.1677 204.973 86.0098C206.714 83.6147 207.511 80.8783 208.004 77.9981C208.113 77.3615 208.629 76.6443 209.167 76.2723C210.789 75.1217 211.44 73.6183 211.41 71.7122C208.918 71.0967 209.788 74.2588 207.645 74.5081L208.604 71.8004C200.521 71.8676 193.643 69.4073 188.531 63.2403C187.057 64.0246 185.771 65.0601 184.324 65.3976C181.882 65.9729 181.351 67.5357 181.351 69.6431C181.351 69.8483 181.315 70.0554 181.323 70.2606C181.413 73.0718 181.706 75.8964 180.401 78.5772C180.259 78.8668 180.753 79.8486 181.068 79.9195C182.409 80.1803 182.867 81.0701 183.249 82.2206C184.508 86.0002 186.781 88.8076 190.805 89.891C193.502 90.6255 196.091 90.4356 198.623 89.2352C198.934 89.0875 199.363 89.1892 199.737 89.1758C199.518 89.5113 199.371 90.0406 199.07 90.1499C197.544 90.6849 195.965 91.1317 194.257 91.6667L194.266 91.6648ZM272.031 143.286C272.008 143.581 272.008 143.877 272.031 144.172C273.125 150.034 274.235 155.893 275.322 161.757C275.489 162.652 276.027 162.896 276.855 162.894C282.872 162.878 288.887 162.867 294.903 162.894C295.91 162.894 296.35 162.552 296.535 161.528C297.529 156.015 298.607 150.518 299.628 145.01C299.96 143.223 299.887 143.156 298.095 143.152C289.97 143.138 281.846 143.134 273.721 143.139C273.183 143.141 272.635 143.233 272.021 143.288L272.031 143.286ZM275.546 113.623C274.996 115.508 274.526 116.96 274.147 118.434C272.861 123.434 271.782 128.465 272.422 133.675C272.702 135.938 273.095 138.278 274.804 139.908C278.318 143.261 279.945 143.029 282.19 139.068C283.825 136.178 283.802 132.918 282.841 129.904C281.569 125.909 279.845 122.041 278.191 118.189C277.557 116.716 276.577 115.391 275.537 113.625L275.546 113.623ZM290.041 142.214C290.317 142.206 290.592 142.178 290.865 142.13C294.386 141.116 295.894 138.412 296.575 135.119C297.426 131.01 296.979 126.91 296.117 122.864C295.482 119.888 294.65 116.952 293.907 113.999C291.07 117.79 288.923 121.702 287.455 125.938C286.334 129.159 285.575 132.471 286.031 135.929C286.326 138.178 287.256 140.09 289.193 141.681C291.078 136.778 291.633 131.852 292.057 126.885C292.772 132.113 291.758 137.106 290.031 142.216L290.041 142.214ZM58.4973 153.235C58.4973 151.538 58.5164 149.839 58.4973 148.14C58.4704 146.376 57.9337 145.806 56.2068 145.783C53.7469 145.749 51.2871 145.749 48.8273 145.783C46.8549 145.81 46.2952 146.309 46.2627 148.222C46.2071 151.567 46.1937 154.915 46.2627 158.259C46.3087 160.667 47.9877 162.272 50.3952 162.361C51.5778 162.405 52.7624 162.401 53.945 162.372C56.8738 162.301 58.4781 160.646 58.5011 157.718C58.4992 156.222 58.4896 154.731 58.4896 153.244L58.4973 153.235ZM284.267 104.265L283.627 104.181C282.362 108.676 281.032 113.155 279.882 117.681C279.646 118.615 279.92 119.777 280.248 120.734C280.98 122.872 282.05 124.901 282.703 127.062C283.754 130.525 284.691 134.139 283.363 137.666C282.64 139.584 283.426 140.408 284.674 141.329C285.076 141.628 285.519 141.873 286.042 142.205L287.277 140.661C285.628 138.329 285.168 135.829 285.345 133.194C285.661 128.314 287.556 123.923 289.588 119.579C289.816 119.09 290.119 118.469 290 118.009C288.728 113.186 286.796 108.562 284.26 104.267L284.267 104.265ZM173.288 162.524C173.288 161.757 173.374 161.181 173.276 160.639C172.327 155.381 171.348 150.128 170.365 144.813C168.971 145.434 168.039 147.497 166.115 145.469C165.444 146.447 164.237 147.411 164.357 148.153C165.09 152.612 166.1 157.028 167.106 161.436C167.206 161.87 167.892 162.436 168.344 162.472C169.91 162.604 171.503 162.526 173.276 162.526L173.288 162.524ZM221.195 56.6725C220.294 55.9458 219.443 55.1174 218.463 54.4942C215.995 52.9217 213.558 51.2592 210.946 49.959C203.064 46.0395 194.862 45.027 186.431 48.0165C178.9 50.6877 173.895 55.6428 173.115 63.946C172.847 66.8013 173.073 69.6988 173.073 72.5847L173.473 72.6346C173.736 70.6729 174.094 68.7188 174.24 66.7495C174.706 60.5614 176.866 55.2938 182.381 51.9591C191.226 46.6129 200.425 46.0567 209.771 50.5056C213.639 52.3541 217.336 54.5824 221.183 56.6745L221.195 56.6725ZM59.7297 157.996C62.5454 157.655 64.2993 155.503 64.052 152.89C63.8239 150.487 61.9244 148.684 59.7297 148.853V157.996ZM91.128 150.008C90.0719 150.155 89.4624 150.307 88.8509 150.309C87.9884 150.309 87.4862 150.74 87.7277 151.517C87.906 152.092 88.4484 152.842 88.941 152.938C89.6904 153.085 90.6181 152.888 91.3158 152.533C91.7663 152.305 92.2359 151.488 92.1592 151.02C92.0826 150.552 91.3408 150.197 91.128 150.008ZM89.0943 146.203C88.136 146.203 87.1891 146.341 87.2447 147.526C87.2696 148.08 87.7699 148.972 88.203 149.06C88.9372 149.223 89.8131 148.97 90.5702 148.713C90.9191 148.596 91.3599 148.04 91.3369 147.714C91.3101 147.3 90.9268 146.79 90.5434 146.546C90.16 146.303 89.585 146.307 89.0943 146.203ZM87.5974 154.284C87.7986 155.016 87.9232 156.23 88.1724 156.257C89.2531 156.336 90.3395 156.235 91.3868 155.956C91.6417 155.895 91.9618 155.053 91.8334 154.713C91.7049 154.374 91.0878 154.069 90.6699 154.048C89.8189 154.011 88.9544 154.165 87.5974 154.284ZM88.8547 160.34L91.2488 158.512C90.8309 158.24 90.2904 157.653 90.0144 157.755C89.2477 158.033 87.835 156.967 87.7354 158.629C87.7104 159.064 88.3142 159.544 88.8547 160.34ZM163.202 141.86L162.929 141.984C163.213 143.302 163.504 144.617 163.832 146.178L165.588 144.73L163.202 141.86ZM280.579 142.163H284.543L282.421 140.159C281.835 140.795 281.287 141.39 280.579 142.159V142.163Z" fill="#4A00E0"/>
<path d="M93.1113 93.2085H52.6334C48.4165 93.2085 46.9004 91.6745 46.9004 87.4097C46.9004 69.9954 46.9004 52.5805 46.9004 35.1649C46.9004 31.0593 48.5047 29.439 52.5759 29.4409C73.0723 29.4549 93.5681 29.469 114.063 29.4831C120.655 29.4831 127.247 29.4486 133.836 29.439C137.52 29.439 139.251 31.1514 139.251 34.8082C139.251 52.4808 139.251 70.1533 139.251 87.8258C139.251 91.5441 137.597 93.2105 133.884 93.2105C120.296 93.2194 106.705 93.2188 93.1113 93.2085ZM93.0883 91.9276H112.543C119.648 91.9276 126.755 91.9238 133.863 91.9161C136.903 91.9161 137.973 90.8461 137.973 87.8393C137.98 70.168 137.98 52.498 137.973 34.8293C137.973 31.8494 136.823 30.7122 133.867 30.7103C125.579 30.7103 117.291 30.7103 109.003 30.7103C90.1039 30.7103 71.2041 30.7103 52.3037 30.7103C49.3634 30.7103 48.1827 31.8877 48.1789 34.8274C48.1712 39.4092 48.1712 43.9903 48.1789 48.5708C48.1789 61.6104 48.1789 74.6469 48.1789 87.6801C48.1789 90.8633 49.2465 91.9237 52.457 91.9237L93.0883 91.9276Z" fill="#4A00E0"/>
<path d="M252.892 51.8344C252.892 47.8075 252.852 43.7997 252.93 39.7842C252.966 39.0429 253.264 38.3383 253.77 37.7957C264.272 27.456 282.013 27.5327 292.427 37.9549C292.859 38.4284 293.108 39.0401 293.13 39.6807C293.178 47.4565 293.159 55.2324 293.165 63.0082C293.165 67.4896 290.955 70.8454 287.677 73.5972C283.589 77.0297 278.789 79.1179 273.731 80.6539C273.289 80.7861 272.819 80.7921 272.374 80.6712C266.718 78.9338 261.364 76.6097 257.04 72.4102C254.253 69.7064 252.741 66.4656 252.871 62.4847C252.976 58.9429 252.892 55.3877 252.892 51.8344ZM291.885 52.2927C291.885 48.3252 291.909 44.3558 291.858 40.3883C291.858 39.7862 291.666 38.998 291.262 38.6183C286.746 34.3996 281.342 31.8838 275.236 31.3526C267.881 30.7121 261.36 33.1302 255.633 37.7727C254.592 38.6145 254.113 39.5177 254.127 40.9099C254.196 48.1238 254.222 55.3417 254.127 62.5557C254.081 66.1588 255.434 69.0582 257.939 71.5089C261.794 75.2789 266.551 77.4534 271.588 79.0776C272.445 79.3538 273.599 79.4152 274.39 79.0642C278.141 77.4055 282.009 75.8772 285.467 73.7141C289.684 71.0813 292.274 67.2557 291.919 61.8768C291.71 58.6956 291.883 55.4893 291.879 52.2927H291.885Z" fill="#4A00E0"/>
<path d="M53.4 121.808C53.6338 122.191 53.929 122.575 54.0958 122.993C55.2458 125.892 55.3244 128.788 54.0574 131.691C53.5035 132.96 52.9975 134.257 52.5604 135.57C51.9375 137.449 51.7937 139.352 52.7675 141.235L52.4167 141.448C52.0966 141.156 51.6941 140.918 51.4583 140.567C49.5511 137.589 49.0796 134.483 50.7012 131.21C51.2935 130.011 52.0429 128.849 52.3822 127.58C52.7809 126.126 52.8269 124.575 53.007 123.064C53.0281 122.691 53.0281 122.317 53.007 121.944L53.4 121.808ZM51.0577 136.447C52.1043 133.515 53.1048 130.694 54.1073 127.894L53.6894 127.752C52.5604 130.55 50.3868 133.016 51.0577 136.447Z" fill="#4A00E0"/>
<path d="M44.6664 127.79C42.9931 127.664 42.3203 127.056 42.3184 125.911C42.3184 124.814 43.0103 124.203 44.0684 124.199C45.2184 124.199 46.0024 124.91 45.8337 126.011C45.7244 126.726 44.9788 127.342 44.6664 127.79Z" fill="#4A00E0"/>
<path d="M45.9028 115.155C45.7954 116.267 45.2511 116.912 44.147 116.919C42.9644 116.919 42.3299 116.229 42.3223 115.113C42.3223 114.045 42.9797 113.387 44.0473 113.387C45.2012 113.38 45.7992 114.068 45.9028 115.155Z" fill="#4A00E0"/>
<path d="M20.6912 116.931C19.6159 116.847 19.0274 116.246 19.0063 115.149C18.9853 114.018 19.6485 113.391 20.7123 113.385C21.8623 113.385 22.5312 114.053 22.5044 115.238C22.4776 116.359 21.8125 116.887 20.6912 116.931Z" fill="#4A00E0"/>
<path d="M45.9302 103.826C45.8171 105.42 45.2862 106.087 44.1706 106.108C43.0551 106.129 42.3535 105.513 42.3363 104.459C42.319 103.404 42.9535 102.449 44.1169 102.641C44.8453 102.76 45.4721 103.508 45.9302 103.826Z" fill="#4A00E0"/>
<path d="M32.9315 124.128C33.2478 124.577 33.9742 125.192 34.1295 125.929C34.3518 126.976 33.658 127.693 32.5271 127.723C31.3464 127.756 30.6679 127.102 30.6583 125.94C30.6506 124.847 31.3157 124.256 32.9315 124.128Z" fill="#4A00E0"/>
<path d="M22.7633 125.53C22.4854 126.989 21.9966 127.695 20.8638 127.721C19.6946 127.748 19.0333 127.137 19.0103 125.946C18.9873 124.795 19.6965 124.088 20.7124 124.231C21.4427 124.335 22.0829 125.073 22.7633 125.53Z" fill="#4A00E0"/>
<path d="M34.47 114.864C34.1078 116.306 33.55 116.937 32.4383 116.914C31.3611 116.893 30.696 116.323 30.7132 115.205C30.7305 114.087 31.4052 113.244 32.5245 113.449C33.2318 113.577 33.8279 114.369 34.47 114.864Z" fill="#4A00E0"/>
<path d="M34.2439 103.891C34.1002 105.529 33.5079 106.145 32.4 106.108C31.2155 106.072 30.6079 105.353 30.6749 104.204C30.7344 103.099 31.4876 102.401 32.5188 102.643C33.2319 102.812 33.8242 103.579 34.2439 103.891Z" fill="#4A00E0"/>
<path d="M22.5195 104.221C22.4773 105.45 21.9272 106.1 20.8097 106.106C19.6271 106.106 19.0061 105.441 19.0137 104.271C19.0137 103.134 19.6942 102.58 20.7829 102.595C21.8716 102.61 22.4409 103.264 22.5195 104.221Z" fill="#4A00E0"/>
<path d="M121.666 12.0308C122.488 12.9378 123.308 13.8467 124.228 14.865L127.226 12.4565L127.531 12.8151L124.662 15.4211L127.057 18.3799L126.716 18.6733L124.121 15.8334L121.154 18.2457L120.822 17.843L123.722 15.3137L121.301 12.3357C121.424 12.2379 121.545 12.1343 121.666 12.0308Z" fill="#4A00E0"/>
<path d="M95.7019 103.999L99.4051 103.025C99.4472 103.157 99.4875 103.289 99.5297 103.424L95.8706 104.614C96.1926 105.903 96.4974 107.107 96.8002 108.325L96.3613 108.451L95.2476 104.729L91.6403 105.613C91.602 105.495 91.5617 105.376 91.5215 105.257L95.0502 104.143L94.1858 100.365L94.5365 100.271L95.7019 103.999Z" fill="#4A00E0"/>
<path d="M187.053 1.27734C190.12 2.88045 192.715 5.23717 196.339 3.88143L196.738 4.71558C196.462 4.75009 196.186 4.80187 195.908 4.81146C195.552 4.81146 195.161 4.69832 194.84 4.81146C191.622 5.86421 189.677 3.36175 187.283 2.12682C187.198 2.07313 187.204 1.85262 187.053 1.27734Z" fill="#4A00E0"/>
<path d="M253.576 86.2513C253.121 87.1929 252.705 88.0558 252.287 88.9168L251.981 88.8132L253.033 86.0289L250.35 84.6751C250.39 84.5734 250.432 84.4699 250.472 84.3664L253.275 85.4766L254.628 82.792L254.946 82.9243L253.823 85.7163L256.506 87.0088L256.399 87.3309L253.576 86.2513Z" fill="#4A00E0"/>
<path d="M198.198 11.8987C197.02 10.3512 195.942 8.93407 194.762 7.37891C196.312 7.72024 198.298 10.3358 198.198 11.8987Z" fill="#4A00E0"/>
<path d="M197.547 20.8655C198.162 19.1396 198.751 17.4943 199.343 15.8433C200.046 17.2738 199.134 19.9373 197.547 20.8655Z" fill="#4A00E0"/>
<path d="M210.032 8.29541L214.684 10.98L214.351 11.5553L209.674 8.88412L210.032 8.29541Z" fill="#4A00E0"/>
<path d="M173.652 1.76623L169.179 4.69437L168.822 4.14786L173.294 1.21777L173.652 1.76623Z" fill="#4A00E0"/>
<path d="M221.883 17.5728L217.857 14.0502L218.296 13.5459L222.345 17.0666L221.883 17.5728Z" fill="#4A00E0"/>
<path d="M177.719 0H183.028V0.429539H177.717C177.717 0.28572 177.717 0.141902 177.719 0Z" fill="#4A00E0"/>
<path d="M162.508 11.7356L165.626 7.34814L166.163 7.72015C165.127 9.18391 164.089 10.6477 163.05 12.1114L162.508 11.7356Z" fill="#4A00E0"/>
<path d="M200.878 4.85156L205.968 6.47384C205.909 6.67519 205.848 6.87846 205.777 7.07981L200.701 5.50547L200.878 4.85156Z" fill="#4A00E0"/>
<path d="M187.363 6.38379C186.269 8.18824 185.37 9.6667 184.471 11.1471C184.03 9.8086 185.285 7.55927 187.363 6.38379Z" fill="#4A00E0"/>
<path d="M194.03 23.2642C192.339 24.3265 190.589 24.3073 188.828 23.711L188.811 23.2642H194.03Z" fill="#4A00E0"/>
<path d="M184.211 15.6245C184.681 17.2864 185.15 18.9483 185.618 20.6103C184.167 19.2047 183.831 17.4788 184.211 15.6245Z" fill="#4A00E0"/>
<path d="M225.326 20.3706L227.975 24.1444L227.469 24.5164L224.785 20.7963L225.326 20.3706Z" fill="#4A00E0"/>
<path d="M164.02 177.803H25.9068C19.524 177.803 13.1432 177.818 6.76232 177.791C5.8902 177.801 5.02123 177.685 4.18238 177.446C2.66048 176.978 1.79028 175.972 1.84203 174.246C1.9072 172.033 1.89186 169.814 1.84203 167.599C1.80753 165.964 2.57422 164.915 4.08462 164.514C5.17163 164.221 6.292 164.069 7.41785 164.063C32.8569 164.04 58.296 164.035 83.7351 164.046C85.2264 164.046 86.7195 164.061 88.2088 164C89.4451 163.948 90.6642 163.705 91.245 165.3C91.3676 165.636 92.0826 165.833 92.5599 165.943C93.0371 166.052 93.5834 165.994 94.0932 165.994C120.1 165.994 146.104 165.99 172.105 165.983C173.158 165.947 174.184 166.322 174.965 167.03C176.131 167.95 177.502 168.573 178.961 168.848C184.428 169.912 189.906 169.86 195.347 168.512C196.148 168.335 196.966 168.251 197.786 168.263C209.01 168.165 220.235 168.104 231.457 167.991C234.16 167.964 236.782 167.457 239.189 166.136C239.55 165.944 240.036 165.806 240.228 165.496C241.257 163.835 242.862 164.038 244.445 164.04C262.672 164.052 280.898 164.056 299.122 164.052C306.329 164.052 313.534 164.04 320.739 164.052C321.614 164.039 322.487 164.125 323.342 164.307C325.33 164.769 326.072 165.768 326.083 167.82C326.095 169.83 326.083 171.847 326.083 173.849C326.083 176.173 325.23 177.233 322.949 177.684C322.34 177.781 321.722 177.819 321.105 177.797C293.605 177.797 266.106 177.797 238.608 177.797H164.02V177.803Z" fill="#ECECEC"/>
<path d="M187.531 99.8472V102.1C187.836 102.398 188.1 102.733 188.319 103.097C190.983 108.29 196.615 109.684 201.685 108.083C205.564 106.852 208.755 104.53 211.217 101.283C211.92 100.355 212.691 99.9776 213.825 100.018C220.837 100.256 227.419 102.039 232.226 107.305C234.787 110.112 236.422 113.878 238.042 117.41C241.246 124.404 242.534 131.927 243.408 139.516C243.456 139.929 243.073 140.667 242.72 140.801C238.53 142.353 234.365 143.99 229.788 144.111C228.391 144.147 228.122 143.687 227.998 142.385C227.58 138.046 226.976 133.723 226.428 129.395C226.378 128.993 226.309 128.536 226.083 128.224C225.891 127.949 225.45 127.84 225.125 127.66C224.977 127.953 224.68 128.262 224.709 128.536C224.81 129.405 224.973 130.266 225.195 131.112C226.51 136.262 226.485 141.503 226.232 146.751C226.148 148.497 225.849 150.23 225.696 151.973C225.588 153.124 225.165 153.762 223.873 154.015C214.262 155.9 204.617 157.181 194.777 157.083C190.125 157.036 185.446 157.626 180.817 158.234C177.892 158.618 176.907 159.373 174.848 161.268C174.764 160.598 174.714 160.077 174.628 159.563C174.225 157.135 174.2 154.56 173.326 152.314C171.13 146.663 172.038 141.192 173.564 135.675C173.702 135.179 173.947 134.688 173.947 134.189C173.957 133.806 173.679 133.411 173.528 133.022C173.192 133.271 172.648 133.459 172.554 133.779C171.979 135.697 171.262 137.628 171.084 139.597C170.852 142.126 169.719 143.816 167.335 145.087C165.707 143.016 163.775 141.029 162.449 138.696C161.613 137.225 161.732 135.229 161.343 133.486C160.394 129.227 159.39 124.981 158.441 120.722C158.341 120.271 158.282 119.629 158.519 119.311C161.586 115.19 164.573 110.983 167.887 107.059C170.708 103.717 174.568 102.039 178.929 101.446C181.712 101.04 184.474 100.413 187.531 99.8472Z" fill="#ECECEC"/>
<path d="M88.0018 144.721C86.4799 137.539 84.8737 130.203 83.3901 122.839C82.8361 120.091 84.9235 117.853 87.8676 117.853C93.1195 117.828 98.3714 117.853 103.623 117.853C119.84 117.853 136.058 117.853 152.276 117.853C155.477 117.853 156.817 118.985 157.482 122.143C160.234 135.183 162.995 148.222 165.762 161.262C166.192 163.291 166.721 163.718 168.814 163.738C170.102 163.749 171.388 163.726 172.676 163.747C173.09 163.778 173.501 163.834 173.909 163.914C173.909 164.09 173.909 164.267 173.909 164.445C173.273 164.541 172.634 164.605 171.992 164.637C151.759 164.645 131.525 164.645 111.29 164.637C105.421 164.637 99.5521 164.612 93.683 164.66C92.5445 164.66 92.0097 164.359 91.887 163.16C91.7548 161.851 90.8961 160.566 92.1477 159.3C92.4122 159.034 92.2263 158.322 92.2493 157.814C92.2627 157.494 92.1458 157.047 92.3126 156.871C93.2709 155.889 93.5067 154.88 92.7477 153.666C92.6461 153.503 92.8243 153.131 92.9297 152.882C93.0486 152.6 93.3131 152.364 93.3725 152.081C93.4588 151.639 93.614 150.93 93.4032 150.759C91.7375 149.446 93.4645 146.874 91.5842 145.802C90.6009 145.252 89.3799 145.122 88.0018 144.721ZM125.277 140.934C125.205 139.389 124.524 137.937 123.383 136.895C120.976 134.699 117.272 135.716 116.573 138.897C116.324 140.202 116.396 141.549 116.782 142.82C117.449 145.1 119.768 146.498 121.744 146.121C123.843 145.72 125.273 143.772 125.277 140.934Z" fill="#ECECEC"/>
<path d="M179.752 167.609L176.202 166.842C178.204 162.836 181.801 161.626 185.595 160.478C183.409 159.203 178.418 161.979 175.579 165.753L175.137 165.722C175.234 164.905 175.137 163.997 175.466 163.289C176.362 161.35 177.968 160.088 180.067 159.782C183.827 159.233 187.603 158.687 191.393 158.455C197.448 158.085 203.541 158.228 209.577 157.676C214.737 157.204 219.839 156.088 224.957 155.199C226.803 154.878 227.587 154.017 227.861 152.081C228.096 150.401 228.125 148.692 228.373 147.014C228.442 146.556 228.907 145.883 229.302 145.793C233.538 144.815 237.797 143.935 242.223 142.991C242.339 143.429 242.4 143.88 242.403 144.334C242.146 149.465 242.072 154.621 241.5 159.72C241.006 164.154 239.451 165.561 235.024 166.321C232.636 166.705 230.222 166.898 227.803 166.896C217.715 166.98 207.628 166.909 197.542 167.047C195.312 167.078 193.102 167.939 190.866 168.041C187.536 168.192 184.193 168.022 180.856 167.954C180.473 167.954 180.09 167.721 179.706 167.596C180.09 167.343 180.557 167.157 180.856 166.829C182.877 164.629 185.096 162.771 188.163 162.227C188.387 162.188 188.571 161.916 189.162 161.44C188.27 161.44 187.833 161.362 187.436 161.452C184.153 162.192 181.769 164.257 179.739 166.806C179.618 166.955 179.747 167.329 179.752 167.609ZM186.185 168.079C187.406 167.053 188.36 166.054 189.497 165.352C190.634 164.65 191.939 164.263 193.169 163.736C190.369 163.114 186.38 165.673 186.189 168.079H186.185Z" fill="#ECECEC"/>
<path d="M194.256 91.6668C195.972 91.1318 197.543 90.685 199.075 90.1327C199.376 90.0234 199.524 89.4942 199.742 89.1586C199.359 89.172 198.939 89.0704 198.628 89.218C196.096 90.4184 193.507 90.6083 190.81 89.8739C186.785 88.7808 184.513 85.9735 183.254 82.2035C182.871 81.0529 182.418 80.167 181.073 79.9024C180.759 79.841 180.264 78.8592 180.406 78.5601C181.711 75.8754 181.418 73.0546 181.328 70.2435C181.328 70.0383 181.357 69.8312 181.357 69.626C181.357 67.5166 181.887 65.95 184.329 65.3804C185.777 65.0429 187.063 64.0074 188.537 63.2231C193.649 69.3901 200.526 71.8523 208.609 71.7833L207.651 74.4909C209.793 74.2416 208.917 71.0795 211.415 71.6951C211.446 73.6011 210.794 75.1084 209.172 76.2551C208.634 76.6386 208.118 77.3539 208.009 77.9809C207.516 80.8573 206.719 83.5976 204.979 85.9926C204.847 86.1505 204.741 86.3286 204.666 86.52C203.133 91.2775 205.278 96.9498 209.552 99.5021C209.77 99.6325 209.981 99.7744 210.474 100.077C209.22 101.32 208.203 102.745 206.832 103.598C204.588 104.994 202.232 106.417 199.709 107.111C195.09 108.39 190.34 105.431 188.976 100.837C188.859 100.453 189.056 99.6632 189.347 99.5059C192.414 97.8491 194.226 95.456 194.189 91.8566C194.172 91.7377 194.287 91.5997 194.256 91.6668ZM188.734 85.1105C190.739 84.936 192.087 84.1997 192.922 82.7116C193.097 82.4048 192.934 81.9062 192.922 81.4959C192.542 81.6204 192.171 81.7723 191.812 81.9503C190.843 82.5256 189.896 83.1182 188.937 83.7126C188.554 83.9466 188.199 84.2016 187.829 84.4451L188.734 85.1105ZM188.473 67.2002L188.686 67.6892L189.581 67.0813C189.311 66.7803 189.006 66.1916 188.774 66.2203C187.392 66.4007 186.023 66.6671 184.674 67.018C184.483 67.0698 184.418 67.672 184.291 68.0171C184.646 68.067 185.029 68.228 185.351 68.1456C186.405 67.8771 187.435 67.5281 188.473 67.2002ZM189.505 72.1284L187.435 70.3815C187.078 70.9146 186.355 71.5321 186.453 71.9616C186.601 72.6059 187.323 73.1122 187.795 73.6874L189.505 72.1284Z" fill="#ECECEC"/>
<path d="M272.021 143.288C272.635 143.233 273.183 143.141 273.729 143.141C281.855 143.141 289.979 143.145 298.103 143.154C299.885 143.154 299.958 143.225 299.636 145.012C298.614 150.52 297.528 156.017 296.542 161.53C296.351 162.554 295.917 162.9 294.911 162.896C288.895 162.869 282.88 162.88 276.863 162.896C276.033 162.896 275.495 162.654 275.33 161.759C274.243 155.895 273.133 150.036 272.039 144.174C272.01 143.88 272.004 143.584 272.021 143.288Z" fill="#ECECEC"/>
<path d="M275.536 113.625C276.577 115.391 277.556 116.716 278.187 118.191C279.841 122.053 281.564 125.911 282.837 129.905C283.795 132.92 283.82 136.18 282.185 139.07C279.941 143.031 278.313 143.263 274.8 139.909C273.09 138.279 272.692 135.94 272.417 133.677C271.771 128.467 272.851 123.435 274.142 118.436C274.516 116.962 274.986 115.51 275.536 113.625Z" fill="#ECECEC"/>
<path d="M290.031 142.216C291.756 137.106 292.772 132.113 292.048 126.889C291.624 131.856 291.068 136.782 289.184 141.685C287.246 140.092 286.309 138.18 286.021 135.933C285.565 132.481 286.324 129.163 287.446 125.942C288.92 121.706 291.061 117.794 293.897 114.003C294.641 116.956 295.473 119.892 296.107 122.868C296.97 126.914 297.417 131.014 296.565 135.123C295.885 138.416 294.377 141.12 290.855 142.134C290.583 142.181 290.308 142.209 290.031 142.216Z" fill="#ECECEC"/>
<path d="M58.4905 153.244C58.4905 154.738 58.4905 156.23 58.4905 157.724C58.4675 160.661 56.8632 162.307 53.9344 162.378C52.7518 162.406 51.5672 162.41 50.3846 162.366C47.9695 162.278 46.2981 160.673 46.2521 158.264C46.1907 154.92 46.2041 151.572 46.2521 148.228C46.2846 146.31 46.8443 145.815 48.8167 145.789C51.2752 145.757 53.7351 145.757 56.1962 145.789C57.9212 145.812 58.4598 146.381 58.4867 148.145C58.5116 149.844 58.4867 151.543 58.4867 153.24L58.4905 153.244Z" fill="#ECECEC"/>
<path d="M284.259 104.267C286.792 108.56 288.721 113.181 289.992 118.001C290.111 118.461 289.801 119.083 289.58 119.572C287.548 123.921 285.653 128.312 285.336 133.187C285.164 135.821 285.62 138.322 287.268 140.654L286.034 142.197C285.511 141.866 285.076 141.622 284.666 141.321C283.418 140.401 282.632 139.576 283.354 137.658C284.683 134.132 283.738 130.517 282.695 127.054C282.042 124.897 280.97 122.868 280.24 120.726C279.912 119.767 279.638 118.617 279.874 117.673C281.024 113.148 282.354 108.661 283.619 104.173L284.259 104.267Z" fill="#ECECEC"/>
<path d="M173.276 162.525C171.503 162.525 169.911 162.604 168.333 162.477C167.881 162.441 167.195 161.875 167.095 161.442C166.089 157.031 165.079 152.621 164.346 148.159C164.226 147.413 165.433 146.448 166.104 145.474C168.021 147.505 168.96 145.44 170.353 144.818C171.337 150.134 172.316 155.386 173.265 160.644C173.363 161.181 173.276 161.756 173.276 162.525Z" fill="#ECECEC"/>
<path d="M221.184 56.6746C217.337 54.5825 213.639 52.3542 209.762 50.5076C200.416 46.0588 191.217 46.6149 182.371 51.9611C176.857 55.2958 174.704 60.5635 174.231 66.7515C174.083 68.7209 173.725 70.6749 173.464 72.6366L173.064 72.5868C173.064 69.7104 172.838 66.8033 173.106 63.948C173.886 55.6448 178.891 50.6898 186.422 48.0186C194.855 45.029 203.055 46.0415 210.937 49.9611C213.549 51.2612 215.985 52.9238 218.454 54.4962C219.432 55.1194 220.283 55.9478 221.184 56.6746Z" fill="#ECECEC"/>
<path d="M59.7188 157.998V148.855C61.9134 148.686 63.8129 150.489 64.041 152.892C64.2844 155.513 62.5345 157.655 59.7188 157.998Z" fill="#ECECEC"/>
<path d="M91.1289 150.008C91.3416 150.2 92.0872 150.554 92.1601 151.02C92.2329 151.486 91.7767 152.305 91.3167 152.533C90.619 152.888 89.6913 153.086 88.9418 152.938C88.4492 152.842 87.9068 152.085 87.7285 151.517C87.487 150.75 87.9892 150.313 88.8518 150.309C89.4632 150.307 90.0727 150.155 91.1289 150.008Z" fill="#ECECEC"/>
<path d="M89.0938 146.203C89.5864 146.307 90.1557 146.291 90.5505 146.546C90.9454 146.801 91.3096 147.3 91.3326 147.722C91.3556 148.048 90.9147 148.604 90.5659 148.721C89.8088 148.978 88.9328 149.231 88.1987 149.068C87.7693 148.972 87.2691 148.08 87.2403 147.534C87.1886 146.341 88.1297 146.211 89.0938 146.203Z" fill="#ECECEC"/>
<path d="M87.5977 154.284C88.9547 154.165 89.8192 154.006 90.6645 154.048C91.0823 154.069 91.7129 154.384 91.8279 154.713C91.9429 155.043 91.6362 155.895 91.3813 155.956C90.3341 156.235 89.2477 156.336 88.1669 156.257C87.9235 156.23 87.7989 155.016 87.5977 154.284Z" fill="#ECECEC"/>
<path d="M88.8549 160.34C88.3143 159.548 87.7048 159.068 87.7355 158.629C87.8352 156.967 89.2401 158.033 90.0145 157.755C90.2982 157.653 90.831 158.24 91.2489 158.512L88.8549 160.34Z" fill="#ECECEC"/>
<path d="M163.202 141.856L165.588 144.732L163.832 146.18C163.497 144.619 163.213 143.304 162.93 141.986L163.202 141.856Z" fill="#ECECEC"/>
<path d="M280.58 142.159C281.287 141.392 281.836 140.795 282.422 140.155L284.544 142.159H280.58Z" fill="#ECECEC"/>
<path d="M93.089 91.9278H52.454C49.2434 91.9278 48.1758 90.8673 48.1758 87.6841C48.1758 74.6445 48.1758 61.6081 48.1758 48.5748C48.1758 43.9931 48.1758 39.4119 48.1758 34.8314C48.1758 31.8918 49.3603 30.7144 52.3006 30.7144C71.2023 30.7144 90.1021 30.7144 109 30.7144C117.288 30.7144 125.576 30.7144 133.864 30.7144C136.827 30.7144 137.968 31.8534 137.97 34.8333C137.97 52.5046 137.97 70.1746 137.97 87.8433C137.97 90.8501 136.9 91.9143 133.86 91.9201C126.753 91.9354 119.646 91.9393 112.54 91.9316H93.089V91.9278Z" fill="#ECECEC"/>
<path d="M93.1774 71.9652C82.266 71.9652 71.3545 71.9652 60.4431 71.9652C58.0223 71.9652 56.9048 73.0295 56.8416 75.3996C56.7917 77.3057 56.7879 79.2137 56.8416 81.1179C56.9086 83.3078 58.0759 84.4545 60.2419 84.4564C82.1235 84.4679 104.006 84.4679 125.889 84.4564C128.139 84.4564 129.276 83.2867 129.323 81.0047C129.356 79.3575 129.335 77.7084 129.333 76.0593C129.333 72.947 128.363 71.9575 125.308 71.9575C114.597 71.9601 103.887 71.9626 93.1774 71.9652Z" fill="#ECECEC"/>
<path d="M93.0348 65.0619C103.896 65.0619 114.758 65.0619 125.619 65.0619C128.201 65.0619 129.296 63.9861 129.334 61.4185C129.361 59.6658 129.359 57.915 129.334 56.1643C129.302 53.7059 128.169 52.5649 125.729 52.5649C103.951 52.5649 82.1726 52.5649 60.3944 52.5649C58.0292 52.5649 56.9155 53.6618 56.8446 56.0569C56.7967 57.7041 56.814 59.3551 56.8235 61.0024C56.8408 64.0705 57.8337 65.0581 60.9062 65.06L93.0348 65.0619Z" fill="#ECECEC"/>
<path d="M291.88 52.2927C291.88 55.4894 291.71 58.6956 291.921 61.8807C292.275 67.25 289.678 71.0852 285.469 73.718C282.019 75.8811 278.143 77.4094 274.392 79.0681C273.6 79.419 272.446 79.3576 271.59 79.0815C266.552 77.4592 261.795 75.2828 257.941 71.5128C255.435 69.0621 254.082 66.1627 254.128 62.5595C254.216 55.3455 254.189 48.1277 254.128 40.9137C254.115 39.5216 254.594 38.6126 255.635 37.7765C261.362 33.1341 267.883 30.716 275.237 31.3565C281.344 31.8876 286.747 34.4035 291.263 38.6222C291.668 39.0057 291.852 39.79 291.859 40.3921C291.903 44.3558 291.878 48.3252 291.88 52.2927ZM265.337 49.4164C262.27 50.5669 261.899 51.1211 261.887 54.3791C261.887 57.3648 261.872 60.3505 261.887 63.3362C261.908 65.6219 263.125 66.9796 265.349 67.0122C270.441 67.0697 275.534 67.0697 280.629 67.0122C282.772 66.9873 284.079 65.6258 284.1 63.48C284.148 60.0283 284.125 56.5766 284.1 53.125C284.089 51.5104 283.318 50.2965 281.768 49.8651C280.773 49.587 280.644 49.0539 280.629 48.2044C280.598 46.5093 280.719 44.7681 280.368 43.1343C279.571 39.4334 275.927 37.0133 272.126 37.416C268.601 37.7881 265.491 41.0902 265.324 44.7144C265.276 46.3022 265.337 47.8918 265.337 49.4202V49.4164Z" fill="#ECECEC"/>
<path d="M51.0583 136.446C50.3912 133.016 52.5648 130.55 53.69 127.752L54.1078 127.894C53.1015 130.703 52.101 133.514 51.0583 136.446Z" fill="#ECECEC"/>
<path d="M125.277 140.933C125.277 143.771 123.843 145.727 121.744 146.111C119.768 146.494 117.449 145.091 116.782 142.811C116.396 141.539 116.324 140.193 116.573 138.887C117.273 135.706 120.982 134.69 123.383 136.885C123.949 137.402 124.408 138.026 124.733 138.721C125.058 139.415 125.243 140.167 125.277 140.933ZM124.248 141.357C124.265 139.334 123.149 137.547 121.505 136.914C120.23 136.423 119.178 136.793 118.298 137.741C117.104 139.025 116.956 141.217 117.886 142.949C118.772 144.584 120.326 145.424 121.79 145.058C123.226 144.703 124.232 143.188 124.248 141.355V141.357Z" fill="#4A00E0"/>
<path d="M179.753 167.609C179.753 167.329 179.619 166.955 179.753 166.788C181.783 164.24 184.162 162.175 187.451 161.434C187.849 161.344 188.286 161.423 189.176 161.423C188.585 161.898 188.409 162.171 188.177 162.209C185.11 162.748 182.891 164.606 180.87 166.811C180.566 167.143 180.104 167.329 179.72 167.578L179.753 167.609Z" fill="#4A00E0"/>
<path d="M186.189 168.079C186.381 165.672 190.374 163.114 193.174 163.736C191.944 164.263 190.631 164.656 189.502 165.352C188.373 166.048 187.407 167.051 186.189 168.079Z" fill="#4A00E0"/>
<path d="M188.735 85.1103L187.832 84.4449C188.202 84.2013 188.564 83.9463 188.94 83.7124C189.898 83.1179 190.847 82.5158 191.815 81.9501C192.174 81.7721 192.544 81.6202 192.925 81.4956C192.925 81.906 193.095 82.4046 192.925 82.7114C192.087 84.1994 190.74 84.9358 188.735 85.1103Z" fill="#4A00E0"/>
<path d="M188.473 67.2001C187.435 67.5223 186.405 67.877 185.353 68.1455C185.031 68.228 184.648 68.0669 184.293 68.017C184.418 67.6719 184.475 67.0697 184.676 67.018C186.025 66.667 187.394 66.4006 188.776 66.2203C189.006 66.1915 189.313 66.7802 189.583 67.0813L188.688 67.6891L188.473 67.2001Z" fill="#4A00E0"/>
<path d="M189.506 72.1302L187.802 73.6892C187.325 73.114 186.602 72.6077 186.46 71.9634C186.362 71.5339 187.085 70.9164 187.442 70.3833L189.506 72.1302Z" fill="#4A00E0"/>
<path d="M93.1777 71.9653C103.887 71.9653 114.597 71.9653 125.306 71.9653C128.373 71.9653 129.331 72.9548 129.331 76.067C129.331 77.7162 129.354 79.3653 129.322 81.0125C129.274 83.2964 128.137 84.4642 125.887 84.4642C104.004 84.4757 82.1219 84.4757 60.2403 84.4642C58.0744 84.4642 56.9071 83.3136 56.84 81.1257C56.7806 79.2215 56.7844 77.3135 56.84 75.4074C56.9033 73.0372 58.0207 71.9749 60.4416 71.973C71.353 71.9615 82.2644 71.9615 93.1758 71.973L93.1777 71.9653ZM93.0589 83.2024C103.869 83.2024 114.68 83.2024 125.49 83.2024C127.514 83.2024 128.036 82.6655 128.049 80.6309C128.059 79.0853 128.049 77.5398 128.049 75.9942C128.049 73.6681 127.606 73.2424 125.23 73.2424H81.9916C74.8357 73.2424 67.6799 73.2424 60.524 73.2424C58.6494 73.2424 58.1453 73.7506 58.1147 75.6279C58.0878 77.2253 58.0993 78.8226 58.1147 80.4219C58.13 82.7652 58.5708 83.1986 60.938 83.2005L93.0589 83.2024Z" fill="#4A00E0"/>
<path d="M93.0348 65.0604H60.9062C57.8394 65.0604 56.8408 64.0766 56.8235 61.0027C56.814 59.3555 56.7967 57.7045 56.8446 56.0573C56.9155 53.6622 58.0292 52.5653 60.3944 52.5653C82.1726 52.5577 103.951 52.5577 125.729 52.5653C128.169 52.5653 129.302 53.7159 129.334 56.1646C129.355 57.9154 129.357 59.6662 129.334 61.4189C129.296 63.9846 128.201 65.0623 125.619 65.0623C114.758 65.0674 103.896 65.0668 93.0348 65.0604ZM93.075 53.8309C82.2646 53.8309 71.4547 53.8309 60.6455 53.8309C58.6885 53.8309 58.1538 54.3487 58.1269 56.2835C58.102 57.879 58.1116 59.4763 58.1269 61.0775C58.1442 63.3575 58.5697 63.7832 60.8487 63.7832C68.1566 63.7832 75.4652 63.7832 82.7744 63.7832H124.918C127.778 63.7832 128.05 63.5033 128.048 60.5732C128.048 59.2865 128.048 57.9998 128.048 56.7112C128.048 54.2566 127.621 53.8348 125.186 53.8348L93.075 53.8309Z" fill="#4A00E0"/>
<path d="M265.338 49.4205C265.338 47.8864 265.277 46.3025 265.35 44.7205C265.517 41.0962 268.627 37.7941 272.152 37.4221C275.948 37.0194 279.591 39.4394 280.394 43.1403C280.745 44.7741 280.624 46.5153 280.655 48.2105C280.67 49.06 280.799 49.5931 281.794 49.8711C283.344 50.3064 284.115 51.5202 284.126 53.131C284.149 56.5827 284.172 60.0344 284.126 63.486C284.096 65.6318 282.798 66.9933 280.655 67.0182C275.563 67.0796 270.469 67.0796 265.375 67.0182C263.151 66.9914 261.925 65.628 261.913 63.3422C261.888 60.3565 261.9 57.3708 261.913 54.3851C261.902 51.1252 262.285 50.5691 265.338 49.4205ZM279.359 50.8126C279.359 48.732 279.442 46.7282 279.34 44.7339C279.149 41.0444 276.178 38.448 272.524 38.6819C269.224 38.8929 266.713 41.5813 266.621 45.0733C266.569 47.0043 266.621 48.9372 266.621 50.8261C263.383 51.177 263.171 51.4128 263.171 54.5174C263.171 57.3516 263.171 60.1858 263.171 63.0181C263.171 65.0584 263.826 65.7469 265.825 65.7564C270.562 65.7756 275.299 65.7756 280.036 65.7564C282.25 65.7449 282.834 65.1198 282.844 62.8417C282.857 60.0593 282.844 57.2807 282.844 54.4963C282.848 51.4493 282.637 51.2115 279.359 50.8126Z" fill="#4A00E0"/>
<path d="M124.248 141.355C124.233 143.187 123.227 144.702 121.791 145.058C120.327 145.423 118.772 144.583 117.887 142.949C116.949 141.223 117.105 139.026 118.299 137.741C119.179 136.793 120.231 136.423 121.505 136.914C123.15 137.547 124.266 139.334 124.248 141.355Z" fill="#ECECEC"/>
<path d="M93.0577 83.2026H60.9368C58.5696 83.2026 58.1288 82.7673 58.1134 80.424C58.1039 78.8285 58.0924 77.2312 58.1134 75.63C58.1441 73.7527 58.6482 73.2483 60.5228 73.2445C67.6787 73.2356 74.8345 73.2356 81.9904 73.2445H125.236C127.613 73.2445 128.05 73.6702 128.056 75.9962C128.056 77.5418 128.056 79.0874 128.056 80.633C128.042 82.6675 127.521 83.2026 125.497 83.2045C114.681 83.2083 103.868 83.2077 93.0577 83.2026ZM112.164 78.0251L112.129 78.3395L113.197 78.6329C113.065 78.9896 112.938 79.3348 112.814 79.6799L113.044 79.818L113.853 78.9187L114.704 79.8334L114.924 79.7087C114.815 79.3559 114.704 79.003 114.587 78.6349L116.086 78.2245L114.495 77.8103C114.656 77.4076 114.792 77.0663 114.926 76.7268L114.702 76.5811L113.849 77.513L113.053 76.5888L112.773 76.8016L113.251 77.8621L112.164 78.0251ZM96.55 78.6003L96.2165 79.7087L96.4523 79.8334L97.2458 78.886L98.0125 79.8276L98.2463 79.7029L97.9339 78.6502L99.4673 78.096L97.8553 77.8467L98.3 76.7384L98.0432 76.5773L97.2381 77.4939L96.4312 76.5811L96.1897 76.7096L96.5538 77.8601L95.4728 78.1113L95.4901 78.3645L96.55 78.6003ZM88.1777 78.6003L87.9342 79.7279L88.1623 79.8218L88.8792 78.9244L89.7398 79.8276L89.9717 79.6819C89.8471 79.3386 89.7206 78.9954 89.5884 78.654L91.1218 78.1075L89.527 77.8544C89.6823 77.4172 89.8069 77.0624 89.9315 76.7038L89.6171 76.5696C89.3852 76.8937 89.1533 77.2197 88.9271 77.5399L88.0799 76.5811L87.8039 76.7882L88.285 77.8084L87.1349 78.1612L87.1694 78.399L88.1777 78.6003ZM81.6607 76.7479L81.3943 76.5773C81.1394 76.886 80.8825 77.1947 80.5452 77.6051C80.3535 77.1967 80.1733 76.7997 79.9912 76.4009L79.5408 76.7633C79.6788 77.1295 79.8187 77.4939 79.9567 77.8582L78.8393 78.1209C78.8393 78.2034 78.8393 78.2859 78.8393 78.3683L79.8877 78.6425L79.5657 79.7125L79.7976 79.8353L80.5912 78.888C80.8921 79.2504 81.1336 79.5438 81.377 79.8353L81.655 79.6435C81.517 79.3022 81.377 78.9628 81.239 78.6233L82.345 78.3491L82.3565 78.0902L81.2064 77.8199L81.6607 76.7479ZM73.0794 79.8353L73.3228 79.6953C73.2059 79.329 73.0909 78.9608 72.9893 78.6406L74.0531 78.2724L74.0052 78.027L72.8992 77.8601C73.0603 77.4153 73.1868 77.0624 73.3133 76.7096L72.9932 76.5581L72.3012 77.5169L71.4694 76.5926L71.1991 76.7978C71.3486 77.143 71.4981 77.4881 71.6476 77.8371L70.557 78.1075V78.3587L71.5671 78.6502C71.4521 79.051 71.3582 79.3789 71.2662 79.7068L71.5192 79.8199L72.2437 78.9206L73.0794 79.8353ZM74.6914 78.0692L74.7144 78.4086L75.7629 78.6003L75.3929 79.7183L75.6344 79.8525L76.4011 78.9187L77.2522 79.8334L77.4822 79.6703C77.3557 79.329 77.2292 78.9896 77.0988 78.6559L78.2125 78.2724C78.1895 78.1785 78.1684 78.0807 78.1454 77.9924L77.0298 77.8601C77.1908 77.4095 77.3174 77.0509 77.4439 76.6923L77.1429 76.56C76.9148 76.8707 76.6848 77.1794 76.451 77.4958L75.5635 76.56L75.3028 76.7767C75.4658 77.1161 75.6306 77.4555 75.807 77.8237L74.6914 78.0692ZM102.494 76.8131L102.277 76.5926L101.382 77.4459L100.575 76.6003L100.324 76.7921C100.468 77.1468 100.612 77.5015 100.752 77.8505L99.6877 78.1113V78.3702L100.721 78.6463C100.583 79.0299 100.462 79.3731 100.338 79.7145L100.56 79.841L101.394 78.9417L102.204 79.8564C102.295 79.7988 102.385 79.7413 102.473 79.6819C102.335 79.3367 102.197 78.9915 102.055 78.6502L103.142 78.3069L103.082 78.0212L101.965 77.8908L102.494 76.8131ZM83.6369 79.5956L83.8956 79.841L84.7409 78.9302L85.5766 79.8372L85.8028 79.7106L85.475 78.6253L86.5446 78.2839L86.5062 78.0366L85.3754 77.8697C85.5172 77.4613 85.6514 77.0816 85.7855 76.7019L85.5115 76.5696L84.7543 77.5437L83.9512 76.5715L83.6695 76.7633C83.8247 77.1334 83.9819 77.5035 84.1295 77.8525L83.0197 78.1171L83.0408 78.3798L84.1371 78.6233L83.6369 79.5956ZM110.331 77.8697L110.774 76.7192L110.54 76.5773L109.62 77.5361L109.078 76.4047L108.649 76.7882L109.087 77.8218L108.012 78.1037L108.033 78.3568L109.024 78.6233C108.896 79.051 108.796 79.3904 108.696 79.724L108.93 79.8334L109.71 78.886L110.525 79.8199L110.795 79.6282L110.372 78.6118L111.455 78.3242L111.435 78.0749L110.331 77.8697ZM91.9786 79.6665L92.3006 79.8583C92.5498 79.538 92.8009 79.2178 93.0424 78.911L93.8953 79.8372L94.1426 79.6569C94.018 79.3137 93.8934 78.9704 93.7726 78.6349L94.8173 78.2916C94.8077 78.2091 94.7962 78.1248 94.7866 78.0423L93.7228 77.8505C93.8646 77.4172 93.9816 77.0509 94.1062 76.6847L93.8186 76.5562L93.0922 77.515L92.2488 76.5734L91.9824 76.7805L92.4348 77.8371L91.3403 78.1305C91.3499 78.2322 91.3595 78.3223 91.371 78.4316L92.4769 78.5754C92.2872 78.9838 92.1338 79.3252 91.9786 79.6665ZM104.46 79.6416L104.8 79.8334L105.53 78.8746L106.314 79.8334L106.546 79.7202C106.458 79.3367 106.37 78.9685 106.293 78.6349L107.215 78.3127L104.424 76.6367C104.616 77.141 104.759 77.5054 104.88 77.8237L103.385 78.2801L104.919 78.6387L104.46 79.6416Z" fill="#ECECEC"/>
<path d="M93.0679 53.8305H125.187C127.621 53.8305 128.041 54.2562 128.049 56.7069C128.049 57.9955 128.049 59.2822 128.049 60.5689C128.049 63.499 127.778 63.779 124.919 63.779H82.7635C75.4555 63.779 68.147 63.779 60.8378 63.779C58.5588 63.779 58.1332 63.3532 58.116 61.0732C58.1045 59.4778 58.0949 57.8804 58.116 56.2792C58.1467 54.3444 58.6776 53.8267 60.6346 53.8267C71.4476 53.8267 82.2587 53.8279 93.0679 53.8305ZM97.9518 60.4328L98.2949 60.241C98.155 59.9054 98.017 59.5679 97.8751 59.2266L99.3855 58.7146L97.9 58.4135C98.0265 57.9706 98.1224 57.6465 98.2182 57.3052L97.9671 57.1786C97.7218 57.4912 97.4745 57.8018 97.2292 58.1125L96.4318 57.1844L96.2018 57.3128L96.5391 58.3963L95.4868 58.6724V58.9217L96.5775 59.2017C96.4299 59.6408 96.3206 59.9687 96.2114 60.2966L96.4644 60.4289L97.2426 59.4701L97.9518 60.4328ZM71.6233 59.171L71.2304 60.3215L71.4949 60.4481L72.2788 59.4548L73.0455 60.4481L73.3081 60.3043L72.9248 59.1786L74.0135 58.9447V58.6839L72.9497 58.4231C73.0609 58.0511 73.174 57.6791 73.2851 57.3071L72.9919 57.1633L72.2846 58.1221L71.4815 57.1959L71.2611 57.3071C71.355 57.6522 71.4527 57.9974 71.5505 58.379L70.1033 58.8527L71.6233 59.171ZM77.1186 58.404L77.4176 57.3071L77.18 57.192L76.4324 58.0684L75.6006 57.1767L75.3495 57.3224C75.4798 57.6906 75.6121 58.0607 75.7328 58.3905L74.6614 58.7433C74.6729 58.8258 74.6863 58.9102 74.6997 58.9926L75.7827 59.1672L75.3686 60.3005L75.6792 60.4424L76.4612 59.4279C76.6529 59.8441 76.8445 60.2276 77.0362 60.6092L77.4732 60.2544C77.3391 59.8939 77.2049 59.5334 77.0784 59.1902L78.1978 58.8814L78.1728 58.6264L77.1186 58.404ZM81.3451 60.4366L81.6805 60.2161L81.2051 59.2074L82.3667 58.8968L82.3226 58.6226L81.2492 58.4193C81.3911 57.984 81.5003 57.6522 81.6096 57.3052L81.37 57.1786L80.6033 58.0933L79.8098 57.1997L79.597 57.3071C79.6909 57.6522 79.7887 57.9974 79.8883 58.3905L78.8514 58.6705C78.8514 58.753 78.8514 58.8354 78.8514 58.9179L79.9267 59.1825C79.8117 59.5526 79.6947 59.9227 79.5797 60.2947L79.8251 60.4097C80.0838 60.0972 80.3445 59.7865 80.6129 59.4663L81.3451 60.4366ZM105.523 59.474L106.345 60.4328L106.644 60.2295C106.491 59.8977 106.336 59.5679 106.175 59.2209L107.309 58.9562L107.321 58.7012L106.261 58.4174C106.355 58.0473 106.453 57.6752 106.541 57.3052L106.269 57.2074C106.046 57.5027 105.822 57.7999 105.569 58.1393C105.345 57.704 105.155 57.3397 104.967 56.9734L104.496 57.3646L104.879 58.4097L103.792 58.6878L103.804 58.9409L104.879 59.1902C104.758 59.5737 104.639 59.9438 104.52 60.3139L104.772 60.4481L105.523 59.474ZM113.19 58.3905L112.103 58.774C112.118 58.8546 112.136 58.9351 112.153 59.0176L113.232 59.1652C113.073 59.6235 112.96 59.9534 112.849 60.2832L113.094 60.4174L113.861 59.5027L114.674 60.4424L114.942 60.2506L114.503 59.2247L116.084 58.7395L114.551 58.4097C114.67 57.9955 114.764 57.6618 114.859 57.3282L114.614 57.215L113.897 58.1048L113.044 57.2016L112.809 57.332C112.929 57.6772 113.056 58.0223 113.186 58.3848L113.19 58.3905ZM83.9346 57.1729L83.6739 57.3358L84.0573 58.4097L82.9858 58.7587C82.9992 58.8412 83.0126 58.9236 83.0241 59.0061L84.1014 59.1748C83.9423 59.6139 83.8158 59.9649 83.6893 60.3254L84.0074 60.4654L84.7013 59.5353L85.5523 60.427L85.7843 60.2947C85.6597 59.9227 85.537 59.5507 85.4258 59.2132L86.48 58.8776C86.4666 58.799 86.4532 58.7204 86.4379 58.6398L85.4469 58.4481C85.5447 58.0377 85.6386 57.6676 85.7191 57.2975L85.4795 57.1997L84.7645 58.101L83.9346 57.1729ZM108.948 57.1863L108.64 57.3627L109.023 58.3886L107.559 58.8853L109.054 59.1978C108.916 59.6197 108.801 59.9649 108.687 60.31L108.9 60.4212L109.701 59.5507L110.537 60.4519L110.809 60.2352L110.34 59.2055L111.438 58.9409V58.6801L110.367 58.4327L110.735 57.2994L110.505 57.1748L109.711 58.0933C109.441 57.775 109.195 57.4797 108.944 57.1844L108.948 57.1863ZM102.485 57.3953L102.197 57.1729L101.389 58.0799L100.578 57.1805L100.329 57.3531L100.695 58.3905L99.6654 58.7376L99.6941 58.9888L100.743 59.1806L100.344 60.2889L100.566 60.4136L101.385 59.5372L102.192 60.4424L102.458 60.2506C102.322 59.9093 102.188 59.5679 102.052 59.2247L103.52 58.7069L101.987 58.4174L102.485 57.3953ZM92.4335 59.1614L92.029 60.312L92.33 60.4347L93.0353 59.5123L93.8787 60.4193L94.1087 60.2909C93.9879 59.9073 93.8691 59.543 93.7541 59.1863L94.8064 58.8968C94.8064 58.8105 94.793 58.7242 94.7872 58.6398L93.7273 58.4212L94.1106 57.3109L93.8039 57.1844C93.572 57.4873 93.3382 57.7903 92.9452 58.2966C92.7746 57.8076 92.6194 57.3684 92.4641 56.9274L91.9696 57.3915L92.4296 58.404L91.3486 58.7299L91.3735 58.9754L92.4335 59.1614ZM87.1451 58.7069L90.0759 60.3829L89.5507 59.2189L90.6892 58.8987L90.6375 58.6264L89.5583 58.4346C89.7078 57.9955 89.8229 57.6676 89.9417 57.3205L89.7117 57.1901L88.8453 58.1681L88.3335 56.9351L87.8371 57.3608C87.9649 57.7059 88.0927 58.0537 88.2204 58.404L87.1451 58.7069Z" fill="#ECECEC"/>
<path d="M279.358 50.8125C282.636 51.2113 282.847 51.4491 282.849 54.5038C282.849 57.2862 282.858 60.0648 282.849 62.8492C282.849 65.1273 282.254 65.7524 280.041 65.7639C275.304 65.7857 270.567 65.7857 265.83 65.7639C263.831 65.7639 263.183 65.0659 263.175 63.0256C263.164 60.1933 263.175 57.3591 263.175 54.5249C263.175 51.4203 263.38 51.1845 266.625 50.8335C266.625 48.937 266.583 46.9984 266.625 45.0808C266.717 41.5888 269.228 38.9004 272.529 38.6894C276.182 38.4555 279.161 41.0519 279.345 44.7414C279.441 46.728 279.358 48.7357 279.358 50.8125ZM278.743 50.87C278.743 48.9045 278.8 47.0156 278.731 45.1345C278.684 43.7059 278.101 42.3476 277.098 41.3296C276.095 40.3117 274.746 39.7087 273.318 39.6406C270.382 39.4833 267.658 41.5716 267.344 44.5093C267.124 46.5765 267.302 48.6859 267.302 50.87H278.743ZM272.993 62.4273H273.918C275.887 62.4273 275.852 62.3775 275.452 60.3928C275.218 59.2307 275.394 57.9862 275.164 56.8241C275.011 56.0417 274.649 55.0695 274.054 54.6764C273.524 54.3236 272.329 54.3638 271.823 54.7512C271.26 55.1827 271.018 56.176 270.865 56.9679C270.7 57.8328 270.965 58.7916 270.75 59.6334C269.987 62.667 269.951 62.4408 273 62.4273H272.993Z" fill="#ECECEC"/>
<path d="M112.163 78.025L113.248 77.862L112.771 76.8016L113.051 76.5887L113.846 77.513L114.699 76.5811L114.923 76.7268C114.789 77.0662 114.653 77.4075 114.492 77.8102L116.083 78.2244L114.584 78.6348C114.701 79.003 114.812 79.3558 114.922 79.7087L114.701 79.8333L113.85 78.9186L113.041 79.818L112.811 79.6799C112.938 79.3347 113.064 78.9896 113.195 78.6329L112.127 78.3395L112.163 78.025Z" fill="#4A00E0"/>
<path d="M96.5499 78.6041L95.4899 78.3663L95.4727 78.1132L96.5537 77.862L96.1895 76.7114L96.431 76.5829L97.238 77.4957L98.043 76.5791L98.2999 76.7402L97.8552 77.8485L99.4672 78.0978L97.9338 78.652L98.2443 79.7009L98.0104 79.8256L97.2437 78.8841L96.4502 79.8314L96.2144 79.7067L96.5499 78.6041Z" fill="#4A00E0"/>
<path d="M88.1778 78.5983L87.1849 78.4065L87.1504 78.1688L88.3004 77.8159L87.8193 76.7958L88.0953 76.5887L88.9426 77.5475C89.1687 77.2272 89.4007 76.9012 89.6326 76.5771L89.9469 76.7114C89.8223 77.0681 89.6978 77.4228 89.5425 77.862L91.1372 78.1151L89.6038 78.6616C89.7284 79.0029 89.8549 79.3462 89.9872 79.6894L89.7553 79.8352L88.8946 78.932L88.1778 79.8294L87.9497 79.7354L88.1778 78.5983Z" fill="#4A00E0"/>
<path d="M81.6557 76.746L81.2148 77.8179L82.3649 78.0883L82.3534 78.3472L81.2474 78.6214C81.3854 78.9608 81.5254 79.3003 81.6634 79.6416L81.3854 79.8333C81.142 79.5419 80.9005 79.2485 80.5996 78.886L79.806 79.8333L79.5741 79.7106L79.8961 78.6406L78.8477 78.3664C78.8477 78.2839 78.8477 78.2015 78.8477 78.119L79.9651 77.8563C79.8271 77.4919 79.6872 77.1276 79.5492 76.7614L79.9996 76.3989C80.1817 76.7978 80.3657 77.1947 80.5536 77.6032C80.8909 77.1928 81.1478 76.8841 81.4027 76.5754L81.6557 76.746Z" fill="#4A00E0"/>
<path d="M73.0751 79.8335L72.2451 78.9207L71.5206 79.82L71.2676 79.7069C71.3596 79.379 71.4592 79.0511 71.5685 78.6503L70.5469 78.3646V78.1134L71.6375 77.843C71.488 77.494 71.3385 77.1488 71.189 76.8037L71.4592 76.5985L72.2911 77.5228L72.9831 76.564L73.3032 76.7155C73.1767 77.0702 73.0501 77.4231 72.8891 77.866L73.9951 78.0328L74.043 78.2783L72.9792 78.6465C73.0808 78.9667 73.1958 79.3349 73.3127 79.7011L73.0751 79.8335Z" fill="#4A00E0"/>
<path d="M74.6855 78.0749L75.8164 77.8467C75.6401 77.4785 75.4752 77.1391 75.3123 76.7997L75.573 76.583L76.4605 77.5188C76.6943 77.2024 76.9243 76.8937 77.1524 76.583L77.4533 76.7153C77.3268 77.0739 77.2003 77.4325 77.0393 77.8831L78.1549 78.0154C78.1779 78.1094 78.1989 78.2072 78.2219 78.2954L77.1083 78.6789C77.231 79.0126 77.3575 79.352 77.4917 79.6933L77.2617 79.8564L76.4106 78.9417L75.6439 79.8755L75.4024 79.7413L75.7723 78.6233L74.7239 78.4316L74.6855 78.0749Z" fill="#4A00E0"/>
<path d="M102.488 76.8112L101.959 77.8831L103.076 78.0135L103.135 78.2993L102.043 78.6387C102.183 78.9813 102.322 79.3258 102.459 79.6722C102.371 79.7317 102.281 79.7892 102.191 79.8468L101.38 78.9321L100.546 79.8314L100.324 79.7049C100.446 79.3635 100.567 79.0222 100.707 78.6368L99.6738 78.3606V78.1018L100.738 77.841C100.598 77.492 100.454 77.1372 100.31 76.7824L100.561 76.5907L101.368 77.4364L102.263 76.583L102.488 76.8112Z" fill="#4A00E0"/>
<path d="M83.6309 79.5934L84.1311 78.6211L83.0348 78.3776L83.0137 78.1149L84.1235 77.8502C83.9759 77.5012 83.8187 77.1312 83.6634 76.7611L83.9452 76.5693L84.7483 77.5415L85.5054 76.5674L85.7795 76.6997C85.6454 77.0832 85.5112 77.4667 85.3694 77.8675L86.5002 78.0343L86.5386 78.2817L85.469 78.623L85.7968 79.7084L85.5706 79.835L84.7349 78.9279L83.8896 79.8388L83.6309 79.5934Z" fill="#4A00E0"/>
<path d="M110.325 77.8677L111.435 78.0748L111.45 78.3375L110.367 78.6252L110.791 79.6415L110.521 79.8333L109.71 78.9032L108.93 79.8505L108.696 79.7412C108.796 79.4056 108.888 79.0681 109.024 78.6405L108.033 78.374L108.012 78.1209L109.087 77.839L108.648 76.8054L109.077 76.4219L109.62 77.5533L110.54 76.5945L110.774 76.7364L110.325 77.8677Z" fill="#4A00E0"/>
<path d="M91.98 79.6665C92.1352 79.3252 92.2886 78.9839 92.4726 78.5773L91.3666 78.4335C91.3551 78.3338 91.3455 78.2418 91.3359 78.1325L92.4304 77.8391L91.978 76.7825L92.2445 76.5754L93.0878 77.5169L93.8143 76.5581L94.1018 76.6866C93.983 77.0529 93.866 77.4191 93.7185 77.8525L94.7823 78.0442C94.7918 78.1267 94.8033 78.2111 94.8129 78.2935L93.774 78.6502C93.8948 78.9858 94.0194 79.329 94.144 79.6723L93.8967 79.8525L93.0361 78.9168C92.7946 79.2236 92.5435 79.5438 92.2943 79.864L91.98 79.6665Z" fill="#4A00E0"/>
<path d="M104.46 79.6416L104.912 78.6367L103.379 78.2782L104.874 77.8218C104.753 77.5034 104.613 77.1391 104.418 76.6348L107.218 78.3107L106.296 78.6329C106.373 78.9666 106.461 79.3424 106.549 79.7182L106.317 79.8314L105.533 78.8726L104.803 79.8314L104.46 79.6416Z" fill="#4A00E0"/>
<path d="M97.9512 60.4329L97.2362 59.4741L96.458 60.4329L96.205 60.3006C96.3143 59.9727 96.4235 59.6448 96.5711 59.2057L95.4805 58.9257V58.6764L96.5328 58.4003L96.1954 57.3168L96.4254 57.1884L97.2228 58.1165C97.4681 57.8058 97.7154 57.4952 97.9607 57.1826L98.2118 57.3092C98.116 57.6428 98.0202 57.9746 97.8937 58.4175L99.3791 58.7186L97.8687 59.2306C98.0106 59.5719 98.1486 59.9094 98.2885 60.245L97.9512 60.4329Z" fill="#4A00E0"/>
<path d="M71.6235 59.179L70.1055 58.8549L71.5526 58.3813C71.4491 57.9978 71.3609 57.6545 71.2632 57.3093L71.4836 57.1981L72.2867 58.1243L72.994 57.1655L73.2873 57.3093C73.1761 57.6814 73.0637 58.0534 72.9499 58.4254L74.0156 58.6862V58.947L72.9269 59.1809L73.3103 60.3065L73.0477 60.4504L72.281 59.4571L71.497 60.4504L71.2325 60.3238L71.6235 59.179Z" fill="#4A00E0"/>
<path d="M77.1252 58.4138L78.1775 58.6362L78.2024 58.8913L77.083 59.2C77.2095 59.5432 77.3437 59.9038 77.4779 60.2643L77.0409 60.619C76.8492 60.2355 76.6575 59.852 76.4658 59.4378L75.6838 60.4522L75.3733 60.3103L75.7873 59.177L74.7044 59.0025C74.6909 58.92 74.6775 58.8357 74.666 58.7532L75.7375 58.4004C75.6186 58.0705 75.4864 57.7004 75.3541 57.3323L75.6052 57.1865L76.4371 58.0782L77.1846 57.2019L77.4223 57.3169L77.1252 58.4138Z" fill="#4A00E0"/>
<path d="M81.3434 60.4465L80.615 59.4762C80.3467 59.7964 80.086 60.1071 79.8272 60.4196L79.5819 60.3046C79.6969 59.9326 79.8138 59.5625 79.9288 59.1924L78.8535 58.9277C78.8535 58.8453 78.8535 58.7628 78.8535 58.6804L79.8905 58.4004C79.7851 58.0073 79.6988 57.6621 79.5991 57.317L79.8119 57.2096L80.6054 58.1032L81.3721 57.1885L81.6117 57.315C81.5025 57.6545 81.3932 57.9939 81.2514 58.4292L82.3247 58.6324L82.3688 58.9067L81.2073 59.2173L81.6826 60.226L81.3434 60.4465Z" fill="#4A00E0"/>
<path d="M105.522 59.4743L104.778 60.458L104.527 60.3238C104.646 59.9537 104.765 59.5836 104.886 59.2001L103.81 58.9508L103.799 58.6977L104.886 58.4196L104.502 57.3746L104.957 56.9814C105.148 57.3477 105.34 57.712 105.558 58.1473C105.811 57.8079 106.036 57.5107 106.258 57.2154L106.53 57.3132C106.436 57.6833 106.339 58.0553 106.252 58.4254L107.32 58.6977L107.308 58.9527L106.174 59.2174C106.335 59.5645 106.49 59.8943 106.643 60.226L106.344 60.4293L105.522 59.4743Z" fill="#4A00E0"/>
<path d="M113.186 58.3848C113.056 58.0224 112.93 57.6772 112.803 57.332L113.039 57.2017L113.892 58.1048L114.609 57.2151L114.854 57.3282C114.758 57.6619 114.662 57.9955 114.545 58.4097L116.079 58.7396L114.503 59.2247L114.936 60.2545L114.668 60.4462L113.855 59.5066L113.089 60.4213L112.843 60.2871C112.956 59.9572 113.069 59.6274 113.227 59.1691L112.147 59.0215C112.13 58.939 112.113 58.8585 112.098 58.7779L113.186 58.3848Z" fill="#4A00E0"/>
<path d="M83.9352 57.1729L84.769 58.0914L85.4839 57.1901L85.7235 57.2879C85.6373 57.658 85.5491 58.0281 85.4513 58.4385L86.4423 58.6302C86.4576 58.7108 86.4711 58.7894 86.4845 58.868L85.4303 59.2036C85.5414 59.5411 85.6641 59.9131 85.7887 60.2851L85.5568 60.4174L84.7057 59.5257L84.0119 60.4558L83.6937 60.3158C83.8202 59.963 83.9467 59.612 84.1058 59.1652L83.0286 58.9965C83.0171 58.914 83.0037 58.8316 82.9902 58.7491L84.0617 58.4001L83.6783 57.3263L83.9352 57.1729Z" fill="#4A00E0"/>
<path d="M108.945 57.1844C109.192 57.4797 109.437 57.775 109.7 58.0933L110.51 57.1729L110.741 57.2975L110.372 58.4327L111.444 58.6782V58.9389L110.346 59.2036L110.815 60.2333L110.543 60.45L109.707 59.5488L108.906 60.4193L108.693 60.3081C108.807 59.9629 108.922 59.6178 109.06 59.1959L107.564 58.8834L109.029 58.3867L108.645 57.3608L108.945 57.1844Z" fill="#4A00E0"/>
<path d="M102.485 57.3934L101.993 58.4193L103.526 58.7088L102.045 59.2381C102.181 59.5814 102.315 59.9227 102.451 60.264L102.184 60.4558L101.378 59.5507L100.559 60.427L100.337 60.3024L100.735 59.194L99.687 59.0022L99.6582 58.751L100.687 58.404L100.329 57.3646L100.578 57.192L101.389 58.0914L102.198 57.1729L102.485 57.3934Z" fill="#4A00E0"/>
<path d="M92.4325 59.1598L91.3687 58.9681L91.3438 58.7226L92.4248 58.3966L91.9648 57.3841L92.4593 56.9277C92.6146 57.3688 92.7698 57.8079 92.9404 58.2969C93.3333 57.7907 93.5672 57.4877 93.7991 57.1847L94.1058 57.3113L93.7224 58.4215L94.7824 58.6402C94.7824 58.7245 94.7958 58.8108 94.8016 58.8971L93.7493 59.1867C93.8643 59.5433 93.9831 59.9173 94.1039 60.2912L93.8739 60.4197L93.0343 59.5126L92.329 60.4331L92.028 60.3104L92.4325 59.1598Z" fill="#4A00E0"/>
<path d="M87.1445 58.7069L88.2256 58.4039C88.0978 58.0524 87.97 57.7046 87.8422 57.3608L88.3387 56.9351L88.8504 58.1681L89.7168 57.1901L89.9468 57.3205C89.8299 57.658 89.7149 57.9955 89.5635 58.4346L90.6426 58.6264L90.6944 58.8987L89.5558 59.2208L90.081 60.3848L87.1445 58.7069Z" fill="#4A00E0"/>
<path d="M278.744 50.8701H267.302C267.302 48.6859 267.124 46.5766 267.345 44.5094C267.659 41.5717 270.383 39.4834 273.319 39.6406C274.746 39.7087 276.095 40.3117 277.098 41.3297C278.101 42.3477 278.685 43.706 278.732 45.1346C278.801 47.01 278.744 48.9045 278.744 50.8701ZM268.562 49.6946H273.229C277.776 49.6946 277.776 49.6946 277.446 45.1211C277.389 44.0319 276.931 43.0022 276.162 42.2293C275.393 41.4565 274.365 40.9949 273.277 40.9331C270.977 40.7893 268.868 42.3905 268.592 44.7223C268.418 46.2736 268.562 47.8729 268.562 49.6946Z" fill="#4A00E0"/>
<path d="M273.001 62.427C269.935 62.4404 269.988 62.6667 270.761 59.6331C270.975 58.7912 270.711 57.8325 270.876 56.9676C271.027 56.1757 271.259 55.1823 271.834 54.7509C272.338 54.3674 273.534 54.3232 274.065 54.6761C274.659 55.0596 275.024 56.0414 275.175 56.8238C275.405 57.9859 275.229 59.2304 275.462 60.3924C275.863 62.3771 275.898 62.4212 273.929 62.427H273.001ZM272.269 60.6897C273.751 61.0923 273.971 60.8814 273.735 59.472C273.59 58.6014 273.711 57.6886 273.59 56.8123C273.542 56.4614 273.162 56.1584 272.934 55.8324C272.714 56.0625 272.309 56.2849 272.298 56.5246C272.237 57.9053 272.269 59.2821 272.269 60.6897Z" fill="#4A00E0"/>
<path d="M268.562 49.6943C268.562 47.8802 268.415 46.2809 268.597 44.7219C268.871 42.3901 270.981 40.789 273.281 40.9328C274.37 40.9946 275.397 41.4561 276.167 42.229C276.936 43.0018 277.393 44.0316 277.45 45.1208C277.776 49.6962 277.776 49.6962 273.233 49.6943H268.562Z" fill="#ECECEC"/>
<path d="M272.268 60.6898C272.268 59.2899 272.236 57.9054 272.297 56.5248C272.309 56.2851 272.713 56.0626 272.934 55.8325C273.162 56.1585 273.541 56.4615 273.589 56.8124C273.71 57.6887 273.589 58.6015 273.735 59.4721C273.976 60.8815 273.75 61.0925 272.268 60.6898Z" fill="#ECECEC"/>
</svg>
