<svg width="23" height="19" viewBox="0 0 23 19" fill="none" xmlns="http://www.w3.org/2000/svg">
<path d="M15.5624 13.7887L14.8602 13.5102C14.8404 13.194 15.3876 13.0232 15.0071 12.6539C15.144 12.6221 15.2832 12.601 15.4236 12.5908C15.6004 12.5964 15.7761 12.5618 15.9365 12.4898C16.0968 12.4177 16.2374 12.3103 16.3468 12.1762C16.4729 12.0547 16.6388 11.9795 16.8162 11.9635C17.5712 11.8927 18.3292 11.8558 19.0858 11.8005C19.2067 11.7971 19.3258 11.7717 19.4368 11.7254C19.633 11.6318 19.8041 11.473 20.0076 11.4121C20.211 11.3511 20.4416 11.3766 20.6737 11.3639V10.4821C20.4842 10.4991 20.3315 10.5211 20.1794 10.5247C20.0274 10.5282 19.8614 10.5573 19.7512 10.4935C19.359 10.2695 18.9543 10.3276 18.5393 10.368C17.8974 10.4318 17.2532 10.4786 16.6002 10.4956C17.2091 10.2581 17.7358 9.83994 18.4563 9.8768C19.7049 9.94059 20.9536 9.96115 22.2022 9.99942C22.308 10.003 22.4137 9.99942 22.5254 9.99942C22.4174 9.47987 22.1662 9.19138 21.5948 9.18571C21.146 9.18571 20.6972 9.08719 20.1809 9.02411L20.6282 8.52156L19.4809 8.45422C18.3939 8.39043 17.3061 8.3316 16.219 8.26072C15.9987 8.24583 15.8657 8.28907 15.7783 8.51801C15.6314 8.91849 15.2877 9.09995 14.8595 9.18571C13.8657 9.3856 12.8764 9.611 11.8892 9.83002C11.7482 9.86121 11.613 9.9165 11.4397 9.97178C11.5866 10.5601 11.7232 11.1307 11.8642 11.7013C11.97 12.1266 12.0846 12.5483 12.1815 12.9771C12.3115 13.5491 12.0163 14.0162 11.461 14.1403C10.9057 14.2643 10.4327 13.9659 10.2858 13.3953C9.9788 12.1677 9.66517 10.9407 9.38313 9.70952C9.30968 9.39339 9.3442 9.05529 9.32951 8.73704C8.91819 8.31175 8.48411 7.82622 8.0111 7.38321C7.88109 7.262 7.63504 7.24145 7.43672 7.20459C7.01072 7.12591 7.00925 7.13371 6.79331 6.72473L7.5704 6.33063C7.81719 6.8268 8.27772 6.80341 8.73604 6.80341C9.32363 6.80341 9.9149 6.86224 10.4988 6.81475C11.0394 6.77009 11.3068 7.07204 11.5491 7.42645C11.6615 7.58806 11.7166 7.78723 11.8121 8.00129C11.5183 8.09344 11.2531 8.16574 10.9953 8.26143C10.642 8.39256 10.2895 8.52794 9.94795 8.68671C9.6189 8.83911 9.50726 9.10349 9.59246 9.45222C9.91784 10.7486 10.2351 12.0472 10.5627 13.3429C10.678 13.7965 10.9961 13.9808 11.4309 13.8688C11.8422 13.7639 12.0126 13.4648 11.9046 13.0182C11.6725 12.0642 11.4478 11.1087 11.1914 10.1603C11.118 9.8768 11.1709 9.74425 11.4625 9.67904C12.6061 9.42387 13.7467 9.15736 14.8903 8.90432C15.3656 8.79941 15.6322 8.51305 15.5661 8.04878C15.3097 6.24628 14.6002 4.66493 13.0945 3.49043C12.9902 3.40803 12.8792 3.33384 12.7625 3.26858C12.2792 3.00277 11.8444 3.13957 11.6233 3.6329C11.4022 4.12623 11.1907 4.60964 10.9895 5.10368C10.916 5.28584 10.8132 5.35176 10.6075 5.34538C9.88625 5.3227 9.16351 5.30569 8.44151 5.31703C8.22507 5.32629 8.01383 5.38404 7.82453 5.48573C7.12456 5.85147 6.46866 6.32567 5.60416 6.23919C5.50224 6.23835 5.40037 6.24451 5.29935 6.25762C5.29935 6.86153 5.29347 7.45835 5.30816 8.05375C5.30816 8.10903 5.43009 8.1792 5.50868 8.2111C5.7092 8.29332 5.91706 8.35782 6.13594 8.51447C6.06249 8.53999 5.97141 8.60307 5.90898 8.58535C5.61078 8.49462 5.47343 8.63355 5.39043 8.88163C5.33461 9.05033 5.27952 9.21974 5.20827 9.38276C5.07754 9.68188 5.05697 9.93988 5.46828 10.0661L5.33093 10.3971C3.97212 9.97958 2.74332 10.2964 1.55932 10.8755C1.39406 10.9563 1.30959 11.1902 1.18693 11.3533L1.29417 11.4808C1.49741 11.4319 1.69794 11.373 1.89498 11.3043C2.91225 10.8954 3.95156 10.7961 5.01584 11.0952C5.08415 11.1144 5.14878 11.1434 5.25528 11.1831C5.14217 11.4227 5.09076 11.7013 4.91888 11.8508C4.71249 12.0295 4.45395 12.2052 4.11094 12.1514C2.45393 11.8799 0.943815 12.8432 0.558941 14.4061C0.397892 15.074 0.481552 15.7751 0.795694 16.3902C1.10984 17.0053 1.63507 17.4964 2.28206 17.78C2.93954 18.0703 3.68191 18.1282 4.37912 17.9434C5.07634 17.7586 5.68396 17.3429 6.09554 16.7693C6.49928 16.2053 6.68946 15.5243 6.63408 14.8409C6.5787 14.1575 6.28115 13.5134 5.79146 13.0168C5.14364 12.3711 5.11646 12.1025 5.62767 11.3157C5.89062 11.361 6.06836 11.4631 6.04119 11.7743C6.04529 11.8247 6.06052 11.8737 6.08586 11.9179C6.11119 11.9622 6.14605 12.0007 6.18809 12.0309C6.70884 12.4058 7.04157 12.9055 7.24722 13.4875C7.31113 13.6703 7.4022 13.7157 7.59611 13.6944C8.16681 13.6307 8.73971 13.5754 9.31409 13.5463C9.47721 13.5442 9.63622 13.5957 9.76506 13.6923C10.1918 14.0276 10.5877 14.4011 11.0137 14.7321C11.1612 14.8446 11.3403 14.9116 11.5278 14.9242C12.1389 14.9476 12.7522 14.9405 13.3641 14.9299C13.6145 14.9256 13.9105 15.0341 14.0758 14.7222C14.0912 14.6932 14.1889 14.6889 14.244 14.6967C14.5804 14.747 14.9153 14.8044 15.2723 14.8626C15.2723 15.8365 15.5786 16.6693 16.338 17.3101C16.8724 17.7719 17.5613 18.0326 18.2786 18.0444C19.0076 18.0689 19.7219 17.8417 20.293 17.4036C20.8641 16.9655 21.2545 16.3453 21.3943 15.6543C21.5323 14.9816 21.4258 14.2836 21.0928 13.6778C20.7598 13.0721 20.2206 12.5955 19.5661 12.3286C18.4152 11.8586 16.6377 11.9848 15.5624 13.7887ZM16.4724 14.1367C16.9065 13.1841 18.1192 12.7347 19.1541 13.1203C19.6785 13.3166 20.1036 13.7018 20.3395 14.1946C20.5754 14.6874 20.6039 15.2494 20.4189 15.762C20.2306 16.274 19.8441 16.6956 19.3404 16.9383C18.8368 17.181 18.2553 17.2258 17.7181 17.0634C16.789 16.7799 16.0677 15.7755 16.2771 15.0263C16.673 15.0887 17.0725 15.1383 17.4655 15.2219C17.5991 15.2605 17.7175 15.3374 17.8048 15.4424C18.0714 15.7422 18.4761 15.8159 18.7817 15.5983C18.9196 15.4979 19.0131 15.3508 19.0435 15.1867C19.0739 15.0225 19.0389 14.8533 18.9455 14.713C18.7398 14.4047 18.3336 14.3324 17.9759 14.5301C17.8915 14.5769 17.7681 14.6315 17.6917 14.6053C17.2804 14.4628 16.8779 14.2927 16.4724 14.1367ZM4.02501 13.0487C3.66657 13.5825 3.60782 14.2119 3.08119 14.6152C2.82411 14.8115 2.80649 15.1114 2.96734 15.3906C3.12085 15.6578 3.37204 15.7613 3.68126 15.7096C4.01252 15.655 4.15207 15.4374 4.24609 15.1362C4.4231 14.5691 4.64492 14.0198 4.85719 13.435C5.28338 13.7361 5.57759 14.18 5.68209 14.6796C5.78659 15.1793 5.69383 15.6986 5.42201 16.1356C5.15368 16.5721 4.73 16.8995 4.22998 17.0568C3.72996 17.2141 3.18772 17.1905 2.70439 16.9904C2.21587 16.7871 1.82161 16.418 1.59634 15.9529C1.37107 15.4878 1.33046 14.9591 1.4822 14.467C1.80978 13.4421 2.86084 12.8269 4.02501 13.0487Z" fill="white"/>
<path d="M9.33206 4.15694C10.4206 3.59628 11.479 3.05546 12.5293 2.50117C12.5773 2.47239 12.6178 2.43331 12.6476 2.38696C12.6774 2.34061 12.6958 2.28825 12.7012 2.23394C12.6779 1.81057 12.6244 1.38925 12.5411 0.972973C12.4404 0.518626 12.1004 0.250696 11.6457 0.122402C10.6174 -0.171754 8.97289 0.481768 8.40586 1.43157L10.1371 1.54782C10.1114 1.91215 10.0996 2.26088 10.0526 2.60465C10.0423 2.6812 9.91745 2.75705 9.83225 2.80595C9.57885 2.94772 9.3181 3.07034 9.04487 3.20785L9.33206 4.15694Z" fill="white"/>
<path d="M9.87744 1.70898C9.65048 1.72883 9.31482 1.67921 9.259 1.77987C9.07538 2.10237 9.14662 2.46032 9.34934 2.7807C9.92077 2.54963 9.92665 2.539 9.87744 1.70898Z" fill="white"/>
</svg>
