<svg width="95" height="32" viewBox="0 0 95 32" fill="none" xmlns="http://www.w3.org/2000/svg">
<path d="M85.6881 26.2971C88.1261 25.9555 90.5454 25.7038 92.8406 24.8621C93.1565 24.7482 93.4255 24.5147 93.7215 24.3359L93.6688 24.1161C93.3827 24.0374 93.0926 23.9732 92.7997 23.9236C92.4335 23.8792 92.0615 23.8838 91.693 23.8587C90.2447 23.7596 89.3123 23.0228 88.8538 21.6059L89.4597 21.5387C90.8331 21.3884 92.2054 21.2335 93.58 21.0889C94.069 21.0376 94.2491 20.7779 94.207 20.3178C94.0631 18.7734 93.7262 17.2769 92.9611 15.9056C92.2475 14.6244 91.156 13.7576 89.7698 13.1905C86.7077 11.9537 83.5133 11.0537 80.246 10.5072C77.0254 9.9525 73.772 9.57894 70.5362 9.14046C70.2157 9.09718 69.8835 9.13476 69.5664 9.13476C69.419 9.83861 69.2622 9.94681 68.6118 9.60399C66.5716 8.53227 64.5325 7.45713 62.5286 6.31707C60.5784 5.20548 58.6681 4.0267 56.7624 2.8445C56.264 2.53472 55.8698 2.0689 55.3855 1.73406C55.0732 1.50859 54.7137 1.35303 54.3326 1.27849C52.7194 1.02223 51.105 0.729527 49.4789 0.608801C43.3852 0.153233 37.2856 0.203346 31.1906 0.608801C25.6058 0.976673 20.4701 2.79325 15.5802 5.35013C15.0994 5.60183 14.6127 5.84328 14.1436 6.11548C12.2039 7.23732 10.0772 7.68492 7.85564 7.87626C6.53939 8.00839 5.23095 8.20605 3.93547 8.46849C3.51432 8.54708 3.11658 8.81016 2.74106 9.03225C2.67425 9.08184 2.6209 9.14657 2.58563 9.2208C2.55036 9.29504 2.53423 9.37653 2.53867 9.45821C2.56441 9.5721 2.78784 9.64272 2.93524 9.7122C3.0262 9.74725 3.12287 9.76615 3.22068 9.768C3.75764 9.81242 4.39055 9.7008 4.73449 10.1974C5.28381 10.9947 5.78418 11.823 6.23304 12.6779C6.29153 12.7918 6.0096 13.2269 5.82359 13.2725C5.04899 13.4484 4.26471 13.5811 3.47455 13.6699C3.05224 13.7223 2.61822 13.6847 2.18772 13.7052C1.75721 13.7257 1.61332 13.9456 1.53962 14.3556C1.40508 15.0936 1.1489 15.81 0.994476 16.5457C0.877491 17.0901 0.748788 17.6584 0.799092 18.2017C0.916077 19.4431 1.15005 20.6743 1.30096 21.9123C1.38051 22.549 1.77594 22.9282 2.33863 23.0934C3.28488 23.3833 4.24925 23.6138 5.22582 23.7836C6.87765 24.0489 8.54232 24.2391 10.2047 24.4419C11.2809 24.5717 11.3745 24.4202 11.4763 23.3895C11.7325 20.7278 13.0779 18.6288 15.3146 17.1585C20.8234 13.5367 27.8484 16.1334 29.5306 22.6572C29.7213 23.3986 29.6944 24.1936 29.7845 25.1343L67.311 25.9395C67.3367 25.6445 67.3882 25.2391 67.4069 24.8325C67.4981 22.8462 67.8807 20.9351 69.1254 19.3042C71.3294 16.4159 74.3137 15.1403 77.9601 15.6801C81.8101 16.2496 84.3229 18.4375 85.4062 22.1139C85.7747 23.3667 86.0227 24.6264 85.6858 25.9281C85.674 26.0509 85.6748 26.1745 85.6881 26.2971ZM65.2743 9.85797L65.1806 10.0299C64.8297 10.0299 64.4788 10.0459 64.136 10.0299C58.4139 9.72623 52.6921 9.42595 46.9708 9.12907C46.6046 9.11085 46.4408 8.96734 46.3976 8.63591C46.38 8.50493 46.3425 8.37624 46.3168 8.24527C45.9553 6.45944 45.5903 4.67361 45.2359 2.89234C45.1037 2.23063 45.1786 2.14179 45.8735 2.04954C46.0845 2.012 46.2991 1.99748 46.5133 2.00626C48.0037 2.14976 49.5222 2.17367 50.9752 2.4846C55.1083 3.36612 58.7945 5.25218 62.2514 7.57444C63.3007 8.27146 64.2682 9.09375 65.2743 9.85797ZM43.6039 8.83294H29.3212C29.5026 6.91728 29.6663 5.05059 29.8641 3.18846C29.9249 2.62925 30.3145 2.32059 30.8924 2.27048C31.9394 2.18051 32.9852 2.05751 34.0346 2.02107C36.7194 1.92881 39.4054 1.8787 42.0913 1.80695C42.6201 1.79214 42.888 2.05979 42.957 2.537C43.0681 3.28641 43.1805 4.03695 43.2542 4.79091C43.3852 6.12459 43.4869 7.46168 43.6039 8.8318V8.83294ZM27.46 8.87053C25.924 8.87053 24.3914 8.87053 22.8589 8.86255C22.7935 8.86016 22.7294 8.84467 22.6704 8.81704C22.6114 8.78941 22.5589 8.75024 22.5162 8.70198C22.0237 8.02773 21.5499 7.33527 21.0434 6.61775C22.9292 4.68158 25.3203 3.78867 27.9104 3.04723C27.756 5.04148 27.6121 6.90589 27.46 8.86597V8.87053ZM93.0968 17.4773C93.0088 17.5162 92.9171 17.5467 92.823 17.5685C91.0683 17.5685 89.3217 17.581 87.5716 17.5685C87.48 17.5586 87.3914 17.531 87.311 17.4871C87.2306 17.4433 87.1602 17.3842 87.1037 17.3133C86.7387 16.8464 86.4018 16.3612 86.073 15.8669C85.7677 15.4022 85.825 15.212 86.3889 15.1323C87.6558 14.9524 88.9298 14.7804 90.2061 14.7234C90.445 14.7227 90.6818 14.768 90.9026 14.8568C91.1235 14.9455 91.3241 15.0759 91.493 15.2405C92.0966 15.9034 92.554 16.6983 93.0968 17.4762V17.4773Z" fill="#4A00E0"/>
<path d="M76.7486 17.294C72.2259 17.3008 69.237 20.2415 69.1738 24.591C69.1106 28.8426 73.0144 31.7525 76.7778 31.7138C80.8302 31.6728 84.0602 28.4725 84.0625 24.4635C84.0695 20.0456 80.195 17.0662 76.7486 17.294ZM71.4597 24.427C71.4597 21.5934 73.6695 19.3953 76.5193 19.3827C79.3691 19.3702 81.8375 21.7335 81.807 24.4657C81.7719 27.5909 79.4954 29.379 76.5532 29.5727C73.9094 29.7515 71.455 27.1411 71.4597 24.4304V24.427Z" fill="#4A00E0"/>
<path d="M13.069 24.3643C12.9999 28.2287 16.4066 31.6284 20.4051 31.6853C24.5897 31.7445 27.8161 28.6797 28.0162 24.7037C28.1998 21.0592 24.8868 17.2358 20.6824 17.2757C16.4288 17.3156 13.1427 20.2733 13.069 24.3643ZM25.6613 24.2812C25.6613 27.2287 23.4385 29.5385 20.6145 29.5305C17.6992 29.5236 15.3982 27.3665 15.3853 24.6274C15.3724 21.6776 17.6174 19.4134 20.542 19.4078C23.0256 19.4032 25.8016 21.2551 25.6613 24.2812Z" fill="#4A00E0"/>
</svg>
